<?xml version="1.0" encoding="UTF-8"?><svg id="Calque_1" xmlns="http://www.w3.org/2000/svg" viewBox="0 0 1000 1000"><defs><style>.cls-1{fill:#fff;}</style></defs><g><path class="cls-1" d="m385.93,483.76c-.26,1.87-.11,6.12.6,5.28l.5-7.2-1.1,1.92Z"/><path class="cls-1" d="m390.7,497.11c.83-3.49,1.8-9.63,1.26-16.25-.82,6.93-1.03,4.03-1.91,12.28-.71.84-1.24-2.31-1.12-4.96-.25,1.85-1.1-1.58-1.49,2.94.92,5.57,2.09,5.8,3.31,1.2.26,1.58,0,3.46-.05,4.79Z"/><path class="cls-1" d="m460.03,508.34l-.45-.86c.12.47.27.73.45.86Z"/><path class="cls-1" d="m502.99,512.29c-.33.18-.46.89-.48,1.54.3-.47.55-.91.48-1.54Z"/><path class="cls-1" d="m510.32,520.23c-.16-.23-.29-.33-.43-.49.16.66.33,1.03.43.49Z"/><path class="cls-1" d="m460.03,508.34l1.15,2.26c.08-2.35-.59-1.74-1.15-2.26Z"/><path class="cls-1" d="m400.26,479.73c-.24.35-.44,1.02-.62,1.9.2-.31.39-.57.58-.77.01-.39.02-.73.04-1.13Z"/><path class="cls-1" d="m441.09,514.18h-.35c-.1.83-.2,1.82-.29,2.94l.64-2.94Z"/><path class="cls-1" d="m426.56,515.28c.33.27.44-5.85.57-8.52-.19,2.52-.43,3.72-.72,4.19,0,1.16.04,2.56.15,4.33Z"/><path class="cls-1" d="m403.51,504.52l-.41.84c.11-.27.29-.51.41-.84Z"/><path class="cls-1" d="m451.49,515.5c.03.91.08,1.71.13,2.19,0-.77-.05-1.5-.13-2.19Z"/><path class="cls-1" d="m857.97,469.53c-.01.44,0,.71,0,1.09.09-.62.11-1.05,0-1.09Z"/><path class="cls-1" d="m874.82,499.83l-.23.33c-.03,1.16-.05,2.3-.05,3.43l.28-3.76Z"/><path class="cls-1" d="m523.74,528.07c-.03-.07-.04-.07-.06-.12-.35.7-.15.57.06.12Z"/><path class="cls-1" d="m646.96,523.56c-1.4-5.47,2.27-7.02.17-13.09.2,2.39-1.91,9.54-.17,13.09Z"/><path class="cls-1" d="m400.63,480.53c.2-.07.4-.12.6-.06-.27-.2-.45-.17-.6.06Z"/><path class="cls-1" d="m647.13,510.47v-.05l-.22-.57c.09.25.14.42.22.63Z"/><path class="cls-1" d="m554.67,524.39c-.06-1.08-.19-1.9-.31-2.68.01.63.08,1.39.31,2.68Z"/><path class="cls-1" d="m531.63,515.69l.57.82c-.23-.56-.41-.75-.57-.82Z"/><path class="cls-1" d="m566.63,515.76c.31.47.42,1.31.84.49-.04-.31-.08-.53-.13-.75-.15.84-.36,1.23-.71.25Z"/><path class="cls-1" d="m579.08,515.72c-.07-.47-.15-.82-.23-1.23-.12.12-.27.22-.39.33l.62.9Z"/><path class="cls-1" d="m820.13,472.47c.27,1.72.44,3.62.57,5.5-.19-4.35,1.64-5.9-.57-5.5Z"/><path class="cls-1" d="m400.26,483.17c.07-1.54.18-2.31.37-2.64-.14.07-.28.19-.41.33-.04.91-.04,1.77.05,2.31Z"/><path class="cls-1" d="m567.14,467.49l1.98.9c-.55-.59-1.27-.9-1.98-.9Z"/><path class="cls-1" d="m730.8,473.34l.45-.73c-.17-.14-.34.04-.45.73Z"/><path class="cls-1" d="m574.99,467.49c.35,2.16.73,3.41,1.11,4.23.08-.48.18-.87.23-1.58l-1.34-2.65Z"/><path class="cls-1" d="m820.71,478.03s0-.07,0-.07c0,0,0,.04,0,.07Z"/><path class="cls-1" d="m833.74,463.5c-1.89-.17-.89,7.87-1.29,12.49-2.25,2.28-1.04-5.92-1.81-10.03-1.4,2.13-2.48,9.51-3.53,9.19-.08-1.32-.28-1.81-.04-3.47-1.49,6.39-4.41.31-6.14,8.34-.13-.71-.19-1.39-.23-1.99.28,4.02.32,8.12.27,11.03-.84.14-1.57,5.08-1.89-.18.52.15.56-1.97.8-3.61l-.89,2.29c-.8-7.56,1.21-2.62,1.21-8.21-1.73,2.46-3.74,8.71-5.06,6.57-.28-7.39,3.09-2.49,1.33-9.06l2.05,2.83c-1.56-11.66,1.24.81-.19-11.66-2.69-2.14-3.01,3.77-5.7,1.61-.6,4.11.2,6.07-.41,10.19-3.82,7.38-3.01-18.59-5.81-8.74-.73,4.93-1.01,14.28-3.01,9.33l.68-8.36c-2.61-.82-1.49,12.01-4.22,6.39.48-3.28,2.05-2.77,1.66-3.76-1.77-6.6-1.25,4.74-2.61,4.74l-.28-7.4c-2.78,1.16-5.84,6.51-8.91,7.86.17-2.2.7-4.52-.02-6.78-3.88,3.7-8.28-.9-12.02-5.29l-1.43,6.39c-.33-.07-.62-2.89-.26-4.12-1.46-2.42-.08,4.06-.78,6.56-.83.45-1.1-3.67-.57-5.59-2.57,5.42-7.33,11.67-10.04,4.83l.53-1.9c-2.11-2.59-2.38,13.09-4.34,7.14l.37-1.13c-4.58-2.77-9.64,3.08-13.14-6.56-.67,9.2-4.54-4.1-4.83,8.73-2.62-6.36-1.87-8.65-5.55-12.93-.98-.59-1.47,8.01-2.68,9.35l-.03-6.71-1.65,7.03-.88-8.02-1.14,1.72c.46.4.97,3.01.9,4.95-1.78,3.03-4.35-4.68-4.39-8.11l-4.22,5.67c.09-2.7.8-3.62,1.36-5.35-2.25,6.85-.41-7.07-2.47-.79.28,1.53-.15,4-.2,5.35-1.03-4.06-3.37-4.09-5.1-2.38l.33-4.62c-3.13-1.18-6.59,2.22-10.1,2.13,1.26,2.16.97,10.17-.06,10.94l-.41-7.08c-.67,4.38,1.07,2.67-.29,8.03-1.31-.82-.88-8.06-.13-10.37l-1.59,2.46c-.09-2.12.28-3.24.38-5.94-.65,4.41-2.75-7.12-3.7.53l-.09-2.11c-3.51-.06-5.1,2.38-7.96,2.74-.06,6.12-1.17,4.76-2.02,9.71-2.1-1.95-4.43-6.76-6.96-6.24-1.78,3.05-.52,5.18-1.32,8.82-.13-5.57-2.66-5.05-1.35-9.05-3.04.9-3.88,1.11-7.72,5.64.42,2.29.89,3.27.64,5.18-.7.92-1.59-2.34-1.49-5.02l.18-.57c-4.31,8.36-9.95-16.26-13.39-4.63l.19-.57-3.56,6.06c-1.64-.97.98-4.19-.23-7.64-3.84,9.3-6.07-1.35-9.23,4.85-2.45-16.45-8.69,1.16-12-9.34l.19,3.87c-.85,3.8-1.03-2.22-1.66-3.1.09,3.01.93,3.48.4,5.59-7.24,4.67-14.94-5.66-22.36-9.15-2.71-1.04-1.54,20.04-4.96,10.79l.97-7.19c-5.48,8.63-11.2-.3-16.56,7.02.32-1.66.33-3.82.85-3.79-1.13-5.22-4.19-.25-4.21,4.01-.84-.49-.19-3.86-.71-6.02-1.14-3.08-2.85,6.67-3.45,1.47-.1-.84.32-1.7.53-2.1-.74,2.53-3.45-.64-2.74,5.38-2.01-2.88-3.85,2.68-5.45-.89-1.05,6.74-3.44-3.24-3.78,6.29.14-9.85-3.53-7.94-4.8-3.31.43-2.98-1.11-3.08-.61-7.2-1.45.14-2.78,1.97-2.53,7.02-2.67-11.78-5.38,9.48-6.88-5.62-4.31,5.29-8.3,8.87-12.18,11.18.14-9.82,4.29-.98,4.12-11.29-3.68,4.04-5.8,12.47-9.45,10.1-.95-1.34.54-4.26.86-5.94-3.68,4.04-7.11-.89-10.38,4.45,0-.91.36-1.91.7-2.66-.65.32-1.5-1.43-1.43,3.02l.63-1.21c1.03,6.48-2.56,13.53-2.68,16.95,1.09-12.79-3.23-3.21-1.49-19.37-.43.84-.96,2.95-.86,5.94-.63-.87-.83-2.62-.19-6.01-2.31,2.43-1.49,7.17-3.58,7.07,0-2.16.43-3,.65-5.54-1.06,4.21-2.12,8.43-3.89,6.6.11-1.3-.1-3,.43-2.96-3.04.65-5.18,11.22-8.51,7.15.98-9.39-1.13-3.09-1.31-11.22l-1.79,2.42.72,3.94c-1.57-.14-2.96,5.78-4.3,3.12l1.17-3.35-2.94,1.54,1.66,3.08c-1.59,4.19.17,10.28-1.92,8.02.42-.82-1.57-.1-2.39-4.89,0,0,0,0,0-.02-.78,2.59-1.57,5.32-2.74,3.3-.3-2.6.24-8.99.05-10.71-.77,6.79-3.67,1.88-4.64,9.12.32-1.7.34-5.96.23-6.83l-.64,5.52c-.73-1.77-.83-2.62-.72-6.02-2.19-1.01.69,10.31-1.9,5.87.2-.45.11-1.27.53-2.11-2.61-2.32-5.04,3.5-7.43.79-.71-8.18,2.09-2,1.28-8.9-3.45,1.48-7.15,9.8-10.49,7.88l.62.9c-.46,11.54-2.49-5.7-4.18-.26.41-.86.54-6.41.43-5.12-2.29-1.85-4.68,2.84-8.15,6.47l.43-2.97c-1.35-2.65-3.55-1.53-5.01-2.88-.43,2.96-1.27,2.48-.76,6.79-4.49-16.89-8.57,9.05-12.55-5.01.48-.03,1.13-2.59.76-2.6l-3.39,2.73c.27,5.03.45,3.05,1.16,6.96-.43,2.98-1.39,5.29-2.23,5.29,1.53-3.33-.01-8.08-.67-10.88.11,1.54-.12,3.24-.06,4.81-1.77-8.95-.3,10.12-2.72,4.09l.13-2.64c-.91,1.35-1.74,4.84-2.72,4.09-.41-5.82.97-2.71,1.03-7.5-1.37.34-2.71,11.02-3.95,5.22.58-1.62,1.42-1.65,2-3.26-1.35-6.83-1.51-5.1-2.51-6.18l.1.15-2.32-3.09.59,1.85c-1.72,15.17-3.5,2.77-5.81,12.7,2.25-9.41.37-5.44.54-12.03-.59-1.83-1.49-3.89-1.23-5.74-1.09,5.32-1.83-4.19-3.37,3.59-.07-2.11-1.17-.21-.92-5.54-1.42,1.67.34,3.69.22,6.36-2.19,7.25-5.15-8.79-8.3,1.16-2.72,4.09-3.22,11.25-5.74,14.81-.85-3.4.7-7.73.7-7.73-1.37-3.13-2.41-2.55-3.7-.12.26-1.85,0-3.42-.4-5.8-1.04.55-.69,7.73-2.06,4.6.24-2.36.54-6.15,1.04-8.52-1.22,1.95-2.43,5.91-3.7,7.83-.34-3.7.76-5.61,1.21-8.02-1.42,1.66-3.69,3.35-4.13,9.2l.91,2.09c-.52.29-.27-5.03.12-6.1,1.22-4.59,1.76,2.03,1.83,4.16l-.9,1.36c.93,12.45,3.63-2,5.44-1.28l-.76,9.05,1.86-7.51c.4,2.36.67,7.41-.23,8.77,1.3,4.48,1.15-3.22,2.27,1.77.12.78.07,1.21-.05,1.57l1.27-2.7c-.25,1.9.21,6.39-.57,5.08,2.28,5.22,3.68-6.79,4.54.07l-.19.56c3.17-3.06.31-6.65,2.68-14.45l1.6,16.4.31-6.65c.33.24.97.74.85,3.4,1.22-4.55-.21-2.89.5-7.19,1.57,6.05,4.34-2.83,4.69,7.76.56-5.05-1.51-3.9.17-7.41.48,11.39,1.94-1.95,3.38,3.27-.44,5.88-1.8,2.76-.36,8.01.87-9.94,2.8,2.17,4.01.27.06-7.91,2.64-3.3,4.67-5.93-.13,2.66,3.83,4.34,5.72,7.2l-.06,1.33c.37-7.99,2.32-6.48,3.74-8.14-.06,4.79-.31,6.67-1.08,8.81l1.34-.04c.31-2.56.73-3.91,1.6-4.83l-.34,5.97c1.78-.33,3.58-7.03,5.87-3.05.13-5.57-1.82-15.52.6-19.24.09,3.01.18,8.17-.45,9.4.21-.39.74-2.5,1.16-1.22l-.97,5.07c1.04,2.23.54-4.24,1.38-3.76-.02,4.3.62,3.07.5,6.48-.21.42-.73-1.77-1.05-.09.94.77,2.08,3.32,2.45,6.57-.08-2.44,0-5.79.69-6.34,1.78-.31.61,5.17,1.65,7.38.43-2.99,1.56.11,1.6-6.32.52.03.62,3.03.82,4.77.92-2.84,4.3-.81,3.26-7.65l-.24-.45c.04-.13.1-.14.15-.28h0,0c3.02-6.39,6.27,3.64,9.26.89v2.15c1.78-2.46,3.97-1.45,5.25-6.07.53,0,1.25,3.93,1.02,6.48,1.37-1.61,1.52-4.03,3.49-.48-1.37,3.75.47,3.32-1.41,2.75,1.77,1.85,2.18,5.3,4.08-.57-.65,5.51,1.34,6.93,2.18,5.29l-1.24-3.94c.95-.8,1.78-.31,2.62.15l-.46,7.24c3.63,8.81,6.55-14.99,9.32-.24.96-5.06-1.97-3.57-1.11-9.49,1.67.98,3.41,11.37,3.94,11.39,2.29,4.01,2.14-10.58,4.53-7.84-.31-2.58-.6-9.47,1.19-11.91,1.67.96,2.06,10.84,1,12.91-.4.22-.6-.61-.58-1.48-.54.94-1.25,2.05-.59,4.85l.22-2.58c.83,2.64,3.13,2.36,2.59,6.6,1.26-2.47.54-4.24-.4-5.58,2.15,3.74,3.35.11,5.56,2.62-.35-1.42-.67-4.46-.33-4.43,3.24,3.2,1.43-4.9,3.62-6.03,1.25,3.94-.45,9.4,1.76,6.1,1.35,2.67.29,6.85-.25,8.96,2.01-4.98,3.76,3.27,4.91,4.19l-1.06,2.08c.63-1.24,1.15-1.2,1.68-1.19l-.6-5.17c.62.9,1.15.93,1.14,3.07.64-3.38-.49-8.59.78-13.22.83,2.62,2.53-2.82,2.81,4.04-2.61-2.33.29,6.89-1.92,7.99.43-.82.94-.79,1.57.12.09.77-.09,1.42-.26,1.81,2.5,6.13,1.15-7.75,3.73-7.59-.33,3.86.6,7.33,1.02,6.5-1.04-.08-.5-6.45.46-9.41,1.66,3.01,1.8-2.24,2.67-1.89l-.99-1.41c.34-3.86,1.17-3.36,2.32-4.58.1,3.01-1.05,2.07-.64,3.4,1.28-6.79,2.9,7.03,4.69,2.46.83,2.62.08,7.26.81,9.03,2.01-5.01,2.17,5.29,4.28,1.15-.61-5.19-.71-3.92.77-8.98l-3.47,3.65,2.23-7.55c-1.05-.07-2.21,3.27-2.84,2.38,1.06-4.24.95-2.94.45-7.25,1.43,7.79,2.84-4.54,4.49.72l-.05,12.86c2.49,5.73,4.42-6.6,7.65-3.37l-1.04-2.24c.43-5.11,2-.71,3.04-2.78-.1,4.3.56,5.86,1,8.53-.05-3.19,2.36.29,2.66-8.29l1.44,5.66c2.61,2.32,2.98-12.24,5.49-10.78-.76,4.67.38,7.72-1.3,11.06.84.04,1.59.83,1.6-2.15.49,2.69,2.32-5.79,3.09-1.71.35-1.89.47-6.39,1.41-6.03.1.87,0,2.13,0,2.13,0-2.13,1.47-2.89.65-7.65,2.58,13.41,7.21-.97,9.46,10.54,1.83-1.44,4.03-2.82,5.69-3.14-.11,1.29,0,2.14-.32,1.7,2.29,4,1.41-12.33,4.01-7.87,1.33,6.95-1.38,3.76-.55,6.39.36,14.14,3.14-1.93,4.9,6.33l-.42.83c1.34,4.8,3.27-5.36,5.46-4.35,0,0-.11,1.25-.01,2.14,1.5-7.21,4.33-9.6,6.44-11.6-.65,5.53-.96,2.93-.56,8.55.94-.8-.28-9.03,1.61-10.6.61,3.03,1.97,5.68,2.15,11.68l-1.78.32c.91,7.76,2.3-.27,3.24,1.08l-.12,3.39c2.72-1.1,2.76-9.65,5.69-9.04l-.3-2.57c1.6-8.47,1.34,4.76,2.94-1.54l.48,8.59c1.06-2.07,3.7-8.31,5.59-9.92-1.07,6.37-3.29,9.63-4.66,13.41,1.05.06,3.56-.63,4.1-4.87-.42.83-.95,2.93-1.37,1.61,1.28-6.75,2.97-10.08,5.06-9.93-.37,16.66,5.43,4.2,6.95,17.14,3.69-6.16,7.32,2.62,11.62,1.64-1.52-12.96,1.25-.37.99-13.67,1-.85,1.38-.63,1.47.23l3.03,7.95c.72,3.87-.95,2.93-.86,5.92,2.19,1.02.92,5.64,2.37,9.18-.3-4.76.76-6.82,2.01-5l-1.76-6.14c3.06-7.08,2.65,11.17,5.73,4.16l-.98,4.19c1.58-2.47,5.84.08,7.4-10.61.28,1.54.65,5.18-.05,6.14,3.79,1.6,8.43-11.38,11.37-4.79l-.29,3.25c.71-.94,1.23-6.11,2.11-2.84-.05,1.35-.28,3.25.04,3.44.37-1.12,1.88-5.7,2.81-3.8l-.8,3.66c3.69,4.26,5.67-8.92,8.76-11.15,0,9.58,2.9,12.69,4.35,14.25l-.05,1.36c4.3,1.18,7.3-7.94,11.29-11.7,2.47,10.4,8.37,4.36,12.34,10.19-.61-1.74.1-7.47.81-8.43.93,1.95,2.58-6.65,2.43,2.14l-.33-.17c.7,8.62,2.62,6.33,4.11,6.56l.25-11.49c3.91,16.72,10.25-6.14,12.39,8.83.94-2.88,2.11-2.84,3.05-5.71l-.05,6.16c2.62,1.57,3.92,2.35,7.16.88l-.66,4.41c1.82.4,2.3-17.77,3.99-18.13l.51,9.2c3.18-.14,6.4,7.93,9.55-.41-.05,1.35-.14,4.01-.66,4.38,1.5.24,5.79,6.23,5.25-6.4.04,8.22,3.28.8,5-2.82l-.27,6.06c1.45-7.75,1.5-9.87,3.52-12.01.48.79.42,4.86-.22,3.3,1.6,3.18,1.25-5.74,3.19-2.51l-.72,3.87c1.65.47,1.51-1.61,2.42-6.13,1.03-2.43,3.12,1.53,3.36,7.02.22-3.34,1.12-7.82,2.09-6.23.13,2.07-.22,3.36-.4,3.99,2.75,4.13,4.09-7.05,5.98-1.09.04,2.01.16,3.01.32,3.62-2.19-.14-3.95-.48-3.78-.92,0,5.59,1.77,6.57.36,14.3,1.42-4.21,3.84-13.38,5.56-10.75.08.54.16,1.07.23,1.93l-.18.63c.4.56.75.04,1.09-.9.55.92.9,1.6,1.43,1.68.2,4.62,2.02,2.49,2.91,2.72-.07-6.12,1.08-5.13,0-10.18.14.44-.17.73-.75.98-.13.18-.29.27-.38.63.02-.17.04-.36.06-.54-.58.18-1.33.31-2.19.41.7-3.11,1.42-5.72,2.4-2.33.45-3.93.95-7.97,1.23-9.87,1.2,8.53,3.53,13.15,3.85,18.41,2.69-3.43,6.33-2.26,8.02-13.76.77-1.48.88,3.3,1.17,5.1-.44,1.15-.97.98-1.2,2.63,1.53-2.95,4.53-1.15,4.89-9.18,1.93,3.62-1.08,7.39,1.56,6.08l-.36,2.46c5.21,12.83,8.47-20.5,14.24-4.02-.4-1.01-.6-1.48-.68-2.82,6.58,7.27,13.56-6.82,20.06,4.7,1.85,2.32,2.05-2.81,3.17-6.71l.4,6.57,1.93-7.58c2.73-5.55,4.73,16.13,8.19,5.63l-.45-4.43c1.24.84,3.93-2.61,3.73,2.48.13-.81.41-4.6.89-2.3l.04,3.44,3.05-5.89c2.37,2.49-.37,13.65,3.08,14.32,1.28-1.32,3.65-10.01,3.17-12.31-.52-.17-1.32-2.14-1.36-5.59l1.17-1.79c.21-10.13,1.11-20.51-1.77-27.59l-2.01,6.2-.65-4.91,1.69-.31c-.96-4.62-1.57-.53-2.25,2.27-.16-2.61-.44-4.44-.84-5.42l-1.97,9.68c-.24-3.97.88-7.87-.44-10.06-.92,4.49.89,8.89-.64,11.85-.96-4.61-.68-8.36-1.81-4.43-.16-2.61.08-4.27.53-5.42-1,3.13-2.66,1.32-3.17,6.71-1-5.69-3.39,1.48-3.29-8.11-.31,2.3-1.77,7.53-2.69,7.93,1.68-11.48-3.45-.67-3-12.99-1.25,10.33-4.5,4.59-6.71,10.31.12-.82.37-2.48.56-1.95-1.24-.86-1.6-3.97-2.4-5.92-.16,8.53-2.09,10.48-3.14,15.74-1.52-8.23.92-10.01.45-17.92.08,6.91-2.65,6.9-2.13,12.66-1.16-5.09-1-2.47-1.6-9.54-.2,10.67-1.09,1.81-2.05,8.35-1.68-5.26-.43-9.99-2.29-6.74-.88-3.27.77-7.05.77-7.05Zm-44.03,18.44v-.12c.38-.14.7-.26.91-.35-.19.08-.45.21-.91.47Zm-3.7.1c.45.24,1.01.28,1.6.24.13,2.12-.01,4.29-.38,4.18.2-1.41-.67-2.63-1.22-4.42Zm7.82,42.4c-.58.87-.78-.34-.86-1.59.28-.11.6-.31,1.02-.73.02-.23.05-.49.07-.75-.06,1.17-.12,2.26-.23,3.07Z"/><path class="cls-1" d="m794.89,516.41c.09-.13.13-.39.24-.45-.12-.54-.23-1-.35-1.38-.07.65-.14,1.29-.21,1.92.11-.04.22-.05.31-.1Z"/><path class="cls-1" d="m459.5,507.34l.08.14c-.07-.24-.12-.48-.16-.87.05.3.05.49.09.73Z"/><polygon class="cls-1" points="734.92 470.33 734.93 471.87 735.25 470.52 734.92 470.33"/><path class="cls-1" d="m439.13,486.34c-.04-.54-.12-1.09-.27-1.56.01.4.13.96.27,1.56Z"/><path class="cls-1" d="m430.32,484.97l-1.24-2.18c.54,1.24.93,1.83,1.24,2.18Z"/><path class="cls-1" d="m423.56,481.94c-.09,1.07-.11,1.88-.13,2.63,0,.02,0,.02.01.04l.12-2.67Z"/><path class="cls-1" d="m531.16,474.75c.09-.03.18-.11.26-.28.61-1.19.2-.72-.26.28Z"/><path class="cls-1" d="m499.14,489.04c.34-1.11.67-2.2,1.03-2.89-.57-.47-1.01-.59-1.03,2.89Z"/><path class="cls-1" d="m566.92,467.38s0,.05,0,.11c.08-.02.14,0,.22,0l-.22-.11Z"/><path class="cls-1" d="m501.66,486.26c-.57-1.22-1.05-.96-1.49-.11.47.41,1.02,1.04,1.49.11Z"/><path class="cls-1" d="m394.22,479.17l-.33-.26c0,.4-.01.73-.04.98l.36-.73Z"/><path class="cls-1" d="m393.86,479.89l-.36.72c.17,0,.31-.05.36-.72Z"/><path class="cls-1" d="m392.73,482.16l.76-1.54c-.26-.02-.59-.21-.76,1.54Z"/><path class="cls-1" d="m403.18,481.99l.1-2.22c-.06.46-.09,1.18-.1,2.22Z"/><path class="cls-1" d="m405.91,481.35c-.65-.5-1.63-4.73-2.54-3.34l-.08,1.77c.43-3.3,2,5.32,2.62,1.58Z"/><path class="cls-1" d="m417.27,508.77l-2.28-1.77c.4,2.36.92,5.54-.11,6.11,2.88,7.05-.59-5.29,2.4-4.34Z"/><path class="cls-1" d="m424.34,512.2c-1.23,1.1.01,3.43-.05,4.77.78-2.16.97-2.7.05-4.77Z"/><path class="cls-1" d="m475.46,512.22l-.12,5.57c.95-.8,0-2.16.12-5.57Z"/><polygon class="cls-1" points="485.24 483.45 484.32 479.99 483.88 485.09 485.24 483.45"/><polygon class="cls-1" points="491.01 523.11 490.6 523.9 492.17 521.88 491.01 523.11"/><path class="cls-1" d="m576.87,521.13l-.29-6.85c-.64,1.23-.77,8.93.29,6.85Z"/><path class="cls-1" d="m613.93,514.15c.4,3.43,1.45,5.63,2.09,2.26-.83-.47-1.66-3.15-2.09-2.26Z"/><polygon class="cls-1" points="725.09 525.32 724.35 527.61 725.75 525.7 725.09 525.32"/></g><g><path class="cls-1" d="m340.82,333.28c-1.82-.6-6.07-.81-5.35.4l7.08,1.54-1.73-1.94Z"/><path class="cls-1" d="m326.76,339.45c3.34,1.68,9.28,3.84,15.95,3.67-6.75-2.02-3.84-2.04-11.89-4.3-.72-1.21,2.5-1.72,5.12-1.26-1.8-.59,1.76-1.58-2.68-2.66-5.7.88-6.11,2.71-1.74,5.13-1.62.25-3.44-.35-4.76-.58Z"/><path class="cls-1" d="m304.16,448.09l.92-.62c-.49.14-.78.36-.92.62Z"/><path class="cls-1" d="m293.15,515.71c-.12-.54-.81-.83-1.45-.92.42.53.82.97,1.45.92Z"/><path class="cls-1" d="m284.04,526.5c.25-.23.38-.42.56-.63-.69.19-1.08.42-.56.63Z"/><path class="cls-1" d="m304.16,448.09l-2.44,1.58c2.32.37,1.83-.75,2.44-1.58Z"/><path class="cls-1" d="m342.47,356.39c-.31-.42-.94-.8-1.79-1.18.28.34.51.67.67,1.01.38.06.71.11,1.12.18Z"/><path class="cls-1" d="m301.47,417.49l.05-.55c-.8-.25-1.77-.5-2.86-.76l2.82,1.32Z"/><path class="cls-1" d="m302.77,394.36c-.32.49,5.75,1.31,8.38,1.78-2.47-.55-3.63-1.06-4.05-1.57-1.16-.13-2.55-.2-4.33-.21Z"/><path class="cls-1" d="m317.27,358.98l-.77-.73c.25.2.46.5.77.73Z"/><path class="cls-1" d="m298.44,433.83c-.91-.06-1.72-.06-2.2-.02.77.08,1.5.07,2.2.02Z"/><path class="cls-1" d="m288.35,320.16c.23.38.36.61.56.94-.19-.6-.38-1-.56-.94Z"/><path class="cls-1" d="m327.13,333.19l-.17.46c.51,1.05,1.01,2.07,1.5,3.09l-1.32-3.54Z"/><path class="cls-1" d="m274.03,546.95c.07-.03.08-.05.13-.08-.64-.63-.55-.3-.13.08Z"/><path class="cls-1" d="m222.47,579.79c-1.73,5.59-6.89,3.52-8.17,10.23,1.26-2.05,7.97-5.87,8.17-10.23Z"/><path class="cls-1" d="m341.61,356.9c.04.32.06.64-.04.95.25-.41.25-.7.04-.95Z"/><path class="cls-1" d="m214.3,590.02l-.03.04-.09.66c.05-.29.08-.45.13-.7Z"/><path class="cls-1" d="m272.68,595.45c1.07.12,1.89.17,2.67.2-.5-.04-1.1-.08-2.67-.2Z"/><path class="cls-1" d="m285.05,560.72l-.91.82c.59-.3.81-.57.91-.82Z"/><path class="cls-1" d="m280.25,606.15c-.46-.06-1.26-.59-.53.32.26.16.46.28.71.43-.77-.72-1.12-1.13-.18-.74Z"/><path class="cls-1" d="m279.25,616.11l1.1,1.32c-.08-.23-.17-.5-.25-.73l-.85-.59Z"/><path class="cls-1" d="m237.44,357.5c1.39,1.11,2.75,2.47,4.05,3.85-2.85-3.3-1.31-6.36-4.05-3.85Z"/><path class="cls-1" d="m339.05,356.05c1.52.27,2.27.52,2.56.86-.05-.23-.14-.46-.26-.69-.9-.15-1.75-.25-2.3-.17Z"/><path class="cls-1" d="m325.23,640.2l-1.45,5.16c.71-1.15,1.23-3.06,1.45-5.16Z"/><path class="cls-1" d="m138.05,476.66l-.41-1.08c-.24.28-.18.64.41,1.08Z"/><path class="cls-1" d="m322.38,662.73c-2.04-1.21-3.27-1.53-4.13-1.37.39.73.7,1.4,1.3,2.31.94-.27,1.88-.58,2.83-.94Z"/><path class="cls-1" d="m241.53,361.39l-.04-.05.04.05Z"/><path class="cls-1" d="m250.86,336.92c-2.72,1.66,3.23,7.33,5.3,11.51-1.76,4-4.79-3.88-8.19-6.53-.74,3.09,2.06,10.16.47,10.92-.87-1-1.43-1.2-2.07-2.78,1.7,6.61-5.8,4.57-3.34,12.73-.59-.45-1.08-.93-1.49-1.38,2.77,2.96,5.26,6.21,6.92,8.61-1.03.92,1.01,5.59-2.56,1.69.76-.38-.45-2.12-1.12-3.68l.22,2.7c-5.57-5.26,0-3.28-3.33-7.77-.82,3.7.34,10.64-2.66,10.26-4.88-5.59,2.54-5.05-3.77-8.52l4.41.21c-9.1-7.75,2.15-.6-7.27-9.12-4.94,1.03-1.76,6.06-6.65,7.14,1.73,3.86,4.01,4.58,5.75,8.43-.33,9.66-15.54-11.38-13.06-.75,2.17,4.6,7.78,12.1,2.08,10.41l-4.48-7.15c-3.92,2.21,5.81,10.76-1.28,9.46-1.53-3.02.8-4.35-.34-4.68-6.55-3.06,1.48,4.99-.22,6.46l-5.21-5.28c-2.81,3.98-3.09,11.39-5.89,15.91-1.3-1.8-2.23-4.1-4.67-4.92-2.3,7.16-10.73,9.16-18.5,10.92l2.97,6.21c-.44.37-2.85-1.17-3.33-2.48-3.51.24,2.89,2.85,3.91,5.44-.63,1.34-4-1.08-4.79-3.05.87,7,.48,17.1-7.77,16.48l-.9-1.91c-4.43,1.29,7.73,11.35.97,10.35l-.51-1.2c-7.14,4.76-7.1,15.19-18.53,15.68,3.64,2.88,1.74,4.09.24,5.52-1.44,1.47-2.45,3.14,3.11,6.35-7.84,1.23-9.27-1.06-16.15,3.6-1.37,1.5,6.19,5.81,6.61,8.37l-6.23-2.47c1.77,1.88,3.57,3.7,5.39,5.48l-8.13-1.26.89,2.71c.66-.72,3.44-.77,5.21.02,1.82,4.12-7.07,6.35-10.37,5.63,1.08,3.32,2.16,6.48,3.39,9.59-2.62-.77-3.19-2.35-4.57-3.86,5.56,5.96-7.13-.74-1.87,4.81,1.6-.26,3.86,1.09,5.17,1.44-4.42,1.19-5.3,6.11-3.92,9.88l-4.52-1.2c-2.05,6.62,1.3,14.36,1.68,21.79,2.02-2.88,10.06-2.63,10.91-.75l-6.97,1.42c4.51.93,2.42-2.35,8.07-.15-.52,2.57-7.8,2.64-10.29,1.24l2.84,3.06c-2.08.47-3.28-.17-5.99-.07,4.49.72-6.27,7.19,1.78,7.9l-2.03.6c1.46,7.71,4.99,10.35,7.25,15.98,5.8-1.97,5.36.67,10.56.39-.44,4.54-2.58,10.79.24,15.15,4.43,1.57,5.04-1.63,8.97-2.11-4.74,2.95-1.76,6.99-6.49,6.83,1.89,2.43,3.22,3.8,5.01,5.11,1.81,1.26,3.98,2.6,8,4.01,1.34-1.99,1.61-3.24,3.4-4.04,1.5.41-.09,3.65-2.31,5.16l-.66.08c5.73.58,5.37,6.54,5.75,12.26.23,5.83,1.17,11.13,7.46,9.17l-.65.17c2.97.08,5.88.12,8.83-.05,1.55,2.64-4.13,1.96-4.79,5.96,5.74-1.17,7.5.82,9.01,3.07,1.53,2.12,2.75,4.5,6.85,3.77-3.33,7.9.07,10.07,3.99,11.52,3.92,1.55,8.33,2.44,7.92,8.36l1.84-3.42c3.33-2.37.31,2.83.77,4.19,1.49-2.62.52-3.8,2.44-5.07,6.51,1.54,11.23,5.86,15.62,11.27l6.53,8.23c3.77,3.67,8.86,7.73,13.83,10.95,3.79,2.35,5.89-2.19,7.72-5.72,1.94-3.48,3.3-6.09,7.01.76-.92,2.2-1.93,4.36-3.03,6.48,7.71-.99,14.26,1.82,21.46,5.14,6.98,3.24,14.63,6.94,19.28,4.91.14,1.86,1.28,4.68-.1,4.07,2.83,4.03,5.8,5.35,7.51,4.86,1.74-.49,2.11-2.84.64-5.77,2.39,1.54,3.16,5.52,6.05,9.1,2.64,2.79,3.39,1.29,3.94,0l.22-.46c.08-.13.19-.2.04-.71-.16-.78-.26-1.44-.27-1.89-.01-.9.36-.98,1.48.4.73.88,1.27,3.23,1.51,4.4-1.79-5.58,1.86-8.89-3.43-14.74,1.56-.8,1.35-4.27,1.16-7.34-.18-3.1-.32-5.81,1.52-6.02-2.76-4.98-1.78-6.24-1.1-7.79.67-1.53,1.02-3.26-3.22-8.01,8.78,9.65,8.54-2.65,4.48-9.34,2.65,3.33,3.19-.87,6.89,3.35.33-4.46-1-9.41-5.86-11.53,5.95-.29,4.14-5.74,2.58-9.66-1.54-4.1-2.79-6.95,4.81-7.1-.91-3.29-1.8-6.51-2.67-9.67l-.3-1.11-.34-.66-.65-1.3-1.2-2.57c-1.5-3.39-2.64-6.66-3.47-9.85,9.74,1.24.27,6.89,10.55,7.7-3.42-6.25-11.45-10.48-8.49-16.02,1.49-1.36,4.14,1.29,5.76,1.97-3.42-6.24,2.06-11.17-2.72-16.9.91.11,1.84.77,2.53,1.38-.22-1.05,1.67-2.23-2.77-2.57l1.1,1.12c-6.61.96-13.04-5.46-16.42-5.99,12.54,3.06,3.73-4.79,19.52-.36-.77-.76-2.78-1.82-5.77-1.98.97-.91,2.74-1.04,6.01.32-2.04-3.91-6.89-3.1-6.45-6.4,2.15.24,2.91.99,5.4,1.6-4.02-2.11-8.03-4.24-5.92-6.85,1.28.3,3,.15,2.88.99-.15-4.88-10.31-9.36-5.71-14.21,9.18,2.53,3.26-1.47,11.37-.91l-2.11-3.09-4.04.73c.4-2.47-5.26-5.28-2.39-7.14l3.14,2.19-1.05-4.82-3.34,2.32c-3.9-2.95-10.25-.79-7.66-3.87.75.76.36-2.48,5.26-3.28h.02c-2.45-1.49-5.03-3.03-2.83-4.66,2.63-.21,8.9,1.31,10.65,1.18-6.63-1.92-1.26-6.01-8.3-8.3,1.64.69,5.87,1.16,6.76,1.08l-5.38-1.59c1.88-.97,2.74-1.05,6.11-.51,1.36-3.36-10.37.03-5.52-3.62.41.37,1.24.3,2.01,1.06,2.73-3.89-2.65-8.34.44-11.85,8.25-.27,1.65,3.52,8.64,2.95-.91-5.62-8.57-12.34-6.1-17.43l-1,.89c-11.4-1.93,6.08-3.35.95-6.59.78.74,6.29,1.52,5.02,1.21,2.22-3.43-2.05-7.7-5.09-13.57l2.88.99c2.85-1.86,2.1-5.47,3.69-7.63-2.87-.99-2.26-2.26-6.63-1.91,17.54-5.37-7.59-14.51,7.06-19.36-.05.76,2.39,2.07,2.46,1.47l-2.15-5.66c-5.05-.1-3.1.39-7.12,1.11-2.89-.99-5.04-2.75-4.9-4.08,3.06,2.76,8.04.82,10.93.06-1.55.02-3.2-.52-4.77-.59,9.19-1.88-10.02-1.52-3.62-4.73l2.6.48c-1.19-1.57-4.53-3.26-3.61-4.73,5.85-.04,2.54,1.81,7.29,2.4-.11-2.21-10.52-5.43-4.54-6.8,1.52,1.09,1.4,2.42,2.91,3.51,7.01-1.44,5.32-1.86,6.56-3.34l-.17.14,3.46-3.36-1.94.75c-14.8-4.29-2.18-5.83-11.68-10.52,8.98,4.54,5.35,1.15,11.88,2.11,1.92-.75,4.11-1.96,5.91-1.36-5.11-2.28,4.46-2.46-3.01-5.71,2.11.11.4-1.83,5.66-.89-1.43-2.42-3.73.15-6.36-.32-6.85-4.22,9.6-7.25.22-13.27-3.62-4.73-10.66-6.27-13.79-10.63,3.52-1,7.58,1.9,7.58,1.9,3.34-1.85,2.93-3.55.73-5.85,1.8.61,3.4.34,5.84-.04-.38-1.7-7.57-1.9-4.23-3.75,2.31.62,6.03,1.49,8.31,2.53-1.74-2.14-5.48-4.47-7.18-6.67,3.73-.15,5.45,1.79,7.78,2.75-1.42-2.43-2.73-6.19-8.47-7.49l-2.23,1.23c-.2-.85,5.05.1,6.04.81,4.37,2.41-2.31,2.58-4.44,2.47l-1.2-1.57c-12.54.18,1.39,5.95.37,8.75l-8.88-2.14,7.17,3.73c-2.41.38-7.48.29-8.68-1.27-4.67,1.6,3.01,2.16-2.13,3.41-.79.12-1.22-.02-1.56-.24l2.47,2.29c-1.85-.59-6.39-.33-4.96-1.43-5.57,3.08,6.15,6.54-.82,7.19l-.52-.36c2.52,5.34,6.56,1.17,13.93,5.75l-16.57.84,6.56,1.18c-.29.49-.89,1.47-3.52,1,4.32,2.4,2.91-.03,7.06,1.53-6.28,1.87,2.1,7.16-8.49,6.63,4.93,1.42,4.13-1.98,7.35,1.04-11.41-.42,1.62,3.28-3.81,5.01-5.77-1.31-2.45-3.14-7.91-1.41,9.74,2.4-2.62,4.21-.93,6.33,7.86.91,2.84,4.52,5.13,8.01-2.62-.48-4.95,5.61-8.1,8.32l-1.31-.23c7.89,1.41,6.07,4.34,7.48,6.77-4.75-.58-6.58-1.18-8.59-2.63l-.18,2.12c2.5.76,3.77,1.56,4.54,3.03l-5.89-1.15c.03,2.85,6.41,6.4,2.06,9.61,5.52.78,15.73-1.28,19.04,2.94-3.01-.17-8.15-.56-9.27-1.69.35.37,2.37,1.43,1.02,1.96l-4.88-2.06c-2.39,1.42,4.12,1.3,3.52,2.57-4.27-.47-3.15.66-6.52.12-.38-.38,1.88-.97.26-1.65-.92,1.41-3.65,2.94-6.94,3.2,2.44.12,5.76.6,6.2,1.75.02,2.85-5.24.43-7.61,1.84,2.9.99-.36,2.47,6.02,3.18-.12.82-3.12.66-4.88.8,2.67,1.75.1,6.89,7.07,5.96l.49-.33c.12.08.12.17.26.27h0s0,0,0,0c5.86,5.44-4.65,9.55-2.41,14.58l-2.13-.23c2.15,3.08.79,6.45,5.18,8.95-.09.84-4.11,1.57-6.62.95,1.38,2.33,3.76,2.82-.09,5.58-3.5-2.56-3.38.41-2.5-2.51-2.14,2.62-5.63,2.9-.1,6.53-5.37-1.6-7.11,1.4-5.62,2.91l4.13-1.56c.64,1.59.02,2.85-.59,4.13l-7.13-1.47c-9.36,4.84,13.83,11.93-1.29,14.78,4.88,2.05,3.87-2.76,9.62-.78-1.25,2.54-11.87,4.23-11.98,5.05-4.37,3.21,10.17,4.48,7.05,7.99,2.61-.22,9.52.04,11.65,3.12-1.23,2.55-11.12,2.13-13,.25-.15-.66.7-.88,1.57-.76-.85-.95-1.83-2.19-4.73-1.43l2.53.61c-2.76,1.04-2.86,4.71-6.99,3.42,2.24,2.26,4.13,1.29,5.62-.05-4.07,3.01-.66,5.29-3.53,8.53,1.47-.41,4.54-.61,4.46-.06-3.72,4.8,4.64,2.76,5.4,6.36-4.12,1.57-9.28-1.68-6.36,2.16-2.87,1.86-6.86-.26-8.87-1.32,4.62,3.7-3.88,5.62-4.97,7.34l-1.9-1.89c1.13,1.13,1,1.95.9,2.79l5.24-.42c-1,.89-1.11,1.72-3.24,1.48,3.26,1.37,8.63.11,13.02,2.61-2.75,1.04,2.39,4.29-4.48,4.04,2.74-3.89-6.9-.26-7.63-3.87.74.76.63,1.58-.38,2.47-.78.07-1.4-.29-1.76-.6-6.51,3.32,7.52,2.62,6.94,6.7-3.79-.92-7.39.19-6.64.95.25-1.64,6.49-.12,9.28,1.7-3.27,2.32,1.93,3.09,1.44,4.43l1.57-1.42c3.79.93,3.15,2.19,4.17,4.15-3.01-.15-1.89-1.88-3.27-1.36,6.54,2.74-7.47,3.87-3.21,7.18-2.74,1.04-7.23-.62-9.12.35,4.65,3.7-5.62,2.89-1.85,6.66,5.26-.43,4.02-.73,8.81,2.15l-3.06-5.87,7.14,4.31c.25-1.65-2.89-3.84-1.9-4.74,4.04,2.12,2.77,1.81,7.14,1.46-7.98,1.46,4.05,4.97-1.46,7.04l-12.78-1.41c-6.11,3.35,5.84,7.69,2.09,12.47l2.4-1.41c5.01,1.21.38,3.23,2.27,5.11-4.25-.72-5.95.59-8.61.27,3.16.44-.41,1.08,7.98,3.41-1.89-.02-3.78-.17-5.64-.44-1.21.43,1.71,1.94,4.68,3.99,2.98,1.98,6.01,4.46,5.17,5.53-4.36-3.26-7.33-4.06-10.39-6.94-.1.52-.89.53,1.92,2.23-1.29-.59.04.62,1.19,1.92,1.15,1.28,2.11,2.67.17,1.54,1.73,1.61,5.9,5,5.46,5.78-.82-.56-1.97-1.64-1.97-1.64,1.97,1.57,2.5,3.91,6.99,6.75-6.36-3.7-6.28-2.08-6.05.36.25,2.27.65,5.33-4.51-.71,1.11,3.29,2.07,7.36,2.17,9.5-1.08-2.01-1.82-3.17-1.41-2.8-.46-.49-.61-.5-.62-.31-.12.01,0,.39.25,1.01.5,1.24,1.57,3.43,2.58,5.57,2.06,4.31,3.7,8.38.51,4.5-6.28-10.56-1.28-4.82-4.04-8.97-5.39-10.32-5.4-9.78-5.27-8.34.2,1.47.26,3.72-2.55-2.16l-.18-1.03c-1.71-3.46-1.34-1.78-1.14.37.25,2.17.27,4.73-.79,3.69,0,0-.32-1.55-.68-2.71,1.32,8.7-1.48,10.1-3.82,11.28.4-6.03.76-2.94-.04-9.62-.82.51,1.09,10.66-1.16,11.35-.84-3.82-2.19-7.45-1.83-14l1.36.31c-.33-4.52-.58-4.57-1.02-3.81-.41.77-1.02,2.34-1.28,1.46l.51-3.55c-1.58.44-3.8,8.97-6.47,6.9l-.6,2.59c-2.33,3.56-2.4,2.17-2.15.64.2-1.56.69-3.26-1.58-.91l3.5-7.88c-2.36,1.05-8.99,4.64-12.37,4.55,4.57-4.66,9.17-5.96,12.78-8.29-1.36-.81-5.03-1.97-7.83,1.3.96-.39,2.71-1.86,2.62-.4-5.03,5.01-8.92,6.49-11.66,4.73,8.97-14.04-5.11-7.85-.02-20.09-8.01,2.29-7.44-8.08-12.91-10.77-5.92,11.7-1.68-.76-9.33,10.08-1.7-.25-2.02-.78-1.6-1.55.42-3.04.89-6.04,1.4-9,1.62-3.65,2.91-1.45,4.66-3.87-1.77-2.68,2.52-5.19,3.22-9.12-2.72,3.94-5.11,4.58-5.2,2.09l-2.15,6.28c-7.84,2.55,4.56-10.85-3.2-8.29l3.8-2.25c-3.38.46-5.24-5.17-14.51.83.85-1.36,3.16-4.22,4.46-4.22-1.03-2.35-4.95-2.39-8.41-2.95-3.28-.59-6.23-1.66-4.74-5.13l2.82-1.64c-1.23-.13-5.82,2.31-3.78-.51,1.14-.72,2.86-1.57,2.79-2.01-1.15.3-6.05,1.27-5.15-.75l3.64-1.18c.49-2.99-2.01-3.2-5.57-3.13-3.56.1-7.58.37-9.52-1.01,4.33-2.06,6.8-4.22,8.32-6.02,1.59-1.83,2.29-3.35,2.73-4.33l1.28-.44c-.45-4.32-9.89-4.69-14.52-9.05,5.04-2.28,5.64-4.52,6.18-7.03.31-2.44.5-5.22,3.49-7.05-1.82.51-7.43-.71-8.28-1.68,2.06-.83-6.23-4.02,2.45-2.61l-.21.36c8.54.39,6.77-1.87,7.27-3.47l-11.19-2.69c8.75-.64,7.84-3.64,7.2-7.04-.84-3.3-1.46-6.77,5.92-5.12-2.27-2.2-1.54-3.56-3.64-5.88l5.57,2.64c2.76-2.33,4.26-3.35,4.92-7.72l3.43,2.88c1.45-1.72-13.9-11.42-12.95-13.76l8.2,4.19c2.25-3.88,11.26-2.77,7.07-11.18,1.04.86,3.1,2.54,3,3.33,1.44-1.56,9.71-2.5-.64-9.74,6.49,5.07,3.54-3.09,2.44-7.41l4.37,4.21c-4.53-6.59-6.07-8.05-5.68-11.77,1.07-.02,4.05,2.74,2.26,2.43,3.92.32-3.06-5.24,1.33-5.24l2.13,3.41c2.01-1.49.34-2.74-2.03-6.84-.73-2.85,4.42-2.41,8.59,1.15-2.18-2.56-4.42-6.67-2.25-6.63,1.61,1.32,2.15,2.61,2.41,3.24,5.81,0-.53-9.4,5.69-7.15,1.43,1.41,2.26,2.01,2.85,2.29-2.48,2.17-4.57,3.8-4.72,3.31,3.95,3.96,6.46,2.87,10.42,9.8-1.56-4.41-5.28-13.55-1.56-13.4.46.31.91.62,1.57,1.18l.24.64c.81,0,.84-.74.56-1.77,1.22.11,2.05.26,2.7-.2,3.34,3.21,3.9-.15,5.02-.86-4.16-4.49-2.21-4.92-6.77-7.6.45.18.29.71-.19,1.49-.03.27-.14.49,0,.85-.09-.14-.19-.3-.29-.46-.53.72-1.29,1.58-2.19,2.52-1.32-2.99-2.23-5.69,1.14-4.16-2.12-3.39-4.23-6.92-5.17-8.63,7.06,5.1,12.77,6.32,16.55,9.98.81-5.25,5.77-7.84.57-18.4,0-1.9,3.13,1.71,4.6,2.84.19,1.32-.54,1.69.21,3.2-.04-3.77,4.67-5.22.19-11.88,4.59,1.02,3.23,6.85,5.65,3.31l1.07,2.28c7.05,2.62,6.49-3.33,6.43-9.12-.07-5.75.39-11.31,8.82-7.18-1.09-.46-1.61-.66-2.5-1.69,12.41.07,13.71-17.72,28.53-13.44,3.65.43,1.19-4.06.64-8.31l3.99,5.26-1.41-8.04c.84-7.01,14.59,10.01,13.87-1.72l-2.83-3.48c2.09-.25,4.04-5.34,6.28-.75-.23-.8-1.72-4.31.08-2.68l1.74,2.97,1.28-7.47c4.42.42,6.1,12.21,11.01,10.31,1.06-2.08.14-11.39-1.55-13.1-.71.17-2.76-.98-4.41-4.01l.81-2.44c-4.29-9.18-7.6-19.18-15.39-23.09l-.07,7.07-3.3-3.8,2.36-1.63c-3.62-3.3-2.6.8-2.24,3.8-1.49-2.16-2.79-3.54-3.85-4.07l1.83,10.06c-2.29-3.27-2.55-7.59-5.55-8.42.86,4.67,5.62,7.03,4.88,10.85-3.64-3.24-5.1-6.72-4.78-2.38-1.52-2.13-2.01-3.78-1.92-5.14.1,3.55-3.18,3.35-1.22,8.44-4.29-4.08-4.06,4.09-8.81-4.24.72,2.25,1.33,7.97.25,9.09-3.55-11.28-5.21,2.38-11.01-8.5,3.64,9.88-3.98,7.86-3.99,14.67-.27-.8-.82-2.42-.27-2.14-2.2.37-4.38-1.91-6.56-2.83,4.4,7.32,2.77,10.67,4.24,16.02-6.61-5.49-4.23-9.21-9.21-15.39,3.89,5.72.12,8.2,4.02,12.52-4.42-3.18-2.75-1.15-7.51-6.47,5.66,9.05-.49,2.52,1.85,8.84-5.26-2.78-6.22-7.86-6.94-3.44-3.07-1.85-2.92-6.54-2.92-6.54Zm-46.41,60.31s-.08-.09-.08-.09c.36-.54.67-1,.87-1.29-.16.29-.39.68-.79,1.38Zm-4.4,4.33c.71-.35,1.4-.99,2.09-1.7,1.62,1.38,2.95,3.11,2.43,3.45-.74-1.25-2.61-1.12-4.52-1.75Zm37.96,22.52c-.06,1.22-1.09.53-2.02-.32.23-.35.45-.83.64-1.56-.12-.18-.29-.42-.43-.62.72.92,1.38,1.8,1.8,2.51Z"/><path class="cls-1" d="m233.81,417.07c0-.18-.11-.42-.03-.58-.49-.28-.93-.51-1.31-.67.36.56.71,1.11,1.05,1.64l.29-.39Z"/><path class="cls-1" d="m305.24,447.36l-.15.11c.25-.08.5-.15.89-.17-.3.05-.49.03-.74.06Z"/><polygon class="cls-1" points="138.05 468.07 139.48 468.64 138.46 467.54 138.05 468.07"/><path class="cls-1" d="m329.48,417.26c.54,0,1.11-.07,1.6-.26-.4-.02-.97.1-1.6.26Z"/><path class="cls-1" d="m332.3,403.46l2.37-1.75c-1.32.72-1.97,1.29-2.37,1.75Z"/><path class="cls-1" d="m336.43,393.06c-1.05-.25-1.85-.37-2.59-.48,0,0-.02.01-.05.02l2.63.46Z"/><path class="cls-1" d="m325.84,564.22c.02.15.08.3.23.44,1.08,1.09.68.39-.23-.44Z"/><path class="cls-1" d="m316.91,512.03c1.05.65,2.08,1.3,2.7,1.93.56-.85.75-1.54-2.7-1.93Z"/><path class="cls-1" d="m325.4,639.63s-.05-.04-.1-.08c0,.24-.05.43-.07.65l.17-.57Z"/><path class="cls-1" d="m319.26,516.3c1.3-.78,1.13-1.56.35-2.35-.48.7-1.2,1.5-.35,2.35Z"/><path class="cls-1" d="m344.02,346.89l.31-.49c-.4-.03-.73-.1-.97-.16l.66.65Z"/><path class="cls-1" d="m343.36,346.24l-.66-.65c-.03.26,0,.5.66.65Z"/><path class="cls-1" d="m341.29,344.22l1.41,1.37c.06-.42.3-.91-1.41-1.37Z"/><path class="cls-1" d="m339.74,360.79l2.19.39c-.45-.14-1.16-.27-2.19-.39Z"/><path class="cls-1" d="m339.93,365.17c.61-.98,4.98-2.09,3.74-3.67l-1.74-.32c3.21,1.02-5.62,2.62-2,3.99Z"/><path class="cls-1" d="m310.77,380.33l2.14-3.43c-2.42.39-5.66.89-6.06-.81-7.49,3.82,5.36-.39,3.92,4.24Z"/><path class="cls-1" d="m306.2,391.17c-.89-2.06-3.42-.33-4.74-.57,2.02,1.45,2.53,1.81,4.74.57Z"/><path class="cls-1" d="m297.75,472.13l-5.52-.77c.64,1.58,2.14.24,5.52.77Z"/><polygon class="cls-1" points="324.76 490.59 328.35 489.49 323.35 488.27 324.76 490.59"/><polygon class="cls-1" points="284.36 495.62 283.64 494.89 285.39 497.59 284.36 495.62"/><path class="cls-1" d="m274.64,608.2l6.11,7.53c-1.03-1.95-7.9-10.37-6.11-7.53Z"/><path class="cls-1" d="m257.07,612.57c.81-3.46,1.2-5.75-.65-2.93.35.73,0,3.57.65,2.93Z"/><polygon class="cls-1" points="185.32 499.92 187.33 501.28 185.89 499.27 185.32 499.92"/></g></svg>