<?xml version="1.0" encoding="UTF-8"?><svg id="Calque_1" xmlns="http://www.w3.org/2000/svg" viewBox="0 0 1000 1000"><defs><style>.cls-1{fill:#fff;}</style></defs><g><path class="cls-1" d="m614.07,483.76c.26,1.87.11,6.12-.6,5.28l-.5-7.2,1.1,1.92Z"/><path class="cls-1" d="m609.3,497.11c-.83-3.49-1.8-9.63-1.26-16.25.82,6.93,1.03,4.03,1.91,12.28.71.84,1.24-2.31,1.12-4.96.25,1.85,1.1-1.58,1.49,2.94-.92,5.57-2.09,5.8-3.31,1.2-.26,1.58,0,3.46.05,4.79Z"/><path class="cls-1" d="m539.97,508.34l.45-.86c-.12.47-.27.73-.45.86Z"/><path class="cls-1" d="m497.01,512.29c.33.18.46.89.48,1.54-.3-.47-.55-.91-.48-1.54Z"/><path class="cls-1" d="m489.68,520.23c.16-.23.29-.33.43-.49-.16.66-.33,1.03-.43.49Z"/><path class="cls-1" d="m539.97,508.34l-1.15,2.26c-.08-2.35.59-1.74,1.15-2.26Z"/><path class="cls-1" d="m599.74,479.73c.24.35.44,1.02.62,1.9-.2-.31-.39-.57-.58-.77-.01-.39-.02-.73-.04-1.13Z"/><path class="cls-1" d="m558.91,514.18h.35c.1.83.2,1.82.29,2.94l-.64-2.94Z"/><path class="cls-1" d="m573.44,515.28c-.33.27-.44-5.85-.57-8.52.19,2.52.43,3.72.72,4.19,0,1.16-.04,2.56-.15,4.33Z"/><path class="cls-1" d="m596.49,504.52l.41.84c-.11-.27-.29-.51-.41-.84Z"/><path class="cls-1" d="m548.51,515.5c-.03.91-.08,1.71-.13,2.19,0-.77.05-1.5.13-2.19Z"/><path class="cls-1" d="m142.03,469.53c.01.44,0,.71,0,1.09-.09-.62-.11-1.05,0-1.09Z"/><path class="cls-1" d="m125.18,499.83l.23.33c.03,1.16.05,2.3.05,3.43l-.28-3.76Z"/><path class="cls-1" d="m476.26,528.07c.03-.07.04-.07.06-.12.35.7.15.57-.06.12Z"/><path class="cls-1" d="m353.04,523.56c1.4-5.47-2.27-7.02-.17-13.09-.2,2.39,1.91,9.54.17,13.09Z"/><path class="cls-1" d="m599.37,480.53c-.2-.07-.4-.12-.6-.06.27-.2.45-.17.6.06Z"/><path class="cls-1" d="m352.87,510.47v-.05l.22-.57c-.09.25-.14.42-.22.63Z"/><path class="cls-1" d="m445.33,524.39c.06-1.08.19-1.9.31-2.68-.01.63-.08,1.39-.31,2.68Z"/><path class="cls-1" d="m468.37,515.69l-.57.82c.23-.56.41-.75.57-.82Z"/><path class="cls-1" d="m433.37,515.76c-.31.47-.42,1.31-.84.49.04-.31.08-.53.13-.75.15.84.36,1.23.71.25Z"/><path class="cls-1" d="m420.92,515.72c.07-.47.15-.82.23-1.23.12.12.27.22.39.33l-.62.9Z"/><path class="cls-1" d="m179.87,472.47c-.27,1.72-.44,3.62-.57,5.5.19-4.35-1.64-5.9.57-5.5Z"/><path class="cls-1" d="m599.74,483.17c-.07-1.54-.18-2.31-.37-2.64.14.07.28.19.41.33.04.91.04,1.77-.05,2.31Z"/><path class="cls-1" d="m432.86,467.49l-1.98.9c.55-.59,1.27-.9,1.98-.9Z"/><path class="cls-1" d="m269.2,473.34l-.45-.73c.17-.14.34.04.45.73Z"/><path class="cls-1" d="m425.01,467.49c-.35,2.16-.73,3.41-1.11,4.23-.08-.48-.18-.87-.23-1.58l1.34-2.65Z"/><path class="cls-1" d="m179.29,478.03s0-.07,0-.07c0,0,0,.04,0,.07Z"/><path class="cls-1" d="m167.03,470.55c-1.85-3.25-.6,1.49-2.29,6.74-.97-6.55-1.85,2.31-2.05-8.35-.6,7.07-.44,4.45-1.6,9.54.52-5.76-2.2-5.74-2.13-12.66-.48,7.91,1.97,9.69.45,17.92-1.04-5.26-2.98-7.21-3.14-15.74-.8,1.95-1.16,5.06-2.4,5.92.2-.53.44,1.14.56,1.95-2.21-5.73-5.46.01-6.71-10.31.45,12.31-4.69,1.5-3,12.99-.92-.4-2.37-5.63-2.69-7.93.1,9.59-2.29,2.43-3.29,8.11-.52-5.39-2.17-3.58-3.17-6.71.45,1.15.69,2.81.53,5.42-1.13-3.93-.85-.18-1.81,4.43-1.53-2.96.28-7.35-.64-11.85-1.32,2.19-.2,6.09-.44,10.06l-1.97-9.68c-.4.97-.68,2.8-.84,5.42-.68-2.81-1.29-6.9-2.25-2.27l1.69.31-.65,4.91-2.01-6.2c-2.88,7.08-1.98,17.46-1.77,27.59l1.17,1.79c-.04,3.45-.84,5.42-1.36,5.59-.48,2.3,1.89,10.99,3.17,12.31,3.45-.67.72-11.83,3.08-14.32l3.05,5.89.04-3.44c.48-2.31.77,1.49.89,2.3-.21-5.09,2.48-1.64,3.73-2.48l-.45,4.43c3.46,10.5,5.46-11.18,8.19-5.63l1.93,7.58.4-6.57c1.13,3.9,1.33,9.03,3.17,6.71,6.5-11.52,13.48,2.56,20.06-4.7-.08,1.35-.28,1.81-.68,2.82,5.77-16.47,9.03,16.86,14.24,4.02l-.36-2.46c2.65,1.31-.36-2.46,1.56-6.08.36,8.03,3.37,6.23,4.89,9.18-.24-1.65-.76-1.48-1.2-2.63.29-1.81.4-6.58,1.17-5.1,1.69,11.49,5.34,10.33,8.02,13.76.32-5.26,2.65-9.87,3.85-18.41.28,1.9.78,5.94,1.23,9.87.97-3.4,1.7-.78,2.4,2.33-.86-.1-1.61-.23-2.19-.41.02.18.04.37.06.54-.09-.36-.24-.45-.38-.63-.59-.25-.89-.55-.75-.98-1.08,5.05.07,4.06,0,10.18.88-.22,2.7,1.91,2.91-2.72.53-.08.88-.77,1.43-1.68.33.94.69,1.46,1.09.9l-.18-.63c.06-.86.14-1.39.23-1.93,1.72-2.63,4.15,6.53,5.56,10.75-1.41-7.72.36-8.7.36-14.3.16.44-1.6.78-3.78.92.16-.61.28-1.61.32-3.62,1.89-5.96,3.23,5.22,5.98,1.09-.18-.63-.53-1.91-.4-3.99.97-1.58,1.87,2.89,2.09,6.23.24-5.49,2.33-9.45,3.36-7.02.91,4.52.78,6.6,2.42,6.13l-.72-3.87c1.94-3.23,1.59,5.69,3.19,2.51-.64,1.55-.7-2.51-.22-3.3,2.02,2.15,2.07,4.27,3.52,12.01l-.27-6.06c1.72,3.62,4.96,11.04,5,2.82-.54,12.63,3.75,6.64,5.25,6.4-.52-.37-.61-3.03-.66-4.38,3.14,8.34,6.36.27,9.55.41l.51-9.2c1.68.36,2.16,18.54,3.99,18.13l-.66-4.41c3.23,1.47,4.54.7,7.16-.88l-.05-6.16c.94,2.88,2.11,2.84,3.05,5.71,2.14-14.97,8.47,7.89,12.39-8.83l.25,11.49c1.5-.23,3.41,2.06,4.11-6.56l-.33.17c-.15-8.79,1.5-.2,2.43-2.14.71.96,1.41,6.69.81,8.43,3.97-5.83,9.87.21,12.34-10.19,3.98,3.76,6.99,12.89,11.29,11.7l-.05-1.36c1.45-1.55,4.36-4.66,4.35-14.25,3.1,2.23,5.07,15.41,8.76,11.15l-.8-3.66c.94-1.9,2.44,2.68,2.81,3.8.33-.19.09-2.09.04-3.44.88-3.27,1.41,1.9,2.11,2.84l-.29-3.25c2.94-6.58,7.58,6.4,11.37,4.79-.7-.96-.33-4.6-.05-6.14,1.55,10.69,5.81,8.14,7.4,10.61l-.98-4.19c3.09,7.02,2.67-11.24,5.73-4.16l-1.76,6.14c1.25-1.82,2.31.24,2.01,5,1.45-3.53.18-8.16,2.37-9.18.09-2.99-1.58-2.05-.86-5.92l3.03-7.95c.09-.86.47-1.08,1.47-.23-.26,13.31,2.51.72.99,13.67,4.3.99,7.93-7.8,11.62-1.64,1.51-12.94,7.32-.48,6.95-17.14,2.08-.15,3.77,3.17,5.06,9.93-.42,1.32-.95-.78-1.37-1.61.55,4.24,3.05,4.94,4.1,4.87-1.37-3.78-3.59-7.04-4.66-13.41,1.89,1.62,4.53,7.85,5.59,9.92l.48-8.59c1.6,6.3,1.34-6.93,2.94,1.54l-.3,2.57c2.93-.61,2.97,7.94,5.69,9.04l-.12-3.39c.94-1.35,2.33,6.68,3.24-1.08l-1.78-.32c.18-6,1.54-8.65,2.15-11.68,1.88,1.57.66,9.81,1.61,10.6.4-5.62.1-3.02-.56-8.55,2.11,2,4.94,4.39,6.44,11.6.09-.89-.01-2.14-.01-2.14,2.19-1.01,4.12,9.15,5.46,4.35l-.42-.83c1.75-8.25,4.54,7.82,4.9-6.33.83-2.63-1.88.56-.55-6.39,2.6-4.46,1.72,11.87,4.01,7.87-.31.45-.21-.41-.32-1.7,1.66.31,3.86,1.7,5.69,3.14,2.25-11.51,6.88,2.87,9.46-10.54-.82,4.76.65,5.52.65,7.65,0,0-.11-1.26,0-2.13.94-.36,1.06,4.14,1.41,6.03.77-4.08,2.6,4.4,3.09,1.71.01,2.98.77,2.19,1.6,2.15-1.68-3.34-.54-6.39-1.3-11.06,2.51-1.46,2.88,13.1,5.49,10.78l1.44-5.66c.29,8.58,2.71,5.1,2.66,8.29.45-2.67,1.1-4.24,1-8.53,1.05,2.07,2.61-2.32,3.04,2.78l-1.04,2.24c3.23-3.24,5.17,9.09,7.65,3.37l-.05-12.86c1.66-5.26,3.06,7.07,4.49-.72-.5,4.31-.61,3.02.45,7.25-.63.89-1.79-2.46-2.84-2.38l2.23,7.55-3.47-3.65c1.49,5.06,1.38,3.79.77,8.98,2.11,4.14,2.28-6.16,4.28-1.15.73-1.77-.02-6.41.81-9.03,1.79,4.58,3.41-9.25,4.69-2.46.41-1.32-.74-.39-.64-3.4,1.16,1.22,1.99.71,2.32,4.58l-.99,1.41c.87-.35,1.01,4.9,2.67,1.89.96,2.96,1.5,9.33.46,9.41.42.82,1.35-2.64,1.02-6.5,2.59-.16,1.24,13.72,3.73,7.59-.17-.39-.35-1.05-.26-1.81.62-.91,1.14-.94,1.57-.12-2.21-1.11.69-10.32-1.92-7.99.29-6.85,1.98-1.41,2.81-4.04,1.27,4.63.14,9.84.78,13.22-.01-2.15.52-2.17,1.14-3.07l-.6,5.17c.53-.02,1.05-.05,1.68,1.19l-1.06-2.08c1.15-.91,2.9-9.17,4.91-4.19-.54-2.1-1.6-6.29-.25-8.96,2.21,3.3.52-2.16,1.76-6.1,2.19,1.13.38,9.23,3.62,6.03.35-.03.03,3.01-.33,4.43,2.21-2.51,3.41,1.12,5.56-2.62-.94,1.34-1.66,3.11-.4,5.58-.54-4.24,1.76-3.97,2.59-6.6l.22,2.58c.66-2.8-.05-3.9-.59-4.85.02.87-.18,1.7-.58,1.48-1.05-2.07-.67-11.95,1-12.91,1.79,2.43,1.5,9.33,1.19,11.91,2.39-2.74,2.24,11.85,4.53,7.84.52-.02,2.26-10.42,3.94-11.39.86,5.92-2.07,4.43-1.11,9.49,2.76-14.75,5.68,9.05,9.32.24l-.46-7.24c.84-.47,1.67-.96,2.62-.15l-1.24,3.94c.84,1.64,2.83.22,2.18-5.29,1.91,5.87,2.31,2.43,4.08.57-1.88.57-.03,1-1.41-2.75,1.97-3.55,2.13-1.13,3.49.48-.23-2.56.49-6.48,1.02-6.48,1.28,4.62,3.47,3.62,5.25,6.07v-2.15c2.99,2.75,6.24-7.28,9.26-.89h0,0c.05.14.11.15.15.28l-.24.45c-1.04,6.83,2.34,4.81,3.26,7.65.2-1.74.3-4.74.82-4.77.03,6.43,1.17,3.33,1.6,6.32,1.04-2.21-.13-7.69,1.65-7.38.69.56.77,3.9.69,6.34.37-3.25,1.51-5.8,2.45-6.57-.32-1.68-.83.5-1.05.09-.12-3.41.51-2.18.5-6.48.83-.47.34,5.99,1.38,3.76l-.97-5.07c.42-1.29.95.83,1.16,1.22-.63-1.23-.54-6.39-.45-9.4,2.42,3.72.47,13.67.6,19.24,2.29-3.99,4.09,2.72,5.87,3.05l-.34-5.97c.87.91,1.28,2.26,1.6,4.83l1.34.04c-.77-2.14-1.03-4.02-1.08-8.81,1.42,1.65,3.37.14,3.74,8.14l-.06-1.33c1.89-2.86,5.85-4.54,5.72-7.2,2.03,2.63,4.61-1.98,4.67,5.93,1.21,1.9,3.14-10.21,4.01-.27,1.44-5.25.08-2.14-.36-8.01,1.44-5.22,2.9,8.11,3.38-3.27,1.68,3.51-.39,2.36.17,7.41.35-10.59,3.12-1.71,4.69-7.76.71,4.29-.72,2.64.5,7.19-.12-2.66.53-3.16.85-3.4l.31,6.65,1.6-16.4c2.38,7.8-.48,11.39,2.68,14.45l-.19-.56c.86-6.86,2.26,5.15,4.54-.07-.78,1.31-.32-3.18-.57-5.08l1.27,2.7c-.12-.36-.17-.8-.05-1.57,1.12-4.99.97,2.71,2.27-1.77-.9-1.35-.63-6.41-.23-8.77l1.86,7.51-.76-9.05c1.82-.72,4.51,13.73,5.44,1.28l-.9-1.36c.07-2.13.61-8.75,1.83-4.16.38,1.07.64,6.38.12,6.1l.91-2.09c-.44-5.85-2.7-7.54-4.13-9.2.45,2.41,1.55,4.32,1.21,8.02-1.27-1.91-2.47-5.88-3.7-7.83.5,2.37.8,6.16,1.04,8.52-1.37,3.13-1.03-4.04-2.06-4.6-.39,2.38-.66,3.95-.4,5.8-1.29-2.43-2.33-3.01-3.7.12,0,0,1.55,4.34.7,7.73-2.52-3.56-3.02-10.72-5.74-14.81-3.15-9.95-6.11,6.09-8.3-1.16-.12-2.66,1.64-4.69.22-6.36.25,5.33-.85,3.42-.92,5.54-1.54-7.77-2.28,1.73-3.37-3.59.26,1.85-.64,3.91-1.23,5.74.17,6.59-1.71,2.62.54,12.03-2.31-9.94-4.09,2.46-5.81-12.7l.59-1.85-2.32,3.09.1-.15c-1.01,1.08-1.16-.65-2.51,6.18.58,1.61,1.42,1.64,2,3.26-1.24,5.8-2.58-4.89-3.95-5.22.06,4.79,1.43,1.68,1.03,7.5-.98.76-1.81-2.74-2.72-4.09l.13,2.64c-2.42,6.03-.94-13.04-2.72-4.09.06-1.57-.17-3.27-.06-4.81-.66,2.81-2.2,7.55-.67,10.88-.84,0-1.8-2.31-2.23-5.29.71-3.92.89-1.93,1.16-6.96l-3.39-2.73c-.38,0,.28,2.57.76,2.6-3.99,14.07-8.06-11.87-12.55,5.01.51-4.31-.33-3.83-.76-6.79-1.46,1.35-3.66.23-5.01,2.88l.43,2.97c-3.47-3.63-5.86-8.33-8.15-6.47-.11-1.29.02,4.27.43,5.12-1.69-5.44-3.71,11.8-4.18.26l.62-.9c-3.34,1.93-7.04-6.39-10.49-7.88-.81,6.9,1.99.72,1.28,8.9-2.4,2.72-4.82-3.1-7.43-.79.42.84.33,1.66.53,2.11-2.59,4.44.29-6.88-1.9-5.87.12,3.4.01,4.26-.72,6.02l-.64-5.52c-.11.87-.09,5.13.23,6.83-.97-7.24-3.88-2.33-4.64-9.12-.2,1.73.35,8.11.05,10.71-1.16,2.02-1.96-.71-2.74-3.3,0,.02,0,.02,0,.02-.82,4.79-2.81,4.07-2.39,4.89-2.09,2.26-.33-3.83-1.92-8.02l1.66-3.08-2.94-1.54,1.17,3.35c-1.35,2.66-2.74-3.26-4.3-3.12l.72-3.94-1.79-2.42c-.18,8.13-2.29,1.83-1.31,11.22-3.33,4.07-5.47-6.5-8.51-7.15.53-.03.32,1.66.43,2.96-1.77,1.83-2.83-2.39-3.89-6.6.22,2.54.64,3.37.65,5.54-2.09.1-1.27-4.64-3.58-7.07.64,3.4.44,5.14-.19,6.01.1-2.99-.43-5.1-.86-5.94,1.74,16.16-2.59,6.58-1.49,19.37-.11-3.42-3.71-10.47-2.68-16.95l.63,1.21c.07-4.46-.78-2.7-1.43-3.02.33.75.69,1.75.7,2.66-3.27-5.35-6.7-.41-10.38-4.45.32,1.68,1.8,4.6.86,5.94-3.65,2.37-5.77-6.06-9.45-10.1-.17,10.31,3.98,1.47,4.12,11.29-3.88-2.31-7.87-5.89-12.18-11.18-1.51,15.1-4.21-6.16-6.88,5.62.25-5.06-1.08-6.89-2.53-7.02.5,4.12-1.03,4.23-.61,7.2-1.27-4.63-4.94-6.54-4.8,3.31-.33-9.53-2.73.45-3.78-6.29-1.6,3.57-3.44-1.99-5.45.89.71-6.03-2-2.85-2.74-5.38.21.4.63,1.25.53,2.1-.6,5.2-2.32-4.55-3.45-1.47-.51,2.17.13,5.54-.71,6.02-.02-4.27-3.07-9.24-4.21-4.01.52-.03.53,2.13.85,3.79-5.36-7.32-11.08,1.61-16.56-7.02l.97,7.19c-3.42,9.25-2.25-11.83-4.96-10.79-7.42,3.5-15.12,13.83-22.36,9.15-.53-2.1.31-2.58.4-5.59-.63.89-.81,6.9-1.66,3.1l.19-3.87c-3.31,10.5-9.55-7.1-12,9.34-3.16-6.2-5.39,4.45-9.23-4.85-1.21,3.45,1.41,6.67-.23,7.64l-3.56-6.06.19.57c-3.43-11.62-9.07,12.99-13.39,4.63l.18.57c.1,2.68-.79,5.94-1.49,5.02-.24-1.9.23-2.89.64-5.18-3.84-4.53-4.68-4.73-7.72-5.64,1.31,4-1.22,3.48-1.35,9.05-.8-3.64.46-5.78-1.32-8.82-2.53-.52-4.86,4.29-6.96,6.24-.85-4.95-1.97-3.59-2.02-9.71-2.86-.35-4.45-2.79-7.96-2.74l-.09,2.11c-.94-7.65-3.04,3.87-3.7-.53.1,2.7.47,3.82.38,5.94l-1.59-2.46c.75,2.3,1.18,9.55-.13,10.37-1.36-5.36.38-3.66-.29-8.03l-.41,7.08c-1.03-.77-1.32-8.78-.06-10.94-3.51.08-6.98-3.31-10.1-2.13l.33,4.62c-1.73-1.71-4.07-1.67-5.1,2.38-.05-1.36-.47-3.83-.2-5.35-2.06-6.28-.22,7.64-2.47.79.56,1.72,1.26,2.65,1.36,5.35l-4.22-5.67c-.04,3.44-2.61,11.15-4.39,8.11-.07-1.93.44-4.55.9-4.95l-1.14-1.72-.88,8.02-1.65-7.03-.03,6.71c-1.22-1.34-1.7-9.94-2.68-9.35-3.68,4.28-2.93,6.57-5.55,12.93-.29-12.83-4.16.47-4.83-8.73-3.5,9.64-8.56,3.79-13.14,6.56l.37,1.13c-1.96,5.96-2.23-9.73-4.34-7.14l.53,1.9c-2.71,6.84-7.47.59-10.04-4.83.53,1.92.26,6.04-.57,5.59-.7-2.51.68-8.99-.78-6.56.36,1.24.08,4.06-.26,4.12l-1.43-6.39c-3.74,4.39-8.14,8.99-12.02,5.29-.72,2.26-.19,4.58-.02,6.78-3.08-1.35-6.13-6.7-8.91-7.86l-.28,7.4c-1.36,0-.84-11.34-2.61-4.74-.39.99,1.17.48,1.66,3.76-2.73,5.62-1.61-7.22-4.22-6.39l.68,8.36c-2,4.95-2.28-4.41-3.01-9.33-2.81-9.85-2,16.12-5.81,8.74-.61-4.11.2-6.08-.41-10.19-2.69,2.16-3.01-3.75-5.7-1.61-1.44,12.48,1.37,0-.19,11.66l2.05-2.83c-1.77,6.57,1.6,1.67,1.33,9.06-1.32,2.14-3.33-4.12-5.06-6.57,0,5.59,2.01.65,1.21,8.21l-.89-2.29c.24,1.64.29,3.76.8,3.61-.32,5.26-1.04.31-1.89.18-.06-2.91-.01-7.01.27-11.03-.03.61-.1,1.28-.23,1.99-1.73-8.03-4.65-1.95-6.14-8.34.24,1.66.04,2.14-.04,3.47-1.05.31-2.13-7.07-3.53-9.19-.77,4.11.44,12.31-1.81,10.03-.4-4.62.6-12.66-1.29-12.49,0,0,1.65,3.78.77,7.05Zm42.35,10.92c.21.08.53.21.91.35v.12c-.46-.26-.72-.38-.91-.47Zm3.39,4.98c-.37.11-.51-2.06-.38-4.18.59.04,1.15,0,1.6-.24-.55,1.78-1.42,3.01-1.22,4.42Zm-6.84,34.91c.02.26.05.52.07.75.43.42.75.63,1.02.73-.08,1.25-.28,2.46-.86,1.59-.11-.81-.18-1.9-.23-3.07Z"/><path class="cls-1" d="m205.11,516.41c-.09-.13-.13-.39-.24-.45.12-.54.23-1,.35-1.38.07.65.14,1.29.21,1.92-.11-.04-.22-.05-.31-.1Z"/><path class="cls-1" d="m540.5,507.34l-.08.14c.07-.24.12-.48.16-.87-.05.3-.05.49-.09.73Z"/><polygon class="cls-1" points="265.08 470.33 265.07 471.87 264.75 470.52 265.08 470.33"/><path class="cls-1" d="m560.87,486.34c.04-.54.12-1.09.27-1.56-.01.4-.13.96-.27,1.56Z"/><path class="cls-1" d="m569.68,484.97l1.24-2.18c-.54,1.24-.93,1.83-1.24,2.18Z"/><path class="cls-1" d="m576.44,481.94c.09,1.07.11,1.88.13,2.63,0,.02,0,.02-.01.04l-.12-2.67Z"/><path class="cls-1" d="m468.84,474.75c-.09-.03-.18-.11-.26-.28-.61-1.19-.2-.72.26.28Z"/><path class="cls-1" d="m500.86,489.04c-.34-1.11-.67-2.2-1.03-2.89.57-.47,1.01-.59,1.03,2.89Z"/><path class="cls-1" d="m433.08,467.38s0,.05,0,.11c-.08-.02-.14,0-.22,0l.22-.11Z"/><path class="cls-1" d="m498.34,486.26c.57-1.22,1.05-.96,1.49-.11-.47.41-1.02,1.04-1.49.11Z"/><path class="cls-1" d="m605.78,479.17l.33-.26c0,.4.01.73.04.98l-.36-.73Z"/><path class="cls-1" d="m606.14,479.89l.36.72c-.17,0-.31-.05-.36-.72Z"/><path class="cls-1" d="m607.27,482.16l-.76-1.54c.26-.02.59-.21.76,1.54Z"/><path class="cls-1" d="m596.82,481.99l-.1-2.22c.06.46.09,1.18.1,2.22Z"/><path class="cls-1" d="m594.09,481.35c.65-.5,1.63-4.73,2.54-3.34l.08,1.77c-.43-3.3-2,5.32-2.62,1.58Z"/><path class="cls-1" d="m582.73,508.77l2.28-1.77c-.4,2.36-.92,5.54.11,6.11-2.88,7.05.59-5.29-2.4-4.34Z"/><path class="cls-1" d="m575.66,512.2c1.23,1.1-.01,3.43.05,4.77-.78-2.16-.97-2.7-.05-4.77Z"/><path class="cls-1" d="m524.54,512.22l.12,5.57c-.95-.8,0-2.16-.12-5.57Z"/><polygon class="cls-1" points="514.76 483.45 515.68 479.99 516.12 485.09 514.76 483.45"/><polygon class="cls-1" points="508.99 523.11 509.4 523.9 507.83 521.88 508.99 523.11"/><path class="cls-1" d="m423.13,521.13l.29-6.85c.64,1.23.77,8.93-.29,6.85Z"/><path class="cls-1" d="m386.07,514.15c-.4,3.43-1.45,5.63-2.09,2.26.83-.47,1.66-3.15,2.09-2.26Z"/><polygon class="cls-1" points="274.91 525.32 275.65 527.61 274.25 525.7 274.91 525.32"/></g><g><path class="cls-1" d="m659.18,666.72c1.82.6,6.07.81,5.35-.4l-7.08-1.54,1.73,1.94Z"/><path class="cls-1" d="m673.24,660.55c-3.34-1.68-9.28-3.84-15.95-3.67,6.75,2.02,3.84,2.04,11.89,4.3.72,1.21-2.5,1.72-5.12,1.26,1.8.59-1.76,1.58,2.68,2.66,5.7-.88,6.11-2.71,1.74-5.13,1.62-.25,3.44.35,4.76.58Z"/><path class="cls-1" d="m695.84,551.91l-.92.62c.49-.14.78-.36.92-.62Z"/><path class="cls-1" d="m706.85,484.29c.12.54.81.83,1.45.92-.42-.53-.82-.97-1.45-.92Z"/><path class="cls-1" d="m715.96,473.5c-.25.23-.38.42-.56.63.69-.19,1.08-.42.56-.63Z"/><path class="cls-1" d="m695.84,551.91l2.44-1.58c-2.32-.37-1.83.75-2.44,1.58Z"/><path class="cls-1" d="m657.53,643.61c.31.42.94.8,1.79,1.18-.28-.34-.51-.67-.67-1.01-.38-.06-.71-.11-1.12-.18Z"/><path class="cls-1" d="m698.53,582.51l-.05.55c.8.25,1.77.5,2.86.76l-2.82-1.32Z"/><path class="cls-1" d="m697.23,605.64c.32-.49-5.75-1.31-8.38-1.78,2.47.55,3.63,1.06,4.05,1.57,1.16.13,2.55.2,4.33.21Z"/><path class="cls-1" d="m682.73,641.02l.77.73c-.25-.2-.46-.5-.77-.73Z"/><path class="cls-1" d="m701.56,566.17c.91.06,1.72.06,2.2.02-.77-.08-1.5-.07-2.2-.02Z"/><path class="cls-1" d="m711.65,679.84c-.23-.38-.36-.61-.56-.94.19.6.38,1,.56.94Z"/><path class="cls-1" d="m672.87,666.81l.17-.46c-.51-1.05-1.01-2.07-1.5-3.09l1.32,3.54Z"/><path class="cls-1" d="m725.97,453.05c-.07.03-.08.05-.13.08.64.63.55.3.13-.08Z"/><path class="cls-1" d="m777.53,420.21c1.73-5.59,6.89-3.52,8.17-10.23-1.26,2.05-7.97,5.87-8.17,10.23Z"/><path class="cls-1" d="m658.39,643.1c-.04-.32-.06-.64.04-.95-.25.41-.25.7-.04.95Z"/><path class="cls-1" d="m785.7,409.98l.03-.04.09-.66c-.05.29-.08.45-.13.7Z"/><path class="cls-1" d="m727.32,404.55c-1.07-.12-1.89-.17-2.67-.2.5.04,1.1.08,2.67.2Z"/><path class="cls-1" d="m714.95,439.28l.91-.82c-.59.3-.81.57-.91.82Z"/><path class="cls-1" d="m719.75,393.85c.46.06,1.26.59.53-.32-.26-.16-.46-.28-.71-.43.77.72,1.12,1.13.18.74Z"/><path class="cls-1" d="m720.75,383.89l-1.1-1.32c.08.23.17.5.25.73l.85.59Z"/><path class="cls-1" d="m762.56,642.5c-1.39-1.11-2.75-2.47-4.05-3.85,2.85,3.3,1.31,6.36,4.05,3.85Z"/><path class="cls-1" d="m660.95,643.95c-1.52-.27-2.27-.52-2.56-.86.05.23.14.46.26.69.9.15,1.75.25,2.3.17Z"/><path class="cls-1" d="m674.77,359.8l1.45-5.16c-.71,1.15-1.23,3.06-1.45,5.16Z"/><path class="cls-1" d="m861.95,523.34l.41,1.08c.24-.28.18-.64-.41-1.08Z"/><path class="cls-1" d="m677.62,337.27c2.04,1.21,3.27,1.53,4.13,1.37-.39-.73-.7-1.4-1.3-2.31-.94.27-1.88.58-2.83.94Z"/><path class="cls-1" d="m758.47,638.61l.04.05-.04-.05Z"/><path class="cls-1" d="m749.14,663.08c2.72-1.66-3.23-7.33-5.3-11.51,1.76-4,4.79,3.88,8.19,6.53.74-3.09-2.06-10.16-.47-10.92.87,1,1.43,1.2,2.07,2.78-1.7-6.61,5.8-4.57,3.34-12.73.59.45,1.08.93,1.49,1.38-2.77-2.96-5.26-6.21-6.92-8.61,1.03-.92-1.01-5.59,2.56-1.69-.76.38.45,2.12,1.12,3.68l-.22-2.7c5.57,5.26,0,3.28,3.33,7.77.82-3.7-.34-10.64,2.66-10.26,4.88,5.59-2.54,5.05,3.77,8.52l-4.41-.21c9.1,7.75-2.15.6,7.27,9.12,4.94-1.03,1.76-6.06,6.65-7.14-1.73-3.86-4.01-4.58-5.75-8.43.33-9.66,15.54,11.38,13.06.75-2.17-4.6-7.78-12.1-2.08-10.41l4.48,7.15c3.92-2.21-5.81-10.76,1.28-9.46,1.53,3.02-.8,4.35.34,4.68,6.55,3.06-1.48-4.99.22-6.46l5.21,5.28c2.81-3.98,3.09-11.39,5.89-15.91,1.3,1.8,2.23,4.1,4.67,4.92,2.3-7.16,10.73-9.16,18.5-10.92l-2.97-6.21c.44-.37,2.85,1.17,3.33,2.48,3.51-.24-2.89-2.85-3.91-5.44.63-1.34,4,1.08,4.79,3.05-.87-7-.48-17.1,7.77-16.48l.9,1.91c4.43-1.29-7.73-11.35-.97-10.35l.51,1.2c7.14-4.76,7.1-15.19,18.53-15.68-3.64-2.88-1.74-4.09-.24-5.52,1.44-1.47,2.45-3.14-3.11-6.35,7.84-1.23,9.27,1.06,16.15-3.6,1.37-1.5-6.19-5.81-6.61-8.37l6.23,2.47c-1.77-1.88-3.57-3.7-5.39-5.48l8.13,1.26-.89-2.71c-.66.72-3.44.77-5.21-.02-1.82-4.12,7.07-6.35,10.37-5.63-1.08-3.32-2.16-6.48-3.39-9.59,2.62.77,3.19,2.35,4.57,3.86-5.56-5.96,7.13.74,1.87-4.81-1.6.26-3.86-1.09-5.17-1.44,4.42-1.19,5.3-6.11,3.92-9.88l4.52,1.2c2.05-6.62-1.3-14.36-1.68-21.79-2.02,2.88-10.06,2.63-10.91.75l6.97-1.42c-4.51-.93-2.42,2.35-8.07.15.52-2.57,7.8-2.64,10.29-1.24l-2.84-3.06c2.08-.47,3.28.17,5.99.07-4.49-.72,6.27-7.19-1.78-7.9l2.03-.6c-1.46-7.71-4.99-10.35-7.25-15.98-5.8,1.97-5.36-.67-10.56-.39.44-4.54,2.58-10.79-.24-15.15-4.43-1.57-5.04,1.63-8.97,2.11,4.74-2.95,1.76-6.99,6.49-6.83-1.89-2.43-3.22-3.8-5.01-5.11-1.81-1.26-3.98-2.6-8-4.01-1.34,1.99-1.61,3.24-3.4,4.04-1.5-.41.09-3.65,2.31-5.16l.66-.08c-5.73-.58-5.37-6.54-5.75-12.26-.23-5.83-1.17-11.13-7.46-9.17l.65-.17c-2.97-.08-5.88-.12-8.83.05-1.55-2.64,4.13-1.96,4.79-5.96-5.74,1.17-7.5-.82-9.01-3.07-1.53-2.12-2.75-4.5-6.85-3.77,3.33-7.9-.07-10.07-3.99-11.52-3.92-1.55-8.33-2.44-7.92-8.36l-1.84,3.42c-3.33,2.37-.31-2.83-.77-4.19-1.49,2.62-.52,3.8-2.44,5.07-6.51-1.54-11.23-5.86-15.62-11.27l-6.53-8.23c-3.77-3.67-8.86-7.73-13.83-10.95-3.79-2.35-5.89,2.19-7.72,5.72-1.94,3.48-3.3,6.09-7.01-.76.92-2.2,1.93-4.36,3.03-6.48-7.71.99-14.26-1.82-21.46-5.14-6.98-3.24-14.63-6.94-19.28-4.91-.14-1.86-1.28-4.68.1-4.07-2.83-4.03-5.8-5.35-7.51-4.86-1.74.49-2.11,2.84-.64,5.77-2.39-1.54-3.16-5.52-6.05-9.1-2.64-2.79-3.39-1.29-3.94,0l-.22.46c-.08.13-.19.2-.04.71.16.78.26,1.44.27,1.89.01.9-.36.98-1.48-.4-.73-.88-1.27-3.23-1.51-4.4,1.79,5.58-1.86,8.89,3.43,14.74-1.56.8-1.35,4.27-1.16,7.34.18,3.1.32,5.81-1.52,6.02,2.76,4.98,1.78,6.24,1.1,7.79-.67,1.53-1.02,3.26,3.22,8.01-8.78-9.65-8.54,2.65-4.48,9.34-2.65-3.33-3.19.87-6.89-3.35-.33,4.46,1,9.41,5.86,11.53-5.95.29-4.14,5.74-2.58,9.66,1.54,4.1,2.79,6.95-4.81,7.1.91,3.29,1.8,6.51,2.67,9.67l.3,1.11.34.66.65,1.3,1.2,2.57c1.5,3.39,2.64,6.66,3.47,9.85-9.74-1.24-.27-6.89-10.55-7.7,3.42,6.25,11.45,10.48,8.49,16.02-1.49,1.36-4.14-1.29-5.76-1.97,3.42,6.24-2.06,11.17,2.72,16.9-.91-.11-1.84-.77-2.53-1.38.22,1.05-1.67,2.23,2.77,2.57l-1.1-1.12c6.61-.96,13.04,5.46,16.42,5.99-12.54-3.06-3.73,4.79-19.52.36.77.76,2.78,1.82,5.77,1.98-.97.91-2.74,1.04-6.01-.32,2.04,3.91,6.89,3.1,6.45,6.4-2.15-.24-2.91-.99-5.4-1.6,4.02,2.11,8.03,4.24,5.92,6.85-1.28-.3-3-.15-2.88-.99.15,4.88,10.31,9.36,5.71,14.21-9.18-2.53-3.26,1.47-11.37.91l2.11,3.09,4.04-.73c-.4,2.47,5.26,5.28,2.39,7.14l-3.14-2.19,1.05,4.82,3.34-2.32c3.9,2.95,10.25.79,7.66,3.87-.75-.76-.36,2.48-5.26,3.28h-.02c2.45,1.49,5.03,3.03,2.83,4.66-2.63.21-8.9-1.31-10.65-1.18,6.63,1.92,1.26,6.01,8.3,8.3-1.64-.69-5.87-1.16-6.76-1.08l5.38,1.59c-1.88.97-2.74,1.05-6.11.51-1.36,3.36,10.37-.03,5.52,3.62-.41-.37-1.24-.3-2.01-1.06-2.73,3.89,2.65,8.34-.44,11.85-8.25.27-1.65-3.52-8.64-2.95.91,5.62,8.57,12.34,6.1,17.43l1-.89c11.4,1.93-6.08,3.35-.95,6.59-.78-.74-6.29-1.52-5.02-1.21-2.22,3.43,2.05,7.7,5.09,13.57l-2.88-.99c-2.85,1.86-2.1,5.47-3.69,7.63,2.87.99,2.26,2.26,6.63,1.91-17.54,5.37,7.59,14.51-7.06,19.36.05-.76-2.39-2.07-2.46-1.47l2.15,5.66c5.05.1,3.1-.39,7.12-1.11,2.89.99,5.04,2.75,4.9,4.08-3.06-2.76-8.04-.82-10.93-.06,1.55-.02,3.2.52,4.77.59-9.19,1.88,10.02,1.52,3.62,4.73l-2.6-.48c1.19,1.57,4.53,3.26,3.61,4.73-5.85.04-2.54-1.81-7.29-2.4.11,2.21,10.52,5.43,4.54,6.8-1.52-1.09-1.4-2.42-2.91-3.51-7.01,1.44-5.32,1.86-6.56,3.34l.17-.14-3.46,3.36,1.94-.75c14.8,4.29,2.18,5.83,11.68,10.52-8.98-4.54-5.35-1.15-11.88-2.11-1.92.75-4.11,1.96-5.91,1.36,5.11,2.28-4.46,2.46,3.01,5.71-2.11-.11-.4,1.83-5.66.89,1.43,2.42,3.73-.15,6.36.32,6.85,4.22-9.6,7.25-.22,13.27,3.62,4.73,10.66,6.27,13.79,10.63-3.52,1-7.58-1.9-7.58-1.9-3.34,1.85-2.93,3.55-.73,5.85-1.8-.61-3.4-.34-5.84.04.38,1.7,7.57,1.9,4.23,3.75-2.31-.62-6.03-1.49-8.31-2.53,1.74,2.14,5.48,4.47,7.18,6.67-3.73.15-5.45-1.79-7.78-2.75,1.42,2.43,2.73,6.19,8.47,7.49l2.23-1.23c.2.85-5.05-.1-6.04-.81-4.37-2.41,2.31-2.58,4.44-2.47l1.2,1.57c12.54-.18-1.39-5.95-.37-8.75l8.88,2.14-7.17-3.73c2.41-.38,7.48-.29,8.68,1.27,4.67-1.6-3.01-2.16,2.13-3.41.79-.12,1.22.02,1.56.24l-2.47-2.29c1.85.59,6.39.33,4.96,1.43,5.57-3.08-6.15-6.54.82-7.19l.52.36c-2.52-5.34-6.56-1.17-13.93-5.75l16.57-.84-6.56-1.18c.29-.49.89-1.47,3.52-1-4.32-2.4-2.91.03-7.06-1.53,6.28-1.87-2.1-7.16,8.49-6.63-4.93-1.42-4.13,1.98-7.35-1.04,11.41.42-1.62-3.28,3.81-5.01,5.77,1.31,2.45,3.14,7.91,1.41-9.74-2.4,2.62-4.21.93-6.33-7.86-.91-2.84-4.52-5.13-8.01,2.62.48,4.95-5.61,8.1-8.32l1.31.23c-7.89-1.41-6.07-4.34-7.48-6.77,4.75.58,6.58,1.18,8.59,2.63l.18-2.12c-2.5-.76-3.77-1.56-4.54-3.03l5.89,1.15c-.03-2.85-6.41-6.4-2.06-9.61-5.52-.78-15.73,1.28-19.04-2.94,3.01.17,8.15.56,9.27,1.69-.35-.37-2.37-1.43-1.02-1.96l4.88,2.06c2.39-1.42-4.12-1.3-3.52-2.57,4.27.47,3.15-.66,6.52-.12.38.38-1.88.97-.26,1.65.92-1.41,3.65-2.94,6.94-3.2-2.44-.12-5.76-.6-6.2-1.75-.02-2.85,5.24-.43,7.61-1.84-2.9-.99.36-2.47-6.02-3.18.12-.82,3.12-.66,4.88-.8-2.67-1.75-.1-6.89-7.07-5.96l-.49.33c-.12-.08-.12-.17-.26-.27h0s0,0,0,0c-5.86-5.44,4.65-9.55,2.41-14.58l2.13.23c-2.15-3.08-.79-6.45-5.18-8.95.09-.84,4.11-1.57,6.62-.95-1.38-2.33-3.76-2.82.09-5.58,3.5,2.56,3.38-.41,2.5,2.51,2.14-2.62,5.63-2.9.1-6.53,5.37,1.6,7.11-1.4,5.62-2.91l-4.13,1.56c-.64-1.59-.02-2.85.59-4.13l7.13,1.47c9.36-4.84-13.83-11.93,1.29-14.78-4.88-2.05-3.87,2.76-9.62.78,1.25-2.54,11.87-4.23,11.98-5.05,4.37-3.21-10.17-4.48-7.05-7.99-2.61.22-9.52-.04-11.65-3.12,1.23-2.55,11.12-2.13,13-.25.15.66-.7.88-1.57.76.85.95,1.83,2.19,4.73,1.43l-2.53-.61c2.76-1.04,2.86-4.71,6.99-3.42-2.24-2.26-4.13-1.29-5.62.05,4.07-3.01.66-5.29,3.53-8.53-1.47.41-4.54.61-4.46.06,3.72-4.8-4.64-2.76-5.4-6.36,4.12-1.57,9.28,1.68,6.36-2.16,2.87-1.86,6.86.26,8.87,1.32-4.62-3.7,3.88-5.62,4.97-7.34l1.9,1.89c-1.13-1.13-1-1.95-.9-2.79l-5.24.42c1-.89,1.11-1.72,3.24-1.48-3.26-1.37-8.63-.11-13.02-2.61,2.75-1.04-2.39-4.29,4.48-4.04-2.74,3.89,6.9.26,7.63,3.87-.74-.76-.63-1.58.38-2.47.78-.07,1.4.29,1.76.6,6.51-3.32-7.52-2.62-6.94-6.7,3.79.92,7.39-.19,6.64-.95-.25,1.64-6.49.12-9.28-1.7,3.27-2.32-1.93-3.09-1.44-4.43l-1.57,1.42c-3.79-.93-3.15-2.19-4.17-4.15,3.01.15,1.89,1.88,3.27,1.36-6.54-2.74,7.47-3.87,3.21-7.18,2.74-1.04,7.23.62,9.12-.35-4.65-3.7,5.62-2.89,1.85-6.66-5.26.43-4.02.73-8.81-2.15l3.06,5.87-7.14-4.31c-.25,1.65,2.89,3.84,1.9,4.74-4.04-2.12-2.77-1.81-7.14-1.46,7.98-1.46-4.05-4.97,1.46-7.04l12.78,1.41c6.11-3.35-5.84-7.69-2.09-12.47l-2.4,1.41c-5.01-1.21-.38-3.23-2.27-5.11,4.25.72,5.95-.59,8.61-.27-3.16-.44.41-1.08-7.98-3.41,1.89.02,3.78.17,5.64.44,1.21-.43-1.71-1.94-4.68-3.99-2.98-1.98-6.01-4.46-5.17-5.53,4.36,3.26,7.33,4.06,10.39,6.94.1-.52.89-.53-1.92-2.23,1.29.59-.04-.62-1.19-1.92-1.15-1.28-2.11-2.67-.17-1.54-1.73-1.61-5.9-5-5.46-5.78.82.56,1.97,1.64,1.97,1.64-1.97-1.57-2.5-3.91-6.99-6.75,6.36,3.7,6.28,2.08,6.05-.36-.25-2.27-.65-5.33,4.51.71-1.11-3.29-2.07-7.36-2.17-9.5,1.08,2.01,1.82,3.17,1.41,2.8.46.49.61.5.62.31.12-.01,0-.39-.25-1.01-.5-1.24-1.57-3.43-2.58-5.57-2.06-4.31-3.7-8.38-.51-4.5,6.28,10.56,1.28,4.82,4.04,8.97,5.39,10.32,5.4,9.78,5.27,8.34-.2-1.47-.26-3.72,2.55,2.16l.18,1.03c1.71,3.46,1.34,1.78,1.14-.37-.25-2.17-.27-4.73.79-3.69,0,0,.32,1.55.68,2.71-1.32-8.7,1.48-10.1,3.82-11.28-.4,6.03-.76,2.94.04,9.62.82-.51-1.09-10.66,1.16-11.35.84,3.82,2.19,7.45,1.83,14l-1.36-.31c.33,4.52.58,4.57,1.02,3.81.41-.77,1.02-2.34,1.28-1.46l-.51,3.55c1.58-.44,3.8-8.97,6.47-6.9l.6-2.59c2.33-3.56,2.4-2.17,2.15-.64-.2,1.56-.69,3.26,1.58.91l-3.5,7.88c2.36-1.05,8.99-4.64,12.37-4.55-4.57,4.66-9.17,5.96-12.78,8.29,1.36.81,5.03,1.97,7.83-1.3-.96.39-2.71,1.86-2.62.4,5.03-5.01,8.92-6.49,11.66-4.73-8.97,14.04,5.11,7.85.02,20.09,8.01-2.29,7.44,8.08,12.91,10.77,5.92-11.7,1.68.76,9.33-10.08,1.7.25,2.02.78,1.6,1.55-.42,3.04-.89,6.04-1.4,9-1.62,3.65-2.91,1.45-4.66,3.87,1.77,2.68-2.52,5.19-3.22,9.12,2.72-3.94,5.11-4.58,5.2-2.09l2.15-6.28c7.84-2.55-4.56,10.85,3.2,8.29l-3.8,2.25c3.38-.46,5.24,5.17,14.51-.83-.85,1.36-3.16,4.22-4.46,4.22,1.03,2.35,4.95,2.39,8.41,2.95,3.28.59,6.23,1.66,4.74,5.13l-2.82,1.64c1.23.13,5.82-2.31,3.78.51-1.14.72-2.86,1.57-2.79,2.01,1.15-.3,6.05-1.27,5.15.75l-3.64,1.18c-.49,2.99,2.01,3.2,5.57,3.13,3.56-.1,7.58-.37,9.52,1.01-4.33,2.06-6.8,4.22-8.32,6.02-1.59,1.83-2.29,3.35-2.73,4.33l-1.28.44c.45,4.32,9.89,4.69,14.52,9.05-5.04,2.28-5.64,4.52-6.18,7.03-.31,2.44-.5,5.22-3.49,7.05,1.82-.51,7.43.71,8.28,1.68-2.06.83,6.23,4.02-2.45,2.61l.21-.36c-8.54-.39-6.77,1.87-7.27,3.47l11.19,2.69c-8.75.64-7.84,3.64-7.2,7.04.84,3.3,1.46,6.77-5.92,5.12,2.27,2.2,1.54,3.56,3.64,5.88l-5.57-2.64c-2.76,2.33-4.26,3.35-4.92,7.72l-3.43-2.88c-1.45,1.72,13.9,11.42,12.95,13.76l-8.2-4.19c-2.25,3.88-11.26,2.77-7.07,11.18-1.04-.86-3.1-2.54-3-3.33-1.44,1.56-9.71,2.5.64,9.74-6.49-5.07-3.54,3.09-2.44,7.41l-4.37-4.21c4.53,6.59,6.07,8.05,5.68,11.77-1.07.02-4.05-2.74-2.26-2.43-3.92-.32,3.06,5.24-1.33,5.24l-2.13-3.41c-2.01,1.49-.34,2.74,2.03,6.84.73,2.85-4.42,2.41-8.59-1.15,2.18,2.56,4.42,6.67,2.25,6.63-1.61-1.32-2.15-2.61-2.41-3.24-5.81,0,.53,9.4-5.69,7.15-1.43-1.41-2.26-2.01-2.85-2.29,2.48-2.17,4.57-3.8,4.72-3.31-3.95-3.96-6.46-2.87-10.42-9.8,1.56,4.41,5.28,13.55,1.56,13.4-.46-.31-.91-.62-1.57-1.18l-.24-.64c-.81,0-.84.74-.56,1.77-1.22-.11-2.05-.26-2.7.2-3.34-3.21-3.9.15-5.02.86,4.16,4.49,2.21,4.92,6.77,7.6-.45-.18-.29-.71.19-1.49.03-.27.14-.49,0-.85.09.14.19.3.29.46.53-.72,1.29-1.58,2.19-2.52,1.32,2.99,2.23,5.69-1.14,4.16,2.12,3.39,4.23,6.92,5.17,8.63-7.06-5.1-12.77-6.32-16.55-9.98-.81,5.25-5.77,7.84-.57,18.4,0,1.9-3.13-1.71-4.6-2.84-.19-1.32.54-1.69-.21-3.2.04,3.77-4.67,5.22-.19,11.88-4.59-1.02-3.23-6.85-5.65-3.31l-1.07-2.28c-7.05-2.62-6.49,3.33-6.43,9.12.07,5.75-.39,11.31-8.82,7.18,1.09.46,1.61.66,2.5,1.69-12.41-.07-13.71,17.72-28.53,13.44-3.65-.43-1.19,4.06-.64,8.31l-3.99-5.26,1.41,8.04c-.84,7.01-14.59-10.01-13.87,1.72l2.83,3.48c-2.09.25-4.04,5.34-6.28.75.23.8,1.72,4.31-.08,2.68l-1.74-2.97-1.28,7.47c-4.42-.42-6.1-12.21-11.01-10.31-1.06,2.08-.14,11.39,1.55,13.1.71-.17,2.76.98,4.41,4.01l-.81,2.44c4.29,9.18,7.6,19.18,15.39,23.09l.07-7.07,3.3,3.8-2.36,1.63c3.62,3.3,2.6-.8,2.24-3.8,1.49,2.16,2.79,3.54,3.85,4.07l-1.83-10.06c2.29,3.27,2.55,7.59,5.55,8.42-.86-4.67-5.62-7.03-4.88-10.85,3.64,3.24,5.1,6.72,4.78,2.38,1.52,2.13,2.01,3.78,1.92,5.14-.1-3.55,3.18-3.35,1.22-8.44,4.29,4.08,4.06-4.09,8.81,4.24-.72-2.25-1.33-7.97-.25-9.09,3.55,11.28,5.21-2.38,11.01,8.5-3.64-9.88,3.98-7.86,3.99-14.67.27.8.82,2.42.27,2.14,2.2-.37,4.38,1.91,6.56,2.83-4.4-7.32-2.77-10.67-4.24-16.02,6.61,5.49,4.23,9.21,9.21,15.39-3.89-5.72-.12-8.2-4.02-12.52,4.42,3.18,2.75,1.15,7.51,6.47-5.66-9.05.49-2.52-1.85-8.84,5.26,2.78,6.22,7.86,6.94,3.44,3.07,1.85,2.92,6.54,2.92,6.54Zm46.41-60.31s.08.09.08.09c-.36.54-.67,1-.87,1.29.16-.29.39-.68.79-1.38Zm4.4-4.33c-.71.35-1.4.99-2.09,1.7-1.62-1.38-2.95-3.11-2.43-3.45.74,1.25,2.61,1.12,4.52,1.75Zm-37.96-22.52c.06-1.22,1.09-.53,2.02.32-.23.35-.45.83-.64,1.56.12.18.29.42.43.62-.72-.92-1.38-1.8-1.8-2.51Z"/><path class="cls-1" d="m766.19,582.93c0,.18.11.42.03.58.49.28.93.51,1.31.67-.36-.56-.71-1.11-1.05-1.64l-.29.39Z"/><path class="cls-1" d="m694.76,552.64l.15-.11c-.25.08-.5.15-.89.17.3-.05.49-.03.74-.06Z"/><polygon class="cls-1" points="861.95 531.93 860.52 531.36 861.54 532.46 861.95 531.93"/><path class="cls-1" d="m670.52,582.74c-.54,0-1.11.07-1.6.26.4.02.97-.1,1.6-.26Z"/><path class="cls-1" d="m667.7,596.54l-2.37,1.75c1.32-.72,1.97-1.29,2.37-1.75Z"/><path class="cls-1" d="m663.57,606.94c1.05.25,1.85.37,2.59.48,0,0,.02-.01.05-.02l-2.63-.46Z"/><path class="cls-1" d="m674.16,435.78c-.02-.15-.08-.3-.23-.44-1.08-1.09-.68-.39.23.44Z"/><path class="cls-1" d="m683.09,487.97c-1.05-.65-2.08-1.3-2.7-1.93-.56.85-.75,1.54,2.7,1.93Z"/><path class="cls-1" d="m674.6,360.37s.05.04.1.08c0-.24.05-.43.07-.65l-.17.57Z"/><path class="cls-1" d="m680.74,483.7c-1.3.78-1.13,1.56-.35,2.35.48-.7,1.2-1.5.35-2.35Z"/><path class="cls-1" d="m655.98,653.11l-.31.49c.4.03.73.1.97.16l-.66-.65Z"/><path class="cls-1" d="m656.64,653.76l.66.65c.03-.26,0-.5-.66-.65Z"/><path class="cls-1" d="m658.71,655.78l-1.41-1.37c-.06.42-.3.91,1.41,1.37Z"/><path class="cls-1" d="m660.26,639.21l-2.19-.39c.45.14,1.16.27,2.19.39Z"/><path class="cls-1" d="m660.07,634.83c-.61.98-4.98,2.09-3.74,3.67l1.74.32c-3.21-1.02,5.62-2.62,2-3.99Z"/><path class="cls-1" d="m689.23,619.67l-2.14,3.43c2.42-.39,5.66-.89,6.06.81,7.49-3.82-5.36.39-3.92-4.24Z"/><path class="cls-1" d="m693.8,608.83c.89,2.06,3.42.33,4.74.57-2.02-1.45-2.53-1.81-4.74-.57Z"/><path class="cls-1" d="m702.25,527.87l5.52.77c-.64-1.58-2.14-.24-5.52-.77Z"/><polygon class="cls-1" points="675.24 509.41 671.65 510.51 676.65 511.73 675.24 509.41"/><polygon class="cls-1" points="715.64 504.38 716.36 505.11 714.61 502.41 715.64 504.38"/><path class="cls-1" d="m725.36,391.8l-6.11-7.53c1.03,1.95,7.9,10.37,6.11,7.53Z"/><path class="cls-1" d="m742.93,387.43c-.81,3.46-1.2,5.75.65,2.93-.35-.73,0-3.57-.65-2.93Z"/><polygon class="cls-1" points="814.68 500.08 812.67 498.72 814.11 500.73 814.68 500.08"/></g></svg>