<?xml version="1.0" encoding="UTF-8"?><svg id="Calque_1" xmlns="http://www.w3.org/2000/svg" viewBox="0 0 1000 1000"><defs><style>.cls-1{fill:#fff;}.cls-2{fill:#c68200;}</style></defs><path class="cls-1" d="m638.65,264.75l1.92.39c-.07.41-.21,1.22-.98,1.07,1.31,1.53.83-.26,2.07.63-1.74,1.98.82,5.45-2.24,5.89,1.46.71,1.12-1.89,2.14.22-3.28.6.56,2.44-.94,4.24-1.69-.55-.8-2.26-2.31-.46,2.86,1.09-.63,3.51-.08,5.04,2.28.09.95,3.27,1.71,5.9-.38-.1-.7,1.37-1.02,3.43-.32,2.05-.65,4.68-1.06,6.64l-.38.18c1.55-.65,1.86.59,2.04,2.02.86-.09,1.72-.15,2.55-.3-1.21,1.38-2.06,1.92-4.05,2.54h2.45c1.15-.75,2.14-1.14,3.73-1.4-.52.57-1.07,1.15-1.64,1.72,3.45-.09,7.41-2.03,10.46-.88.11-1.09-.97-2.75-.74-4.05h1.55c-.05.54-.22,1.03-.63,1.21.26-.11.93-.72,1.45-.35l-1.21,1.46c1.31.64.68-1.22,1.73-1.08-.02,1.24.77.88.62,1.87-.27.12-.91-.51-1.31-.03,1.18.22,2.61.96,3.08,1.89-.1-.7,0-1.67.86-1.83,2.23-.09.76,1.49,2.07,2.13.54-.86,1.96.03,2-1.82.65,0,.77.87,1.03,1.38,1.16-.82,5.4-.23,4.09-2.2l-.3-.13c.06-.04.12-.04.19-.08,3.79-1.84,7.87,1.05,11.63.26v.62c2.24-.71,4.99-.42,6.59-1.75.66,0,1.57,1.13,1.28,1.87,1.71-.47,1.91-1.16,4.38-.14-1.72,1.08.59.96-1.77.79,2.23.53,2.73,1.53,5.12-.17-.81,1.59,1.68,2,2.74,1.52l-1.56-1.14c1.19-.23,2.23-.09,3.29.04l-.57,2.09c4.56,2.54,8.22-4.32,11.69-.07,1.21-1.46-2.48-1.03-1.4-2.73,2.1.28,4.28,3.28,4.94,3.28,2.87,1.16,2.68-3.05,5.69-2.26-.38-.74-.75-2.73,1.5-3.43,2.1.28,2.58,3.12,1.25,3.72-.5.06-.75-.17-.72-.43-.68.27-1.57.59-.74,1.4l.27-.74c1.04.76,3.93.68,3.25,1.9,1.59-.71.68-1.22-.5-1.61,2.69,1.08,4.21.03,6.98.76-.44-.41-.85-1.28-.41-1.28,4.06.92,1.79-1.41,4.54-1.74,1.56,1.13-.56,2.71,2.21,1.76,1.69.77.36,1.97-.31,2.58,2.53-1.43,4.72.94,6.16,1.21l-1.33.6c.8-.36,1.45-.35,2.11-.34l-.76-1.49c.78.26,1.44.27,1.43.88.8-.98-.62-2.48.98-3.81,1.04.76,3.17-.81,3.53,1.16-2.98-.61-.25,1.53-1.82,2.16.41-.05.86,0,1.38.18.12.22-.11.41-.32.52,3.13,1.77,1.44-2.23,4.69-2.19-.41,1.11.75,2.11,1.28,1.87-1.31-.02-.63-1.86.57-2.71,2.08.87,2.26-.64,3.35-.54l-1.24-.41c.42-1.11,1.46-.97,2.91-1.32.05.32-.13.49-.33.59,1.53-.85,3.39,2.29,5.42,1.1,1.04.75.1,2.09,1.02,2.6,2.52-1.44,2.73,1.53,5.38.33-.76-1.5-.9-1.13.97-2.59l-4.35,1.05,2.79-2.18c-1.31-.02-2.77.94-3.56.69,1.33-1.22,1.19-.85.57-2.09,1.8,2.24,3.56-1.31,5.64.21l-.06,3.71c3.12,1.65,5.55-1.9,9.61-.97l-1.3-.64c.54-1.47,2.5-.21,3.82-.8-.12,1.24.7,1.69,1.26,2.46-.07-.92,2.97.08,3.34-2.39l1.81,1.63c3.28.67,3.74-3.53,6.89-3.11-.95,1.35.48,2.22-1.63,3.19,1.05.01,2,.24,2.01-.62.61.77,2.91-1.67,3.88-.49.44-.54.59-1.84,1.77-1.74.13.25,0,.61,0,.61,0-.61,1.85-.83.82-2.2,3.24,3.86,9.05-.28,11.87,3.04,2.29-.42,5.06-.81,7.14-.9-.13.37,0,.62-.4.49,2.87,1.15,1.77-3.55,5.04-2.27,1.67,2-1.74,1.08-.69,1.84.45,4.07,3.95-.56,6.15,1.82l-.53.24c1.68,1.38,4.1-1.54,6.85-1.25,0,0-.13.36-.02.62,1.88-2.08,5.44-2.76,8.08-3.34-.82,1.59-1.2.84-.7,2.46,1.18-.23-.35-2.6,2.02-3.05.77.87,2.48,1.64,2.7,3.36l-2.23.09c1.14,2.24,2.89-.08,4.06.31l-.15.98c3.42-.32,3.47-2.78,7.14-2.6l-.38-.74c2.01-2.44,1.68,1.37,3.69-.44l.61,2.48c.66-.31,1.82-.87,3.11-1.48.65-.29,1.32-.58,1.99-.82.33-.12.66-.23.98-.33.36-.09.75-.17,1.09-.23-.32.46-.98.86-1.4,1.22-.48.36-1,.69-1.54.99-1.08.6-2.2,1.11-3.06,1.65,1.34.02,4.4-.18,5.22-1.4-.67.24-1.23.85-1.79.46.4-.49.84-.91,1.3-1.27.46-.36,1.22-.66,1.82-.9,1.28-.48,2.59-.71,4.16-.68.96,3.14,5.19,2.69,9.44,3.05.19-1.91.6-3.51,1.89-3.76-.44-2.24-.62-4.15-.64-6.04,0-.94.02-1.88.08-2.82l.1-1.43.06-.73.03-.37.03-.23c.38-2.39.94-4.88.79-7.58-3.73,1.91-.11-1.57-3.94-1.24-.24-1.24-.18-1.72.06-1.84l-.16.26c.08-.11.12-.18.18-.27h-.01l2.29-3.8c1.12-.9.85,1.19,1.71,1.08.29-2.75,1.63-1.15,2.64-2.97-1.37.37-1.96-.96-1.44-2.52l-1.77,2.21c-2.04-3.84,3.22-3.32,1.2-7.2l1.21,1.23c-.71-1.99.02-7.33-3.06-9.28.44-.35,1.49-.82,1.77.06.46-4.76-3.28-10.55-1.38-14.3.31.18.62.26.94.39-.03-.11-.09-.21-.15-.33-.06-.18-.14-.36-.22-.53-.16-.34-.35-.67-.49-1-.29-.67-.43-1.33.05-2.36.39,0,.94.41.99-.32-.16-.38-.57-1.3-.87-2.32-.3-1.03-.5-2.15-.22-3.28.35.35.7.73,1.05,1.15.55-3.96.09-6.76-.63-8.59-4.18.9-7.71,2.22-10.92,2.58.63-1.38-.43-2.29-2.28-2.92-.91-.31-2-.55-3.07-.74-.27-.05-.54-.09-.8-.13-.31-.04-.33-.08-.5-.12-.27-.07-.53-.13-.76-.19l.06-.39c-5.4-.34-9.17,2.29-14.17,3.37-3.1-3-10.51-1.26-15.5-2.93.76.5-.12,2.15-1.01,2.43-1.17-.56-3.23,1.92-3.05-.62l.42.05c-.88-2.48-3.29-1.82-5.16-1.89l-.31,3.31c-4.91-4.82-12.87,1.77-15.55-2.54-1.18.83-2.65.82-3.83,1.65l.06-1.78c-3.28-.45-4.92-.68-8.98-.25l.83-1.27c-2.29-.12-2.89,5.12-5,5.22l-.64-2.65c-3.99.04-8.04-2.29-11.98.12.06-.39.18-1.15.83-1.26-1.88-.07-7.27-1.79-6.59,1.84-.05-2.37-4.12-.23-6.28.81l.34-1.75c-1.82,2.23-1.88,2.84-4.42,3.46-.51-.19-.53-1.06-.03-1.04-1.63-.5-1.4,1.69-3.69.82l.91-1.12c-2.07-.13-1.9.46-3.04,1.77-1.3.7-3.92-.44-4.22-2.02-.28.96-1.41,2.25-2.63,1.8-.16-.6.28-.97.5-1.15-3.45-1.19-5.14,2.03-7.51.32-.05-.58-.2-.87-.4-1.04,2.74.04,4.95.14,4.75.27,0-1.61-2.22-1.89-.45-4.12-1.78,1.21-4.82,3.85-6.98,3.1-.1-.16-.21-.31-.29-.56l.22-.18c-.5-.16-.95-.01-1.37.26-.69-.26-1.13-.46-1.79-.49-.26-1.33-2.54-.72-3.65-.78.09,1.76-1.36,1.48,0,2.93-.18-.13.21-.21.94-.28.17-.05.36-.08.47-.18-.02.04-.05.1-.08.15.73-.05,1.67-.09,2.75-.12-.87.9-1.79,1.65-3.01.67-.57,1.13-1.19,2.3-1.54,2.84-1.51-2.46-4.43-3.79-4.83-5.3-3.37.99-7.95.65-10.07,3.96-.96.43-1.1-.95-1.46-1.47.55-.33,1.21-.28,1.51-.76-1.92.85-5.68.33-6.14,2.64-2.42-1.04,1.36-2.13-1.96-1.75l.45-.71c-6.54-3.7-10.63,5.91-17.87,1.16.5.29.75.43.86.81-8.26-2.09-17.03,1.96-25.18-1.36-2.32-.67-2.57.81-3.98,1.93l-.5-1.89-2.42,2.18c-3.43,1.6-5.94-4.65-10.28-1.62l.56,1.28c-1.56-.24-4.94.75-4.68-.71-.16.23-.51,1.33-1.12.66l-.05-.99-3.83,1.7c-2.97-.72.46-3.93-3.87-4.13-1.61.38-4.59,2.88-3.98,3.55.65.05,1.66.62,1.71,1.61l-1.47.52c-.02.18-.04.37-.06.55h-.23v1.81c-.09.8-.13,1.58,0,2.32v13.28l-.48-.18.48.52v2.25c-.37-.07-.69-.28-.85-.72-1.29,1.63.93,1.45-.51,2.85-.22.15-.35.08-.45-.06l.78,1.6c-.55-.31-1.84.27-1.46-.72-1.5,2.87,1.96,4.62-.02,5.7l-.16-.24c.66,2.97,1.4,1.72,2.68,2.14v1.86l-3.24,1.38Zm104.68-40.67c-.02.07-.07.14-.09.22.07-.34.15-.65.29-.88.73-.25.98.1,1.08.46-.35.03-.75.09-1.29.21Zm-101.71,29.65c.09-.1.18-.15.28-.2v.89c-.09-.22-.19-.44-.28-.69Z"/><path class="cls-2" d="m977.53,583.5l2.05,2c1.49-7.76.33-14.84-.77-21.34-1.1-6.52-2.16-12.47-.63-18.57-.93-1.98-.98.15-1.05,2.33-.09,2.18-.26,4.41-1.25,2.65-.29-7.08,1.78-14.84,1.44-17.08-.29-9.93-4.31-8.6-5.48-18.76-.5,1.44-2.12,2.99-4.41-4.24-1.28-6.93,1-9.21,2.68-4.97.48,1.65.4,2.52.15,2.5.76,2.19,1.73,5.09,1.91,2.15l-.93-.75c.05-3.64-2.53-13.19-.78-11.25-1.79-4.35-1.81-2.66-1.37.41-1.36-8.14-3.69-12.8-6-21.42.14,1.56-.27,3.16-.74,1.74-1.9-6.69-2.85-7.98-3.67-8.7-.85-.71-1.55-.87-3.53-5.1-1.06-5.34,3.31.66-1.43-7.6-1.8-5.56,1.3-1.98,2.79-.09-4.89-7.32-6.37-15.04-8.64-19.57.95,1.23,1.87,2.49,2.78,3.76-1.61-2.28-2.77-4.23-3.9-6.24l.02,3.03c-1.1-2.48-2.27-4.45-1.73-4.72-2.28-1.87-1.03,3.07-5.01-.91-.61-1.72-2.26-3.89-3.61-5.89-1.4-1.98-2.5-3.79-2.04-4.87,5.26,8.92,1.71-.37,5.36,4.11-.83-1.18-1.69-2.55-2.58-4.17-.05-.46.55.09,1.06.64-2.33-5.02-3.6-5.67-4.95-6.29-1.41-.59-2.96-1.11-6.41-5.54,1.76.44.03-3.38-1.35-4.65,1.46,1.77,1.41,2.5.64,2.43-.77-.08-2.33-.91-4-2.21-1.97-3.04-3.46-4.35-4.66-5.31-1.2-.97-2.22-1.51-3.48-2.9.88,1.13,1.79,2.23,2.63,3.39-.89-.17-1.92-.92-3.2-2.03-1.27-1.13-2.78-2.63-4.68-4.22.3-.92,3.63,2.74,2.64,1.23-2.65-1.25-4.49-3.79-6.61-6.51-2.1-2.72-4.45-5.67-7.87-7.6-2.3-2.86,1.07-1.87-1.11-4.23-3.88-2.15-5.57-3.81-7.29-5.59-.85-.89-1.76-1.74-2.94-2.68-1.18-.94-2.68-1.91-4.78-2.9,1.41,2.71,1.97,2.61-4.21.37,4.39,2.38,8.76,4.85,13,7.57-3.01-1.34-6.08-2.55-9.12-3.72,1.87,1.25,3.94,2.42,5.83,3.47,1.85,1.1,3.52,2.1,4.53,3-4.41-1.72-3.79-1.73-2.81.53-1.78-2.74-4.5-4.2-7.32-5.64-2.87-1.38-5.86-2.72-8.49-5.18l2.1-3.06c-4.21-3.5-8.65-5.43-13.57-7.28-4.92-1.9-10.28-3.57-16.63-6.57,1.33.71,2.64,1.5,3.94,2.28-2.26.6-8.07-3.02-12.57-3.84.79-1.05-1.74-2.39-3.39-3.66-.02.89-9.88-2.97-11.72-.76-1.88-.99-3.77-2.06-5.7-2.98-5.46-1.51-8.81-1.13-12.05-.74-1.62.22-3.22.46-5.07.52-1.85.08-3.96.04-6.6-.38,3.36-.96-1.42-2.41,5.89-2.52-3.59-.43-6.79-1.04-6.93-.17-1.01-.47-3.54-.3-6.2-.15-2.66.21-5.45.32-7.07-.33-1.54.49-2.08,1.76-6.07,1.51-.27-.16-.19-.35-.09-.48-.82.51-5.89.73-2.69,2.04-5.43-2.06-13.15-1.86-20.62-1.26-7.49.59-14.7,1.64-19.7.66-7.71,1.48-16.87,3.75-23.72,5.61.35-.47-.13-.61,1.2-.81-4.9.68-6.13,1.93-7.48,3.25-1.37,1.3-2.86,2.6-8.31,3.72-2.99,0-1.7-.77-.08-1.43,1.62-.65,3.55-1.23,1.75-1.04-1.37-1.73-4.56-.5-8.34,1.23-3.76,1.79-8.06,4.11-11.98,4.57l1.58-.96c-5.88,1.05-12.21,7.17-20.5,11.48,0,0,.22-.54-.25-.56-4.65,4.9-14.53,11.81-21.33,17.66,1.29-2.95,2.82-3.05.47-3.39-3.12,2.57,2.44,1.39-3.67,6.54-1.28.46-3.19,1.41-4.97,2.19-1.76.79-3.43,1.36-4.29.95,1.94-1.65,3.88-3.31,5.88-4.88-4.53.63-7.64,6.34-10.89,8.69l-.26-1.07c-4.27,4.07-5.92,6.67-7.66,9.27-1.71,2.64-3.55,5.26-7.77,9.88l1.41-.47c-1.36,3.35-2.53,4.19-3.76,5.01-1.23.82-2.57,1.58-3.97,4.81l-3.23.08c-1.15,1.98-3.08,5.5-5.13,9.43-2.01,3.92-4.23,8.23-6.08,11.83.75-4.86,5.25-13.31,7.98-18.67-.7.89-1.58,2.14-2.53,3.53-.97,1.38-1.98,2.94-2.89,4.48-1.87,3.04-3.28,6.05-3.41,7.34.78-1.64,1.49-3.91,2.8-5.19-1.43,5.69-4.39,12.23-8.57,20.02-1.75-1.83-4.77,3.17-7.82,9.31-3.07,6.13-5.95,13.41-8.83,15.83-1.96,7.78-4.52,15.22-6.98,23.09-2.45,7.86-4.79,16.16-6.09,25.37,2.38-2.96,2.18-1.61,1.89.39-.27,2.01-.57,4.69,1.4,4.39-.35,4.22-.53,5.84-.84,6.2l.26-.87c-.12.37-.19.58-.29.9h.01c-1.25,4.19-2.38,8.42-3.43,12.7-1.34,3.01-.54-4.14-1.43-3.82-.51,4.71-.95,5.68-1.47,6.24-.53.57-1.12.72-1.8,3.86,1.43-1.22,1.8,3.38,1.21,8.77.59-2.53,1.3-5.05,1.96-7.55.79,6.62.01,9.43-.81,12.3-.78,2.86-1.6,5.78-.34,12.4l-1.34-4.18c.42,3.42.72,9.74,1.49,16.01.82,6.26,2.12,12.46,4.13,15.56-.28,1.25-1.1,2.99-1.78.04.87,8.16,3.31,17.03,5.93,25.28,2.61,8.27,5.41,15.93,6.56,22.25l-1.28-.88c1.24,2.83,3.38,4.46,3.84,8.35-.43-.05-1.32-.82-.86.52.87,1.42,4.45,6.97,5.62,10.87l-2.35-2.77c2.55,7.64,5.88,12.95,9.37,17.68,3.51,4.74,7.16,8.93,11.02,14.35-1.19.73-.24,3.86,1.47,7.48,1.74,3.6,4.29,7.66,6.09,10.29l-.45.07c5.69,7.56,11.49,13.18,17.55,18.2,6.08,4.99,12.39,9.37,19.53,14.22,3.3,4.47,10.58,10.12,19.09,15.31,8.52,5.2,18.19,9.92,25.89,13.98-2.26-1.47,1.24-1.82,4.15-.92,3.57,2.03,11.09,2.05,9.66,4.22l-1.34-.52c2.05,3.4,10.28,5.36,16.57,7.03l1.87-2.93c7.56,4.49,18.68,6.21,28.73,7.03,10.09.84,19.16.84,23.65,3.18,4.1-.62,9.13-.49,13.15-1.31l-.23,1.77c2.82.16,5.29.16,7.62.23,2.33.06,4.54.06,6.82-.03,4.57-.1,9.48-.45,16.43-1.3-.91.53-1.82,1.05-2.73,1.53,7.94-.64,9.39-6.07,16.46-7.2.84.77,1.7,1.56,2.56,2.3,6.77-1.17,13.69-1.87,20.49-3.33,6.81-1.34,13.48-3.46,19.56-6.76-.08.44-.22,1.29-2.32,2.09.78-.23,1.75-.52,2.84-.84,1.08-.35,2.28-.73,3.54-1.14,1.26-.41,2.58-.85,3.89-1.28,1.3-.47,2.57-.99,3.78-1.49,4.53-1.82,7.85-3.94,6.8-5.12,1.01.45,4.01-.84,7.4-3,1.92-1.18,3.99-2.56,5.89-4.02,1.91-1.45,3.76-2.79,5.19-4.02l-.09,2.11c2.12-2.62,3.12-4.07,4.48-5.51,1.36-1.45,3.02-3.02,6.45-5.72,1.55-.94,2.15-.18.6.84,2.41-1.41,3.16-2.52,4.04-3.63.48-.63,1-1.28,1.85-2.05.81-.81,1.94-1.75,3.69-2.92l-1.67,2.88c2.77-2.26,3.95-3.41,4.7-4.43.71-1.07,1-1.99,1.98-3.8.69-.89,1.66-1.88,2.76-2.87,1.05-1.04,2.23-2.08,3.39-2.99,1.15-.92,2.31-1.7,3.26-2.27.93-.58,1.71-.91,2.18-.84-.04-.68.34-1.97,1.11-3.43.38-.73.87-1.5,1.44-2.28.54-.8,1.18-1.59,1.92-2.33.82-.07.16,1.35-.18,2.07,2.07-2.14,3.75-4.13,5.05-6.07,1.29-1.96,2.32-3.79,3.3-5.51.99-1.71,1.78-3.41,2.79-4.97.97-1.59,2.18-3.05,3.55-4.58.58.16,1.1-.14,1.6-.63-1.19,2.03-2.44,3.9-3.58,5.57-1.14,1.68-2.14,3.19-3,4.41-1.5,2.01-2.47,3.27-2.66,3.45,1.32.87,6.02-5.11,4.23,1.12,1.41-2.85,2.85-6.95,4.65-10.94,1.62-4.1,3.62-8.11,5.67-11.22.31-.24.61-.47.96-.59l-.21.76c.97-1.43,1.58-2.86,2.04-4.25,1.36-1.97,2.16-3.25,3.22-5.28.78-.1,1.97-1.97,3.06-4.29,1.08-2.32,2.16-5.04,2.98-6.76-1.72-.42.49-4.84-2.69-1.18.36-.5-.1.73-1.07,3.05-.19.54-.44,1.16-.5,1.54-.01-.09-.03-.19-.03-.3-.5,1.14-1.05,2.45-1.71,3.89-.69,1.42-1.45,2.98-2.26,4.63.55-3.08,1.26-6.15,3.83-9.56-.24-2.23-.41-4.61-.45-5.92,2.1-1.87,4.42-4.97,6.43-7.73.96-1.39,1.86-2.69,2.64-3.69.34-.37.87-1.27,1.28-1.81.42-.58.78-1.02,1.07-1.25,1.32-4.42,2.76-9.22,4.23-14.12.36-1.18.72-2.37,1.08-3.57l.53-1.77c.14-.21-.13-.14-.28-.15h-.5s-.99.04-.99.04c-2.62.08-5.22.16-7.77.24-5.02.2-9.85.52-13.69.96-2.61.45-4.9,1.05-6.68,1.88-3.21.43-3.69-.95-4.89-1.47,1.86-.33,4.06-.28,5.06-.76-6.42.85-19.03.33-20.57,2.64-8.1-1.04,4.55-2.13-6.58-1.75l1.5-.71c-10.61-1.79-19.3-.46-28.2.85-4.45.65-8.96,1.3-13.78,1.55-2.41.12-4.91.15-7.51.02-.75-.04-1.5-.08-2.26-.12-.88-.06-1.77-.12-2.66-.18-.93-.08-1.88-.16-2.83-.25-.5-.05-.99-.1-1.5-.15l-.77-.08c-.25-.02-.56-.1-.71.02-.13.26-.26.54-.39.8.17-.33.32-.59.44-.74.17-.11.44,0,.62.05.19.06.34.12.47.19l-.48-.03c-.08,0-.16-.01-.24,0l-.16.1c-.77,2.06-1.62,4.21-2.52,6.4l-.37.8-.35.69-.54,1.07-1.19,2.1c-1.64,2.78-3.51,5.47-5.57,8.07-4.1,5.2-8.96,9.99-14.23,14.36-5.32,4.35-10.91,8.32-16.98,11.21-6.04,2.95-12.45,4.98-18.92,5.84-3.67.63-5.62,1.23-7.22,1.97-1.59.76-2.81,1.62-5.02,2.51-.63-.54-1.25-1.08-1.87-1.65-2.48,1.05-5.03,2.01-7.62,2.92-5.59,1.17-10.57-.09-15.75-1.25-5.22-1.19-10.58-2.44-17.76-2.05l1.6,1.56c-1.25-.27-2.88-.53-4.61-.78-1.71-.32-3.52-.66-5.14-.96-3.21-.77-5.64-1.54-5.03-2.13-.55.07-1.97.78-3.67-.45l.16-.99c-2.06-.33-4.07-.84-6.12-1.28-2-.58-4.07-1.03-6.04-1.74-2.11-1.22-2.94-2.02-3.2-2.65-.27-.61,0-1.01.15-1.45.15-.44.16-.94-.58-1.75-.76-.78-2.21-1.96-4.99-3.83-1.06-.66-2.43-1.33-3.84-2.03-1.37-.75-2.86-1.42-4.13-2.05-2.52-1.28-4.5-2.02-4.01-1.12,1.5,1.46,3.56,4.09,3.1,4.91-1.4-.85-2.65-1.9-3.99-2.85-.17.1-.34.18-.52.27-.19-.18-.39-.35-.58-.53h0c-12.4-12-20.87-29.21-25.4-51.51l.59.49c-.26-.54-.53-1.08-.8-1.62-.47-2.42-.9-4.9-1.28-7.43.4.17.83.83,1.2,2.27.44-5.56-1.67-4.64-.79-9.47.16-.54.31-.32.47.14-.49-1.71-.9-3.48-1.3-5.18.63.94,1.76-1.05,1.66,2.21.04-.6.07-1.18.08-1.75,0-.45,0-.88.01-1.31-.01-.77-.09-1.5-.18-2.21-.16-1.43-.48-2.84-.77-4.23-.07-.35-.15-.69-.22-1.03l-.05-.25.18-.03.35-.06c.47-.08.95-.14,1.43-.15.96-.02,1.95.13,2.88.63l-.51.16c2.35-.22,3.64-.45,4.46-.71.9-.26.96-.54.91-.86-.05-.32-.19-.69.28-1.11h6.23l4.61,3.24,1.31-1.92c1.37.07,4.09.21,3.59.98,5.11-1.31-.87-.83,2.1-2.07,6.61,1.74,18.24-.82,19.73,2.24,2.37-1.46-6.33-1.12.74-2.14,2.01,3.28,8.16-.56,14.2.94-1.86,1.69-7.58.8-1.53,2.31,3.65-2.86,11.77.63,16.86.08.24-2.28,11.08-.95,19.63-1.71-.54.76,16.09,1.25,24.05,2.07l-.23.38c1.54-2.3,9.75-1.87,15.72-2.34-.23,1.38-1.31,1.92-4.55,2.54h5.62c1.33-.75,3.08-1.14,6.72-1.4l-1.41,1.72c7.48-.09,15.06-2.03,24.68-.88.37-1.09-3.27-2.75-2.49-4.05h5.21c-.17.54-.73,1.03-2.1,1.21.87-.11,3.11-.72,4.87-.35l-4.06,1.46c4.38.64,2.29-1.22,5.79-1.08-.07,1.24,2.59.88,2.09,1.87-.89.12-3.06-.51-4.4-.03,3.95.22,8.72.96,10.3,1.89-.34-.7,0-1.67,2.89-1.83,7.48-.09,2.56,1.49,6.92,2.13,1.81-.86,6.58.03,6.71-1.82,2.19,0,2.59.87,3.44,1.38,3.87-.82,18.07-.23,13.71-2.2l-.99-.13c.19-.04.4-.04.63-.08,12.68-1.84,26.35,1.05,38.93.26l-.02.62c7.51-.71,16.72-.42,22.08-1.75,2.22,0,5.24,1.13,4.29,1.87,5.74-.47,6.39-1.16,14.68-.14-5.77,1.08,1.99.96-5.92.79,1.87.13,3.37.3,4.7.44.67.07,1.29.13,1.89.19.3.02.6.05.89.07l.45.03.65.02c3.43.11,7.28-.07,12.09-.94-.59.4-.34.72.56.97.22.06.49.12.78.17l.23.04.12.02s.02-.06.03-.08c.03-.12.06-.24.09-.38.12-.54.24-1.23.35-2.02.42-3.15.69-7.86.56-10.61-.48,2.62-1.01,5.03-1.51,7.25.05-2.9.19-5.49.29-8.06.11-1.91.22-3.76.34-5.63Zm-19.88,105.2c-.03-.09-.03-.26-.07-.36.21.36.38.75.39,1.29-.86,2.4-1.59,3-2.06,3.15.49-1.09,1.12-2.35,1.74-4.07Zm-132.85-234.07h0c3.01,3.32,5.82,6.98,8.45,10.96l-.48.15.64.09c.33.5.66.98.98,1.49-.34.15-.71.18-1.03-.03-.38,1.76,1.4.47.75,2.17-.13.22-.26.24-.41.2l1.31.67c-.6.07-1.48,1.12-1.54.27-.14,2.64,3.5,2.15,2.18,3.85l-.23-.09c1.69,1.73,1.88.5,3.16.21.23.43.45.86.67,1.3-.8.82-1.59,1.64-2.4,2.44l1.85-.58c.08.32.24.95-.5,1.18,1.71.5.66-.55,2.08-.47-.87,2.14,2.55,3.59-.08,5.15,1.56-.08.41-1.81,2.03-.7-2.8,1.73,1.27,1.55.43,3.46-1.73.24-1.41-1.33-2.27.55,2.98-.3.47,2.76,1.37,3.66,2.13-.75,1.84,2.06,3.17,3.72-.77.14.06,3.96-.22,5.98l-.38.06c2.29-.34,2.48,1.62,3.31,2.84-1.34.33-1.92.24-2.73-.31l.37,1.25c.79.09,1.28.38,1.76,1.13l-1.75.15c.57,1.63,2.9,2.85,2.31,5.31,1.08-.17,2.48-1.42,3.78-1.55.1.4.2.8.3,1.2-.54.09-1.04.07-1.3-.19.16.18.88.53.61.97-.56-.22-1.09-.33-1.64-.52-.41.99,1.3.18,1.35.94-1.24.15-.76.58-1.78.57-.15-.12.39-.56-.15-.71-.05.7-.64,1.45-1.58,1.56.72,0,1.73.07,2.01.56.36,1.2-1.5.15-2.07.52.99.48.13.72,2.22,1.53.07.34-.91-.02-1.46-.17,1.03.9.74,2.49,2.99,3.49l.12-.07c.05.06.06.1.12.18.33.47.58.91.76,1.3.14.36.46.89-.03.75-.64,0-1.47-.16-2.27-.36-1.65-.39-3.04-.92-3.91-.52l-.32-.62c-.43.35-1.11.46-1.75.64-.65.18-1.26.44-1.8,1.11-.53,0-1.25-1.13-1.02-1.87-1.36.47-1.52,1.16-3.49.14,1.37-1.08-.47-.96,1.41-.79-1.77-.53-2.17-1.53-4.08.17.65-1.59-1.33-2-2.18-1.52l1.24,1.14c-.95.23-1.77.09-2.62-.04l.45-2.09c-3.63-2.54-6.54,4.32-9.3.07-.96,1.46,1.97,1.03,1.11,2.73-1.67-.28-3.41-3.28-3.93-3.28-2.28-1.16-2.13,3.05-4.52,2.26.31.74.59,2.73-1.19,3.43-1.67-.28-2.05-3.12-1-3.72.4-.06.59.17.58.43.54-.27,1.25-.59.59-1.4l-.22.74c-.83-.76-3.12-.68-2.59-1.9-1.26.71-.54,1.22.39,1.61-2.14-1.08-3.34-.03-5.55-.76.35.41.67,1.28.32,1.28-3.23-.92-1.42,1.41-3.61,1.74-1.24-1.13.45-2.71-1.76-1.76-1.35-.77-.29-1.97.25-2.58-2.01,1.43-3.75-.94-4.9-1.21l1.06-.6c-.63.36-1.15.35-1.68.34l.6,1.49c-.62-.26-1.15-.27-1.14-.88-.64.98.49,2.48-.78,3.81-.83-.76-2.52.81-2.81-1.16,2.37.61.2-1.53,1.45-2.16-.32.05-.69,0-1.1-.18-.09-.22.09-.41.26-.52-2.49-1.77-1.15,2.23-3.73,2.19.33-1.11-.6-2.11-1.02-1.87,1.04.02.5,1.86-.46,2.71-1.66-.87-1.8.64-2.67.54l.99.41c-.34,1.11-1.16.97-2.32,1.32-.1-.87,1.05-.6.64-.98-1.28,1.96-2.9-2.03-4.68-.71-.83-.75-.08-2.09-.81-2.6-2,1.44-2.17-1.53-4.28-.33.61,1.5.71,1.13-.77,2.59l3.46-1.05-2.22,2.18c1.04.02,2.2-.94,2.83-.69-1.06,1.22-.95.85-.45,2.09-1.43-2.24-2.83,1.31-4.49-.21l.05-3.71c-2.48-1.65-4.41,1.9-7.64.97l1.04.64c-.43,1.47-1.99.2-3.04.8.1-1.24-.56-1.69-1-2.46.05.92-2.36-.08-2.65,2.39l-1.44-1.63c-2.6-.67-2.97,3.53-5.48,3.11.75-1.35-.38-2.22,1.29-3.19-.84-.01-1.59-.24-1.6.62-.49-.77-2.32,1.67-3.09.49-.35.54-.47,1.84-1.41,1.74-.1-.25,0-.61,0-.61,0,.61-1.47.83-.65,2.2-2.57-3.86-7.2.28-9.44-3.04-1.82.42-4.02.81-5.68.9.11-.37,0-.62.32-.49-2.28-1.15-1.4,3.55-4,2.27-1.33-2,1.38-1.08.55-1.84-.36-4.07-3.14.56-4.89-1.82l.42-.24c-1.34-1.38-3.26,1.54-5.45,1.25,0,0,.11-.36.01-.62-1.49,2.08-4.32,2.76-6.42,3.34.65-1.59.95-.84.56-2.46-.94.23.28,2.6-1.6,3.05-.61-.87-1.97-1.64-2.15-3.36l1.77-.09c-.91-2.24-2.3.08-3.23-.31l.12-.98c-2.72.32-2.76,2.78-5.68,2.6l.3.74c-1.6,2.44-1.34-1.37-2.93.44l-.48-2.48c-1.05.6-3.69,2.39-5.58,2.86,1.07-1.84,3.28-2.77,4.65-3.86-1.04-.02-3.55.18-4.09,1.4.42-.24.95-.85,1.37-.46-1.28,1.95-2.97,2.9-5.05,2.86.37-4.8-5.42-1.21-6.93-4.94-1.84.89-3.67.7-5.57.32-.95-.19-1.92-.42-2.92-.59l-.76-.11c-.22-.03-.18-.06-.29-.08-.14-.04-.28-.05-.43-.01-.21,3.73-.44.11-1.52,3.94-.74.24-.99.18-.94-.06l.06.16c-.03-.08-.04-.12-.06-.18h0c-.31-.75-.38-1.51-.24-2.27.59-1.12.99-.85,1.52-1.71-.19-.15.1-.55.48-1.05.39-.5.85-1.08,1.31-1.59-1.18,1.37-1.94,1.96-1.6,1.44-.57.59-1.04,1.18-1.4,1.77-.73.51-1.03.56-.99.39-.01-.06.17-.28.38-.51.2-.22.43-.46.66-.69.93-.96,1.82-1.53.73-1.12.44-.19.88-.42,1.32-.69-.39.19-.37.03-.65-.06-.28-.1-.86-.21-2.38-.5.47-.13,1.54-.15,1.8,0,.17.31-.15-2.5-.4-4.37-.24-1.99-.26-3.89,1-5.03l.84.49c-.1-.72-1.43-1.57-.3-2.16.36.14.84.5.97.21-.22-.42-1.14-2.16-.36-2.89l.82,1.02c2.13-3.12-1.04-5.81-.65-8.84,2.6.92,4.33-1.22,5.27-2.22l.34.19c1.79-3.34.68-6.89,1.62-10.69,1.88-.23,3.13-1.69,4.44-3.34,1.29-1.65,2.62-3.51,4.41-4.42-.74.13-1.64-1.39-1.45-2.09.97-.31.03-3.06,1.88-1.33l-.23.2c2.31,1.11,2.89-.59,3.87-1.52l-2.27-2.43c3,.33,4.26-1.57,5.55-3.38,1.25-1.81,2.46-3.51,4.56-2.42.18-1.17,1.02-1.84,1.24-3.01l1.02,1.46c2.19-1.05,3.29-1.52,5.55-3.48l.17,1.39c1.45-.76-.91-5.48.45-6.39l1.75,2.05c1.28-.76,2.87-.99,4.31-1.43,1.47-.47,2.62-1.05,3.45-2.73.12.37.35,1.11-.02,1.39,1.25-.52,5.38-.3,3.67-3.52.86,2.2,2.86-.79,4.13-2.26l.28,1.74c.61-2.54.52-3.11,2.2-4.25.43.09.66.93.29,1.01,1.32.18.61-1.9,2.52-1.48l-.41,1.25c1.54-.24,1.29-.77,1.86-2.23.83-.92,3.06-.16,3.55,1.35.03-.99.66-2.42,1.67-2.11.22.57-.06.99-.19,1.19,2.75.75,3.61-2.59,5.64-1.11.1.57.25.85.42,1-2.08.19-3.75.34-3.62.19.24,1.59,1.9,1.66.91,4.03,1.1-1.39,3.09-4.28,4.81-3.68.09.15.18.29.27.53l-.15.2c.39.12.71-.05,1-.35.54.22.89.39,1.38.38.29,1.3,1.95.58,2.79.61-.17-1.76.95-1.53-.16-2.93.14.12-.15.22-.71.32-.12.06-.27.09-.35.2.01-.05.03-.1.05-.16-.55.07-1.27.16-2.09.27.59-.95,1.25-1.76,2.25-.83.37-1.16.79-2.35,1.04-2.91,1.31,2.37,3.59,3.66,3.93,5.15,1.27-.53,2.78-.7,4.18-1.16,1.4-.43,2.69-1.15,3.56-2.79.76-.41.83.96,1.09,1.49-.44.33-.94.27-1.18.74,1.5-.87,4.35-.13,4.85-2.44,1.81,1.14-1.18,2.07,1.41,1.83l-.39.69c2.34,2.05,4.43.71,6.69-.33,1.12-.53,2.28-1.02,3.47-1.04,1.17.02,2.37.53,3.52,1.94-.32-.35-.49-.52-.5-.91,2.93,1.58,6.15,1.87,9.37,2.44,1.6.3,3.17.71,4.65,1.33,1.43.71,2.81,1.58,3.85,2.97,1.29,1.33,2.07.06,3.55-.5l-.5,1.87c.85-.37,1.72-.73,2.61-1.09.77-.04,1.28.33,1.65.88.36.59.59,1.35.84,2.09.26.73.54,1.43,1.03,1.89.48.48,1.14.75,2.24.59l.39-1.29c.41.44,1.3.81,1.94,1.24.62.45,1.01.91.48,1.43.24-.11,1.13-.8,1.07,0l-.6.79c1.12.14,2.22.34,3.31.59,1.17,2.05-2.85,2.67-.73,4.96,1.04.53,4.42.4,4.61-.35-.31-.39-.43-1.33.26-2.04l1.18.48c.14-.12.29-.23.44-.34.04.05.09.09.13.13Zm-75.02-15.83c.26-.05.56-.14.95-.28.01-.06.04-.16.05-.22-.03.34-.07.66-.16.9-.53.29-.74-.04-.84-.39Zm85.5,30.53c.04-.11.1-.2.16-.28.12.2.24.4.36.61-.17-.1-.34-.2-.52-.33Zm-172.38,139.96c.16.76.33,1.55.49,2.41-.05.34-.12.56-.19.74-.11-1.04-.2-2.1-.3-3.15Z"/><path class="cls-1" d="m533.21,610.31c-1.03-10.37-3.02-19.53-1.77-24.62-.79-2.01-1.41-4.3-2.15-6.55-.7-2.26-1.43-4.51-2.39-6.42l1.78-.23c-.61-2.89-1.26-5.39-1.91-7.75-.6-2.37-1.37-4.56-2.11-6.84-.74-2.28-1.73-4.57-2.76-7.18-1.17-2.55-2.4-5.43-4.16-8.66l2.47,2.15c-1.78-3.78-4.08-5.59-6.46-7.15-2.32-1.61-4.69-3-6.66-6.15.38-1.11.7-2.21,1.03-3.32-3.83-6.03-7.79-12.23-12.45-17.83-4.65-5.61-10.02-10.67-16.3-14.23.43-.16,1.25-.5,3.1.96-2.53-2.3-7.54-6.65-12.05-9.73-2.29-1.46-4.4-2.69-5.93-3.23-1.35-.44-2.24-.4-2.4.33-.21-1.1-3.09-2.9-6.93-4.48-2.12-.96-4.55-1.79-6.89-2.55-2.32-.81-4.62-1.38-6.46-1.9l1.78-1.13c-.86-.06-1.61-.11-2.29-.15-.43-.06-.45.04-.58.11-.16.05-.31.09-.45.13-.61.17-1.23.26-1.89.27-1.35.01-2.87-.26-5.95-.98-.75-.46.79-.84,1.63-.5-.77-.48-1.65-.58-2.83-.67-1.28-.1-2.99-.18-4.33-.62.47-.24,1.26-.58,2.38-.97.23.26.55.48.98.64,1.74-.8,2.2-1.13,2.24-1.48.05-.35-.39-.62-.22-1.41.79-.84,3.16-2.03,5.1-2.77.49-.18.96-.33,1.39-.43.3-.03,1.02-.32,1.54-.47,1.08-.32,1.94-.43,2.38-.25.16-.66.88-1.81,2.01-3.07,1.15-1.24,2.71-2.58,4.55-3.68.82.14-.22,1.36-.75,1.97,5.31-3.07,8.49-6.44,11.27-9.41,2.74-3.04,5.07-5.71,8.58-8.17.54.27,1.13.08,1.75-.31-6.19,6.53-11.93,11.11-12.45,11.4.54.57,2.33-.31,3.58-.67,1.24-.4,2.02-.17.3,2.75,2.09-2.56,4.67-6.24,7.34-9.94,2.67-3.72,5.38-7.52,8.12-10.3.36-.19.72-.38,1.08-.45l-.37.74c1.26-1.31,2.1-2.7,2.82-4.07,1.67-1.87,2.78-3.02,4.12-5.04.78-.04,2.3-1.85,3.67-4.22,1.45-2.32,2.75-5.16,3.74-6.94-1.71-.51.79-5.07-2.62-1.32.4-.5-.16.76-1.34,3.12-.24.55-.53,1.19-.65,1.58,0-.09,0-.2,0-.31-.64,1.13-1.39,2.44-2.21,3.89-.87,1.41-1.85,2.95-2.91,4.57.51-1.55,1.02-3.13,1.82-4.69.73-1.6,1.78-3.18,3.25-4.86-.04-2.34-.03-4.79-.03-6.15,2.27-1.82,4.75-5.02,6.73-7.96,2.06-2.92,3.58-5.57,4.57-6.03,1.4-5.97,2.92-12.97,3.54-19.5.63-6.52.46-12.52-.96-16.32-.19-3.36,1.14-3.79,1.74-5.03.25,1.96.1,4.27.47,5.36-.16-3.41-.08-8.41-.32-12.75-.27-4.33-.83-8-2.02-8.75.67-8.45,2.41,4.66,1.42-6.92l.79,1.53c1.17-11.59-1.67-20.94-5.1-30.04-1.78-4.51-3.59-9.09-5.55-14.02-1.76-4.6-3.51-9.59-5.26-15.32.29.96.41,1.53.27,1.89-5.39-13.53-14.75-25.93-25.97-35.84-5.58-5-11.65-9.41-17.79-13.45-6.15-4.05-12.4-7.79-18.62-11.48-3.6-1.97-5.79-2.62-7.68-2.9-1.88-.3-3.49-.16-5.98-.49l-1.04-2.36c-2.91-.24-5.82-.39-8.7-.48-5.92-.9-10.59-3.24-15.84-5.36-5.21-2.1-10.99-4-18.66-3.61l1.73,1.55c-5.29-1.13-16.99-1.48-15.94-2.79-.58.18-1.89,1.13-3.92.26l-.07-1c-4.45.15-8.89.36-13.31.66-5.08-.66-4.64-1.6-4.78-2.53-.14-.92-.88-1.86-8.4-2.2-5.63.17-15.92,2.66-13.82,3.33,2.24.06,5.72.64,5.87,1.65l-5.06.48c-.06.18-.13.37-.21.55-.27,0-.53,0-.8,0h-59.64l.6-.48-1.79.48h-7.72c.23-.37.97-.69,2.49-.85-5.6-1.29-4.96.93-9.77-.51-.53-.22-.29-.35.2-.45l-5.47.78c1.07-.55-.91-1.84,2.45-1.46-9.82-1.51-15.84,1.96-19.53-.02l.82-.16c-10.19.66-5.88,1.4-7.33,2.68h-6.37l-4.71-3.24-1.34,1.92c-1.41-.07-4.19-.21-3.67-.98-5.23,1.31.89.83-2.14,2.07-6.77-1.74-18.66.82-20.18-2.24-2.43,1.46,6.47,1.12-.75,2.14-2.06-3.28-8.35.56-14.53-.94,1.9-1.69,7.75-.8,1.57-2.31-3.73,2.86-12.04-.63-17.25-.08-.24,2.28-11.34.95-20.08,1.71.55-.77-16.46-1.25-24.6-2.07l.24-.38c-1.58,2.3-9.97,1.87-16.08,2.34.24-1.38,1.34-1.92,4.65-2.54h-5.75c-1.36.75-3.15,1.14-6.88,1.4l1.45-1.72c-7.65.09-15.4,2.03-25.24.88-.37,1.09,3.34,2.75,2.55,4.05h-5.33c.18-.54.75-1.03,2.15-1.21-.45.06-1.24.24-2.15.36-.93.12-2.04.18-3.04,0,.69-.24,1.43-.49,2.23-.73.82-.24,1.42-.49,2.14-.73-1.11-.16-1.8-.16-2.46-.08-.6.08-.9.25-1.15.43-.51.37-.81.8-2.83.73-.4-1.24-3.59-.88-3.57-1.87,1.18-.12,4.24.51,5.88.03-3.69-.16-8.21-.56-11.87-1.11-.24,1.2-.5,2.11-.78,2.62.7.03,1.67,1.39,1.83,5.29.05,4.99-.33,5.83-.79,6.19-.46.38-1.02.15-1.34,2.41.86,1.85-.03,6.73,1.82,6.86,0,2.24-.87,2.65-1.38,3.52.82,3.96.23,18.49,2.2,14.03l.13-1.02c.04.19.04.41.08.65,1.84,12.97-1.05,26.95-.26,39.82l-.62-.02c.71,7.68.42,17.1,1.75,22.59,0,2.27-1.13,5.36-1.87,4.39.47,5.87,1.16,6.53.14,15.02-1.08-5.91-.96,2.04-.79-6.05-.53,7.63-1.53,9.36.17,17.56-1.59-2.79-2,5.75-1.52,9.37l1.14-5.35c.23,4.08.09,7.65-.04,11.27l-2.09-1.96c-2.54,15.62,4.32,28.17.07,40.06,1.46,4.13,1.03-8.48,2.73-4.79-.28,7.18-3.28,14.67-3.28,16.92-1.16,9.84,3.05,9.18,2.26,19.48.74-1.32,2.73-2.56,3.43,5.14-.28,7.19-3.12,8.84-3.72,4.3-.06-1.72.17-2.56.43-2.48-.27-2.32-.59-5.37-1.4-2.52l.74.93c-.76,3.57-.68,13.46-1.9,11.14.61,4.65,1.07,3.04,1.43-.05-.78,8.22.1,13.34-.58,22.25.41-1.51,1.28-2.9,1.28-1.4-.92,13.92,1.41,6.13,1.74,15.56-1.13,5.36-2.71-1.92-1.76,7.58-.77,5.8-1.97,1.23-2.58-1.08,1.43,8.65-.94,16.17-1.21,21.11l-.6-4.56c.36,2.73.35,4.96.34,7.23l1.49-2.6c-.26,2.68-.27,4.94-.88,4.89.98,2.76,2.48-2.11,3.81,3.36-.76,3.57.81,10.86-1.16,12.1.61-10.17-1.51-.89-2.16-6.12.04,1.37-.01,2.89-.18,4.62-.22.4-.41-.38-.52-1.11-1.77,10.74,2.23,4.93,2.19,16.06-1.11-1.41-2.11,2.58-1.87,4.39.02-4.48,1.86-2.14,2.71,1.97-.87,7.13.64,7.75.54,11.49l.41-4.26c1.11,1.45.97,5.01,1.32,9.99-.27.13-.43-.26-.53-.8.66,5.17-2.32,11.41-1.15,18.23-.76,3.57-2.09.35-2.6,3.48,1.44,8.63-1.53,9.35-.33,18.42,1.5-2.61,1.13-3.07,2.59,3.32l-1.05-14.91,2.18,9.57c.02-4.5-.94-9.5-.69-12.19,1.22,4.56.85,4.09,2.09,1.94-2.24,6.16,1.31,12.21-.21,19.33l-3.71-.22c-1.65,10.7,1.9,19.01.97,32.91l.64-4.47c1.47,1.86.21,8.58.8,13.08-1.24-.42-1.69,2.39-2.46,4.31.92-.23-.08,10.17,2.39,11.43l-1.63,6.2c-.67,11.22,3.53,12.8,3.11,23.59-1.35-3.25-2.22,1.65-3.19-5.57-.01,3.6-.24,6.84.62,6.9-.77,2.1,1.67,9.99.49,13.3.54,1.52,1.84,2.01,1.74,6.06-.16.28-.35.2-.48.1.52.82.8,5.94,2.07,2.68-3.86,11.09.28,31-3.04,40.66.42,7.86.81,17.33.9,24.46-.37-.46-.62-.02-.49-1.37-.58,4.92.31,6.43,1.18,8.12.44.85.87,1.71,1.11,3.11.24,1.66.3,3.7-.03,7.22-.5,2.03-.82,2.77-1.03,2.62-.21-.14-.3-1.15-.36-2.29-.12-2.27-.07-5.06-.45-2.5-1.71,1.46-1.89,5.66-1.69,10.53,3.56-.14,7.66-.45,11.48-.55.96-.03,1.91-.04,2.86-.03.46,0,.92.02,1.38.02.31.02.62.04.93.06,1.23.1,2.42.3,3.51.64l-1.82.24c5.76,1.38,14.05-1.54,23.47-1.25,0,0-.46.36-.05.62,6.44-2.08,18.62-2.76,27.68-3.34-2.82,1.59-4.11.84-2.39,2.46,4.06-.23-1.19-2.6,6.91-3.05,2.63.87,8.48,1.64,9.25,3.36l-7.64.09c3.91,2.24,9.89-.08,13.92.31l-.51.98c11.71-.32,11.87-2.78,24.46-2.6l-1.3-.74c6.88-2.44,5.77,1.37,12.63-.44l2.08,2.48c4.54-.6,15.9-2.39,24.04-2.86-4.61,1.84-14.14,2.77-20.03,3.86,4.5.02,15.29-.18,17.63-1.4-1.81.24-4.1.85-5.89.46,5.52-1.95,12.78-2.9,21.75-2.86-1.59,4.8,23.37,1.21,29.87,4.94,15.86-1.78,31.46.76,49.94.47-6.55-3.73,5.39-.11,4.26-3.94,4.27-.24,5.91-.18,6.31.06l-.9-.16c.39.08.6.12.93.18h0s13.02,2.27,13.02,2.27c3.09,1.12-4.09.85-3.7,1.71,9.42.29,3.95,1.63,10.19,2.64-1.28-1.37,3.28-1.96,8.65-1.44l-7.56-1.77c6.58-1.02,9.43-.22,12.29.59,2.86.8,5.69,1.65,12.53.54l-4.3,1.26c3.5-.35,9.97-.49,16.39-1.16,6.42-.65,12.76-1.86,15.98-3.76,1.27.3,3.01,1.15-.01,1.78,8.34-.68,17.43-2.88,25.94-5.21,8.52-2.34,16.43-4.74,22.95-5.6l-.98,1.24c2.96-1.09,4.74-3.17,8.75-3.45-.07.43-.92,1.28.48.89,1.51-.77,7.37-4.18,11.42-5.14l-2.97,2.22c7.94-2.24,13.55-5.36,18.56-8.69,5.02-3.35,9.47-6.9,15.18-10.61.68,1.21,3.92.37,7.68-1.26,3.75-1.68,7.97-4.09,10.75-5.9l.04.45c8.03-5.6,13.92-11.65,19.08-17.9,5.1-6.33,9.54-12.87,14.23-20.43,4.43-3.62,9.91-11.33,14.65-20.49,4.85-9.2,8.6-19.76,11.69-28.25-1.24,2.52-1.89-.99-1.46-4.11,1.62-3.94.47-11.59,2.83-10.49l-.31,1.45c3.07-2.63,3.74-11.34,4.33-18.01l-3.2-1.37c3.16-8.44,2.9-19.96,1.82-30.28Zm-45.7-189.36c-.02-.1,0-.28-.03-.38.16.39.28.8.22,1.37-1.15,2.46-2.01,2.99-2.49,3.12.67-1.08,1.43-2.35,2.29-4.1Zm-278.82,19.56l1.27-1.46c-1.37-.64-.72,1.22-1.82,1.09.02-1.24-.81-.88-.66-1.87.28-.12.96.51,1.38.02-1.24-.22-2.74-.95-3.23-1.89.11.7,0,1.67-.91,1.83-2.34.09-.8-1.49-2.17-2.12-.57.86-2.06-.03-2.1,1.82-.69,0-.81-.87-1.08-1.37-1.21.82-5.67.24-4.3,2.21l.31.13c-.06.04-.13.04-.2.08-3.98,1.84-8.26-1.04-12.21-.25v-.62c-2.35.71-5.24.42-6.92,1.76-.7,0-1.65-1.13-1.35-1.87-1.8.47-2,1.16-4.6.14,1.81-1.08-.63-.96,1.85-.79-.58-.13-1.06-.29-1.47-.44-.21-.07-.4-.13-.59-.19-.1-.05-.2-.1-.29-.12-.4-.1-.72.07-1.75.92.5-.79.38-1.29.18-1.53-.22-.24-.61-.23-1.02.01.02.38.11.76.26,1.14-.84.23-1.44.09-1.96-.04.66-.7,1.29-1.39,1.87-2.09.02-.51-.09-.64-.45-.56-.16-.35-1.16-.17-1.71-.7-.54-.44-.62-1.55,1.08-2.24-.73-.22-.99.04-1.27.42-.29.36-.61.85-1.46.69.28-1.13,3.28-3.84,3.28-4.45,1.16-3.02-3.05-2.81-2.26-5.97-.74.4-2.73.78-3.43-1.57.28-2.2,3.12-2.71,3.72-1.32.06.53-.17.78-.43.76.27.71.59,1.65,1.4.77l-.74-.29c.76-1.09.68-4.13,1.9-3.41-.71-1.67-1.22-.71-1.61.52,1.08-2.83.03-4.42.76-7.33-.41.46-1.28.89-1.28.43.92-4.27-1.41-1.88-1.74-4.77,1.13-1.64,2.71.59,1.76-2.32.77-1.78,1.97-.38,2.58.33-1.43-2.65.94-4.96,1.21-6.47l.6,1.4c-.36-.84-.35-1.52-.34-2.22l-1.49.8c.26-.82.27-1.51.88-1.5-.98-.85-2.48.65-3.81-1.03.76-1.09-.81-3.33,1.16-3.71-.61,3.13,1.53.27,2.16,1.91-.05-.43,0-.91.18-1.45.22-.12.41.12.52.34,1.77-3.29-2.23-1.51-2.19-4.92,1.11.43,2.11-.79,1.87-1.35-.02,1.37-1.86.66-2.71-.6.87-2.19-.64-2.38-.54-3.52l-.41,1.31c-1.11-.44-.97-1.54-1.32-3.06.87-.13.6,1.38.98.84-1.96-1.69,2.03-3.82.71-6.18.76-1.09,2.09-.11,2.6-1.07-1.44-2.65,1.53-2.86.33-5.64-1.5.8-1.13.94-2.59-1.02l1.05,4.57-2.18-2.93c-.02,1.38.94,2.91.69,3.74-1.22-1.4-.85-1.25-2.09-.59,2.24-1.89-1.31-3.74.21-5.92l3.71.07c1.65-3.28-1.9-5.83-.97-10.09l-.64,1.37c-1.47-.57-.21-2.63-.8-4.01,1.24.13,1.69-.73,2.46-1.32-.92.07.08-3.12-2.39-3.5l1.63-1.9c.67-3.44-3.53-3.92-3.11-7.23,1.35,1,2.22-.51,3.19,1.71.01-1.1.24-2.1-.62-2.11.77-.64-1.67-3.06-.49-4.08-.54-.47-1.84-.62-1.74-1.86.25-.14.61,0,.61,0-.61,0-.83-1.94-2.2-.86,3.86-3.4-.28-9.5,3.04-12.46-.21-1.2-.41-2.53-.57-3.83-.07-.65-.14-1.29-.21-1.91-.04-.54-.08-1.05-.12-1.53.37.11.62.04.49.27.58-.81-.31-1.14-1.18-1.75-.87-.55-1.73-1.44-1.08-2.54,2-.13,1.08,1.83,1.84,1.45,1.75.67,1.89.47,1.68-.13-.22-.58-.79-1.74-.49-2.03.29.1.65.3,1.1.64-.01.08-.02.16-.02.24,1.01.69.97.31,1.19-.22.17-.52.67-1.18,1.52-1.04,0,0,.02.36.14.62.25-1.04.9-1.73,2.66-2.23,1.53-.5,3.15-.82,4.54-1.11-.86,1.59-1.26.84-.73,2.46,1.24-.23-.37-2.6,2.12-3.05.81.87,2.6,1.64,2.84,3.36l-2.34.09c1.2,2.24,3.03-.08,4.27.31l-.16.98c3.59-.32,3.64-2.78,7.5-2.6l-.4-.74c2.11-2.44,1.77,1.37,3.87-.44l.64,2.48c1.39-.6,4.87-2.39,7.37-2.86-1.41,1.84-4.33,2.77-6.14,3.86,1.38.02,4.69-.18,5.4-1.4-.56.24-1.26.85-1.8.46,1.69-1.95,3.92-2.9,6.66-2.86-.48,4.8,7.16,1.21,9.16,4.94,4.86-1.78,9.65.76,15.31.47-2.01-3.73,1.65-.11,1.3-3.94,1.3-.24,1.8-.18,1.93.06l-.27-.16c.12.08.19.12.29.18h0s4,2.27,4,2.27c.95,1.12-1.25.85-1.13,1.71,2.89.29,1.21,1.63,3.13,2.64-.39-1.37,1-1.96,2.65-1.44l-2.32-1.77c4.03-2.04,3.49,3.22,7.56,1.2l-1.29,1.21c2.09-.71,7.7.02,9.74-3.06.37.44.86,1.49-.06,1.77,4.99.46,11.1-3.28,14.98-1.38l-.38.94c.93-.27,1.62-1.76,2.78-.82-.06.39-.37.94.06.99.49-.32,2.47-1.64,3.7-1.1l-1.05,1.05c4.88,1.24,7.47-2.6,11.44-3.17-.05,2.76,3.59,3.74,5.38,4.3l-.08.39c5.35.63,9.33-1.64,14.54-2.07,1.37,1.69,3.96,2.36,6.77,2.99,2.78.61,5.68,1.22,7.79,2.64-.59-.66.65-2.06,1.57-2.1.94.83,3.6-.95,2.68,1.42l-.37-.16c.1,2.61,2.43,2.68,4.07,3.37l1.45-2.99c1.39,3.09,4.29,3.87,7.03,4.73,2.73.84,5.26,1.73,5.04,4.19,1.36-.1,2.43.7,3.79.71l-1.14,1.36c2.02,2.18,2.9,3.29,5.68,5.64l-1.43.32c1.22,1.5,5.58-1.44,6.96.15l-1.75,2.08c1.13,1.47,1.69,3.34,2.4,5.06.74,1.77,1.48,3.17,3.32,4.34-.38.11-1.12.31-1.45-.16.73,1.53.63,6.57,3.87,4.93-2.22.74.86,3.69,2.28,5.6l-1.77.04c2.53,1.25,3.16,1.22,4.16,3.63-.12.54-.97.67-1.03.19-.26,1.66,1.87,1.16,1.26,3.55l-1.21-.78c.09,2.04.64,1.82,2.04,2.87.8,1.27-.22,4.01-1.81,4.34.98.24,2.28,1.37,1.84,2.62-.6.17-.97-.28-1.15-.5-1.21,3.44,2,5.26.12,7.58-.58.02-.88.15-1.06.34.24-2.72.32-4.95.45-4.74-1.61-.02-1.93,2.14-4.13.36.6.88,1.54,2.09,2.16,3.35.64,1.26,1.07,2.6.56,3.62-.17.09-.33.17-.58.23l-.16-.23c-.21.47-.1.91.12,1.35-.33.64-.56,1.04-.66,1.68-1.36.08-1.07,2.31-1.29,3.35,1.77.21,1.21,1.55,2.89.5-.15.15-.18-.24-.14-.97-.03-.17-.03-.37-.11-.49.04.03.09.06.14.1.05-.72.16-1.64.27-2.7.79.96,1.38,1.98.24,3.04,1.03.73,2.11,1.56,2.56,2.01-2.72,1.11-4.58,3.59-6.19,3.57.04.83,0,1.73-.09,2.63-.12.89-.24,1.8-.29,2.7-.15,1.78-.01,3.54,1.08,5.16,0,1.04-1.32.61-1.93.71-.08-.62.22-1.18-.09-1.63,0,.99-.44,2.3-.76,3.46-.32,1.17-.41,2.29.49,3.07-2.13,1.5-1.15-2.17-2.51.74l-.38-.73c-3.13,1.65-3.39,4.26-4.1,7.21-.43,1.37-.85,2.9-1.87,4-.49.56-1.08,1.08-1.82,1.46-.76.35-1.66.59-2.7.66.56-.07.83-.12,1.15.12-3.83,1.68-7.13,4.34-10.74,6.63-3.6,2.27-7.57,4.13-11.96,3.86-2.41.04-2.18,1.55-3.26,3.02l-1-1.69-1.8,2.75c-1.53,1.17-3.29.41-5.06-.26-1.79-.65-3.56-1.15-5.52.65l.75,1.18c-1.6.04-4.95,1.36-4.83-.11-.14.24-.39,1.39-1.07.78l-.14-.98-3.79,1.99c-3.08-.58.23-3.95-4.12-3.94-1.58.4-4.6,2.95-3.99,3.61.67.04,1.72.59,1.78,1.58l-1.53.54c-.02.18-.04.37-.06.55-.08,0-.16,0-.25,0h0s0,0,0,0h-18.28s.18-.47.18-.47l-.55.48h-2.36c.07-.37.29-.69.76-.84-1.72-1.29-1.52.93-2.99-.51-.16-.22-.09-.35.06-.45l-1.68.78c.33-.55-.28-1.84.75-1.47-3.01-1.5-4.85,1.96-5.99-.02l.25-.16c-3.12.66-1.8,1.41-2.24,2.68h-1.95s-1.45-3.24-1.45-3.24l-.41,1.92c-.43-.07-1.28-.21-1.13-.98-1.6,1.31.27.83-.66,2.07-2.08-1.74-5.72.82-6.19-2.23-.74,1.46,1.98,1.12-.23,2.14-.63-3.28-2.56.56-4.45-.94.58-1.69,2.38-.8.48-2.31-1.14,2.86-3.69-.62-5.29-.07-.07,2.28-3.47.95-6.16,1.71.17-.77-5.05-1.25-7.54-2.07l.07-.38c-.48,2.3-3.06,1.87-4.93,2.35.07-1.38.41-1.92,1.42-2.54h-1.76c-.42.75-.96,1.14-2.11,1.4l.44-1.72c-2.34.1-4.72,2.03-7.74.88-.11,1.09,1.02,2.75.78,4.05h-1.63c.05-.54.23-1.03.66-1.21-.27.11-.97.72-1.53.35Zm90.87,252.95h-20.78s.21-.48.21-.48l-.62.48h-2.68c.08-.37.33-.69.86-.84-1.95-1.29-1.73.93-3.4-.51-.18-.22-.1-.35.07-.45l-1.91.78c.37-.55-.32-1.84.85-1.47-3.42-1.5-5.52,1.96-6.81-.02l.29-.16c-3.55.66-2.05,1.4-2.55,2.68h-2.22s-1.64-3.24-1.64-3.24l-.47,1.92c-.49-.07-1.46-.21-1.28-.98-1.82,1.31.31.83-.75,2.07-2.36-1.74-6.5.82-7.03-2.23-.85,1.46,2.25,1.12-.26,2.14-.72-3.28-2.91.56-5.06-.94.66-1.69,2.7-.8.55-2.31-1.3,2.86-4.19-.62-6.01-.08-.08,2.28-3.95.95-7,1.71.19-.77-5.74-1.25-8.57-2.07l.08-.38c-.55,2.3-3.47,1.87-5.6,2.35.08-1.38.47-1.92,1.62-2.54h-2c-.47.75-1.1,1.14-2.39,1.4l.5-1.72c-2.66.1-5.36,2.03-8.79.88-.13,1.09,1.16,2.75.89,4.05h-1.85c.06-.54.26-1.03.75-1.21-.31.11-1.11.72-1.73.35l1.45-1.46c-1.56-.64-.82,1.22-2.06,1.09.02-1.24-.92-.88-.75-1.87.32-.12,1.09.51,1.57.03-1.41-.22-3.11-.96-3.67-1.89.12.7,0,1.67-1.03,1.83-2.66.09-.91-1.49-2.47-2.13-.64.86-2.35-.03-2.39,1.82-.78,0-.92-.87-1.23-1.37-1.38.82-6.44.24-4.89,2.21l.35.13c-.07.04-.14.04-.23.08-4.52,1.84-9.39-1.05-13.87-.25v-.62c-1.33.35-2.82.46-4.21.64-1.53.18-2.34.44-3.32,1.11-.73,0-1.16-1.13-.62-1.87-.76.23-1.32.52-1.88.63-.54.1-1.15.02-1.72-.49,2.23-1.08.37-.96,1.96-.79-.7-.3-.74-.74-1.21-.78.02-.42-.2-.56-.94-.78.79-.3,1.29-.98,1.53-1.48.24-.52.23-.94-.01-1.15-.38.44-.76.95-1.14,1.53-.23-.7-.09-1.54.04-2.28.7,0,1.39-.06,2.09-.16.32-.33.49-.56.55-.77.02-.05.03-.1.03-.15v-.32c-.02-.32-.06-.63-.12-.94-.22-1.24-.71-2.43-1.14-3.57-.87-2.29-1.52-4.42.61-6.49-1.46-1.44-1.03,2.96-2.73,1.67.28-2.5,3.28-5.11,3.28-5.89,1.16-3.43-3.05-3.2-2.26-6.79-.74.46-2.73.89-3.43-1.79.28-2.51,3.12-3.08,3.72-1.5.06.6-.17.89-.43.86.27.81.59,1.87,1.4.88l-.74-.33c.76-1.24.68-4.69,1.9-3.88-.71-1.89-1.22-.81-1.61.59,1.08-3.21.03-5.02.76-8.33-.41.53-1.28,1.01-1.28.49.92-4.85-1.41-2.14-1.74-5.42,1.13-1.87,2.71.67,1.76-2.64.77-2.02,1.97-.43,2.58.38-1.43-3.01.94-5.63,1.21-7.35l.6,1.59c-.36-.95-.35-1.73-.34-2.52l-1.49.91c.26-.93.27-1.72.88-1.7-.98-.96-2.48.74-3.81-1.17.76-1.24-.81-3.78,1.16-4.21-.61,3.56,1.53.3,2.16,2.17-.05-.49,0-1.03.18-1.65.22-.14.41.13.52.39,1.77-3.74-2.23-1.72-2.19-5.6,1.11.49,2.11-.9,1.87-1.53-.02,1.56-1.86.75-2.71-.69.87-2.49-.64-2.7-.54-4l-.41,1.49c-1.11-.5-.97-1.75-1.32-3.48.87-.15.6,1.57.98.95-1.96-1.92,2.03-4.35.71-7.03.76-1.24,2.09-.12,2.6-1.21-1.44-3.01,1.53-3.26.33-6.42-1.5.91-1.13,1.07-2.59-1.16l1.05,5.19-2.18-3.33c-.02,1.57.94,3.31.69,4.25-1.22-1.59-.85-1.43-2.09-.67,2.24-2.15-1.31-4.25.21-6.73l3.71.08c1.65-3.73-1.9-6.62-.97-11.46l-.64,1.56c-1.47-.65-.21-2.99-.8-4.56,1.24.15,1.69-.83,2.46-1.5-.92.08.08-3.54-2.39-3.98l1.63-2.16c.67-3.91-3.53-4.46-3.11-8.22,1.35,1.13,2.22-.58,3.19,1.94.01-1.25.24-2.38-.62-2.4.77-.73-1.67-3.48-.49-4.63-.54-.53-1.84-.7-1.74-2.11.25-.15.61,0,.61,0-.61,0-.83-2.2-2.2-.97,3.86-3.86-.28-10.8,3.04-14.17-.18-1.3-.38-2.73-.57-4.13-.16-.89-.28-1.83-.33-2.63.37.27.62.29.49.5.57-.68-.29-1.4-1.15-2.43-.86-.97-1.72-2.28-1.16-3.3.03,0,.08.03.13.04,1.72.99,1.55,1.26,1.29,1.38.12.53.07.95.46.9.79.67,1.25.98,1.5,1.06.84.52.91.12,1.32-.17.37-.29,1.11-.47,1.93.49l-.18.24c.69.69.9.31,1.5-.22l.23-.2c.15-.07.35-.14.53-.2.36-.13.74-.26,1.12-.37.76-.21,1.56-.34,2.38-.27,0,0-.16.36-.02.62,2.24-2.08,6.49-2.76,9.64-3.34-.98,1.59-1.43.84-.83,2.46,1.41-.23-.41-2.6,2.41-3.05.92.87,2.95,1.64,3.22,3.36l-2.66.09c1.36,2.24,3.45-.08,4.85.31l-.18.98c4.08-.32,4.14-2.78,8.52-2.6l-.45-.74c2.4-2.44,2.01,1.37,4.4-.44l.72,2.48c1.58-.6,5.54-2.39,8.37-2.86-1.61,1.84-4.92,2.77-6.98,3.86,1.57.02,5.33-.18,6.14-1.4-.63.24-1.43.85-2.05.46,1.92-1.95,4.45-2.9,7.58-2.86-.55,4.8,8.14,1.21,10.41,4.94,5.52-1.78,10.96.76,17.4.47-2.28-3.73,1.88-.11,1.48-3.94,1.48-.24,2.05-.18,2.19.06l-.31-.16c.13.08.21.12.32.18h0s4.54,2.27,4.54,2.27c1.08,1.12-1.43.85-1.29,1.71,3.28.29,1.38,1.63,3.55,2.64-.45-1.37,1.14-1.96,3.01-1.44l-2.64-1.77c4.59-2.04,3.97,3.22,8.59,1.2l-1.46,1.21c2.37-.71,8.75.02,11.08-3.06.42.44.97,1.49-.07,1.77,5.67.46,12.62-3.28,17.03-1.38l-.43.94c1.06-.27,1.84-1.76,3.17-.82-.07.39-.43.94.06.99.56-.32,2.81-1.64,4.21-1.1l-1.2,1.05c5.59,1.23,8.37-2.59,12.93-3.05-.11,2.74,3.98,3.84,5.97,4.48l-.1.38c5.97.87,10.47-1.15,16.3-1.06.71.93,1.75,1.62,3.01,2.19,1.23.63,2.69,1.11,4.19,1.61,2.99,1.05,6.26,2.12,8.45,3.95-.58-.78.92-1.95,1.95-1.83.99.96,4.09-.27,2.85,1.93l-.4-.24c-.08,1.34.54,2.11,1.39,2.69.83.61,1.92,1.01,2.81,1.5l1.89-2.75c1.21,3.47,4.37,4.81,7.27,6.34,1.5.72,2.79,1.46,3.74,2.32.98.82,1.43,1.91,1.2,3.15,1.5.2,2.51,1.36,3.96,1.72l-1.37,1.14c1.88,2.83,2.7,4.23,5.28,7.55l-1.51-.06c1.03,2.02,5.99-.05,7.14,2.06l-2.06,1.8c.52.93.8,1.99,1.06,3.05.27,1.05.5,2.11.71,3.18.52,2.1,1.13,4.12,2.9,5.88-.4.03-1.17.11-1.47-.52.58,1.97.09,8.03,3.48,6.62-1.16.26-1,1.38-.37,2.73.59,1.36,1.6,2.99,2.3,4.14l-1.79-.16c2.5,1.75,3.05,1.78,3.97,4.65-.14.61-.99.69-1.04.13-.31,1.9,1.79,1.49,1.09,4.2l-1.17-.98c-.01,2.38.61,2.15,1.94,3.43.73,1.5-.36,4.59-1.93,4.93.96.31,2.24,1.64,1.76,3.05-.6.18-.96-.34-1.14-.6-1.28,3.89,1.78,6.02-.17,8.62-.58,0-.89.15-1.09.35.36-3.08.55-5.6.67-5.36-1.61-.06-2.03,2.37-4.14.29,1.13,1.99,3.45,5.66,2.36,7.98-.17.1-.34.19-.59.24l-.15-.27c-.23.52-.14,1.04.04,1.53-.39.71-.65,1.15-.8,1.87-1.36.04-1.22,2.57-1.56,3.71,1.75.3,1.1,1.79,2.86.67-.16.16-.15-.28-.05-1.09-.01-.19.01-.41-.06-.55.04.03.08.07.13.11.12-.8.28-1.85.46-3.04.71,1.11,1.26,2.3.01,3.44.97.86,1.95,1.83,2.38,2.36-2.8,1.16-4.98,3.83-6.58,3.74-.08,1.87-.69,3.91-1.09,5.86-.37,1.96-.58,3.87.25,5.76-.19,1.16-1.46.6-2.1.68.03-.7.44-1.31.2-1.83-.28,2.31-3.04,5.48-1.5,7.23-2.46,1.59-.8-2.46-2.73.73l-.26-.82c-3.61,1.7-4.35,4.64-5.66,7.75-1.26,3.04-3.2,6.19-7.93,6.45.64-.06.94-.11,1.25.15-4.47,1.73-8.44,4.42-12.8,6.65-4.32,2.23-9.02,3.94-13.95,3.48-2.73,0-2.64,1.47-4.04,2.91l-.95-1.74c-.76.9-1.56,1.79-2.36,2.68-1.85,1.15-3.78.3-5.77-.4-2-.69-4.04-1.23-6.38.56l.8,1.19c-1.84-.02-5.71,1.34-5.53-.17-.16.25-.49,1.37-1.26.77l-.13-.98c-1.44.68-2.9,1.34-4.38,1.98-3.51-.58.35-3.92-4.65-3.96-1.82.43-5.29,2.93-4.59,3.59.76.05,1.95.61,2.02,1.61l-1.75.52c-.02.18-.04.37-.07.55-.09,0-.19,0-.28,0Zm-32.14-252.14c.24-.1.46-.19.73-.28.1.09.15.18.21.28h-.94Zm4.14,252.15c.27-.09.52-.19.83-.28.12.09.17.18.24.28h-1.06Zm116.13-58.68c-.32-.14-.61-.29-.81-.49-.1-.83.3-1.03.67-1.07-.04.38-.07.82-.06,1.42.06.04.12.1.19.14Zm-23.57-250.05c.05.03.15.08.2.11-.32-.12-.62-.24-.83-.4-.14-.73.23-.92.61-.97-.02.34-.02.73.03,1.26Zm-133.43-184.23c.34.09.56.18.74.28h-3.24c.79-.1,1.6-.19,2.5-.28Z"/></svg>