<?xml version="1.0" encoding="UTF-8"?><svg id="Calque_1" xmlns="http://www.w3.org/2000/svg" viewBox="0 0 1000 1000"><defs><style>.cls-1{fill:#fff;}.cls-2{fill:#c68200;}</style></defs><path class="cls-1" d="m943.08,611.03c-.29-2.64-1.08-5.96-2.27-5.37.39-3.9,1.09-5.14,2.39-1.16-.81-14.35-2.74-9.27-2.6-22.24.86.05,1.17,2.67,2.16,4.02-1.62-6.58-3.24-13.18-2.49-24.13.45.58,1.01-.31,1.14,1.61-.33-18.26-4.3-31.41-2.71-51.64,3.71,6.09,1.22-7.02,4.43-8.11l-.96-11.09-1.56,4.45c.05-9.72-2.28-18.3-1.25-26.66l1.33,7.22-.63-18.21-1.21,10.31c-1.66-9.83-4.06,1.06-3.18-11.87.33,2.63.02-9.72,1.9-14.79,0,0,0,.03,0,.03-1.04-4.81-2.13-9.75-1.36-16.93,1.02-1.87,3.56,1.49,4.23.27-2.7-4.73-.87-22.77-3.81-28.75.69,2,2.38,2.09,2.71,1.42l-2.22-3.96c.65-4.51.97-5.18,2.32-4.46.2-13.57-3.99,4.36-2.5-11.75.2,1.26.51.65.89,3.28.66-16.2-2.12-31.21-1.69-46.08,3.05-4.52,1.32,12.94,3.84,7.82-.74-10.74-2.13-21.65-3.58-32.75-1.49-11.04-3.19-21.91-4.29-32.33.08,1.3.13,2.61.17,3.91-2.42-1.15-2.41-5.04-2.3-9.96.07-4.91.21-10.9-1.98-15.87.87,2.47,3.19,2.83,2.54,2.24-1.08-7.16-3.08-14.33-5.9-22.19-2.82-7.86-6.53-16.38-11.21-26.19l2.08,2.09c-1.05-4.14-3-9.45-5.37-14.67-2.35-5.23-4.97-10.42-7.03-14.58-2.32-1.86-4.89-6.44-4.71-2.84-4.29-13.93-13.31-24.67-22.72-33.83-4.7-4.65-9.63-8.82-14.19-13.21-4.58-4.4-8.94-8.96-12.94-14.03,2.33,1.91,6.16,3.91,4.34,2.32-5.69-4.44-11.59-8.6-17.66-12.44.22,2.61,1.63,2.58,4.27,6.53-2.85-.7-8.18-3.47-12.54-6.32,8.6,4.23,1.78-2.74-1.21-5.89.26.89-1.3.69-1.33,1.41-3.79-4.47-4.78-3.78-6.17-3.31-1.43.5-3.27.82-9.35-3.76l1.19-.55c-5.26-2.21-10.54-3.17-15.97-5.87-.71-1.54.79-1.22,2.59-.66,1.79.58,3.9,1.36,4.48.58-7.96-3.58-17.23-2.6-23.67-7.35,3.65.58,8.51,2.46,12.14,3.21-6.91-5.61-8.1-5.28-13.93-7.79l.57.27c-4.49-1.96-9.04-3.85-13.65-5.57,1.14.57,2.27,1.14,3.39,1.75-6.05,1.32-11.34.15-17.12-1.18-5.75-1.36-12.01-2.88-19.43-2.14,14.43-1.18,2.67-1.72,4.17-4.11-3.53-1.35-9.01-3.06-7.31-3.52-7.11,1.07-11.24-3.31-21.25-1.25-.35-.89-7.31-.73-5.59-2.7-8.98-.1,1.99,1.62,1.14,2.62-6.95.79-14.94-.56-23.67-1.7-8.67-1.13-18.13-2.16-27.99-.54-15.51.97-19.5,3.38-32.06,4.66-1.54-.02-3.12-.05-4.74-.07-2.44-1.3,5.43-2.59,5.43-2.59-8.49-1.37-14.91-1.21-22.93-.32,1.63-.72-.04-1.35-2.48-2.31-6.44.17-4.32,3.01-12.8,1.73,1.46-.92,3.34-2.41,6.45-3.33-7.59.73-15.09,2.25-22.94,2.98-2.08-1.47,4.74-2.2,7.51-3.14-8.83.62-22.86,1.26-25.59,3.56l4.19.62c-1-.53.35-1.86,2.19-2.19,7.56-1.8,10.9.83,11.32,1.67l-5.59.52c5.72,4.93,22.44-.72,33.7-.34l-3.84,2.88c-20.99-.14-48.13-.19-85.86-.19h0,0c0-.93,0-1.75,0-2.46.2-.48.35-.96.4-1.44.71.24,1.78.37,3.29.26l3.12-2.84-3.41.38-1.7.19-.85.09-.43.05-.21.02h-.11s-.05.02-.05.02h-.03s-.01,0-.01,0h0s0,0,0,0v.03s0,0,0,0c0-.93,0-1.89,0,0-1.05-1.66-4.32-3.19-12.37-4.45l-12.43,2.45-4.01-1.94,10.46-.13c-5.93-1.82-9.7-.2-13.91.91-1-1.03-2.75-1.75-5.21-2.13l-12.2,3.85c-1.48-1.56,5.47-3.12-2.73-3.97-5.71,1.79,5.49,3.5-3.97,4.69-5.95-1.8-4.22-3.29-11.2-1.71-.99-1.03.49-1.69,3.26-2.15-6.21,1.25-16.46.6-19.65,2.74-6.22-2.21-21,.76-20.43-3.03-1.95.93-10.94,3.1-16.66,3.38,5.19-2.36-.17-2.34-6.5-2.31-6.33.02-13.64.11-12.33-2.37-7.67,4.28-27.93,2.82-41.55,5.77.75-.36,2.27-1.11,3.47-.95-7.8.06-10.17-1.04-15.28-1.44-.77,3.36-12.88,5.2-19.14,8.07-9.94-2.03,5.33-4.64,2-7.35.39,1.31-3.72,2.49-7.46,3.6-3.74,1.13-7.11,2.23-5.32,3.11-7.61-.88-6.43.05-10.69-2.08-.52,4.39-6.71,1.96-12.2,5.82-10.93.47-3.65-3.3-14.84.98-2.9.15-1.91-.85-.17-1.9,1.73-1.07,4.24-2.07,4.24-2.07-11.85,3.13-4.7,4.52-6.69,6.94-6.76,2.47-8.5,2.48-9.24,1.78-.74-.7-.43-2.08-3.05-2.08-4.19,1.85-7.63,4.12-10.74,6.19-3.15,2.09-6.06,3.96-9.19,5.26-.67-.28-1.96.06-.79-1.15-3.94,3.05-10.38,6.03-16.77,9.61-6.4,3.54-12.73,7.65-16.48,12.02-.84.22-1.33.23-1.64.15,2.38.32,3.48,1.53,3.81,2.69-4.43,2.99-6.94,7.23-9.77,6.75,2.65-1.9,2.41-2.69,3.28-4.12-1.35,1.34-2.71,2.64-4.01,4.02-2.91.32-1.54-1.03.42-2.7,1.99-1.61,4.56-3.52,3.93-4.43-4.26,3.57-8.54,7.82-12.49,11.85-3.94,4.06-7.63,7.81-10.95,10.39-1.65-.47,1.78-4.02,4.48-6.64,2.7-2.6,4.6-4.37-.59-1.71,3.58-2.58,7.2-5.07,10.9-7.43-5.37,1.26-3.76.12-2.07-1.17,1.71-1.23,3.5-2.59-1.74-1.72-7.22,5.08-10.62,8.72-14.03,12.27-3.39,3.64-6.53,7.22-12.87,13.11-1.51,3.98,2.61.72,1.13,4.67-7.22,9.92-11.37,12.64-15.28,14.75-3.76,2.18-7.16,3.85-10.61,12.56-.91,5.09,1.09,8.34-6.79,18.54l-.76-5.43c-4.28,7.32-4.2,10.08-4.46,12.72-.12,1.33-.32,2.64-1.02,4.57-.72,1.93-1.98,4.45-4.17,8.29-.06-3.4,4.35-12.51,2.94-10.35-3.59,4.65-3.93,6.75-3.86,8.61.05,1.86.6,3.53-.97,7.56l-3.37.63c-2.94,8.32-5.33,17.5-7.22,26.87-1.92,9.4-3.33,19.07-4.72,28.7-.68-1.2-1.02-4.68-2.66-.31-1.4,12.23-2.9,25.28-4.39,38.22-1.4,13-2.71,25.46-4.09,37.08l2.19,8.99c-.1,2.07-1.27,3.8-1.68,1.54-1.26,9.06,1.58.52,2.43,4.92.03,5.17-1.64,6.78-2.31,3.49,1.63,16.12,3.83,45.62,1.07,62.41l-.73-3.28c-1.09,13.08,5.11,14.78,2.72,26.9l-.44-2.33c-1.16,28.38,1.16,59.72-2.63,81.37,3.63,4.11-1.58,28.09,3.5,29.9-2.45,16.22-3.4,11.57-4.93,34.44-.18,6.11,3.24,9.08,3.87,16.62l-2.64.22,2.94,10.22-3.07,5.53.84,7.09c.09-2.84,1.05-6.04,1.82-5.63,1.41,11.05-1.04,27.09-2.37,27.42l3.38,26.08c-.81-.41-1.33-2.86-1.88-5.49,1.81,9.34-3.07.8-.17,12.64.51-1.78,1.62.85,2.19,1.11-1.22,6.57,0,21.42,2.29,32.26l-2.1-1.85c2.18,19.91,8.26,41.7,16.02,62.95-1.91-7.95,1.73-7.16,4.19-1.12l-1.71,3.41c3.1,3.33-1.41-6.72,3.62.6,2.69,7.85-.92,6.41-3.54,2.21,1.54,3.06,3.06,6.13,4.73,9.17-.53.89-1.89-1.17-3.12-1.36.82.82,1.5,2.33,2.15,4.2.69,1.86,1.36,4.09,2.12,6.36,1.56,4.51,3.53,9.16,6.35,11.14l-.44.91c5.58,10.08,10.43,16.93,15.2,23.12,4.81,6.17,9.54,11.7,15.83,18.6,2-1.33,6.57,4.37,11.79,6.77,8.77,10,19.13,21.5,32.9,30.5,10.3,5.3,3.93.12,9.02,1.69-.24,1.17,3.17,3.79,5.67,5.71,2.52,1.89,4.08,3.16-.02,1.77,8.7,4.66,14.45,7.24,20.91,9.78,1.63.6,3.29,1.21,5.06,1.86,1.77.58,3.64,1.19,5.68,1.85,4.03,1.24,8.77,2.68,14.75,4.14-2.25-1.68-4.93-3.01-3.23-3.22,4.28,1.08,9.28,3.97,8.38,4.78l-1.19-.13c13.59,2.55,28.57,7.56,43.36,11.25,14.74,3.72,29.13,6.16,40.08,4.47l-1.23.16c7.59-.36,14.86-.87,22.29-1.34,10.15.81-6.17,1.4,1.3,3.07,24-2.67,37.81,1.8,57.49-.4,15.17,6.7,53.89-.12,74.34,4.03l-1.18-1.53c5.29-1.49,6.4.88,10.3,1.24-.55-1.19-5.74-1.38-2.45-2.21,44.84-1.87,92.42,2.36,138.61,3.13,16.93.09,9.42-8.02,30.81-5.01l-5.96,3.03c8.52-1.11,17.12-1.86,25.74-2.43,4.31-.28,8.62-.52,12.93-.73,4.38-.25,8.79-.42,13.19-.74,17.57-1.1,35.25-3.2,51.74-8.19-1.87,1.05-1.75,1.95-5.05,2.56,3.76.35,10.39-1.06,15.97-2.91,5.58-1.85,10.07-4.15,9.89-4.96,5.19-1.36,1.62,1.1,5.05.95,3.7-.49,7.88-2.59,11.61-4.52,3.73-1.94,7.02-3.67,9.21-3.51.46.02-.3.58-1.24,1.15,2.51-1.28,6.45-2.93,9.67-4.36,3.99-1.95,6.77-3.66,4.2-3.72,3.04-1.19,6.02-2.38,8.72-3.93,2.72-1.51,5.33-3.08,7.86-4.6,2.51-1.56,4.85-3.21,7.23-4.65,1.18-.72,2.37-1.41,3.55-2.06,1.17-.67,2.31-1.34,3.48-1.93,2.04-3.03,6.83-5.84,10.83-8.83,2.03-1.45,3.94-2.83,5.26-4.14,1.29-1.36,2.03-2.61,1.83-3.67.45.89,1.88.57,3.86-.54.99-.55,2.12-1.3,3.33-2.19,1.2-.9,2.41-2.02,3.68-3.18,2.48-2.38,5.2-4.93,7.27-7.62,2.14-2.63,3.93-5.1,5.01-6.89-.53,1.38.98.34,2.35-.76,1.4-1.08,2.81-2.08,2.36-.31,6.28-7.13,10.78-14.62,8.22-14.47,3.64-2.66,6.32-6.12,8.71-9.62,2.46-3.46,4.11-7.3,5.85-10.77,1.78-3.46,3.08-6.88,4.79-9.67.84-1.41,1.74-2.68,2.74-3.79.94-1.14,1.99-2.12,3.19-2.89.64-1.64,1.28-3.27,1.92-4.89.65-1.61,1.28-3.23,1.8-4.87,1.1-3.25,2.2-6.48,3.28-9.68,2-6.37,3.76-12.72,5.33-19,3.14-12.57,5.37-24.93,7.01-37.1,1.85.76.78,7.51-.53,13.99-1.28,6.48-2.79,12.68-.69,12.69,2.23-11.7,2.8-21.07,3.37-30.28.54-9.22,1.08-18.31,2.52-29.71,1.05-5.89,1.38,3.51,1.86,5.59.33-11.63.95-22.93,1.43-33.54.5-10.69.88-21.12.12-31.32-2.43,3.56-4.42-14.8-5.75-17.17,4.65,5.86,1.48-20.11,7.6-9.39ZM195.01,195.7c-.16,1-1,2.59-2.84,5.09-.57-.22-1.29-.59-1.67-1.21,1.44-1.57,2.95-3.1,4.47-4.6.06.2.08.43.04.72Zm653.55,124.1c-.62-.99-.84,3.47-1.41,6.36,0-2.35-.16-5.18-.34-8.22.8-.71,1.69-.05,1.75,1.86Zm-2.7-12.51s-.04,0-.05,0c-.24-1.92-.44-3.55-.57-4.59.13.96.31,2.28.62,4.59Zm-427.55-162.88c2.98-.02,6.08-.03,9.32-.05l-7.5,2.34c-1.25-.56-2.25-1.51-1.82-2.29Zm-43.59.55c-.57.61-1.93,1.31-5.03,2.16l-2.68-1.97c2.5-.07,5.06-.14,7.71-.2Zm125.96,3.17c-.61-.24-1.5-.37-2.76-.26l-2.61,2.85,5.71-.76s0,0,.01,0c.89,1.66,3.64,3.18,10.35,4.43l10.41-2.44,3.35,1.94-8.76.12c4.97,1.83,8.12.21,11.65-.89.83,1.03,2.3,1.76,4.36,2.14l10.22-3.81c1.24,1.57-4.59,3.1,2.27,3.98,4.79-1.77-4.58-3.52,3.34-4.67,4.98,1.83,3.52,3.3,9.36,1.77.82,1.03-.42,1.68-2.74,2.13,5.2-1.22,13.76-.48,16.45-2.6,5.18,2.27,17.55-.49,17.01,3.3,1.64-.9,9.17-2.91,13.94-3.01-8.75,4.43,17.84.48,15.44,5.34,6.51-3.99,23.2-1.31,34.66-3.1-.65.3-1.92.91-2.92.66,6.39.58,8.21,1.89,12.29,2.84.95-3.32,11.04-3.68,16.48-5.46,7.57,3.67-4.91,3.69-2.61,6.94-.13-1.37,3.23-1.87,6.34-2.33,3.1-.44,5.92-.77,4.7-2.01,5.74,2.42,5,1.4,7.75,4.43,1.44-4.11,5.48-.19,10.61-2.13,4.08,1.58,4.45,2.65,5.01,3.31.55.68,1.27.88,5.9,1.03,2.04,1.02.97,1.53-.58,1.8-1.55.25-3.61.32-3.61.32,9.11,1.6,4.83-2.32,7.11-3.79,5.61.61,6.75,1.5,6.91,2.46.16.96-.62,2.03,1.02,3.23,6.82.71,12.71-.62,17.6,1.14.2.62,1.08,1.12-.23,1.37,1.93-.02,4.16.41,6.62,1.15,2.5.78,5.13,1.67,7.65,2.71,5.11,2.01,10.18,4.37,14.64,5.12.41.56.54.96.56,1.24-.37-2.08.21-3.58,1.04-4.44,3.7,2.07,7.87,2.44,8.04,5.08-2.13-1.52-2.79-.9-4.16-1,1.41.52,2.81,1.08,4.21,1.66.82,2.34-.59,1.71-2.33.74-1.75-.96-3.89-2.21-4.46-1.27,3.86,1.79,8.15,3.68,12.04,5.85,3.88,2.16,7.33,4.6,9.49,7.14-.5,1.54-3.46-.88-5.83-2.56-2.37-1.7-3.99-2.76-1.46.95-2.33-2.38-4.72-4.74-7.26-6.95,3.49,8.14-4.68-3.73-1.91,4.3,4.91,4.06,7.81,6.1,10.73,8.19,1.47,1.05,2.86,2.12,4.5,3.6,1.6,1.52,3.57,3.4,5.61,5.87,3.18,1,1.07-2.36,4.28-1.32,7.38,6.03,8.07,10.35,8.41,13.75.33,3.49.35,6.17,5.38,10.96,1.68,1.04,3.54,1.41,5.27,2.79,1.76,1.35,3.43,3.73,4.49,8.63-1.43-.61-2.91-1.16-4.35-1.7,2.39,5.73,4.03,7.07,5.65,8.56,1.58,1.53,3.06,3.17,4.1,9.98-1.91-1.92-4.36-9.23-4.07-7.26.28,4.55,1.16,5.82,2.33,6.81,1.14.98,2.56,1.63,3.5,4.89l-2.42,2.14c4.13,12.92,8.74,27.76,10.64,43.33-.95-.79-2.1-3.34-2.66.35.81,4.84,1.31,9.9,1.58,15.05.28,5.18.36,10.58.35,15.88-.03,10.63-.53,21.14-1.16,30.78l2.69,7.31c0,1.72-1.08,3.2-1.6,1.36-.82,7.54,1.61.36,2.66,3.96.25,4.28-1.36,5.68-2.15,2.98,2.37,13.23,4.99,37.88,2.32,51.94l-.76-2.74c-.99,10.94,5.21,12.34,2.87,22.49l-.45-1.95c-1.05,23.76,1.25,50.02-2.57,68.15,3.63,3.45-1.65,23.51,3.41,25.05-2.54,13.56-3.43,9.68-5.2,28.75-.26,5.09,3.12,7.61,3.6,13.92l-2.65.13,2.7,8.57-3.21,4.51.6,5.9c.19-2.35,1.26-4.98,2.02-4.61,1.11,9.25-2.24,22.41-3.61,22.59.56,7.25,1.09,14.51,1.55,21.79-.8-.4-1.12-2.62-1.48-4.94,1.22,8.3-3.07.6-1.17,10.59.66-1.4,1.54.84,2.07,1.1-1.84,5.2-2.32,17.47-2.21,26.13l-1.71-1.79c-1.48,15.63-2.09,33.06-6.42,49.71,2.31-5.77,5.06-3.74,4.11,1.37l-3.24,1.25c.8,3.64,2.42-4.89,2.68,2.23-2.14,6.22-4.27,3.26-4.11-.5-.41,2.58-.86,5.17-1.37,7.75-.93.17-.78-1.71-1.66-2.48.37,1.79-1.39,4.73-3.12,7.85-.87,1.6-1.76,3.15-2.36,4.62-.59,1.49-.89,2.95-.63,4.29l-.94.04c-3.44,7.55-6.39,12.81-9.16,17.76-2.98,4.81-5.77,9.36-10.22,14.52.82.88.29,2.29-.69,3.98-1.01,1.66-2.39,3.63-3.14,5.84-7.89,6.76-17.87,12.34-28.18,18.73-6.9,5.25-1.18,3.01-3.92,6.17-.41-.42-1.36-.31-2.54-.09-1.18.22-2.54.61-3.7.93-2.31.64-3.76.96-1.24-1.13-1.61.87-3.14,1.53-4.56,2.15-1.42.64-2.73,1.22-3.98,1.78-2.6,1.08-4.91,2.06-7.36,3.02-4.89,1.95-10.23,4.12-19.39,7.06,2.22.43,4.62.29,3.6,1.29-3.35,1.16-8.01.78-7.71-.37l.86-.4c-10.27,3.79-23.1,3.82-35.17,3.25-11.98-.59-23.93-1.49-32.65,1.2l.98-.27-18.28,3.05c-8.46-.15,5.01-1.79-1.27-2.98-19.69,4.22-31.3.08-47.64,2.67-12.7-6.39-45.02.65-62.17-3.5l.99,1.53c-4.43,1.5-5.36-.87-8.62-1.22.46,1.19,4.81,1.37,2.06,2.2-37.52,1.84-77.5-2.18-115.84-3.88-14-.57-8.06,7.86-25.67,3.9l5.06-2.75c-14.15,1.47-28.53.99-42.9.26-7.16-.37-14.47-.72-21.34-1-6.94-.32-13.8-.57-20.57-.67,1.68-.47,1.82-1.31,4.42-1.01-2.71-1.33-7.87-1.96-12.38-2.22-4.52-.21-8.41-.07-8.63.78-4.03-.99-.66-1.68-2.97-3.02-2.61-1.14-6.14-1.27-9.34-1.51-3.2-.24-6.06-.59-7.17-2-.25-.3.52-.29,1.36-.22-2.08-.35-5.15-1.3-7.69-2.11-3.16-.97-5.56-1.58-4.34.14-4.67-2.35-8.96-3.69-13.02-5.36-4.05-1.64-7.81-3.44-10.76-6.01-2.85-.11-6.21-2.64-9.12-4.95-2.93-2.29-5.43-4.38-7.25-3.44,1.48-1.3-1.32-4.54-4.95-8.04-1.8-1.69-3.94-3.73-5.97-5.35-2.03-1.66-3.79-2.97-5.17-3.84,1.12.37.46-.83-.12-2.02-.57-1.2-1.03-2.41.35-2.04-4.52-5.13-8.62-9.96-9.59-7.83-1.78-6.58-5.73-11.51-9-16.35-3.26-4.81-5.68-9.35-4.23-13.95-2.42-4.87-4.49-9.51-6.32-14.33-1.83-4.79-3.38-9.64-4.74-14.5-2.73-9.73-4.58-19.54-5.94-29.31,1.95.19,2.54,5.57,3.31,10.71.77,5.14,1.72,10.03,3.66,9.29-2.22-8.88-4.21-16.01-5.74-23.24-1.51-7.23-2.44-14.53-2.39-24.05.31-4.91,1.8,2.7,2.54,4.32-2.47-18.97-1.15-36.64-3.51-53.5-2.31,3.1-5.03-12.31-6.38-14.14,4.82,4.89,1.02-16.82,7.4-7.98-.35-2.19-1.2-4.94-2.38-4.43.32-3.26,1-4.3,2.37-1.01-1.04-11.95-2.88-7.69-2.9-18.54.85.04,1.19,2.22,2.2,3.34-1.69-5.48-3.37-11-2.67-20.16.45.48,1.01-.26,1.15,1.35-.43-15.28-4.42-26.29-2.85-43.24,3.71,5.1,1.22-5.88,4.43-6.79l-.96-9.29-1.56,3.73c.06-8.14-2.28-15.33-1.22-22.33l1.32,6.05-.6-15.25-1.23,8.63c-1.65-8.24-4.06.88-3.16-9.95.32,2.2.05-8.14,1.95-12.38,0,0,0,.03,0,.03-1.01-4.03-2.09-8.17-1.27-14.19,1.03-1.56,3.54,1.27,4.23.25-2.67-3.98-.67-19.05-3.49-24.1.66,1.68,2.34,1.78,2.69,1.23l-2.15-3.35c.72-3.76,1.07-4.31,2.4-3.69.49-11.32-4.11,3.56-2.23-9.87.17,1.06.5.56.8,2.76,1.04-13.49-1.05-26.1.39-38.47,3.33-3.56.5,10.83,3.33,6.73-.07-8.91-.72-18.17-1.13-27.38-.4-9.2-.67-18.4.25-26.9-.2,1.05-.38,2.11-.56,3.17-2.23-1.32-1.42-4.5-.27-8.41,1.19-3.91,2.81-8.5,2.25-12.92.1,2.15,2.2,3.04,1.76,2.42,1.01-5.74,1.54-11.64,2.2-18.3.66-6.66,1.43-14.09,3.29-22.74l.51,2.42c1.43-3.13,2.95-7.33,4.59-11.56,1.7-4.32,3.35-8.57,5.09-11.74-.23-2.45,1.84-6.12-.82-4.58,7.92-8.7,12.9-17.77,18.86-26.46,2.93-4.32,6.18-8.37,9.84-12.1,3.6-3.67,7.7-6.73,12.47-8.7-1.87,1.48-3.72,4.36-2.28,3.16,4.07-3.86,8.43-7.43,13.01-10.75-2.21-.97-2.53.16-6.39.91,1.12-2.2,4.76-5.72,8.56-7.87-6.09,5.16,1.68,2.63,5.08,2.09-.78-.27-.1-1.4-.63-1.81,4.8-.52,4.68-1.5,4.9-2.9.21-1.35.76-3.16,6.99-4.46l-.21,1.22c4.08-2.21,7.67-5.07,12.55-6.41,2.7,1.49-4.35,2.63-3.98,4.54,3.25-1.28,6.17-3.38,9.19-5.15,3.02-1.72,6.13-3.11,9.52-2.75-2.76,1.31-6.89,2.51-9.56,3.98,7.37.61,7.92-.16,12.97-.98l-.5.06c.21-.03.42-.05.63-.07-.04,0-.09.01-.12.02,2.12-.17,4.21-.39,6.33-.5-1.69.02-3.06.13-4.25.26,3.05-.36,6.1-.68,9.16-.9-1.03-.07-2.05-.14-3.08-.17,3.7-3.77,8.15-4.79,12.97-5.47,4.84-.69,10.07-1.05,15.86-3.52-11.21,4.77-1.7,2.32-2.35,4.99,3.07.42,7.69.88,6.45,1.71,2.69-1.24,5.05-1.03,7.67-.86,2.62.15,5.51.15,9.46-1.55.4.82,6.06-.19,4.88,1.97,7.32-.98-1.8-1.38-1.23-2.46,11.25-3.37,26.74,2.32,42.9-1.94,12.88-1.73,16.12-4.27,26.69-5.86,1.26-.01,2.56-.02,3.87-.03,2.1,1.25-4.48,2.72-4.48,2.72,7.13,1.17,12.48.9,19.19-.09-1.36.74.05,1.35,2.1,2.28,5.38-.24,3.59-3.08,10.7-1.86-1.22.94-2.77,2.44-5.37,3.39,6.34-.79,12.6-2.38,19.17-3.15,1.75,1.46-3.96,2.22-6.27,3.18,7.38-.68,19.13-1.36,21.41-3.68l-3.56-.62c.9.51-.21,1.87-1.77,2.21-6.33,1.82-9.13-.78-9.49-1.62l4.68-.55c-4.82-4.91-18.8.83-28.22.59l3.19-2.93c18.65-.08,41.84-.11,71.96-.11h0c.33,0,.64,0,.97,0-.48,1.31-1.18,2.63-1.3,3.89Zm368.34-4.27c-.23.59-.62,1.31-1.3,1.62-1.75-1.87-3.52-3.71-5.34-5.52.99-.22,2.93.69,6.64,3.9Zm-211.17-78.01l3.02,2.16c-3.1-.13-6.13-.25-9.15-.36.73-.56,2.4-1.16,6.13-1.8Zm-60.29-1.65c1.48.58,2.66,1.54,2.14,2.32-3.5-.03-7.19-.06-11.1-.09l8.96-2.23Zm-96.54-.43v2.45s0,0,0,0h0c-.39,0-.76,0-1.15,0,.36-.82.82-1.64,1.15-2.45ZM70.39,262.98c-.18,1.18-.49,2.82-.84,5.68-.02,0-.04,0-.05,0,.32-2.37.69-4.39.89-5.67Zm-2.7,18.76c.93-.7,1.67.29,1.33,2.6-.39-1.33-1.59,4.04-2.62,7.42.36-2.81.81-6.31,1.29-10.02Z"/><path class="cls-2" d="m489.18,269.48l-2.02-1.79c1.67-.2,3.35-.27,5.02-.35-2.94-1.79-4.69-.02-6.63,1.25-.55-.99-1.44-1.65-2.66-1.94-1.87,1.42-3.7,2.83-5.5,4.26-.87-1.48,2.31-3.38-1.71-3.79-2.53,2.11,2.97,3.16-1.37,4.89-3.02-1.45-2.41-3.02-5.51-1.06-.61-.96,0-1.7,1.27-2.32-1.4.82-3.35,1.15-5.09,1.69-1.73.55-3.26,1.19-3.83,2.37-1.65-.85-4.11-.26-6.19.07-2.07.38-3.77.56-4.04-1.33-.74,1.1-4.48,4.08-7.08,4.85,1.88-2.74-.65-2.31-3.59-1.54-2.95.72-6.37,1.54-6.42-.97-1.25,2.42-4.29,3.92-7.74,5.34-1.72.71-3.56,1.36-5.29,2.17-1.71.85-3.32,1.79-4.64,2.92.22-.43.66-1.31,1.27-1.33-3.57,1.04-5.04.3-7.57.48.86,3.3-4.06,6.37-5.96,9.51-5.5-1.08.81-4.7-1.79-6.96.68,1.2-.85,2.61-2.21,3.95-1.34,1.39-2.54,2.64-1.35,3.3-3.98-.22-3.08.48-5.97-1.17,1.43,4.02-2.59,2.06-3.81,5.81-5.36.69-3.08-2.78-7.24,1.09-2.96.22.59-3.55.59-3.55-4.99,2.8-.72,4-.82,6.16-5.16,4.35-3.85-.32-6.66-.45-1.56,1.5-2.62,3.29-3.61,4.9-.96,1.66-1.84,3.16-3.15,4-.49-.29-1.1-.1-.89-1.04-.54,1.16-1.47,2.22-2.6,3.24-1.14,1.01-2.46,2.02-3.73,3.13-2.57,2.18-5.21,4.44-6.16,7.29-.47.03-.78-.05-1.01-.17,1.64.68,2.77,1.84,3.38,2.84-1.83,1.65-2.13,4.5-4.19,3.53,1.18-.94.72-1.65.84-2.61l-1.36,2.37c-3.73-.72,1.99-3.09.57-4.78-1.62,2.04-3.13,4.49-4.66,6.65-1.47,2.24-2.93,4.22-4.62,5.24-2.62-1.54,5.91-6.99.37-5.29l2.58-1.67,2.66-1.57c-6.57-.4,3.02-2.19-3.49-3.07-.84.59-1.56,1.13-2.19,1.66-.61.55-1.13,1.07-1.59,1.57-.92,1-1.62,1.92-2.31,2.83-1.36,1.86-2.81,3.58-5.86,6.24-.08,2.44,2.13,1.24,2.06,3.67-1.42,2.54-2.83,3.89-4.22,4.64-1.36.77-2.67.96-3.93,1.09-2.5.26-4.71.39-5.97,4.82.1,2.93,2.52,5.89-2.66,9.31l-1.36-3.61c-2.54,2.97-2.29,4.55-2.17,6.07.09,1.5,0,2.87-3.25,5.53-.23-1.91,2.64-5.59,1.64-4.87-5.18,2.79-.64,4.13-2.96,7.39l-2.89-.94c-2.02,3.65-3.95,7.59-5.61,11.77-1.64,4.2-3.42,8.39-5.17,12.6-.54-.84-.64-2.67-2.41-1.17-2.09,5.44-4.64,11.01-7.6,16.42-1.35,2.75-2.79,5.47-4.25,8.12-1.51,2.63-2.74,5.31-4.09,7.83l1.03,4.84c-.34.93-1.61,1.43-1.79.25-2.11,3.93,1.47.69,1.84,2.98-.5,2.41-2.28,2.74-2.58,1.01-.37,8.01-.71,22.14-4.67,29.63l-.46-1.67c-1.09,3.02.1,4.99.96,6.82.9,1.84,1.65,3.56.12,6.29l-.31-1.15c-1.21,6.67-1.48,13.81-1.57,20.52-.05,1.68-.13,3.33-.22,4.95-.03,1.62-.1,3.2-.23,4.74-.22,3.08-.84,5.98-1.55,8.63,1.89.88,1.74,4.25,1.76,7.49-.05,3.24.44,6.32,2.97,6.44-.76,3.97-1.43,5.47-1.95,7.35-.46,1.88-.7,4.13-.56,9.74.25,2.97,3.99,3.68,5.29,7.06l-2.56.68,3.81,4.13c-.85,1.11-1.62,2.21-2.4,3.32l1.59,3.11c-.22-1.35.36-3.09,1.16-3.09,1.3,2.38,1.73,5.59,1.69,8.3.02,2.69-.36,4.87-.99,5.15l3.09,5.62c1.02,1.86,2.21,3.66,3.3,5.48-.82.1-1.66-.92-2.56-1.99,3.08,3.84-2.71,1.48,1.53,5.99.25-1,1.63-.18,2.17-.26-.22,1.75.45,4.21,1.5,6.79,1.07,2.57,2.38,5.34,3.9,7.48l-2.09-.09c.97,2.15,2.07,4.31,3.25,6.48.6,1.08,1.19,2.18,1.84,3.26.68,1.06,1.37,2.13,2.06,3.21,1.39,2.14,2.81,4.31,4.23,6.5,1.5,2.14,2.98,4.31,4.4,6.53-1.33-3.65,1.82-4.6,3.7-2.23l-1.67,2.57c2.5.7-.84-3.26,3.1-1.04,1.93,3.35-1.13,3.95-3.19,2.61l3.55,3.34c-.52.71-1.53.05-2.57.42,2.56.56,2.49,8.48,6.75,8.85l-.49.72c1.63,2.09,3.09,3.85,4.44,5.43,1.38,1.55,2.73,2.85,3.99,4.14,1.27,1.28,2.5,2.51,3.79,3.81,1.29,1.3,2.71,2.59,4.2,4.13,1.87-1.54,3.79,1.25,6.92,1.7,1.97,2.42,3.89,5.17,6.03,7.95,2.17,2.75,4.69,5.4,7.61,7.81,4.85,2.46,2.5-.59,5.24-.22-1.09,1.94,4.96,6.44.92,5.27,3.64,2.71,6.1,4.27,8.87,5.88,1.38.81,2.86,1.62,4.62,2.55,1.82.85,3.94,1.81,6.57,2.97-.56-1.43-1.51-2.5-.5-2.75,1.91.8,3.43,3.3,2.64,4.04l-.58-.1c6.3,1.93,11.81,6.95,17.55,11.39,2.8,2.33,5.73,4.3,8.59,5.85,1.43.77,2.86,1.4,4.28,1.84,1.44.38,2.87.57,4.28.5h-.62c3.62.52,7.13,1.22,10.76,1.52,4.48,1.92-3.32.62-.35,3.07,3.03.06,5.59.47,7.89,1.08,2.34.5,4.42,1.2,6.43,1.92,4.01,1.52,7.87,2.81,12.72,2.67.71,1,1.65,1.83,2.77,2.54,1.13.65,2.43,1.17,3.85,1.59,2.85.8,6.17,1.4,9.6,1.6,3.43.22,6.94.42,10.18.82,3.26.28,6.24.86,8.67,2.08l-.48-1.57c2.64-1.31,3.04,1.13,4.93,1.51-.22-1.19-2.72-1.45-1.09-2.23,5.43-.37,10.89-.13,16.43-.24,2.77-.03,5.56.13,8.35.09,2.8-.04,5.61-.03,8.44-.01,2.83.08,5.65-.15,8.5-.19,2.84-.09,5.7-.12,8.53-.41,2.84-.24,5.68-.49,8.51-.73,2.81-.39,5.61-.82,8.4-1.28,4.08-.69,4.68-3.02,5.64-4.9.96-1.91,2.21-3.47,7.64-3.12l-1.98,3.52c.93-.49,1.88-.94,2.82-1.4.93-.49,1.87-.95,2.82-1.39,1.9-.89,3.82-1.7,5.76-2.46,3.88-1.54,7.73-3.16,11.65-4.62,3.85-1.61,7.66-3.3,11.36-5.14,3.6-2.02,7.14-4.09,10.29-6.66-.51,1.04-.12,1.83-1.52,2.53,4,.22,11-6.17,10.15-7.6,2.2-1.18,1.28.99,3.03.88,3.54-.85,5.8-6.78,8.39-6.15.28.06.05.49-.27.91,2.09-2.13,7.74-5.19,4.93-5.81,2.82-1.24,4.9-3.27,6.9-5.13,1.98-1.89,3.94-3.54,6.17-4.61.61-4.07,8.68-5.75,6.79-9.29,2.29,3.15,9.89-4.96,11.05-9.07-.03,1.74,3.16-1.55,3.32.64,3.04-3.16,5.04-6.73,3.06-7.46,4.35-1.49,6.37-5.13,7.9-8.46,1.58-3.32,3.09-6.05,6.76-6.15,6.08-11.63,10.88-22.56,15.4-33.11,1.59,1.05.34,4.01-1.13,6.71-1.43,2.73-2.78,5.37-.9,6.19,1.04-2.6,1.82-4.99,2.52-7.25.59-2.29,1.14-4.44,1.69-6.59,1.22-4.21,2.38-8.34,5.03-13.07,1.64-2.34.89,2.11,1.1,3.26,1.64-5.28,3.46-10.23,5.42-14.99.85-2.42,1.65-4.83,2.32-7.24.33-1.21.63-2.41.88-3.62.21-1.22.34-2.46.42-3.7.34.13.43,1.25.44,2.29.4-1.88,1.77-4.14.01-4.41l-.05,1.93c-3.28,2.16-3.07-8.69-4.33-9.3,4.17,4.37,3.35-8.87,8.41-2.44-.04-1.31-.5-3.03-1.71-3.01.75-1.73,1.56-2.18,2.44-.04.33-3.45-.17-4.68-.58-5.8-.39-1.12-.68-2.12-.12-5.15.84.17.94,1.45,1.82,2.26-1.09-3.41-2.1-6.7-.8-11.77.4.32.98.01,1.03.84.34-4.23-.19-7.98-.81-11.77-.29-1.98-.52-3.97-.53-6.06,0-2.09.01-4.3.5-6.71,3.63,2.98,1.3-3.28,4.53-3.78-.24-1.78-.6-3.55-.97-5.31l-1.5,2.13c-.1-4.64-2.41-8.61-1.64-12.58.54,1.11,1.04,2.22,1.49,3.35-.25-2.88-.79-5.73-1.18-8.58l-.85,4.94c-2-4.5-4.01.75-3.58-5.32.4,1.19-.24-4.5,1.24-7.06h.01c-1.3-2.11-2.66-4.24-2.29-7.67.9-1.02,3.6.17,4.2-.5-1.47-.92-2.16-3.52-2.84-6.2-.7-2.67-1.37-5.43-3.14-6.49.87.77,2.53.48,2.79.11l-2.55-1.37c.21-2.21.46-2.59,1.85-2.55-1.05-6.33-3.51,2.9-3.5-4.86.3.53.56.18,1.16,1.3-.96-7.63-5.18-13.76-6.48-20.64,2.38-3.03,2.71,5.54,4.53,2.43-3.67-9.62-11.01-18.26-14.51-27.31l.5,1.77c-2.35.38-2.66-1.44-2.92-3.84-.27-2.38-.42-5.39-2.58-7.01.9.87,2.99.18,2.4.13-1.34-3.1-3.31-5.95-5.71-9.01-1.23-1.51-2.65-3.02-4.13-4.67-1.51-1.62-3-3.43-4.79-5.26l1.69.36c-1.46-3.78-5.42-8.89-7.74-12.5-1.71-.28-3.06-2.3-3.48-.09-.36-1.79-.9-3.44-1.63-4.92-.77-1.45-1.68-2.76-2.69-3.97-2.02-2.43-4.37-4.47-6.89-6.27-2.49-1.82-4.87-3.66-7.05-5.63-2.18-1.98-4-4.26-5.17-7.3,1.02.95,3.11,1.54,2.3.78-2.6-2.09-5.44-3.89-8.15-5.81-.7,2.02.2,1.77.75,4.28-1.72.07-4.39-1.03-6.2-2.61,4.14,1.88,2.07-2.51,1.22-4.54-.13.67-1.07.78-1.34,1.36-1.84-5.94-3.17,2.59-7.16-3.57l.92-.6c-2.35-1.24-5.19-1.41-7.27-3.3.38-2.55,2.88.73,4.14-.69-3.37-2.21-8.8-1.02-10.57-4.78,1.77.37,3.82,1.65,5.53,2.14-.82-2.26-1.47-3.28-2.18-3.98-.7-.71-1.45-1.11-2.57-2.09l.21.21c-1.69-1.55-3.37-3.16-5.11-4.68.38.49.74,1.01,1.1,1.53-3.69,1.22-6.03.27-8.41-1.11-1.19-.67-2.4-1.44-3.79-2.01-1.42-.52-3.03-.86-4.95-.74,7.49-.34,1.96-1.41,3.59-3.5-1.2-1.43-3.19-3.36-2.19-3.67-1.91.21-2.91-.79-4.15-1.71-1.25-.89-2.72-1.74-5.42-1.28.16-.84-3.1-1.49-1.6-3.12-4.1-1.13.33,1.75-.42,2.56-3.47-.08-6.65-2.16-10.23-4.38-.9-.55-1.82-1.1-2.78-1.62-.97-.47-1.99-.9-3.04-1.25-2.11-.71-4.39-1.12-6.87-.92-4.04-.43-6.63.08-9.08.48-1.23.21-2.43.43-3.78.55-.88.11-1.83.19-2.88.22-.75-.18-1.51-.37-2.26-.55-.67-1.44,3.1-1.97,3.1-1.97-3.59-2.05-6.57-2.65-10.44-2.36.89-.58.24-1.33-.72-2.46-3.03-.32-2.53,2.65-6.23.73.82-.8,1.93-2.12,3.55-2.79-1.84.06-3.69.32-5.55.59-1.87.35-3.73.7-5.6.84-.79-1.57,2.49-1.92,3.94-2.69-4.25.13-10.92-.1-12.4,2.22l1.93.78c-.46-.55.29-1.87,1.21-2.1,3.74-1.35,5.01,1.44,5.09,2.3l-2.65.2c1.05,2.61,3.61,2.74,6.62,2.34,3-.39,6.43-1.05,9-.48l-2.21,2.49c-12.81-2.3-26.01-3.5-39.48-3.5-.18,0-.36,0-.54,0,.25-1.31.65-2.63.72-3.9.34.25.84.39,1.55.3l1.5-2.81-3.23.68s0,.01-.01.02c-.51-1.64-2.07-3.13-5.96-4.29l-5.87,2.6Zm56.65,104.17c2.32.59,4.51,1.58,6.72,2.47,2.17.99,4.3,2.05,6.5,2.91,2.15.98,4.4,1.71,6.77,2.19-.8.3-1.21,1.02-2,.61.71,2.71,6.13,3.62,7.08,2.2,1.11.94-.51,1.48-.22,2.68.94,2.07,5.56.39,5.25,2.72-.03.26-.4.27-.76.23,1.66.44,4.22,3.32,4.6.91,1.1,1.43,2.53,2.27,3.92,3.06,1.36.81,2.71,1.52,3.28,3,3.09-.81,3.66,4.8,6.56,2.47-2.81,2.72,2.26,6.39,5.04,6.81-1.35.28.43,2.22-1.34,2.71,1.77,1.71,3.75,2.99,4.98,1.34-.24,3.29,1.99,4.35,3.84,5.54,1.86,1.15,3.56,2.21,1.88,5.05,6.1,4.66,10.89,9.98,14.88,15.6-1.8.79-2.66-.86-3.69-2.34-1-1.5-1.99-2.92-3.67-1.76,1.12,1.16,2.27,2.13,3.4,3.04,1.08.93,2.12,1.8,3.1,2.72,2.01,1.8,3.58,3.9,4.47,7.01.2,1.72-1.93-.19-2.76-.41,2.11,2.54,3.04,5.51,4.15,8.29.48,1.42.94,2.82,1.55,4.15.62,1.33,1.32,2.62,2.19,3.85-.35.09-.9-.39-1.34-.86.43,1.04.16,2.66,1.82,2.06l-.76-.92c1.94-2.51,6.39,2.91,7.75,2.83-5.33-.66.07,5.97-6.83,4.42.49.64,1.51,1.36,2.62.94-.09,1.16-.68,1.63-2.24.84.94,1.84,1.74,2.34,2.41,2.83.68.48,1.23.95,1.53,2.78-.84.13-1.3-.54-2.35-.73,1.95,1.51,3.99,3.13,3.63,6.35-.45-.1-.95.19-1.17-.26.52,2.47,1.84,4.53,2.8,6.74,1.06,2.29,1.91,4.74,1.13,7.76-3.75-1.65-1.17,2.06-4.37,2.39.37,1.04.66,2.08.95,3.13l1.59-1.25c-.15,2.75,2.2,5.33.98,7.69-.38-.72-.78-1.43-1.21-2.14.18,1.74.17,3.49.26,5.24l1.44-2.88c1.43,2.96,4.07-.05,2.89,3.7-.27-.81-.22,2.89-2.35,4.13h0c.84,1.49,1.72,3.1.66,5.09-1.08.39-3.45-.96-4.17-.71,2.42,1.76-.36,6.55,2.04,8.83-.52-.71-2.17-1.08-2.54-.97l1.87,1.58c-.98,1.13-1.35,1.24-2.61.73-1.27,3.71,4.24-.29,1.49,3.86-.09-.4-.44-.31-.59-1.13-2.01,4.28-1.06,9.14-3.52,12.9-3.45.12.45-3.8-2.59-3.3-1.25,5.91-.87,13.28-4.17,18.42l.83-.84c1.87,1.36.83,2.14-.58,3-1.43.86-3.16,1.8-2.97,3.64.08-.81-1.75-2.06-1.4-1.64-1.33,1.59-2.12,3.51-2.81,5.83-.79,2.26-1.47,4.94-2.65,7.93l-.52-1.29c-2.29,1.36-4.11,4.88-6.2,6.55.45,1.32-.63,2.39,1.27,2.73-1.29.28-2.33.71-3.24,1.24-.93.51-1.69,1.13-2.34,1.83-1.3,1.41-2.15,3.17-3.09,4.84-.92,1.69-1.76,3.46-3.04,4.78-1.27,1.32-2.87,2.29-5.1,2.49.61-.6.77-2.15.28-1.68-1.18,1.68-2.52,3.21-3.8,4.82,1.66,1.19,1.38.39,3.38.71.19,1.39-.56,3.25-1.74,4.27,1.27-2.86-2.05-2.39-3.68-2.55.54.35.64,1.12,1.11,1.54-4.74-.77,2.07,3.46-2.91,4.34l-.45-.98c-.95,1.47-1.45,3.41-3.08,4.24-1.93-1.45.82-1.9-.2-3.5-1.92,1.51-1.53,6.49-4.76,5.78.55-1.11,1.84-1.94,2.33-3.1-3.51-.79-3.4-.17-5.13.47l.18-.04c-1.39.4-2.75.82-4.14,1.18.43.04.85.06,1.28.08.27,3.37-1.03,4.38-2.51,5.26-.75.44-1.55.84-2.29,1.47-.76.6-1.44,1.43-1.94,2.79,1.95-5.17-.4-2.21-1.31-4.66-1.28-.16-3.05-.16-2.98-1.02-.39,1.37-1.29,1.39-2.22,1.52-.95.11-1.92.36-2.53,2.32-.45-.71-1.92.78-2.37-1.33-2.01,1.63,1.11,1.1,1.35,2.14-1.19,2.16-3.72,2.16-6.3,2.4-2.58.3-5.32.44-7.37,3.26-2.07,1.5-3.17,2.91-4.25,4.36-.9,1.21-1.8,2.38-3.31,3.42-.46.11-.92.21-1.37.32-1.01-1.06.93-2.96.93-2.96-2.73-.66-4.45.05-6.59,1.41.33-.8-.28-1.32-1.15-2.12-1.78.54-.69,3.22-3.35,2.44.27-1,.56-2.57,1.27-3.65-1,.57-1.97,1.34-2.96,2.1-1,.71-2.03,1.43-3.12,1.95-.78-1.37,1.08-2.37,1.72-3.41-2.4.96-6.33,2.17-6.93,4.46l1.3.52c-.36-.49-.1-1.86.4-2.25,1.97-2.08,3.22.4,3.47,1.21l-1.57.74c1.12,2.34,2.79,1.92,4.53.92,1.75-1.01,3.53-2.77,5.18-2.9l-.6,3.06c-8.31,1.49-16.85,2.31-25.59,2.31-.11,0-.23,0-.34,0,.18-1.31.42-2.62.45-3.89.21.24.53.37.97.24l.87-2.87-1.95.81s0,.01,0,.02c-.3-1.67-1.22-3.21-3.44-4.53l-3.59,2.36-1.02-2.02c.97.06,1.95.03,2.93,0-1.58-1.84-2.68-.32-3.94.69-.21-1.05-.65-1.81-1.3-2.24-1.22,1.18-2.47,2.37-3.76,3.55-.24-1.61,1.83-2.93-.34-4.05-1.79,1.56,1.17,3.69-1.63,4.51-1.47-2.02-.77-3.43-2.93-2.13-.13-1.06.37-1.65,1.2-2.01-.94.49-2.1.51-3.17.57-1.07.05-2.05.24-2.68,1.2-.67-1.26-2.14-1.37-3.35-1.64-1.2-.29-2.12-.78-1.63-2.6-.71.77-3.64,2.21-5.27,2,3.95-3.63-5.73-1.87-3.61-6.35-1.6,1.7-3.58,1.51-5.68,1.03-1.05-.24-2.14-.53-3.23-.75-1.08-.25-2.17-.37-3.27-.2.32-.22.95-.68,1.19-.36-1.88-1.11-1.99-2.47-2.96-3.68-1.55,3-4.93,2.31-7.51,3.42-1.04-4.03,3.16-2.91,3.7-6.09-.51,1.26-1.84,1.43-3.05,1.54-1.2.08-2.31.15-2.42,1.38-.91-2.72-1.13-1.67-.75-4.62-2.27,3.55-2-.18-4.69,1.22-1.53-3.27,1.31-3.8-2.1-4.28-.63-1.85,2.54-1.75,2.54-1.75-2.71-1.63-2.89,1.92-4.43,3.14-3.78-1.35-.29-2.96-.52-5.04-1.23-.29-2.63-.07-3.92.07-1.27.12-2.42.14-3.13-.43.19-.51.01-.87.73-1.16-3.63.61-6.15-4.41-10.51-3.86,0-.36.09-.64.2-.86-.65,1.54-1.62,2.84-2.43,3.66-1.18-.95-3.46-.34-2.53-2.29.67.66,1.27.08,2.02-.13l-1.79-.36c.89-3.18,2.31.64,3.74-1.05-1.46-.62-3.28-1.06-4.9-1.62-1.58-.61-2.94-1.36-3.51-2.48,1.68-2.44,4.64,3.07,4.16-.97.59,1.11,1.24,2.18,1.91,3.24,1-5.22,1.41,1.65,2.8-3.67-1.48-1.78-2.57-2.47-3.79-3.07-1.17-.63-2.43-1.2-3.68-3.19-1.88.37-1.48,1.93-3.38,2.29-3.4-1.43-2.97-3.67-2.37-5.64.57-1.96,1.24-3.62-1.83-4.18-2.28.29-5.47,2.17-6.13-1.81l3.35-1.08c-2.52-3.7-5.38.79-6.39-4.4,1.56-.05,2.96,2.28,2.88,1.49.35-4.01-2.78-.68-4.18-2.64l2.15-2.04c-2.98-3.73-7.62-7.16-10.55-11.78.91-.13,2.13.26,2.36-1.27-2.24-2.62-3.61-5.98-4.62-9.4-.85-3.49-1.34-7.05-1.47-10.36l-3.19-1.55c-.16-.56.79-1.36,1.42-.91.24-2.68-1.57.34-2.84-.54-.57-1.35.87-2.23,1.85-1.57-3.43-3.53-7.54-11.4-5.64-16.51l.9.79c.45-3.72-5.67-3.42-3.81-7.16l.53.61c.15-4.07-.5-8.26-.49-12.28-.01-1-.02-1.99.04-2.95.1-.96.23-1.9.42-2.81.41-1.81.94-3.5,2.03-4.95-1.77-.68-1.21-2.64-.85-4.51.32-1.88.69-3.65-1.82-4.22,1.54-2.15,2.48-2.83,3.36-3.75.9-.91,1.79-2.06,3.16-5,.49-1.6-2.59-3.09-2.64-5.3l2.59.54-2.06-3.45c1.13-.25,2.3-.47,3.46-.68l-.12-2.07c-.36.71-1.6,1.29-2.31.98-.15-1.66.82-3.38,1.97-4.6,1.2-1.22,2.63-1.92,3.28-1.75.05-2.51.11-5.06.36-7.59.71.41.82,1.24.96,2.11-.41-3.08,2.94.89,2-2.99-.73.21-1.37-.83-1.83-1.12,1.04-.54,2.01-1.69,2.78-3.1.79-1.39,1.29-3.08,1.69-4.55l1.38,1.31c1.46-2.24,2.41-4.89,3.68-7.49.61-1.31,1.19-2.67,1.85-4,.7-1.3,1.45-2.6,2.26-3.86-1.87,1.34-4.28-.76-3.55-2.46l2.72.94c-.81-1.94-1.9,1-2.36-2.19,1.59-1.73,3.51.54,3.52,2.1l.79-2.79c.78.35.76,1.13,1.54,1.87-.74-1.93,4.92-2.16,3.55-5.19l.75.39c.92-1.16,1.67-2.21,2.32-3.18.67-.96,1.28-1.81,1.84-2.66,1.12-1.71,2.16-3.33,3.82-5.12-1.69-1.73.03-2.75-.33-5.21,1.61-1,3.47-1.85,5.3-2.84,1.85-.97,3.74-1.98,5.31-3.5,1.6-2.89-.61-2.15-.43-4.15,1.58,1.56,4.89-1.3,4.07,1.35,1.92-1.79,3.24-2.82,4.58-4.13.67-.65,1.35-1.37,2.15-2.26.83-.84,1.77-1.85,2.95-3.14-1.1-.37-2.01-.25-2.05-1.11.85-.98,2.86-.74,3.26.26l-.15.37c2.36-3.38,7.02-4.21,11.34-4.73,2.13-.34,4.26-.48,6.02-1.06.88-.28,1.68-.66,2.38-1.17.71-.47,1.32-1.09,1.79-1.89l-.22.33c1.61-1.46,3.21-3.06,4.93-4.43,2.83-.55-1.07,2.11,1.37,2.72,1.26-1.39,2.54-2.28,3.8-2.88,1.28-.53,2.55-.78,3.78-.98,2.46-.46,4.81-.51,7.21-2.32.69.67,1.43,1.12,2.2,1.39.78.3,1.6.44,2.46.46,1.71.06,3.53-.5,5.43-.92,1.9-.44,3.84-.99,5.69-1.16,1.86-.1,3.61.11,5.07,1.03l-.42-1.5c1.37-1.61,1.82.72,2.89,1.06-.2-1.18-1.65-1.34-.78-2.19,6.2-1.14,12.76-.55,19.08,1.03,6.33,1.64,12.45,3.88,18.29,6.1,2.17.68,3.27-1,4.47-2.3,1.19-1.3,2.49-2.14,4.81.41l-2.43,2.26c2.49-.23,4.83.25,7.16.79Zm.68,260.39c.51.54,1.05,1.08,1.56,1.62-.87.3-1.75.6-2.63.89.02-.63.27-1.42,1.07-2.51Zm56.87-33.09c-.49-.71-.6-1.65.05-3.02.47.34,1.08.82,1.54,1.36-.53.55-1.04,1.12-1.58,1.66Zm-76.29,40.21l2.2-2.73c.54.47,1.08,1.33,1.09,2.13-1.09.22-2.19.4-3.28.6Zm-152.16-81.78c.65.09.44-1.54.68-2.73.25.76.63,1.69,1.1,2.63-.64.57-1.55.73-1.78.1Zm3.59,3.15s.04-.02.04-.02c.36.57.66,1.06.85,1.37-.19-.28-.45-.67-.9-1.35Zm-79.68-170.81c-.22.51-.52,1.22-1.06,2.47-.02-.01-.04-.02-.04-.02.46-1.02.85-1.89,1.1-2.44Zm-3.74,8.01c.94.03,1.48.75,1.01,1.73-.26-.78-1.74,1.34-3.05,2.52.64-1.16,1.31-2.67,2.05-4.25Zm367.45-56.17c-.32.48-.78,1.08-1.35,1.49-.82-.85-1.64-1.7-2.47-2.53.78-.41,1.94-.24,3.82,1.04Zm-89.79-56.93c.23.78.44,1.54.67,2.32-1.31-.45-2.62-.88-3.94-1.31.5-.45,1.42-.83,3.27-1.01Zm-27.02-7.59c.57.69.91,1.73.51,2.45-1.63-.34-3.27-.65-4.91-.95l4.4-1.49Z"/><path class="cls-1" d="m670.65,277.21c-.28.54-.22.97-1.06,1.09,1.4.28,3.29-.91,5.24-.26-.91.81,1.35,1.65-1.21,2.4.48-1.97-2.1.29-3.11-.55.11.25.08.55-.09.93-.28.13-.57.04-.74-.06-1.89,2.51,3.21.28,3.64,2.24-1.55.12-2.68,1.18-2.28,1.44-.18-.84,2.37-1.01,3.68-.62-.82,1.56,1.2,1.09,1.23,1.76l.34-.88c1.52-.19,1.48.45,2.24,1.09-.34.14-.56.14-.73.1,1.13.56-2.34,2.9-.41,3.51-.74.97-2.65,1.1-3.1,1.9,2.36.74-1.24,2.43.97,3.33,1.64-1.31,1.17-1.14,3.47-.97l-2.47-1.82c1.16.13,2.31.24,3.46.32-.29-.71-1.92-.96-1.75-1.55,1.83.1,1.36.18,2.76-.8-2.37,2.18,2.51,1.1,1.14,3.03l-4.57,2.21c-.57,1.38.37,1.92,1.51,2.35,1.16.44,2.44.81,2.54,2.2l.34-1.14c1.89-.77,1.02,1.13,2.12,1.36-1.46.87-1.71,1.63-2.4,2.52,1.01-.75,1.02,1.57,3.89-.25l-1.14,2.21c.52,2.2,5.11-1.16,5.87.5-1.77.79-2.09,2.23-3.96,2.13.42.49.58,1.13,1.47.36-.53,1,2.87-.24,2.08,1.28.72-.32,2.06-1.49,2.41-.89-.19.3-.6.59-.6.59.59-.57,1.56-.06,2.46-1.79-1.2,2.48-.13,3.34.94,4.05.54.36,1.08.69,1.39,1.22.34.49.44,1.19.08,2.34,1.45.37,3.05.92,4.12,1.5-.35.38-.47.7-.57.43.6,2.22,3.53-3.54,4.15-1.11-.59,2.85-1.62.75-1.65,1.95-1.35,2.45-.72,2.61.15,2.57.88-.04,1.94-.25,1.79,1.45l-.45.15c.07,2.15,3.23-.78,4.5.27,0,0-.27.42-.35.77,2.17-2.04,4.43-2.3,6.07-2.52-1.16,1.9-1.04.85-1.51,3.04.75-.06,1.03-3.42,2.46-3.56.01,1.27.6,2.62.06,4.89-.44-.07-.87-.21-1.3-.31-.3,3.18,1.69.46,2.21,1.12l-.46,1.26c2.18.12,3-3.16,5-2.4v-1.05c1.76-3.02.59,2.02,2.17-.23l-.22,3.4c.95-.7,3.17-2.8,4.53-3.31-.98,2.47-2.77,3.45-4.04,4.78.79.15,2.75.16,3.31-1.45-.34.28-.83,1.05-1.08.48,1.27-2.46,2.55-3.76,4-3.62-.32,3.28.67,3.74,1.87,4.03,1.2.34,2.55.24,3.23,2.79,1.4-1.29,2.8-1.08,4.34-.69,1.52.3,3.21.82,4.87.36-2.09-4.85.95-.3-.27-5.42.64-.43.92-.47,1.06-.15l-.19-.17c.08.08.13.13.21.2v-.02c.93.84,1.91,1.67,2.92,2.49.93,1.34-.43,1.31-.08,2.43,1.81-.05,1.27,1.98,2.81,3.01-.74-1.75-.13-2.75,1.07-2.32-.7-.65-1.39-1.3-2.06-1.96.78-1.64,1.57-.72,2.42.14.83.87,1.74,1.73,2.45,0l-.2,1.83c.46-.68,1.6-1.09,2.57-1.88.99-.74,1.71-2.09,1.37-4.23.45.46,1.33,1.63.98,2.22,1.51-.4,2.6-2.08,3.52-3.65.93-1.58,1.81-2.86,3.5-2.37l.51,1.19c.28-.62-.49-2.49.78-1.85.27.46.54,1.19.8,1.1,0-.55-.11-2.72.92-2.55l.35,1.54c1.69-.21,2.1-1.62,2.17-3.18.04-1.62-.26-3.42.3-4.52,2.51,2.8,5.14,2.17,6.38,1.7l.35.4c1.37-1.15,1.82-2.81,1.99-4.54.17-1.74-.07-3.67.26-5.31,1.11.23,2.01.06,2.79-.34.77-.4,1.33-1.08,1.9-1.8,1.11-1.47,2.18-3.12,3.85-4.09-.83.13-2.59-1.42-2.69-2.07,1.02-.33-1.52-2.9,1.59-1.35l-.17.21c3.32.92,3.24-.88,3.7-2l-4.15-1.86c3.56-.2,3.82-2.41,3.64-4.36-.19-1.99-.56-3.7,2.54-3.9-.9-.97-.74-1.88-1.75-2.81l2.39.47c.9-1.98,1.49-3.03,1.12-5.7l1.7.7c.25-1.54-6.89-2.41-6.97-3.63l3.65-.24c.03-1.25.9-2.5,1.18-3.8.32-1.28.23-2.61-1.48-3.71.53,0,1.58-.02,1.75.39.14-1.18,1.89-5.01-2.97-3.86,3.2-.49-.06-2.66-1.71-3.61l2.39-.29c-3.27-.48-4.09-.3-5.28-1.55.21-.42,1.78-.78,1.3-.16.91-1.49-2.42-.31-1.55-2.03l1.61.1c-.15-1.25-.87-.95-2.81-1.03-1.17-.4-.2-2.31,1.76-3.25-1.3.29-3.18.3-2.84-.58.73-.39,1.29-.34,1.57-.3.41-1.28-.53-1.74-1.39-2.1-.85-.37-1.56-.67-.81-1.81.7-.37,1.02-.63,1.18-.84.67,1.53,1.13,2.79.91,2.75,2.04-.86,1.77-2.31,5.05-2.51-2.05-.44-6.11-.55-5.76-2.19.16-.16.32-.31.6-.52h.28c.06-.37-.25-.53-.69-.59.1-.54.19-.91,0-1.29,1.5-1.04.01-1.89-.28-2.53-2.03,1.31-2.16.36-3.42,2.12.09-.18.31-.04.63.28.11.05.21.13.36.12-.06.02-.13.05-.21.07.29.34.63.8,1,1.34-1.35.14-2.5.22-1.73-1.09-1.45.49-2.98,1.01-3.78,1.28,2.44-2.51,2.99-5.04,4.5-6.42-2.39-.89-3.68-3.58-8.02-1.47-.81-.03.55-1.33.94-1.96.56-.06.78.28,1.39,0-1.65-.1-2.66-2.25-5.11-.23.06-2.03,2.65-1.48.9-2.51l.88-.51c.3-3.16-2.37-2.86-4.73-2.5-2.38.37-4.48.82-4.49-2.63-.01.25-.06.47-.23.78-.52-1.34-1.54-2.06-2.61-2.69-1.1-.58-2.26-1.06-3.5-1.35-1.22-.33-2.39-.7-3.42-1.37-1.02-.7-1.98-1.49-2.72-3.01-1-1.34-1.82.52-3.04,1.71l.51-2.57c-.76.81-1.5,1.66-2.22,2.5-1.23.81-1.6-.93-2.21-2.47-.3-.77-.65-1.49-1.13-1.81-.49-.28-1.13-.13-1.94.79v1.77c-.82-.47-2.91.6-2.5-1.37-.14.3-.52,1.76-.75.8l.13-1.35c-.83.63-1.63,1.35-2.41,2.1-1.63-1.07.7-5.36-1.94-5.76-1.06.47-2.83,3.82-2.46,4.75.37.08.93.89.93,2.25l-.81.67c-.01.25-.03.5-.04.75-.04,0-.08,0-.12,0-3.14,0-6.22.29-9.2.83l-.03-.63c-.05.22-.09.44-.14.66-.4.07-.8.14-1.2.22-.07-.51-.04-.96.15-1.2-1.24-1.56-.49,1.42-1.66-.32-.15-.28-.15-.45-.11-.61l-.61,1.26c-.01-.77-.75-2.41-.09-2.05-2.12-1.58-1.81,3.23-3.14.78l.07-.24c-1.32,1.35-.38,2.11-.03,3.84-.33.11-.65.22-.98.33-.71-1.3-1.4-2.61-2.15-3.9l.69,2.54c-.24-.01-.73-.04-1.03-1.05-.16,1.97.54,1.02.69,2.77-.93-.92-1.54-.43-2.1-.13-.55.33-1.09.4-2.08-1.45.48,1.98,1.57.96,1.11,2.71-2.2-3.93-.86,1.27-2.64-.16-.79-2.2.67-1.53-1.2-2.93.6,1.89.07,1.9-.7,1.6-.76-.3-1.74-.85-1.94-.3,1.52,2.73-.96,2.1-1.64,3.73-.53-.99-3.18.14-4.99.09l-.29-.44c1.72,2.69.2,2.98-.11,4.18-1.19-1.47-1.54-2.17-1.64-3.19-.26.21-.49.45-.74.67.48.93.6,1.54.38,2.23l-1.38-1.93c-.92,1.04-.11,3.77-2.37,3.86,1.05,1.07,3.03,2.26,4.22,3.6-.19.19-.37.39-.56.59-.51-.53-.92-1.05-.95-1.39.01.21.37,1.06-.19.92l-.99-1.88c-1.13-.06.95,1.44.43,1.74-1.23-1.17-1.18-.51-2.11-1.48-.02-.23.86.09.53-.53-.67.29-1.98.22-3.13-.42.76.6,1.7,1.52,1.54,2.04-.77,1.04-1.84-1.01-3.03-.99.67.98-.79.89,1.18,2.5-.24.29-1.21-.39-1.84-.69.46,1.24-1.67,2.76.98,3.73l.24-.03c.02.06,0,.09.03.15.37,1.58-.55,2.23-1.55,2.91-1.03.65-2.23,1.25-2.32,2.44l-.74-.42c.19,1.57-.78,2.85.46,4.43-.16.32-1.79.14-2.64-.42.17,1.18.93,1.59-.83,2.4-1.02-1.5-1.34-.17-.64-1.38-1.13.93-2.52.78-.83,2.91-1.87-1.21-2.93.04-2.53.85l1.79-.38c.06.77-.33,1.28-.72,1.81l-2.61-1.18c-2.08.85-.96,2.58-.11,3.98.88,1.44,1.43,2.57-1.55,3.09,1.85,1.09,1.62-1.22,3.81-.11-.56,1.09-4.81,1.74-4.89,2.17-1.82,1.6,3.85,2.19,2.61,3.82,1.03-.14,3.74-.05,4.64,1.25-.43,1.1-4.35,1.21-5.12.36-.07-.31.26-.43.6-.39-.35-.43-.75-1-1.88-.59l1.01.24c-1.07.55-1.05,2.33-2.71,1.84.92,1.03,1.65.48,2.22-.21-1.53,1.59-.25,2.55-1.11,4.25.55-.29,1.74-.55,1.74-.28-1.15,2.48,1.99,1.01,2.51,2.57-1.5,1.02-3.72-.08-2.33,1.48-.99,1.11-2.68.48-3.54.11,1,.72.76,1.47.27,2.2-.51.73-1.32,1.44-1.43,1.93l-.94-.75c.56.46.61.88.67,1.31l1.94-.79Zm115.2-40.6c.54.23.21.6-.19.9-.15-.17-.35-.35-.67-.55-.08.03-.19.07-.28.1.42-.2.82-.37,1.14-.46Zm-65.79-19.4c.07.1.12.2.17.31-.13.03-.27.06-.4.09.08-.14.14-.28.23-.4Z"/></svg>