<?xml version="1.0" encoding="UTF-8"?><svg id="Calque_1" xmlns="http://www.w3.org/2000/svg" viewBox="0 0 1000 1000"><defs><style>.cls-1{fill:#fff;}.cls-2{fill:#c68200;}</style></defs><g><path class="cls-2" d="m73.56,780.36c0-1.73.33-3.77.98-6.13.65-2.36,1.61-4.8,2.88-7.32,1.27-2.52,2.82-5.03,4.66-7.52s3.95-4.71,6.32-6.67,5-3.53,7.89-4.74c2.88-1.2,6-1.81,9.35-1.81,1.53,0,3.07.13,4.61.39,1.55.26,3.03.61,4.44,1.05s2.74.96,3.98,1.56c1.24.6,2.31,1.25,3.22,1.93.68.52,1.37,1.07,2.05,1.64.68.57,1.3,1.2,1.86,1.9.55.7,1.01,1.5,1.37,2.39.36.9.54,1.91.54,3.05,0,.94-.15,1.69-.46,2.25-.31.55-.64.99-1,1.32-.42.36-.9.63-1.42.83-.81,0-1.51-.24-2.1-.73s-1.13-1.05-1.64-1.68-1-1.28-1.49-1.93c-.49-.65-1.03-1.12-1.61-1.42-1.99-1.59-4.02-2.67-6.1-3.22-2.08-.55-4.28-.83-6.59-.83-1.86,0-3.71.41-5.57,1.22-1.86.81-3.64,1.9-5.35,3.27s-3.3,2.97-4.76,4.81c-1.46,1.84-2.74,3.78-3.83,5.83s-1.95,4.15-2.56,6.3-.93,4.23-.93,6.25c0,4.1.6,7.59,1.81,10.47s2.87,5.24,5,7.08c2.13,1.84,4.65,3.18,7.54,4.03,2.9.85,6.05,1.27,9.47,1.27,3.09,0,5.59-.21,7.5-.63,1.9-.42,3.37-1.06,4.39-1.9,1.03-.85,1.71-1.9,2.05-3.15.34-1.25.51-2.73.51-4.42,0-.39,0-.93-.02-1.61s-.03-1.41-.05-2.17c-.02-.76-.03-1.53-.05-2.29-.02-.76-.02-1.41-.02-1.93-1.56.26-3.18.41-4.86.44-1.68.03-3.25.05-4.71.05-.75,0-1.53-.11-2.34-.32-.81-.21-1.55-.53-2.22-.95-.67-.42-1.21-.94-1.64-1.56-.42-.62-.63-1.33-.63-2.15,0-.88.17-1.59.51-2.12s.8-.97,1.37-1.29c.57-.33,1.23-.54,1.98-.66.75-.11,1.55-.17,2.39-.17.65,0,1.38.02,2.17.07s1.55.11,2.27.17c.85.07,1.68.13,2.49.2.68,0,1.44-.06,2.27-.2.83-.13,1.67-.27,2.51-.42s1.68-.28,2.51-.42c.83-.13,1.62-.2,2.37-.2.65,0,1.27.15,1.86.44s1.1.68,1.54,1.15c.44.47.79.99,1.05,1.56.26.57.39,1.12.39,1.64,0,1.07-.23,1.94-.68,2.59-.46.65-1.06,1.19-1.81,1.61-.03,2.05-.1,4.19-.2,6.42-.1,2.23-.08,4.34.05,6.32.1,1.27.18,2.29.24,3.08s.12,1.42.17,1.9.09.85.12,1.1.05.45.05.61c0,1.24-.08,2.23-.24,2.98-.16.75-.39,1.33-.68,1.73-.29.41-.65.68-1.07.81-.42.13-.9.2-1.42.2-.88,0-1.59-.08-2.15-.24-.55-.16-1.02-.38-1.39-.66-.37-.28-.67-.57-.88-.88-.21-.31-.4-.61-.56-.9-.94.52-2.03,1.04-3.25,1.56-1.22.52-2.55.98-3.98,1.39-1.43.41-2.94.73-4.52.98s-3.2.37-4.86.37c-5.24,0-9.81-.72-13.72-2.15-3.91-1.43-7.15-3.54-9.72-6.32s-4.49-6.23-5.76-10.33-1.9-8.82-1.9-14.16Z"/><path class="cls-2" d="m243.46,806.53c0-.94.08-1.87.24-2.78.16-.91.24-1.87.24-2.88,0-.72-.07-1.72-.22-3-.15-1.29-.32-2.74-.51-4.37-.2-1.63-.42-3.38-.68-5.25-.26-1.87-.49-3.74-.68-5.62-.2-1.87-.37-3.7-.51-5.49-.15-1.79-.22-3.42-.22-4.88,0-1.27.02-2.71.05-4.32s.15-3.21.37-4.79c.21-1.58.55-3.04,1.03-4.39.47-1.35,1.15-2.42,2.03-3.2,3.39-2.96,7.05-5.32,10.99-7.08s8.22-2.64,12.84-2.64c2.25,0,4.48.29,6.69.88s4.22,1.5,6.01,2.73c1.79,1.24,3.24,2.82,4.35,4.76,1.11,1.94,1.66,4.24,1.66,6.91,0,1.99-.43,3.73-1.29,5.22-.86,1.5-1.95,2.79-3.25,3.88-1.3,1.09-2.73,2.02-4.27,2.78-1.55.77-3.02,1.39-4.42,1.88,1.4.03,2.93.25,4.59.66,1.66.41,3.27.94,4.83,1.59,1.56.65,2.98,1.4,4.25,2.25,1.27.85,2.21,1.74,2.83,2.69,1.2,1.92,2.16,3.99,2.86,6.2.7,2.21,1.22,4.57,1.56,7.08.34,2.51.55,5.14.63,7.91.08,2.77.12,5.66.12,8.69,0,.72-.19,1.37-.56,1.95s-.82,1.09-1.34,1.51c-.52.42-1.08.76-1.68,1s-1.12.37-1.54.37c-.98,0-1.75-.19-2.32-.56-.57-.37-1-.89-1.29-1.54-.29-.65-.48-1.41-.56-2.27-.08-.86-.12-1.78-.12-2.76s.07-2.03.22-3.05.22-2.19.22-3.49c0-.98-.03-2.03-.1-3.15s-.17-2.23-.32-3.32c-.15-1.09-.33-2.15-.56-3.17s-.5-1.94-.83-2.76c-.85-1.99-2.06-3.59-3.64-4.81s-3.35-2.17-5.32-2.86-4.03-1.14-6.18-1.37c-2.15-.23-4.22-.34-6.2-.34-.49,0-1.28.08-2.37.24-1.09.16-2.25.39-3.49.68s-2.43.65-3.59,1.07c-1.16.42-2.04.9-2.66,1.42,0,1.66.08,3.43.24,5.3.16,1.87.37,3.77.63,5.69.26,1.92.57,3.8.93,5.64.36,1.84.72,3.56,1.07,5.15.03.16.06.31.07.44.02.13.02.28.02.44,0,.65-.16,1.25-.49,1.81-.33.55-.76,1.03-1.29,1.42s-1.16.69-1.88.9c-.72.21-1.48.32-2.29.32-.65,0-1.28-.16-1.88-.49-.6-.33-1.12-.74-1.56-1.25-.44-.5-.79-1.07-1.05-1.71s-.39-1.26-.39-1.88Zm6.84-31.79c.91-.03,2.23-.22,3.96-.56s3.62-.81,5.69-1.39,4.18-1.27,6.35-2.05,4.13-1.63,5.91-2.54c1.77-.91,3.22-1.88,4.35-2.91s1.68-2.06,1.68-3.1c0-1.73-.3-3.13-.9-4.22-.6-1.09-1.39-1.94-2.37-2.56-.98-.62-2.08-1.04-3.3-1.27-1.22-.23-2.43-.34-3.64-.34-1.11,0-2.33.1-3.66.29s-2.67.5-4,.9c-1.33.41-2.63.9-3.88,1.49s-2.37,1.25-3.34,2c-.98.75-1.76,1.6-2.34,2.54-.59.94-.88,1.95-.88,3.03,0,1.92.02,3.74.05,5.47.03,1.73.15,3.47.34,5.22Z"/><path class="cls-2" d="m401.79,809.12c0-1.17.2-2.26.59-3.27.39-1.01.81-1.95,1.27-2.83.07-.13.17-.33.32-.61.15-.28.42-.86.81-1.76.39-.9.94-2.24,1.64-4.03.7-1.79,1.64-4.28,2.81-7.47-.03-.39-.06-.76-.07-1.12-.02-.36-.02-.7-.02-1.03,0-1.33.22-2.47.66-3.39s1.28-1.83,2.51-2.71l12.4-25.88c.49-1.01,1.03-2.09,1.61-3.25.59-1.16,1.25-2.23,1.98-3.22.73-.99,1.55-1.82,2.44-2.49.9-.67,1.88-1,2.95-1,.81,0,1.73.48,2.73,1.44,1.01.96,2.04,2.2,3.1,3.71s2.12,3.19,3.17,5.03c1.06,1.84,2.03,3.62,2.93,5.35.9,1.73,1.68,3.3,2.37,4.71s1.17,2.45,1.46,3.1c1.63,3.65,2.85,6.42,3.66,8.33s1.45,3.12,1.9,3.64c1.5.94,2.54,2.04,3.12,3.3.59,1.25.88,2.89.88,4.91.91,2.31,1.73,4.63,2.47,6.96.73,2.33,1.54,4.47,2.42,6.42.65,1.43,1.32,2.61,2,3.54s1.29,1.81,1.83,2.64.98,1.69,1.32,2.59c.34.9.51,2.04.51,3.44,0,.94-.23,1.67-.68,2.17-.46.5-1,.88-1.64,1.12s-1.28.38-1.93.42c-.65.03-1.17.05-1.56.05-1.01,0-2.02-.57-3.03-1.71-1.01-1.14-1.95-2.5-2.83-4.08s-1.65-3.2-2.32-4.86-1.15-3.03-1.44-4.1c-.36-1.2-.72-2.47-1.1-3.81-.37-1.33-.74-2.58-1.1-3.74-.36-1.16-.72-2.14-1.1-2.95-.37-.81-.74-1.32-1.1-1.51-.52-.46-1.11-.76-1.76-.9s-1.51-.22-2.59-.22c-1.86,0-3.73,0-5.62-.02-1.89-.02-3.83-.03-5.81-.05-1.99-.02-4.04-.03-6.18-.05-2.13-.02-4.39-.02-6.76-.02-.65,0-1.18.06-1.59.17-.41.11-.78.37-1.12.78-.34.41-.68,1-1.03,1.78s-.74,1.86-1.2,3.22l-3.91,10.5c-.29,1.04-.57,2.01-.83,2.91-.26.9-.5,1.52-.73,1.88-.29.49-.61.87-.95,1.15-.34.28-.69.48-1.05.61-.36.13-.73.2-1.12.22-.39.02-.78.02-1.17.02-1.4,0-2.51-.28-3.32-.85-.81-.57-1.22-1.62-1.22-3.15Zm20.21-28.12c3.09.03,5.64.07,7.64.1,2,.03,3.64.07,4.91.1,1.27.03,2.26.06,2.98.07.72.02,1.35.02,1.9.02.39,0,.76,0,1.12-.02.36-.02.77-.03,1.25-.05.47-.02,1.03-.04,1.66-.07.63-.03,1.41-.08,2.32-.15-.46-1.3-1.15-2.95-2.08-4.93-.93-1.99-1.94-4.04-3.03-6.18-1.09-2.13-2.17-4.21-3.25-6.23-1.07-2.02-1.97-3.73-2.69-5.13-.65-1.24-1.17-1.86-1.56-1.86-.2,0-.57.48-1.12,1.44-.55.96-1.2,2.19-1.93,3.69-.73,1.5-1.51,3.18-2.32,5.05-.81,1.87-1.6,3.7-2.37,5.49-.76,1.79-1.46,3.46-2.08,5-.62,1.55-1.07,2.76-1.37,3.64Z"/><path class="cls-2" d="m577.36,806.23c0-.23.05-.65.15-1.27.1-.62.2-1.3.29-2.05.1-.75.2-1.51.29-2.27.1-.76.15-1.42.15-1.98v-38.67c0-.52,0-1.2.02-2.05.02-.85.07-1.77.15-2.76.08-.99.23-1.99.44-3,.21-1.01.5-1.92.85-2.73.36-.81.81-1.48,1.37-2,.55-.52,1.24-.78,2.05-.78s1.68.07,2.51.22,1.66.31,2.49.49c.83.18,1.66.34,2.49.49s1.68.22,2.56.22h24.71c.33,0,.76-.04,1.32-.12.55-.08,1.12-.16,1.71-.24.59-.08,1.16-.16,1.71-.24.55-.08,1.01-.12,1.37-.12.62,0,1.3.18,2.05.54.75.36,1.44.83,2.08,1.42s1.16,1.25,1.59,1.98c.42.73.63,1.49.63,2.27,0,1.46-.36,2.58-1.07,3.34-.72.77-1.87,1.15-3.47,1.15-.26,0-.81-.07-1.64-.22s-1.71-.31-2.64-.49c-.93-.18-1.81-.36-2.64-.54-.83-.18-1.38-.3-1.64-.37-.16,0-.7,0-1.61.02-.91.02-2.07.04-3.47.07-1.4.03-2.96.07-4.69.1-1.73.03-3.48.07-5.27.1-4.17.1-8.89.2-14.16.29-.26,0-.48.11-.66.34-.18.23-.27.39-.27.49-.1.94-.18,1.83-.24,2.66s-.11,1.79-.15,2.88c-.03,1.09-.06,2.43-.07,4.03-.02,1.6-.02,3.65-.02,6.15,0,.36.11.64.32.85.21.21.49.39.83.54s.72.24,1.15.29.85.07,1.27.07c3.06,0,6.18-.2,9.35-.61,3.17-.41,6.34-.81,9.5-1.2.52-.06,1.03-.16,1.54-.29.5-.13,1.03-.26,1.56-.39.54-.13,1.1-.24,1.68-.34s1.2-.15,1.86-.15c.98,0,1.73.2,2.27.61.54.41.93.87,1.17,1.39.24.52.39,1.04.44,1.56.05.52.07.91.07,1.17,0,1.11-.2,1.99-.61,2.66-.41.67-1.01,1.18-1.81,1.54-.8.36-1.78.59-2.95.71-1.17.11-2.52.17-4.05.17-1.92,0-3.83.11-5.74.32-1.9.21-3.82.44-5.74.68s-3.85.47-5.79.68c-1.94.21-3.9.32-5.88.32,0,1.04,0,1.86.02,2.44s.02.93.02,1.03c0,2.9.07,5.85.22,8.86.15,3.01.22,6.29.22,9.84,0,.68-.04,1.42-.12,2.22-.08.8-.27,1.53-.56,2.2-.29.67-.71,1.22-1.25,1.66s-1.26.66-2.17.66c-1.14,0-2.1-.18-2.88-.54-.78-.36-1.41-.85-1.88-1.46-.47-.62-.81-1.34-1.03-2.17s-.32-1.72-.32-2.66Z"/><path class="cls-2" d="m734.03,808.92c0-.55.1-1.11.29-1.68.2-.57.47-1.09.83-1.56.36-.47.81-.85,1.34-1.15s1.15-.44,1.83-.44c.06,0,.32.02.76.07s.94.11,1.51.17c.57.07,1.15.12,1.73.17s1.07.09,1.46.12v-4.2c0-1.82,0-3.94.02-6.35.02-2.41.04-4.96.07-7.67.03-2.7.07-5.48.12-8.33.05-2.85.11-5.62.17-8.33.06-2.7.15-5.24.27-7.62.11-2.38.24-4.46.37-6.25h-3.76c-.75,0-1.5-.02-2.25-.07-.75-.05-1.44-.21-2.08-.49-.63-.28-1.15-.68-1.54-1.22s-.59-1.29-.59-2.27c0-.91.12-1.68.37-2.32s.66-1.16,1.25-1.56c.59-.41,1.37-.71,2.34-.9s2.2-.29,3.66-.29c.68,0,1.46,0,2.32-.02.86-.02,1.76-.03,2.69-.05.93-.02,1.85-.03,2.76-.05.91-.02,1.74-.02,2.49-.02.46,0,1.05,0,1.78-.02.73-.02,1.78-.02,3.15-.02,1.11,0,2.16-.14,3.15-.42.99-.28,1.99-.42,3-.42.52,0,1.07.17,1.64.51.57.34,1.09.76,1.56,1.25.47.49.86.99,1.17,1.51.31.52.46.94.46,1.27,0,1.01-.24,1.87-.71,2.59-.47.72-1.07,1.31-1.78,1.78-.72.47-1.48.81-2.29,1.03-.81.21-1.56.32-2.25.32-.23,0-.49-.06-.78-.17-.29-.11-.59-.23-.88-.34-.29-.11-.56-.23-.81-.34-.24-.11-.42-.17-.51-.17l-4.88.29c-.13,1.04-.24,2.52-.34,4.44-.1,1.92-.19,4.1-.27,6.54-.08,2.44-.14,5.07-.17,7.89-.03,2.82-.05,5.64-.05,8.47,0,1.73.02,3.52.05,5.37.03,1.86.1,3.72.2,5.59.1,1.87.22,3.75.37,5.64.15,1.89.33,3.71.56,5.47.98.1,1.9.14,2.78.12.88-.02,1.66-.04,2.34-.07.68-.03,1.25-.06,1.71-.07.46-.02.73,0,.83.07,1.01.65,1.74,1.38,2.2,2.2.46.81.68,1.64.68,2.49,0,.59-.16,1.13-.49,1.64-.33.5-.74.93-1.25,1.27-.5.34-1.07.61-1.71.81s-1.25.29-1.83.29h-16.7c-.59,0-1.35-.07-2.29-.2-.94-.13-1.86-.37-2.76-.71-.9-.34-1.68-.81-2.34-1.39-.67-.59-1-1.32-1-2.2Z"/><path class="cls-2" d="m876.78,810.87c-.16-2.18-.24-4.58-.24-7.2v-24.56c0-2.78,0-5.56.02-8.33.02-2.77.03-5.4.05-7.91.02-2.51.02-4.83.02-6.96s.02-3.98.05-5.54c.03-.55.13-1.12.29-1.71.16-.59.42-1.11.78-1.59.36-.47.81-.86,1.37-1.17.55-.31,1.24-.46,2.05-.46.49,0,.98.08,1.49.24.5.16.95.41,1.34.73.39.33.71.75.95,1.27.24.52.37,1.14.37,1.86l-.34,19.48c0,.33,0,.78.02,1.37.02.59.04,1.22.07,1.9.03.68.07,1.35.12,2,.05.65.11,1.2.17,1.66l7.96-8.89c.59-1.53,1.33-2.69,2.25-3.47.91-.78,2-1.3,3.27-1.56.52-.65,1.26-1.55,2.22-2.69.96-1.14,1.93-2.28,2.91-3.42.52-.55,1.03-1.11,1.51-1.66.49-.55.94-1.07,1.37-1.54.42-.47.79-.9,1.1-1.29.31-.39.54-.68.71-.88.49-.65.91-1.22,1.27-1.71.36-.49.76-.9,1.22-1.22.46-.33,1.01-.57,1.66-.73.65-.16,1.51-.24,2.59-.24.29,0,.64.07,1.05.2.41.13.78.34,1.12.63s.63.68.88,1.17.37,1.09.37,1.81c0,1.43-.25,2.57-.76,3.42-.5.85-1.13,1.6-1.88,2.25-.75.65-1.55,1.29-2.42,1.9-.86.62-1.67,1.4-2.42,2.34-.1.1-.42.46-.95,1.1s-1.15,1.38-1.83,2.25c-.68.86-1.38,1.76-2.08,2.69-.7.93-1.29,1.73-1.78,2.42.33.75.74,1.47,1.25,2.17.5.7.97,1.41,1.39,2.12,1.92,3.26,3.78,6.57,5.59,9.94s3.8,6.89,5.98,10.57c.52.91,1.12,1.94,1.81,3.08.68,1.14,1.38,2.34,2.1,3.61.72,1.27,1.42,2.56,2.1,3.86.68,1.3,1.29,2.55,1.83,3.74.54,1.19.97,2.29,1.29,3.3.33,1.01.49,1.86.49,2.54,0,.75-.08,1.46-.24,2.15-.16.68-.44,1.28-.83,1.78-.39.5-.91.9-1.56,1.2-.65.29-1.46.44-2.44.44-.59,0-1.17-.22-1.76-.66s-1.14-1.01-1.66-1.71c-.52-.7-1.02-1.48-1.49-2.34-.47-.86-.9-1.72-1.27-2.56-.38-.85-.71-1.62-1-2.32-.29-.7-.52-1.26-.68-1.68-.16-.36-.5-1.09-1-2.2-.5-1.11-1.13-2.43-1.88-3.98-.75-1.55-1.6-3.26-2.54-5.15-.94-1.89-1.91-3.79-2.91-5.71-.99-1.92-1.98-3.79-2.95-5.62-.98-1.82-1.89-3.47-2.73-4.93-.85-1.46-1.6-2.68-2.25-3.64-.65-.96-1.14-1.52-1.46-1.68-2.31,1.86-4.48,4.03-6.52,6.52-2.04,2.49-3.88,4.94-5.54,7.35-.07.72-.11,1.33-.12,1.83-.02.5-.02,1.1-.02,1.78,0,1.56.07,3.14.22,4.74.15,1.6.33,3.19.56,4.79.13,1.4.24,2.82.34,4.27.1,1.45.18,2.94.24,4.47,0,.39-.15.81-.44,1.27-.29.46-.68.87-1.15,1.25-.47.37-.99.68-1.54.93-.55.24-1.09.37-1.61.37-.68,0-1.34-.1-1.98-.29s-1.21-.46-1.73-.81c-.52-.34-.94-.75-1.27-1.22-.33-.47-.5-.97-.54-1.49Z"/></g><g><path class="cls-1" d="m704.4,497.13c.47.08.95.25,1.41.22,1.22-.07,2.71.55,3.55-.71.95-1.44-.71-2.23-1.17-3.33-.06-.13-.05-.29-.12-.71,2.47-.03,3.58,1.45,4.24,3.54h4.12c-.14-1.51-.25-2.81-.4-4.41,1.63,1.4,3.14,2.49,4.38,3.82,1.16,1.24,2.03,2.74,3.17,4.31h2.62c.13-1.47.19-2.72.37-3.96.3-1.98,1.53-2.75,3.4-2.16.91.29,1.79.64,2.69.96,1.96.7,3.74.61,5.22-1.1.78-.9,1.86-1.11,3.02-1.22,1.08-.11,2.14-.52,3.22-.71,2.63-.47,4.88.11,6.78,2.16.83.9,1.97,1.6,3.09,2.13,1.71.81,3.04.08,3.61-1.85.22-.73.27-1.52.42-2.48,1.87.15,3.19-1.68,5.32-.82.2.58.46,1.31.72,2.05.14.08.27.23.41.24,1.41.11,2.83.21,4.07.29q2.62-2.98,6.17-2.98c1.44,0,2.89-.1,4.31.1.81.12,1.55.74,2.56,1.26-1.51,2.21-4.95,2.61-4.51,6.23.92-.21,1.76-.19,2.31-.58,2.01-1.4,3.86-1.15,5.74.19.2.14.59.02.91.02.68-1.34,1.37-2.72,2.15-4.26,2.14,0,4.21.03,6.28,0,3.44-.07,4.26-.79,5.11-4.29.07-.28.26-.54.48-.97,3.14.9,2.82,3.3,2.58,5.82-1.95,1.1-4.07.38-6.08.6-1.39.16-2,.82-1.59,2.34,2.48.13,5,.38,7.51.34.85-.01,1.76-.62,2.54-1.12,1.18-.75,2.28-1.65,3.57-2.6-.13-1.26-.27-2.64-.41-4.07,2.1-1.53,4.45-1.15,6.51-.74,2.07.41,3.93,1.33,5.78-.41.19-.18.6-.21.9-.19,2.86.12,5.72.3,8.59.39,1.81.06,2.63,1.77,4.05,2.31,1.69.65,1.83,2.01,2.37,3.62.55-.46,1.06-.76,1.42-1.2,2.65-3.22,3.99-3.52,7.73-1.71.69.33,1.43.57,2.04.81,1-.74.86-1.52.47-2.24-.37-.7-1.08-1.26-1.29-1.99-.53-1.82-1.76-2.5-3.51-2.69-.33-.04-.6-.63-.88-.94.51-.9,1.09-.39,1.67-.27.59.12,1.21.13,1.88.19.36-.88.65-1.6,1.01-2.48,1.22-.44,2.54-.92,4-1.44.64.5,1.21,1.06,1.88,1.44,1.58.91,2.66.77,3.77-.59,1.09-1.34,2-2.85,3.71-3.43,1.01.62,1.63,1.23.92,2.37-1.69,2.71-2.27,4.98-2.03,8.11.59-.11,1.33-.02,1.67-.35,1.21-1.14,2.68-1.65,4.18-2.21,1.45-.54,1.96-1.57,1.61-3.05-.3-1.22-.71-2.47-1.31-3.56-2.36-4.26-3.85-8.74-3.96-13.64-.06-2.74-.56-5.39-2.01-7.79-.96-1.59-1.1-3.24-.33-5.03,1.24-2.87.68-5.71-.88-8.25-1.04-1.69-1.45-3.43-1.79-5.34-.53-2.95-.92-5.97-2.69-8.6-1.17-1.74-1.5-3.86-1.51-5.97-.01-2.07,0-4.14,0-6.37-.46-.29-1.06-.66-1.67-1.04.27-.23.49-.42.71-.59,1.03-.78,1.18-1.68.3-2.1-1.11-.54-2.28-.96-3.56-1.49,0-2.52.25-4.93-.07-7.26-.33-2.39-.59-4.73-.45-7.14.06-1.1.06-2.31-.33-3.31-.93-2.36-.91-4.61.53-6.98-1.68-.78-3.08-1.44-4.45-2.07-.78-3.07-1.57-6.12-2.31-9.17-.14-.59-.33-1.53-.03-1.82,1.59-1.51,1.35-4.15,3.66-5.3,1.66-.83,2.51-2.48,1.35-4.45-.8-1.37-.38-2.69.14-3.98q-2.88-3.71-.55-8.87-2.18-3.52-.94-7.16c-2.03-4.25-4.06-8.73-6.31-13.11-1.29-2.51-2.26-4.79-.86-7.67.75-1.53.76-3.63-.43-5.05-2.32-2.78-3.24-5.77-2.52-9.33.08-.37-.56-1.04-1.02-1.31-.23-.14-1.06.2-1.18.5-.79,1.89-1.49,3.81-2.12,5.76-.06.2.55.62.85.94h0c-.74-.48-1.99.14-2.37-1.08-.77-2.46-2.92-3.76-4.62-5.39-1.69-1.63-3.47-1.24-5.37.52-.99.92-2.23,1.58-3.29,2.32-.38,3.09-.76,6.24-1.15,9.39-.25,2.08-.56,4.18,1.41,5.8-1.1.79-2.32,1.33-2.99,2.26-.6.83-.79,2.1-.84,3.18-.14,3.48-.95,6.97.11,10.45.34,1.13.22,2.24-.85,3-2.56,1.82-3.29,4.18-2.23,7.13.1.27-.04.62-.09,1.23-.72,0-1.47,0-2.21,0-2.48.03-3.51,1.08-3.3,3.5.07.78.23,1.63.63,2.27.96,1.53,1.09,3.31,1.68,4.91,1.44,3.87.44,7.91,1.36,11.78.37,1.56.12,3.17-1.01,4.53-.37.44-.52,1.06-.72,1.51,1.36,1.65,2.92.16,4.5.89.07,1.04.14,2.24.22,3.38q-2.3.85-5.65.29c-.21.38-.6.78-.61,1.19-.11,2.94-.15,5.88-.22,9.24,2.3-.96,3.89-2.73,6.32-2.13,1.97.49,4.14-.41,6.08.63.22.12.31.49.46.76-.61,1.07-1.31.35-1.99.09-1.94-.75-3.49-.16-4.5,1.56-1.4,2.38-3.18,4.36-5.52,5.74-.36,2.25-.07,4.19,1.07,6.08,1.15,1.91.99,1.95-.9,3.96-.59.63-.92,1.51-1.47,2.43,1.64.56,2.96.94,4.22,1.45,1.78.72,2.34,2,1.41,4.1-1.22.2-2.59.42-3.97.65-.79,2.1,1.79,1.92,2.21,3.72,0-.03.13.52-.07.89-.8,1.56-1.69,3.07-2.57,4.58-.64,1.12-1.36,2.19-.5,3.55.16.26-.01.81-.17,1.17-1.71,4.11-3.37,8.25-5.22,12.3-1.06,2.31-2.44,4.38-4.93,5.63-1.66.84-3,2.34-4.73,3.75-7.06-1.55-13.95-3.9-20.42-6.92-.23-.33-.35-.45-.41-.59-2.65-6.26-3.31-4.79.17-10.97,1.04-1.85,1.2-3.59.49-5.49-.83-2.21-2.31-4.23-2-6.78-2.23-1.97-1.52-5.06-2.82-7.4-.38-.69-.62-1.48-.79-2.25-1.07-4.73-.17-5.86,4.81-6.03,1.23-1.64.22-3.37.06-5.05-.03-.36-.48-.83-.84-.94-.22-.06-.69.43-.9.76-.24.39-.24.92-.49,1.31-.13.2-.57.32-.84.28-.25-.04-.6-.32-.64-.55-.26-1.2-.43-2.42-.65-3.73h3.5c-.53-1.78-.97-3.25-1.47-4.93,4.76-3.64,5.69-8.89,5.99-14.43.07-1.22.31-2.63.99-3.59,1.56-2.21,1.61-4.54.85-6.86-.98-2.98-1.05-5.92-.72-8.99.2-1.89-.02-3.82-.08-5.74-.11-3.51-.29-7.02-.34-10.53-.01-1.1.26-2.21.48-3.3.32-1.55.81-3.07,1.05-4.64.19-1.22.61-2.23,1.82-2.53,1.38-.34,2.27-1.08,2.69-2.42.44-1.38,1.69-1.77,2.81-2.4,2.97-1.66,3.42-3.25,1.79-6.27-.76-1.4-1.71-2.69-2.66-4.16,1.35-5.81,1.73-11.83,1.34-17.9-.14-2.1,0-4.09,1.11-6.02.86-1.51,1.33-3.23,1.96-4.82-1.44-1.88-3.92.66-5.21-1.39-2.09-.29-3.05-2.04-4.57-3.6.49-.36.9-.91,1.37-.97,1.73-.21,3.44-.13,5.17-.77,1.02-.37,2.41.24,3.68.41.87-1.38,0-2.47-.6-3.5-1.24-2.13-2-4.34-1.9-6.82.06-1.38.49-2.57,1.8-3.13,1.27-.54,2.18-1.27,2.39-2.7.24-1.64.09-3.25-.92-4.58-.76-1.01-1.62-2.07-2.68-2.7-3.74-2.22-4.06-5.77-4.2-9.67.79-.38,1.55-.62,2.16-1.07,2.33-1.68,2.11-4.81-.42-6.22-.27-.15-.65-.11-.91-.26-1.1-.62-1.29-2.29-.21-2.67,4.22-1.48,4.35-5.03,4.56-8.57.05-.94-.13-1.89-.22-3.02,3.21-2.46,4.27-5.9,5.14-9.79,1.08-4.84,1.89-9.7,2.72-14.57.27-1.57.74-3.11,1.26-4.62.65-1.87,1.8-3.22,3.79-4.01,2.51-1,4.8-2.5,7.59-2.79.76-.08,1.58-.44,2.19-.9,2.23-1.68,4.75-2.55,7.46-3.09.91-.18,1.73-.76,2.59-1.18,1.28-.62,2.56-1.26,3.85-1.9,3.42,1.16,6.76,2.22,10.04,3.45,1.01.38,1.81,1.27,2.75,1.86.52.33,1.21.86,1.66.73,2.87-.86,3.63.97,4.23,3.1.04.15.13.29.19.43,2.93,1.16,5.86,2.32,8.96,3.55-.1,1.03-.42,1.98-.21,2.78.23.87.82,1.74,1.48,2.37,1.15,1.11,1.61,2.33,1.25,4.19-.75.41-1.68.93-2.68,1.48.09.46.03,1.06.3,1.33,1.45,1.47,2.99,2.86,4.65,4.43-.17,1.32-.21,2.58-.52,3.77-.84,3.19-.72,6.05,2.56,8.02,0,1.36.09,2.64-.02,3.89-.23,2.61.05,5.1,1.25,7.46.29.57.64,1.21.61,1.8-.19,3.46,1.08,6.39,2.51,9.48,1.38,2.98,1.94,6.37,1.82,9.82-.13,3.95.85,7.84.97,11.82.09,2.88,1.44,5.55,4.31,7.05,1.49.78,2.26,2.09,2.73,3.74.78,2.74,2.07,5.29,1.88,8.32-.1,1.67.72,3.41,1.14,5.11.38,1.54.11,2.62-1.38,3.64-1.96,1.34-1.87,1.76-.77,4.77,1.13.15,1.08-.89,1.53-1.47,1.11-1.43,3.12-1.22,3.85.37.13.29.26.59.31.9.44,2.81.86,5.63,1.33,8.69-.76.87-3.02.14-3.24,2.47-.12,1.25-2.96,1.11-2.47,3.05.29,1.16,1.13,2.21,1.84,3.24.78,1.15.99,2.4.67,3.66-.64,2.51.06,4.7,1.17,6.91.56,1.12,1.03,2.36,1.18,3.59.33,2.55.82,4.99,2.76,6.71-.63,1.15-2.33,1.28-1.65,3.11,1.22.16,2.59.35,3.74.5.99,1.01.96,1.9.34,2.76-.46.65-1.17,1.14-1.54,1.83-1.19,2.24-2.55,4.46-1.13,7.16.89,1.7.36,3.05-1.28,4.05-.35.22-.53.72-.74,1.01.12,1.1.92.87,1.47.94,1.44.19,2.29.99,2.65,2.37.38,1.46-1.07,1.72-2.07,2.63.74.82,1.28,1.57,1.95,2.15,2.08,1.79,3.72,3.76,3.51,6.74-.03.43.12.87.21,1.41-1,.18-1.91.34-2.91.52-.99,2.45.38,4.32,1.52,6.39-.33.93-.69,1.96-1.15,3.25.88.38,1.68.72,2.47,1.06,1.08,1.05-.45,3.56,2.1,3.66.11.16.27.32.24.37-.6,1.09-1.22,2.16-1.88,3.32-1.08-.53-1.99-.97-3.15-1.54-.71,2.43-.1,4.08,1.66,5.26,2.03,1.36,2.78,3.44,3.33,5.63.19.76.37,1.63.17,2.35-.74,2.73.07,5.41.15,8.11.08,2.82,1.45,5.24,2.87,7.54,1.49,2.41,2.24,4.71,1.59,7.63-.67,2.96-.29,6.04.41,9.04.62,2.64,1.08,5.32.37,8.04-.62,2.38.25,4.57,1.48,6.37,2.68,3.93,2.71,8.4,3.27,12.79.14,1.11.16,2.23.4,3.32.12.54.62.99,1.3,2.01.56-1.67.94-2.77,1.37-4.07.54-.11,1.14-.26,1.74-.34,3.41-.44,4.98,2.31,7.22,3.94-2.81,3.96-2.86,3.99-7.85,4.88-.02,2.14,1.48,3.73,2,5.8,3.67.05,6.78,1.57,9.94,3.33.77-2.44,2.09-3.97,5-3.67.71,2.18,1.56,4.55,4.79,3.48.88-.76.56-1.67.42-2.62-.18-1.22.64-1.63,1.76-1.85.88,1.2,1.71,2.33,2.53,3.44q-1.38,3.9-5.58,4.87c-.3,1.92-.61,3.93-.92,5.96,1.64,1.83,3.41,3.41,5.62,4.43l-.1-.06c-.65,3.77-1.09,7.49.17,11.29.81,2.44-.51,4.63-1.67,6.72-.3.54-1.05.88-1.25,1.43-1.89,5.19-6.46,6.39-11.07,6.98-3.89.5-5.12,1.33-4.6,6.02.28,2.52.81,5.04,1.46,7.49.46,1.72.83,3.37.6,5.18-.46,3.55-.19,7.01,1.5,10.27.36.7.58,1.49.75,2.27,1.35,6.08,2.61,12.18,4.04,18.24.59,2.48,1.23,5.02,2.39,7.26,1.51,2.93,1.66,5.76.75,8.79-.22.72-.26,1.5-.43,2.49,1.38.34,2.55.64,3.78.94-2.84,3.87-2.88,4.21-1.01,9.91-1.32,2.17-2.81,4.3-5.02,6.02-2.06,1.61-3.3,3.71-2.82,6.69.23,1.41-.56,3.04-1.08,4.5-.51,1.45-1.81,2.46-3.19,2.57-2.57.2-4.88.65-7.18,2.03-1.67,1.01-3.88,1.13-6.11,1.72-.41-.67-.83-1.51-1.38-2.23-1.38-1.79-3.03-2.75-5.39-1.79-4.66,1.87-8.07-.19-7.81-6.53.06-1.42.4-2.86.8-4.23.7-2.35.53-4.36-1.46-6.08-1.56-1.35-1.93-3.25-1.85-5.24.05-1.28.09-2.56.16-3.83.11-2.16-.48-3.98-1.95-5.7-1.99-2.32-1.65-3.47.92-5.48.87-.68,1.72-1.39,2.48-2.18.53-.56.22-1.77-.47-2.07-.58-.25-1.27-.26-1.82-.54-1.49-.76-2.55-1.86-2.66-3.68-.15-2.26-.76-4.34-2.75-5.71,2.8-3.79,3.98-7.9,3.35-12.44-.16-1.16-.22-2.16.42-3.2,1.87-3.03,1.89-5.95-.48-8.82-.69-.83-1.05-1.95-1.45-2.98-.79-2.08-1.51-4.2-2.41-6.76.44-.9,1.09-2.14,1.65-3.41.31-.71.6-1.46.72-2.22.29-1.86-.28-2.89-2.08-3.09-2.3-.26-4.32-1.05-6.22-2.3-1.03-.68-2.13-.61-3.19-.04-.56.3-1.07.7-1.64.99-3.55,1.78-4.85,1.53-7.45-1.58-.91-1.09-1.55-2.41-2.4-3.56-.84-1.16-2.45-1.2-3.25,0-.77,1.16-1.29,2.49-2.05,3.98-.8-.11-1.54-.29-2.27-.29-1.09,0-2.39-.2-3.23.3-1.63.99-3.12,1.09-4.98.8-2.66-.43-5.41-.44-8.12-.47-1.07-.01-2.36.13-3.19.71-1.57,1.12-3.2,1.17-4.98,1.2-1.73.03-3.54.18-5.17.71-3.3,1.08-6.46,1.64-9.27-.65-5.76,1.98-11.46,2.28-17.47,2.17-.8.69-1.74,1.51-2.72,2.35-.45-.19-.94-.3-1.31-.57-1.42-1.02-2.83-2.06-4.2-3.14-2.01-1.58-3.34-1.76-4.92.24-1.46,1.86-3.24,2.42-5.59,2.52-.37,1.26-.71,2.44-1.06,3.63-.82.76-2.01.9-2.49.06-1.84-3.21-4.96-3.44-7.93-3.31-3.11.13-6.26.48-9.18,2.16-2.21,1.27-4.84,1.18-7.22-.22-2.4-1.4-3.71-.93-4.37,1.87-.37,1.56-1.07,2.54-2.42,3.31-3.44,1.97-3.91,1.96-7.2-.61-.25-.19-.53-.34-1.03-.66-.56.27-1.26.58-1.94.94-.56.3-1.08.65-1.76,1.07-2.57-1.06-5.15-1.36-7.67.37-1.46,1.01-3.01.58-4.56-.07-3.97-1.68-3.99-1.65-6.15,2.06-.07.12-.24.19-.65.51-2.14-.83-4.43-1.96-7.09-1.6-.65.09-1.52-.96-2.2-1.58-.77-.71-1.6-.99-2.62-.79-1.28.25-1.95,1.5-1.25,2.5.54.78,1.28,1.44,1.78,2.24.3.49.32,1.16.53,2.05-2.08.26-3.77-.24-4.96-1.5-2.41-2.54-4.75-2.08-7.24-.3-.64.46-1.27.92-2.01,1.45-2.64-1.48-5.32-2.42-8.54-.87-.89,2.13.23,5.86-3.85,6.45-.63-1.46-1.25-2.89-1.97-4.54-.85.12-1.64.09-2.32.36-1.43.58-2.78.48-4.21.04-1.51-.47-3.08-1.11-4.5.28-.07.07-.3.07-.39,0-2.76-1.76-3.6.33-4.53,2.24-.06.12-.24.19-.01.02-2.82-.88-5.36-1.82-7.97-2.44-2.04-.48-3.9-.12-5.78,1.31-2.25,1.72-5.22,2.14-7.94,2.96-.42.13-1.01.07-1.41-.14-2.93-1.51-5.9-.92-8.89-.32-1.56.31-3.08.68-4.68-.12-.56-.28-1.48.08-2.21.25-2.27.52-2.83.31-3.8-1.66-.27-.55-.39-1.17-.74-2.23-.72.85-1.31,1.33-1.6,1.95-.4.86-.57,1.82-.91,2.98-.69.1-1.44.32-2.19.3-1.18-.04-2.1.19-2.97,1.13-.72.77-1.78,1.29-2.78,1.73-3.61,1.61-6.83,1.38-9.29-2.14-.16-.22-.55-.28-1.16-.58-.59.43-1.43.85-2.02,1.5-1.94,2.17-4.1,2.96-6.82,1.5-.22-.12-.59.05-.89.09-1.44,3.11-1.75,3.2-4.31,1.19.5-.4.97-.78,1.51-1.21-.22-1.63-1.53-2.17-2.83-2.68-.33.16-.77.22-.85.43-1.01,2.55-2.96,3.19-5.43,2.68-2.01-.42-4-.96-6.33-1.52-.35.39-.84.97-1.38,1.49-.45.43-.98,1.11-1.47,1.11-2.85.01-5.52,1.9-8.46.78-2.38-.9-4,.05-4.93,2.15-1.35.1-1.17-.97-1.56-1.55-1.14-1.66-2.75-2.19-4.61-1.58-1.81.59-3.56,1.38-5.46,2.12-1.06-.43-2.21-1.01-3.42-1.35-1.58-.45-3.22-.54-4.52.7-1.25,1.2-2.52,1.09-3.96.45-3.17-1.41-6.28-.98-9.23.6-1.64.88-3.25,1.37-5.03.7-2.64-.98-5.04-.31-7.35.96-1.79.99-3.46,1.38-5.4.23-.9-.53-2.15-.46-3.25-.65-1.72-.29-3.5-.38-5.14-.91-2.01-.65-3.43-.08-4.6,1.48-.45.6-.8,1.27-1.3,2.08-1.39-.54-2.54-1.07-3.74-1.44-1.83-.57-3.66-1.18-5.54-1.51-2.87-.51-5.43-.01-6.89,2.97-.18.37-.67.6-.98.87-4.1-2.09-4.12-1.71-9.19-1.96-5.24-.26-9.66,1.36-13.92,4.03-.4.25-.81.51-1.43.9-.84-.53-1.69-1.34-2.67-1.59-.72-.19-1.63.36-2.52.59-.27-.37-.64-.87-1.02-1.4-.5-.04-.98-.16-1.44-.1-2.52.35-5.01.86-7.6.2-1.49-.38-2.84.11-3.73,1.52-.79,1.26-2.05,1.42-3.37,1.37-2.05-.09-4.1-.21-6.18-.33-.58,1.02-1.03,1.83-1.61,2.84-.95.14-2.03.34-3.12.44-2.11.19-3.68,1.22-4.45,3.15-.86,2.16-2.52,3.53-4.33,5.33-1.65-2.48-2.64-4.95-4.11-7.47-.8-.37-1.92-.67-2.8-1.32-2.29-1.69-4.88-1.27-7.39-1.14-.82.04-1.7.8-2.36,1.43-.78.75-1.34,1.72-1.88,2.44-.61.04-1.04.21-1.22.07-2.12-1.72-4.6-2.03-7.2-1.91-.96.05-1.92,0-2.88.06-3.72.24-7.35.02-10.68-1.89-4.94,1.96-10,2.32-15.15,2.06-2.87-.14-5.75-.09-8.63-.21-2.45-.1-4.79.38-7.04,1.22-2.29.85-4.62,1.19-7.05,1.11-4.18-.15-8.29.24-12.3,1.55-2.02.66-4.14.66-6.16.1-1.91-.53-3.75-.51-5.68-.27-4.3.54-8.59.63-12.85-.51-2.57-.68-4.83-.25-7.17,1.48-2.6,1.93-5.65,3.21-9.23,2.56-2.66-.48-5.42-.4-7.93,1.05-.67.39-1.47.69-2.24.77-3.8.41-7.61.74-11.12,1.07-.6-.26-.96-.32-1.16-.52-2.81-2.91-3.08-3.03-6.54-1.64-3.28,1.32-6.11,3.07-8.34,6.11-2.24,3.06-5.57,4.75-9.66,3.28-.9-.32-1.79-.72-2.72-.89-1.21-.22-2.46-.24-3.45-.32-1.89,2.04-.47,4.42-1.77,6.56-4.66,1.2-9.51,2.83-14.48.03.04-.24.07-.51.14-.78,1.02-3.51-.2-4.98-3.54-4.22-.75.17-1.44.67-2.38,1.13-1.55-1.17-3.3-1.99-5.53-1.74-3.49.38-5.99-1.05-7.79-4.29-2.15-3.89-4.85-7.46-7.26-11.21-.59-.92-1.11-1.94-1.39-2.99-.53-2-.82-4.07-1.29-6.09-.43-1.85-.15-3.43,1.17-4.88.62-.68,1.15-1.55,1.4-2.43.44-1.58,1.33-2.41,2.94-2.72,1.78-.35,3.19-1.36,4.28-2.85.46-.63,1.04-1.33,1.73-1.6,1.49-.59,2.26-1.6,2.73-3.07.54-1.67,1.79-2.1,3.43-1.62.42.12.9.08,1.32.11.87-1.13.69-3.02,2.61-3.11.36-1.02.73-2.03,1.13-3.16,4.38-1.45,9.09-.58,13.35-1.54.79-1.47-.43-1.87-.81-2.65-.24-.49-.41-1.38-.15-1.65.35-.36,1.17-.49,1.74-.39,1.95.32,2.74,1.96,3.32,3.44,4.46.75,8.54-.33,12.64-.76,1.32-.14,2.56-1.1,4.26-1.88,1.03.5,2.41,1.18,3.78,1.85,1.05-1.64.47-3.19,0-4.74.82-.4,1.36-.84,1.93-.89,1.65-.14,2.93-.75,4.24-1.85,2.73-2.31,6.3-2.94,9.72-4.31.79.54,1.53,1.1,2.33,1.6,1.03.64,2.24.76,3.19.12,2.85-1.93,5.81-.2,8.7-.39.49-.03,1.24.54,1.5,1.03.65,1.22,1.75,2.35,1.22,4.25-1,.3-2.16.66-3.41,1.04v2.68c.5.13.81.33,1.06.27,1.08-.26,2.18-.52,3.22-.91,1.37-.52,2.71-.74,4.21-.54,1.4.19,2.86-.03,4.29-.01,2.57.03,3.72-2.13,5.15-3.61.68-.7.32-2.39.44-3.7,1.33-.73,2.79-1.58,4.3-2.34.9-.45,2.15-.64,2.49.42.83,2.57,2.56,2.42,4.66,1.88.19-.34.53-.72.62-1.15.2-1.02.62-2.09,1.67-2.01,1.02.07,2.19.52,2.45,1.91.08.43.37.83.53,1.18,4.16.74,8.16,1.96,12.45,1.07.49-.59,1.07-1.27,1.59-1.91,1.15.34,1.49,1.05,1.17,1.89-.28.73-.95,1.29-1.26,2.01-.22.5-.11,1.14-.16,1.87,2.29-.35,4.3-.77,6.33-.93,2.09-.16,4.11-.44,6.03-1.36.53-.26,1.25-.2,1.88-.21,5.11-.01,10.21,0,15.29,0,1.88-2.51,4.36-4.25,5.61-7.1.54-1.23,1.65-1.37,4.97-1.67.36,1.09.73,2.25.99,3.03-.29,1.93-3.29,1.88-2.07,4.23.4.09.88.34,1.31.27,4.86-.85,9.52.4,14.24,1.22,4.87.85,9.76,1.35,14.63-.14.91-.28,1.88-.47,2.82-.48,2.31-.02,4.39-.45,6.19-2.08,1.32-1.19,2.93-1.13,4.49-.35.98.5,1.92,1.06,3.15,1.74.35-.89.62-1.58,1.03-2.63,1.96-.34,4.13-.72,6.29-1.1,1.09-.19,2.18-.43,3.28-.55,1.57-.17,3.22-.58,4.72-.29,1.76.34,3.23.7,4.97-.35.91-.54,2.41-.1,3.75-.1.11-.53.41-1.24.26-1.36-1.89-1.45-1.72-3.6-1.89-5.52-.82-.69-1.61-1.25-2.24-1.95-.26-.28-.38-1.13-.21-1.26.44-.35,1.08-.46,1.65-.63.13-.04.35.02.45.12,1.73,1.73,4.13,2.66,5.07,5.36.84,2.42,2.26,4.57.81,7.2-.09.16.43.86.78.98.36.13,1.07.01,1.27-.26.76-.99,1.37-2.1,2.18-3.4.91,0,2.03-.18,3.06.04,2.53.54,4.97.82,7.54-.04,1.31-.44,2.85-.28,4.29-.26,3.55.06,7.04-.31,10.4-1.45,1.73-.59,3.37-.71,5.16-.29,1.84.43,3.75.67,5.62.15.6-2.66-1.99-1.52-2.85-2.87.12-1.21.03-2.92,1.36-3.98,1.65-1.31,2.06-3.04,2.67-4.96.15,2.23.31,4.46.48,6.96,1.69.53,3.26,1.02,4.75-.48,1.39-1.41,2.8-1.16,4.28-.11.77.55,1.61,1.03,2.46,1.44,2.24,1.07,3.01.79,4.13-1.45.27-.54.45-1.12.69-1.71h5.66c.93,1.52,1.65,2.91,2.58,4.15.94,1.26,2.09,2.36,3.49,3.91,1.44.15,3.33.37,5.22.55,1.8.17,3.42.03,4.8-1.5,1.65-1.83,4-1.7,6.26-1.78,4.12-.15,4.52-.35,8.34-3.41-1.39-2.23-2.53-4.66-4.41-6.88.7.2,1.39.45,2.11.59,2.88.6,3.64.07,4.2-2.87.08-.45.18-.89.29-1.43,1.14.34.74,1.23.81,1.85.09.79.21,1.65-.03,2.38-.22.67-.9,1.18-1.34,1.79-.69.96-.44,2.27.52,2.9,1.35.89,2.97.75,4.39-.44,1.45-1.22,2.86-2.48,4.36-3.79.34-1.43.14-2.73-2.29-3.53,1.69-.5,2.67-.54,3.7-.26.74,1.13,1.25,2.78,2.3,3.27,1.32.61,3.08.27,5.07.36.21.58.36,1.69.94,2.49.61.84,1.88.77,2.72,1.7,1.11,1.23,2.71,1.07,3.83-.02.9-.87,1.61-1.94,2.57-3.12.61,0,1.42-.12,2.18.02,1.71.33,2.35,1.38,2.04,3.07-.19,1.04-.36,2.09-.67,3.97,3.91-3.1,7.54-4.83,12.13-4.23.53-1.85,1.12-3.61,1.53-5.4.34-1.49,1.24-2.13,2.65-2.31,1.54-.2,3.46.58,4.49-.91.75-1.09.81-2.66,1.2-4.01.03-.12.25-.18.4-.28,1.52-.06,1.34,1.56,2.13,2.19.82.66,1.8,1.13,2.71,1.69-1.51,2.24-3.93,3.82-4.17,6.96,1.2.07,2.14.11,3.08.19.63.06,1.55-.06,1.84.3,2.15,2.67,4.87,1.22,7.27,1.42,1.3-3.1-3.18-3.73-2.29-6.56,1.5,0,3.02-.04,4.54.03.44.02,1.01.22,1.27.54,1.24,1.54,2.94,2.27,4.7,2.98.36.14.57.68.99,1.23,1.14-.71,2.16-1.42,3.24-2.02.94-.51,1.94-.9,3.24-1.48-1.18-1.62-3.11-1.55-4.11-2.64-1.06-1.15-1.75-2.63-2.74-4.17-1.74-.86-4.91.65-5.72-2.8,1.12-.77,2.25-1.62,3.45-2.35,1.71-1.03,2.77-.78,4.1.76.83.96,1.68,1.89,2.59,2.89,1.21,0,2.32-.01,3.43,0,1.58.02,3.11-.08,4.37,1.37.48.55,1.76.47,2.68.52.42.02,1.2-.28,1.24-.52.39-2.79,2.81-2.9,4.67-3.23,1.94-.34,3.09-1.12,4.09-2.78,1.07-1.78,2.56-1.88,3.82-.26,1.14,1.47,2.49,1.87,4.14,1.88,1.73.01,3.46,0,5.31,0q1.62,2.74,6.01,3.5c.25.97.52,2.02.78,3.01,3.4,1.78,4.98-2.86,8.24-1.42.21-2.48.37-4.34.52-6.18,5.73-3.36,8.89-2.34,11.53,3.69.29.12.57.32.87.35.47.04.95-.03,1.69-.06.34-1.12.7-2.29,1.11-3.64.49-.14,1.08-.39,1.69-.45,1.99-.19,4.12.53,5.79-1.44.4-.47,1.93-.43,2.67-.07,2.2,1.08,3.98.62,5.6-1.19.85,1.34,1.52,2.52,2.33,3.6.72.97,1.82,1.24,3,1.14,1.2-.1,2.23-.91,2.3-2.04.1-1.41.02-2.84.02-4.26.26-.1.6-.36.77-.27,3.64,1.89,7.33,1.46,11.06.31.87-.27,1.79-.38,2.72-.57,1.66,2.8-.46,6.45,2.76,8.78,1.56-.35,3.4-.77,5.33-1.21.24-.7.49-1.43.8-2.35.95-.23,2-.48,3.12-.75.14-.42.48-.9.41-1.3-.22-1.24-.58-2.45-.89-3.68l-.11.13Z"/><path class="cls-1" d="m213.14,197.84c.85-.11,1.41.17,1.99.91,2.2,2.79,4.89,2.74,7.02-.02.48-.62.68-1.51,1.25-2,.52-.45,1.46-.83,2.04-.66.63.19,1.41,1.03,1.48,1.65.11,1.04-.3,2.13-.5,3.2-.13.72-.26,1.45-.42,2.3.74.12,1.24.35,1.63.23q4.61-1.33,8.5.82c1.15-.9-.04-2.95,1.6-3.58,1.58-.61.83-2.27,1.64-3.38,1.92.59,2.93,2.27,4.2,3.44-.19,1.27-.34,2.31-.47,3.23,1.45.95,2.44.26,3.28-.43,1.83-1.5,3.7-1.72,5.75-.55,1.37.78,2.66.6,4.06-.14,4.89-2.56,10.13-3.79,15.65-3.59,4.64.17,9.24.02,13.79-1.39,1.98,1.53,4.2,2.14,6.7,1.43.26-.59.51-1.17.89-2.04,1.73.26,3.55.53,5.58.84,1.44-.75,3.09-1.67,4.8-2.49,1.77-.86,3.74-1.31,5.61-.79,4.12,1.14,8.26.28,12.38.4,4.63.13,9.26-.07,13.89-.15,2.55-.05,5.11-.16,7.66-.23,2.88-.07,5.8-.3,8.33,1.85,2.6-1.7,5.42-1.76,8.31-1.74,2.7.02,5.39-.32,8.34-.52.17-1.18.32-2.22.5-3.51,1.1-.27,2.29-.57,3.41-.84,1.33-1.99-1.27-2.25-1.48-3.96.66-.48,1.48-1.08,2.41-1.76.62.52,1.31.83,1.53,1.34,1.1,2.53,3.05,3.06,5.45,2.46.17.39.4.66.36.89-.13.76-.62,1.82.27,2.1.75.24,1.88-.09,2.6-.55.59-.38.87-1.29,1.21-2.01.69-1.47,1.92-2.07,3.43-2.23,1.67-.17,2.64.66,2.78,2.41.04.47-.13.96-.07,1.42.13.95,1.35,1.66,2.18,1.25.55-.28,1.03-.72,1.54-1.09,2.23-1.6,4.01-1.63,6.03-.05.74.58,1.43,1.24,2.32,2.01.83-1.02,1.43-2.08,2.32-2.76.84-.65,1.97-1.19,3-1.26,1.18-.08,2.4.42,3.51.64q.11,2.58-2.37,4.78c.6,1.62,2.32.67,3.25,1.4.84.66,1.51,1.53,2.12,2.17,1.98-1.06,3.83-2.06,5.85-3.15.62.99,1.1,1.76,1.76,2.82-1,.49-1.81.88-2.78,1.34-.72,2.55,1.29,4.78.93,7.35,1.19.75,2.26,1.43,3.48,2.2.49,3.51.99,7.12,1.47,10.5-1.3,1.88-2.53,3.51-3.59,5.25-.75,1.23-1.11,2.58-.62,4.12,1.08,3.37,0,5.95-3.16,7.62-.27.14-.47.42-.96.87-.09.5-.26,1.26-.38,2.02-.34,2.21-1.18,3.4-3.15,3.52-3.14.19-6.42.86-9.2-1.47-.47-.4-1.11-.63-1.71-.85-.97-.36-1.9-.23-2.63.56-.54.58-.9,1.42-1.55,1.79-.77.44-1.74.62-2.64.67-.59.03-1.25-.27-1.81-.57-3.69-1.94-7.55-1.82-11.49-1.05-.59.12-1.23.02-1.7.02-1.33-1.42-.02-2.59-.11-3.76-.06-.72-.31-1.69-.82-2.04-.52-.36-1.52-.27-2.22-.07-1.55.43-2.05,1.78-2.65,3.15-.78,1.81-1.54,2.12-3.4,1.12-2.08-1.11-3.97-.84-6.17.13-1.28-1.83-2.93-3.27-5.38-3.56-1.9.98-3.88,1.99-5.99,3.07-1.02.02-1.85-1.72-3.27-.61-1.56,1.22-3,.61-4.36-.46-.38-.3-.7-.66-1.06-.97-1.54-1.31-3.21-1.44-4.83-.25-3.02,2.21-6.3,2.83-9.94,2.1-1.07-.21-2.24-.16-3.33,0-3.34.47-6.37.06-8.8-2.55-.19-.21-.58-.24-1.16-.47-.47.35-1.23.68-1.65,1.26-1.1,1.55-2.04,3.2-3.05,4.81-1.72-2.14-3.83-2.96-6.57-1.88-1.77.7-3.62,1.18-5.52,1.79-.83-1.02-1.61-1.98-2.39-2.95-2.1,0-4,.54-5.66,1.35-2.41,1.18-4.75,1.54-7.3.76-.44-.14-.99.05-1.43-.1-2.73-.94-5-.21-6.95,2.03-2.21-1.07-4.3-2.45-6.91-1.57-3.09,2.81-2.93,6.8-3.56,10.51,1.99,1.71,2.67,4.52,5.02,5.94.25.15.52.5.52.77.03,3.73,3.27,6.03,4.21,9.59-.42.83-1.01,1.79-1.39,2.83-.82,2.26-1.67,3.91-4.78,3.14-1.44-.35-3.26.83-5.13,1.37-.35,2.18-.69,4.32-1.02,6.41,1.11.74,2.62.92,2.42,2.67-.07.63-.01,1.29.11,1.91.33,1.62,1.49,2.29,3.21,1.91.93-.2,1.84-.62,2.76-.64.7-.02,1.4.44,2.18.72-2.39,3.58-5.57,5.78-9.09,7.51v10.23c-.65.42-1.29.83-1.86,1.2.12,2.35.24,4.55.36,6.78.72.68,2.14.38,2.41,1.92.17.96,1.01,1.8,1.62,2.82-1.13,1.03-2.31,2.04-3.42,3.13-1.12,1.09-1.21,2.19-.72,3.84.94,3.16,2.81,4.8,6.11,5.09.06,1.1.11,2.01.17,3.07-1.2.39-2.22.72-3.42,1.11-1.89,3.35-2.22,6.75.24,10.26h3.91c.6,1.58,1.63,3.28,1.82,5.06.21,1.99-2.33,2.35-3.26,3.84-.52.83-1.66,1.27-2.89,2.15.14,1.77-1.99,4.01.57,5.96-.95,2.69-3.09,3.46-5.75,3.72.13,3.63.15,7.08.83,10.66.95.42,2.07.67,2.82,1.33.81.7,1.27,1.8,1.97,2.86-2.03,1.5-4.12,3.05-6.32,4.67v6.37c1.96,1.24,3.85,2.38,5.67,3.61,1.07.72,1.37,2.05.31,2.75-1.36.9-1.22,2.09-1.51,3.29-.32,1.32-.66,1.36-2.45.62-.28-.12-.6-.11-.94-.17-.79,1.89-1.62,3.78-2.36,5.7-.28.73-.54,1.54-.54,2.31-.05,4.6-.02,9.21-.02,14.18,1.09-.23,2.06-.44,3.16-.67.35.81.79,1.82,1.25,2.88-.45,1.14-.9,2.3-1.35,3.44h-3.01c-.71,1.96-.58,3.92-.07,5.71,1.34,4.68.74,9.18-.71,13.67-.09.29-.01.63-.01,1.11.23.21.52.61.91.81,3.48,1.79,3.55,1.9,3.3,5.42-.28,3.98-.53,7.97-.86,11.95-.23,2.8.54,4.9,3.2,6.34,1.77.96,3.22,2.51,4.94,3.89-3.07,2.94-7.29,1.38-10.72,3.51-.31.71-.89,1.68-1.17,2.73-.55,2.09-1.96,2.77-3.92,2.75-1.28-.01-2.56-.03-3.84-.09-3.19-.14-6.37-.15-9.57.88-2.63-2.65-6.05-3.41-9.57-3.96-1.24-2.68-3.29-4.81-3.53-7.87-.12-1.55-1.27-2.62-2.56-3.29-2.36-1.23-2.86-3.16-2.74-5.6.14-3.02.03-6.06.03-9.4,1.26-.97,2.63-2.02,4.07-3.12-1.11-1.72-2.09-2.8-2.54-4.07-.46-1.31-.41-2.79-.59-4.26,1.03-.75,1.9-1.4,2.73-2.01.48-.89-1.17-2.16.61-2.8.26-.09.49-.87.4-1.26-.9-3.92.58-7.97-.69-11.9-.31-.96.15-2.18.32-3.27.24-1.57.98-3.22.71-4.69-.61-3.26.07-6.28.75-9.38.41-1.89.45-3.79-1.03-5.42-1.39-1.52-1.32-3.4-.16-4.85,2.17-2.69,2.12-5.46,1.25-8.57-.95-3.43-1.16-6.89.26-10.33.68-1.64.57-3.4.2-5.19-.66-3.15-.42-6.26.16-9.48.56-3.07.12-6.33.12-10.28.07-.09.62-.85,1.15-1.62.51-.75.53-1.57-.12-2.18-.88-.83-.15-1.11.24-1.79.76-1.35.15-2.82-.54-4.07-.92-1.67-2.03-3.23-3.21-5.06.72-2.28,1.6-4.66,2.21-7.11.42-1.68.69-3.45.65-5.17-.06-2.1.01-4.1.66-6.14.43-1.34.44-2.83.46-4.26.02-1.97-.33-3.85-2.27-4.86,1.24-4.66,1.11-8.99-1.28-12.89.57-3.25,1.16-6.36,1.65-9.48.44-2.82.27-5.74,1.65-8.4.61-1.18.42-2.52-.17-3.72-1.75-3.57-1.93-7.34-1.64-11.23.3-4.14.34-8.3.51-12.45.06-1.43.03-2.75-.52-4.19-.52-1.36-.21-3.03-.26-4.44-.47-.29-.74-.62-.99-.59-5.77.55-11.4-1.36-17.16-.98-2.22.15-4.53-.12-6.65.41-1.96.49-4.22-.35-5.96,1.32-.18.18-1.3-.87-1.81-.73-3.28.89-6.66-.73-9.95.57-1.09.43-2.52.12-3.78,0-1.98-.18-3.95.02-5.51,1.21-2.4,1.81-5.22,2.2-7.99,2.98-1.49-1.01-2.88-2.06-4.38-2.94-1.93-1.13-3.9-1.57-5.88.83-.05.43-.17,1.34-.29,2.24-.29.17-.56.48-.82.46-1.59-.11-3.29.03-4.73-.51-3.66-1.39-7.45-1.6-11.26-2-2.14-.23-4.04-.44-5.8,1.2-.6.56-1.76.64-2.68.73-2.05.19-4.12.24-6.09.34-1.18,1.46.33,1.97.95,3.09-.41,1.29-.93,2.78-1.34,4.3-.46,1.7-.13,3.12,1.36,3.65,1.79.64,2.38,1.87,2.89,3.41.2.6.55,1.14.85,1.74,1.2.33,2.36.65,3.8,1.05-.66,1.24-1.16,2.2-1.63,3.07q-3,.23-4.08-2.3c-1.25-.18-2.63-.37-4.02-.57-.42-.85-.81-1.64-1.16-2.34-.37,0-.54-.04-.69.01-.14.05-.3.15-.38.28-2.35,3.64-2.02,4.82,2.21,6.07.13.04.23.19.36.31-.48,4.44,2.24,8.09,3.15,12.56-1.07.87-2.26,1.85-3.64,2.98-.09,1.08-.35,2.35-.28,3.6.2,3.57-.31,6.94-1.67,10.3-.68,1.68-.54,3.77-.45,5.65.16,3.63.26,3.62-2.56,6.19.28,2.24.89,4.61.79,6.95-.09,2.17-.94,4.31-1.49,6.63,1.17.39,2.18.73,3.25,1.09.78,3.04,1.11,5.92.37,9.01-.82,3.39-1.16,6.84-.62,10.44.52,3.44.31,7.03.11,10.53-.27,4.81-3.27,7.67-8.22,8.33-.92.12-2.05.22-2.67.79-3.1,2.87-6.85,3.15-10.73,2.97-1.42-.07-2.82-.32-4.22-.48-2.08-5.32-5.66-8.51-11.67-8.77,0-.93-.15-1.7.03-2.38.52-1.93-.3-3.46-1.3-4.93-1.43-2.1-1.67-4.13.18-6.08,1.32-1.39,1.67-3.05,1.5-4.87-.38-4.12.43-8.3-.87-12.38-.32-1.02-.05-2.22-.07-3.34-.02-1.76.17-3.55-.12-5.26-.42-2.47-.04-4.54,1.14-6.83,1.06-2.06,1.56-4.37,3.18-6.24.97-1.12.78-2.74.29-4.15-.42-1.21-1.01-2.35-1.41-3.56-.45-1.36-.52-2.59.15-4.09.68-1.5.57-3.41.56-5.15-.01-1.41-.39-2.83-.63-4.37,1.56-1.99,3.03-4.08,2.29-6.91-.73-2.81-1.45-3.6-5.04-5.07.26-.75.36-1.6.79-2.24,3.85-5.74,3.79-12.05,2.47-18.42-.43-2.07-.9-4.02-.37-6.11.12-.45.11-.95.08-1.43-.08-1.6-1.03-2.54-2.76-2.65-.6-.04-1.21.18-1.99.3-.53-1.51-1.02-2.83-1.46-4.16-.35-1.06-.67-2.1.16-3.17.36-.46.46-1.18.51-1.8.15-1.81-.76-3.13-2.49-3.58-.92-.24-1.89-.35-2.84-.38-1.84-.05-3.43-.69-4.85-1.88-.14-.24-.32-.51-.45-.79-1.41-3.02.48-6.28-.82-9.42-1.18-2.86-.51-5.98-.28-9.1,3.97-1.92,5.97-5.66,8.54-8.87.38-.48.75-1.13.76-1.72.06-2.71,2.19-4.57,2.82-7.07.33-1.29,1.79-2.06,3.1-1.56,1.97.75,3.75.24,5.63-.16,3.91-.83,7.29.05,9.81,3.37.36.48.86.86,1.68,1.66.58-.76,1.03-1.35,1.58-2.06,1.57.68,3.3,1.39,4.98,2.18,1.07.5,1.17,1.35.69,2.38-.11.24.04.61.1,1.11,2.18,1.22,4.68,1.61,7,2,1.66-.1,1.77-2.49,3.7-1.95,1.45.4,3.26-.36,4.32,1.47-.41.57-.84,1.17-1.26,1.75.2.29.31.66.52.74,2.57.94,5.18,1.6,7.97,1.16.77-.12,1.62-.04,2.38.15,6.27,1.59,12.69,1.39,19.07,1.48,2.68.04,5.4-.47,8.06-.94,3.25-.58,6.35-.37,9.4.93.42.18.94.1,1.7.16,1.96-2.3,4.7-2.21,7.66-2.34,3.81-.16,7.58-.1,11.36.2,1.64.13,3.11-.11,4.41-1.36.93-.9,2.18-1.01,3.56-.93,3.98.23,7.98.42,11.95.22,3.67-.19,7.32-.59,11-.2.34.04.75-.4,1.1-.66.09-.07.07-.29.14-.66-3.18-2.12-6.74-2.43-10.31-1.46-1.45.4-2.74.52-4.8.38,1.63-.76,2.91-1.03,3.66-1.81.69-.72.8-1.99,1.17-3.02l-.1.11Z"/><path class="cls-1" d="m699.42,464.51c-.03.16-.01.41-.1.46-1.07.57-2.46.87-3.14,1.73-.73.93-.79,2.38-1.17,3.59-.48,1.52-1.47,2.3-3.1,2.55-3.78.58-3.73.64-3.7,4.76,0,.9-.34,1.81-.55,2.79-2.69.33-4.84-.82-7.08-1.54-2.28-.73-4.54-1.53-6.82-2.24-.75-.23-1.62-.55-2.34-.38-4.17.97-7.34-1.25-10.89-3.02.34-3.74-1.64-6.06-4.57-7.79-.41-.24-.82-.51-1.18-.82-3.05-2.6-2.9-4.71-1.18-7.06.19-.26.41-.5.57-.77,1.94-3.29,1.57-4.92-1.66-7.22-.26-.18-.53-.35-.82-.5-1.74-.92-2.55-2.32-2.36-4.31.26-2.6-.25-5.08-1.48-7.68,1.3-1.67,2.69-3.39,4-5.18,1.27-1.74,3.49-2.92,3.31-5.85-1.37-.28-2.85-.59-4.8-.99.65-.75.94-1.36,1.39-1.54,1.02-.4,2.21-.47,2.68-2.12-.81-.68-1.72-1.46-2.69-2.29-.05-.21-.24-.54-.18-.81.39-1.71.52-3.59,1.35-5.06,1.61-2.85,1.55-5.43-.17-8.11-.25-.39-.32-.89-.53-1.52.66-.95,1.36-1.96,2.03-2.91-1.86-2.54-1.8-2.52-1.29-4.74.32-1.37.63-2.78.63-4.17.05-13.43-.06-26.86.1-40.29.04-3.84-1.27-7.22-2.58-10.62-1.11-2.88-1.69-5.75-1.89-8.83-.2-2.98-1.04-5.92-1.53-8.5-1.32-.99-3.09.16-3.41-1.74-1.28-.53-2.56-1.06-4.05-1.68.23-.57.42-1.81.8-1.87,2.43-.4,2.62-2.25,3.19-4.07.31-.97,1.33-1.72,2.01-2.56-.92-1.18-1.66-2.46-2.71-3.37-.87-.75-2.11-1.08-3.47-1.73.94-1.37,2.32-.78,3.4-1.64.06-.67.15-1.58.25-2.74-.76-.3-1.47-.57-2.5-.97.51-1.23.85-2.57,1.56-3.67.66-1.02,1.72-1.8,2.65-2.72-.04-5.06-2.81-9.22-4.98-13.59-.08-.16-.56-.12-1.13-.23-.11.74-.29,1.47-.33,2.2-.09,1.89.18,3.81-1.71,5.19-.48.35-.36,1.48-.6,2.23-.55,1.68-1.87,2.47-3.23,1.99-1.61-.57-2.23-2.31-1.35-3.87.39-.69.96-1.28,1.27-1.99.16-.37.07-1.14-.19-1.32-.45-.31-1.19-.55-1.69-.4-2.36.66-3.19,2.59-3.32,4.75-.08,1.38.37,2.8.59,4.25-1.44,1.13-2.9,2.27-4.33,3.39-.31,3.7-.65,7.19-2.02,10.48-.24.58-.41,1.26-.36,1.87.4,4.79-1.95,8.61-4.4,12.67-.56.22-1.31.46-2.01.81-.83.41-1.81.75-2.37,1.42-.85,1.01.7,1.67.73,2.39.07,1.65.26,3.08,1.5,4.31.39.38.56,1.17.53,1.75-.15,2.88,1.8,4.59,3.54,6.36,1.55,1.58,2.23,3.26,1.09,4.86-.82,1.16-.23,2.97-1.91,3.68-.28.12-.29,1.11-.26,1.69.04.76.25,1.52.35,2.07-.27.38-.33.58-.45.63-3.39,1.25-4.12,3.73-3.11,6.91.59,1.86.03,3.46-.83,5.03-.63,1.15-1.47,2.21-2.83,2.41-2.89.41-3.51,2.34-3.52,4.81,0,.79-.16,1.58-.23,2.27-1.01,1.3-2.35,1.33-3.57,1.02-2.29-.6-4.66-1.01-6.72-2.36-1.35-.89-1.41-.8-3.99-.79-.98,1.08-.11,2.03.14,3.07.12.49-.23,1.1-.37,1.66-.57-.14-1.36-.1-1.68-.47-.72-.82-1.2-1.84-1.81-2.83-.84-.14-1.63-.2-2.39-.41-.72-.21-1.48-.45-2.07-.89-1.65-1.24-3.13-2.71-4.83-3.87-3.11-2.12-5.37-5.34-9.02-6.81-1.39-.56-1.8-2.16-2.08-3.61-.62-3.13-1.19-6.26-1.85-9.38-.23-1.08-.48-2.22-1.03-3.15-1.71-2.91-3.02-5.97-4.06-9.17-.69-2.11-1.41-4.28-3.43-5.47,1.59-8.32-.89-11.93-8.18-12.9-.5-1.16-.96-2.51-1.64-3.74-.53-.95-1.27-1.81-2.01-2.62-.44-.48-1.97.01-1.99.65-.04,1.52.08,3.05.14,4.71-.71.26-1.72.66-2.77.99-1.34.42-2.96.44-3.98,1.24-1.05.82-1.52,2.38-2.24,3.62-1.18.41-2.37.83-3.57,1.23-.13.04-.31-.05-.47-.08-1.44-.65-.06-2.85-1.7-3.45-.33.31-.68.48-.71.7-.45,2.83-.89,5.67-1.25,8.51-.18,1.42-.6,2.99-.21,4.27,1.16,3.76.38,7.62.97,11.39.15.94.2,1.94.01,2.86-.45,2.24-.32,4.44.06,6.67.16.94.2,1.91.2,2.87-.05,10.3.31,13.28,4.09,21.19.41.85.99,1.83.89,2.68-.31,2.82.85,4.91,2.65,6.87.6.66.86,1.64,1.32,2.57-3.41,2.53-4.03,5.98-3.89,9.76.09,2.32.47,4.55-1.02,6.85-1.41,2.17-1.02,4.96-.41,7.49.41,1.71.88,3.41,1.51,5.05.81,2.13,1.23,4.27,1.16,6.56-.03.89.37,1.81.64,2.7.51,1.68.47,1.8-1.43,2.83-.28.15-.56.29-1.17.61.29,2.68.6,5.49.89,8.22,1.2.69,2.66,1.04,3.19,1.94.67,1.14.78,2.72.78,4.11,0,1.95-1.62,2.54-3.3,1.28-.34-.26-.45-.81-.89-1.64-1.37,2.25-1.38,3.88-1.02,5.62.69,3.24.39,3.85-2.35,5.26-.28.15-.57.32-.87.4-1.75.46-2.66,1.56-2.86,3.38-.06.54-.66,1.01-1.17,1.74-3.01-1.06-6.12-1.06-9.11-2.46-3.24-1.52-6.8-2.59-10.66-1.31-2.65.88-4.56-.27-4.91-2.97-.34-2.61-1.86-3.92-4.09-5.09-.34-1.84-.65-3.72-1.04-5.58-.52-2.5-1.52-4.83-2.37-7.22-1.39-3.87-3.44-7.52-4.03-11.71-.46-3.27-1.56-6.41-3.35-9.39,1.85-.95,2.68.88,3.98,1.15.96.2,2.17-.52,1.97-1.47-.48-2.21-.47-4.33,1.47-6.63h-4.76c1.23-1.48,2.12-2.74,3.2-3.8,1.06-1.03,2.34-1.85,3.76-2.95-1.31-.74-2.51-1.42-3.73-2.11-.24-.73-.47-1.47-.73-2.27-.93-.19-1.85-.38-3.01-.62-.3-1.12-.61-2.3-.98-3.72.99-.52,1.92-1,3.15-1.65.48,1.62.89,3,1.55,5.22.96-1.86,1.67-2.88,2.04-4.01.82-2.51,1.06-5.23,3.51-7.37-2.16-1.06-4.54-.98-4.45-3.6.06-1.72,1.58-1.75,2.53-2.21-.12-4.17-.24-8.12-.32-12.06-.02-.79-.02-1.63.2-2.38,1.51-5.05.56-10.16.44-15.24-.01-.48.08-1.06-.15-1.41-1.77-2.71-.81-5.41-.43-8.28.42-3.1.03-6.36-.39-9.51-.19-1.46-.44-2.79.13-4.18,1.13-2.73.84-5.26-.95-7.68-.65-.87-.93-2.01-1.25-2.73.81-2.56,1.44-4.85,2.27-7.05.77-2.05.55-3.92.09-6.05-.63-2.93-.42-6.03-.73-9.04-.12-1.19-.68-2.33-1.19-3.98.21-.32.86-1.02,1.13-1.85.23-.72.13-1.59.01-2.37-.28-1.89-.37-3.88-1.06-5.62-1.01-2.58-.84-4.66,1.58-6.42-1.62-1.92-3.37-3.58-3.58-6.41.74-.51,1.61-1.1,2.58-1.76.06-.16.28-.46.27-.73-.34-5.27-1.08-10.46-2.34-15.61-.68-2.76-.71-5.68-1.06-8.75.96-.88,1.98-1.82,3.07-2.82.43-2.23-.05-4.4-.64-6.57-.25-.9-.63-1.98-.35-2.76,1.13-3.2,1.97-6.39.72-10.01,5.21-.83,7.98-4,10.25-7.8,1.09-1.82,2.67-3.15,4.5-4.22,1.51-.88,3.06-.88,4.62-.29,1.54.58,2.49,2.57,4.56,1.91.66,1.03,1.9,2.09,1.86,3.1-.08,1.92.82,2.72,2.33,3.01,1.37.26,2.16,1.11,3.15,1.93,1.69,1.41,3.6,2.61,5.53,3.69,1.27.71,1.79,1.64,1.98,3.01.54,3.94,2.45,7.2,5.37,9.86,1.41,1.28,2.93,2.44,4.31,3.74,2.33,2.19,4.57,4.43,3.92,8.12-.2,1.15.44,2.14,1.32,2.94,1.89,1.71,3.75,3.44,5.79,5.32-.28,1.5-.56,3.02-.86,4.62,2.14,3.32,5.13,5.7,8.43,7.66,1.05.63,2.45,1.12,3.63,1.02,3.4-.27,5.48,1.75,7.93,3.8-.8,1.35-1.57,2.52-2.2,3.76-.71,1.38-.81,2.72.55,3.89.7.6,1.25,1.37,1.92,2.12-.79.57-1.41,1.02-2.29,1.66.53.61.91,1.39,1.52,1.69,1.75.85,3.17,1.74,4.07,3.72.9,1.99,2.56,3.64,3.97,5.38,1.08,1.32,2.39,1.94,4.23,1.41,1.67-.48,3.46-.57,5.17-.96.47-.11.84-.68,1.84-1.53-2.16-.15-3.54-.25-4.92-.34-3.87-.26-4.46-.86-5.2-5.52,4.54-1.41,7.99,2.38,12.36,2.56.17-.86.18-1.82.57-2.6.33-.66,1.23-1.02,1.63-1.67.81-1.35,1.46-2.8,2.23-4.33-.86-.43-1.52-.76-2.17-1.09q.68-3.74,3.11-5.37c-.34-1.42-.69-2.9-1.01-4.28,3.79-3.49,3.84-3.49,3.92-8.69.03-2.18.46-4.1,2.17-5.6.44-.39.71-.98.95-1.33-.28-1.62-1.6-1.06-2.58-1.71-.04-.87-.09-1.92-.15-3.21,1.55-.25,2.92-.47,4.26-.68.18-.29.41-.53.49-.81.38-1.36.63-2.77,1.1-4.1.84-2.41,1.8-4.77,2.71-7.16.17-.44.21-1.05.54-1.3,3.2-2.57,3.14-6.41,4.05-9.9.76-2.92,1.8-5.78,2.82-8.62.26-.72.88-1.3,1.38-2,2.06-.34,4.04-.91,6.14-.23,1.28.42,2.46-.11,3.63-.76,2.09-1.15,4.28-2.11,6.41-3.19.84-.43,1.71-.87,2.4-1.49,1.33-1.21,2.77-2.2,4.56-2.5,1.9-.33,2.31-1.87,2.74-3.19.89-.1,1.95.09,2.3-.32.95-1.11,1.73-2.32,3.38-2.35,2-.03,3.79.45,5.13,2.08.27.33.72.5,1.07.73.65-.58,1.22-1.08,1.92-1.7,1.66,1.11,3.38,1.98,4.75,3.25,1.36,1.26,2.8,2,4.52,1.94,1.46,2.35.38,4.49-.05,6.69.97.58,2.14.94,2.72,1.73.48.65.38,1.82.35,2.75-.05,1.35.13,2.54,1.25,3.44,1.68,1.36,1.77,3.27,1.86,5.04-.27.44-.36.82-.6.96-1.06.62-2.65.58-2.95,2.12-.39,1.94-.22,3.77,1.28,5.35.87.91,1.59,1.99,2.23,3.09,1.29,2.21,2.33,4.53,1.87,6.97,1.08,1.23,1.97.36,3,.23,3.36,2.38,3.63,6.86,6.41,9.79-1.5.8-2.86,1.52-4.17,2.22-1.27-.34-.63-2.82-2.62-2.16-.16.25-.48.5-.46.74.21,2.87.46,5.73.7,8.59.08.96.03,1.94.24,2.86.6,2.64,1.52,5.19,2.27,7.77.72,2.46-.04,5.33.12,8,.11,1.9.28,3.75.19,5.68-.13,2.66.49,5.37.88,8.05.53,3.63,1.24,7.24,1.68,10.88.19,1.55.02,3.2-.26,4.75-.46,2.55-.54,4.98.03,7.58.78,3.55,1.16,7.13.12,10.86-1.09,3.9-.7,7.95.93,11.75.71,1.65.96,3.35.95,5.14-.01,1.58.18,3.17.28,4.78-.42,1.85-2.93,2.84-2.44,4.97.38,1.67,1.41,3.19,2.14,4.78.46,1.01.92,2.02,1.37,3-.28.53-.39,1.1-.73,1.33-2.56,1.79-2.59,3.76-1.48,6.63,1.18,3.05,1.42,6.48,1.95,9.77.23,1.41.17,2.87.2,4.3.06,3.64.15,7.21,1.16,10.81.88,3.14-.89,6.23-1.96,9.2-.3.84-1.64,1.3-2.91,2.23,1.01.53,1.61.89,2.25,1.17,2.1.96,2.53,2.12,1.4,4.11-.31.54-.8.97-1.37,1.65.45.78,1.04,1.53,1.3,2.38.22.71.04,1.54.04,2.39,1.87.73,4.55-.69,5.42,2.67-1.56,2.92-2.78,6.35-.77,10.17-.9.9-1.75,1.74-2.68,2.67.24.35.41.91.76,1.06,1.01.42,2.08.68,3.32,1.06,1.22,2.56,2.49,5.24,3.79,7.99-1.08,1.22-2.01,2.27-3.04,3.44.25.34.46.95.74.97,1.66.15,2.22,1.05,2.01,2.59-.06.47-.17.93-.3,1.59-.97.29-1.98.6-2.76.83.63,2.06,1.35,3.98,1.78,5.96.38,1.77,1.58,2.25,3.07,2.52l-.08-.1Z"/><path class="cls-2" d="m384.29,380.04c.7-.38,1.41-.75,2.4-1.28.23-1.21.61-2.59.74-4,.12-1.29-.09-2.61-1.47-3.27-1.85-.89-2.29-2.54-2.42-4.36-.05-.64-.03-1.28-.04-1.92-.07-5.28-.12-5.23-3.75-8.67-1.29-1.22-2.6-1.67-4.32-1.42-2.52.37-5.06.6-7.99.93-.23.35-.57,1.08-1.1,1.6-1.22,1.21-2.93,1.63-4.33.43-2.35-2.03-4.75-1.37-7.24-.85-.78.16-1.51.51-2.27.77-1.42.5-2.77.37-4.21-.1-1.96-.63-3.98-1.11-6.01-1.5-2.22-.43-4.41-.48-6.49.82-1.84,1.15-3.76.6-5.47-.36-2.08-1.17-4.03-2.59-6.06-3.85-1.07-.67-2.18-1.3-3.34-1.81-1.88-.82-3.81-1.53-6.04-2.41-.48.15-1.36.41-2.12.64-1.15-.64.32-1.17.45-1.07-.74-1.08-.91-1.62-1.27-1.8-2.22-1.11-3.05-2.97-3.53-5.32-.37-1.84-.34-3.44.52-5.08.89-1.7,1.67-3.45,2.56-5.15,1.53-2.91,2.31-5.83,1.09-9.12-.64-1.73.18-2.67,2.17-2.74,1.91-.07,3.83.04,5.75.04.6,0,1.19-.1,1.68-.14.58-1.43-.28-1.94-1.06-2.52-.82-.63-1.68-.83-2.69-.52-.9.27-1.81.57-2.73.69-1.07.13-2.01-.79-1.75-1.73.41-1.46.57-3.06,1.92-4.64.49.76.89,1.18,1.06,1.69.29.89.88,1.34,1.74,1.37,1.75.07,3.51.08,5.27.04,2.33-.04,4.61-1.05,7.03-.01,1.15.49,2.5-.02,3.51-1.02.66-.66,1.43-1.21,2.13-1.8,1.33,1.36,1.5,2,.77,2.7-.92.87-1.99,1.6-2.78,2.57-.39.48-.31,1.36-.48,2.32,2.08-.38,3.75-.96,5.4-.9,1.72.06,3.41.73,4.97,1.1,1.08-.71,1.92-1.41,2.88-1.86,1.91-.88,1.93-.81,3.1-3.11,4.57,1.19,4.75,1.38,6.25,6.77,3.38-1.88,3.38-1.86,8.1-2.09,1.27-.06,2.57-.15,3.81-.42,4.26-.93,4.25-.97,7.75-.21.32-.43.78-1.06,1.47-1.99.67.99,1.24,1.83,1.81,2.67.3.07.62.25.9.21,2.5-.42,4.99-.88,7.81-1.39.13-.53.35-1.4.58-2.3,1.07-.09,2.15-.18,3.17-.27.42-.83.78-1.53,1.11-2.19.34-.1.67-.32.92-.26,2.67.63,5.32.8,8.26.08.26-1.37.52-2.73.77-4.03,1.31-.81,2.33-.59,2.73.76.35,1.16.33,2.43.51,3.99,3.38-.06,6.75.55,9.09,3.41,2.72-.13,3.86-3.86,7.18-2.48-.81,1.61-1.61,3.22-2.43,4.85-.94.17-1.85.34-2.7.5-.08.44-.26.79-.16,1.01.56,1.32,1.55,2.07,3.02,1.7,1.94-.48,3.39.12,4.67,1.6.61.7,1.46,1.21,2.27,1.69,1.96,1.16,2.79,2.99,3.15,5.11.1.62.14,1.29.06,1.91-.51,4.12-.1,8.23.09,12.35.04.9-.07,2.05-.6,2.68-1.84,2.19-1.83,4.66-1.62,7.26.16,2.08.35,4.17-1.77,5.6-.39.26-.47,1.11-.55,1.71-.38,2.9-1.47,5.36-3.95,7.04-1.13-.26-2.14-.49-3.19-.73-1.15,2.68,1.59,4.23,1.36,6.51-.2,2.05-.04,4.14-.04,5.98,1.4,1.54,2.57.01,4.07.26,2.15,1.25,3.62,3.55,5.48,5.31q-1.55,2.93-4.64,5.22c-.05.63-.18,1.42-.15,2.2.02.61.22,1.22.32,1.72,1.77.75,3.66-.97,5.14.93.35,1.44.75,3.12,1.18,4.8.47,1.85.18,3.43-1.3,4.78-1.85,1.69-3.29,3.9-6.23,4.49,1.46,5.03,2.86,9.88,4.28,14.78,2.27,1.06,5.08.87,7.69,2.63-1.19.68-1.99,1.14-2.87,1.65-.32,1.3-.67,2.67-1.05,4.22.13.27.31.7.54,1.11,1.74,3.05,3.37,6.1,2.86,9.84-.12.88.08,1.98.54,2.73,1.38,2.28,1.78,4.75,1.9,7.33.07,1.43.33,2.85.5,4.3-.55,1.44-2.95,1.66-2.56,3.68.11.55.66,1.01,1.07,1.61-1.07,1.43-2.21,2.44-4.25,2.78-1.6.26-3.17,1.49-4.46,2.63-1.61,1.43-3.37,2.33-5.42,2.86-1.38.36-2.76.86-4.03,1.51-.81.41-1.87,1.08-2.06,1.82-.71,2.86-3.14,3.36-5.53,4.45-.35-.85-.57-1.73-1.03-2.45-.79-1.24-1.91-2.16-3.4-2.48-2.05-.45-4.1-.69-6.17-.11-1.38.39-2.76.79-4.33,1.24-2.22-.85-4.58-1.8-6.97-2.64-2.28-.81-4.6-1.23-7.06-.79-1.91.35-3.8.33-5.35-1.28-.86-.9-2.05-.77-3.15-.39-1.54.54-2.82.15-4.08-1.18-.15-1.17-.32-2.56-.48-3.86-3.8-.76-3.85-.73-4.26,2.55-.78-.52-1.47-.98-2.37-1.57-.79,1.14-1.58,2.29-2.61,3.78-1.62.12-3.54.54-5.39.33-2.52-.29-4.72.15-6.86,1.42-.67.4-1.48.55-1.95.72-2.12-.63-3.98-1.06-5.75-1.74-1.46-.56-2.85-1.34-4.22-2.12-1.52-.86-2.9-2-4.47-2.72-4.06-1.86-8.19-3.57-12.58-5.46-.94-2.57-2.14-5.34-2.96-8.23-.67-2.34-.57-4.84.7-7,2.41-4.1,2.22-8.53,2.02-13-.04-.94,0-1.89,0-2.95.58-.32,1.09-.81,1.67-.89,2.32-.32,4.18-1.53,5.94-2.92,2.04-1.61,4.09-1.55,6.21-.26.41.25.79.55,1.2.8,4.19,2.54,8.36,3.03,12.56-.37.99.43,1.97.93,3,1.29,1.96.7,3.9,1.35,6.06.63.87-.29,1.94-.35,2.83-.13,1.72.42,3.07.08,4.42-1.04,1.71-1.43,3.68-.3,5.79-.27.75-.56,1.67-1.17,2.5-1.9,1.13-1,2.28-1.75,3.88-1.3,1.43.4,2.46-.37,3.39-1.3,2.03-2.03,4.14-3.99,6.03-6.14.67-.76,1.17-2.03,1.1-3.02-.14-1.96.41-3.47,1.93-4.61,2.3-1.73,2.69-4.09,2.75-6.78.09-4.38-.58-8.58-1.99-12.7-.46-1.35-.75-2.76-1.14-4.14-.51-1.84-.86-3.75-2.43-5.08v.02Z"/><path class="cls-1" d="m308.98,533.45c.86-3.4.27-7.18,5.26-7.87.23.78.51,1.6.7,2.44.32,1.4,1.13,2.22,2.57,2.44,1.34.21,2.05-.55,2.64-1.58.15-.27.42-.47.8-.87,1.3.15,2.7.31,4.14.48,1.31,1.31,2.14,2.71,1.64,4.86-2.56.33-4.8,1.45-7.48.48-1.57-.56-3.48-.16-5.23-.21-1.57-.04-3.13-.11-5.04-.18Z"/><path class="cls-1" d="m415.52,518.61c1.2-.18,2.39-.52,3.59-.51,4.13.04,8.26.24,12.38.28.99,0,1.98-.39,3.46-.71-.48.74-.7,1.47-1.06,1.55-1.23.26-2.49.23-3.51,1.22-1.11,1.08-2.55,1.81-2.76,3.64-.08.72-.74,1.37-1.22,2.19-.76.1-1.53.22-2.3.28-1.27.1-2.13-.5-2.63-1.64-.32-.72-.64-1.45-.85-2.21-.45-1.63-1.48-2.29-3.15-2.33-.68-.02-1.36-.48-2.03-.75.03-.34.05-.68.08-1.02Z"/><path class="cls-1" d="m171.91,194.34c1.44-.81,2.31-.79,2.93.21,1.04,1.68,2.44,2.9,4.32,3.61.16,1.19,0,2.25-1.36,2.58-1.06.26-1.95.73-1.58,1.87.17.54,1.18.79,1.8,1.2.09.06.1.24.27.7-1.44.08-2.81.06-4.15.25-1.24.18-2.46.83-3.68.81-1.37-.03-2.73-.58-4.28-.95v-4.39c.47-.19.89-.47,1.33-.51,1.27-.11,2.55-.07,3.83-.18,1.23-.1,2.08-.77,2.4-1.99.38-1.44-.18-2.45-1.81-3.21Z"/><path class="cls-1" d="m157.4,200.97c-.21,1.49-.4,2.85-.63,4.55-1.28.39-2.6,1.11-3.94,1.16-4.28.15-8.57.06-13.11.06.73-1.55,2.33-1.83,2.48-3.56.11-1.25,1.89-1.96,3.13-1.34,2.63,1.31,4.96.64,7.29-.57,1.53-.79,3.04-.66,4.78-.29Z"/><path class="cls-1" d="m676.35,482.02c3.22-.39,4.16,1.11,4.89,3.25,1.27.17,2.65.35,3.93.52.17.46.43.81.34,1-1.73,3.71-1.96,3.87-6.07,4.57-.36-1.48-.65-3.01-1.13-4.48-.49-1.49-1.17-2.92-1.96-4.87Z"/><path class="cls-1" d="m329.79,191.34c-2.85.7-5.46,1.99-8.83,1.32.45-.76.71-1.43,1.16-1.92.97-1.06,1.96-2.12,3.08-3,.71-.56,1.64-.95,2.52-1.14,1.29-.28,2.16.45,2.24,1.79.05.93-.1,1.87-.18,2.95Z"/><path class="cls-1" d="m844.01,411.18c-.82-.34-1.51-.63-2.3-.95,0-2.23-.07-4.4.06-6.55.02-.39.8-1.01,1.26-1.04.46-.03,1.33.51,1.37.86.25,2.41,1.58,4.85-.4,7.69Z"/><path class="cls-1" d="m341.16,186.65h2.9c1.08,1.53.91,3.03.25,4.92-1.56.14-3.23.29-5.05.46-.2-2.24,1.38-3.51,1.9-5.37Z"/><path class="cls-1" d="m400.7,182.97c-1.01,1.21-1.73,2.2-2.59,3.06-.86.86-1.99.93-3.05.44-1.11-.51-1.57-1.48-1.4-2.7.08-.6.22-1.19.31-1.67.46-.22.77-.5,1.01-.45,1.79.37,3.56.82,5.72,1.32Z"/><path class="cls-1" d="m768.67,359.96c1.7,2.6,1.16,4.87.77,7.54-1.65-.43-3.08-.81-4.37-1.15-.59-1.92-.84-3.32,1.45-3.93.72-.19,1.19-1.32,2.15-2.47Z"/><path class="cls-1" d="m832.51,329.04c.68,1.43-.1,2.41-1.01,3.37-1.1,1.16-2.36,1.49-3.84.87-.13-4.78.6-5.41,4.85-4.25Z"/><path class="cls-1" d="m774.47,334.78c-.72-.72-1.35-1.34-1.98-1.97,1-2.7,3.17-3.54,5.63-4.58.41.88.77,1.66,1.02,2.2-1.55,1.44-2.89,2.69-4.68,4.35Z"/><path class="cls-1" d="m816.72,323.49c-.13-.6-.4-1.2-.37-1.79.08-1.83,1.3-3.72,2.74-3.98,1.72-.31,2.46,1.05,3.32,2.51-1.59,1.49-2.54,3.95-5.69,3.26Z"/><path class="cls-1" d="m778.51,269.83c.4,2.9.4,5.36.21,7.8-1.36.2-1.07-.67-1.26-1.17-.28-.73-.51-1.47-.84-2.17-.27-.57-.75-1.04-.96-1.62-.41-1.14.38-1.99,2.85-2.84Z"/><path class="cls-1" d="m442.48,515.87c.87-.41,1.75-.73,2.52-1.22.78-.49,1.45-1.15,2.37-1.89.53.5,1.09.82,1.33,1.3.57,1.13,0,2.07-.64,3.04-1.07,1.61-1.84,1.78-3.31.57-.69-.56-1.4-1.11-2.27-1.79Z"/><path class="cls-1" d="m837.18,360.09c-1.38-1.31-1.76-2.61-.56-4.19.62-.82,1.03-1.79,1.6-2.81.69.92,1.34,1.78,2.07,2.75-.38,1.9-1.19,3.45-3.11,4.25Z"/><path class="cls-1" d="m695.27,380.35q-.83,2.94-3.95,4.05c-1.14-1.05-.86-2.21-.16-3.65,1.26-.12,2.65-.26,4.11-.4Z"/><path class="cls-1" d="m352.13,533.43c.95-1.42,1.69-2.53,2.55-3.82,1.72.52,2.98,1.66,4.25,3.07q-2.61,1.03-6.79.75Z"/><path class="cls-1" d="m648.79,414.36c-.22-2.05-.4-3.46-.5-4.86-.06-.9.48-1.67,1.32-1.62.65.04,1.6.57,1.82,1.12.54,1.35.6,2.79-.83,3.82-.5.36-.95.81-1.8,1.54Z"/><path class="cls-1" d="m900.01,466.43c1.17-1.01,2.07-1.83,3.02-2.58.78-.61,2.05-.32,2.45.48.46.93.26,2.07-.45,2.56-1.32.91-2.28.85-5.02-.46Z"/><path class="cls-1" d="m926.55,507.33c-.73-.9-1.16-1.87-.57-3.31,1.32-.5,2.68-1.78,4.58-.28-.88,1.88-2.5,2.7-4.12,3.52.01.01.11.07.11.07Z"/><path class="cls-1" d="m872.18,568.69c.39,1.26.82,2.69,1.35,4.41-2.02.34-3.02-.65-3.78-1.77-.38-.57-.55-1.6-.3-2.21.44-1.1,1.52-.8,2.73-.43Z"/><path class="cls-1" d="m913.18,552.53c.59.15.96.14,1.16.32,1.17,1.01,1.34,2.53.42,3.7-.17.21-.54.37-.81.36-1.03-.06-1.68-1.29-1.48-2.98.06-.51.49-.97.71-1.39Z"/><path class="cls-1" d="m688.46,300.41c-2.29-3.49-2.34-3.97-.7-6.38q1.41,2.21.7,6.38Z"/><path class="cls-1" d="m423.2,375.54c.29-2.34,1.87-2.82,3.22-3.66.83.42,1.63.83,2.88,1.46-2.05,1.58-3.99,1.61-6.1,2.2Z"/><path class="cls-1" d="m493.14,377.16c-.93-.85-1.6-1.18-1.76-1.66-.36-1.09-.05-2.12,1.23-3.16.17,1.56.31,2.87.53,4.83Z"/><path class="cls-1" d="m374.89,307.91c-.78.4-1.55.79-2.61,1.34-.35-1.18-.6-2.03-.85-2.87q1.98-.94,3.46,1.53Z"/><path class="cls-1" d="m557.42,244.93c1.63-.12,2.8-.27,3.98-.26.36,0,.9.38,1.04.71.13.33-.02,1.05-.28,1.19-.46.26-1.19.45-1.63.26-.94-.4-1.77-1.06-3.1-1.91Z"/><path class="cls-1" d="m910.39,542.95q3.95,1.94,2.62,5.13c-.87-1.69-1.64-3.22-2.62-5.13Z"/><path class="cls-1" d="m273.88,191.37c-1.32.43-1.88.61-2.79.9-.13-1.36-.23-2.49-.43-4.55,1.32,1.5,2.05,2.33,3.22,3.65Z"/><path class="cls-1" d="m402.65,514.38c-1.09,0-2.01.08-2.91-.03-.63-.08-1.01-1.29-.66-1.98.33-.66.95-.89,1.53-.45.69.52,1.89.49,2.03,2.46Z"/><path class="cls-1" d="m553.24,242.89c-.71,1.06-1.09,1.8-1.64,2.37-.24.25-.91.34-1.25.19-.32-.14-.67-.72-.62-1.06.07-.52.36-1.29.75-1.43.66-.24,1.46-.07,2.76-.07Z"/><path class="cls-1" d="m612.3,228.89c-.55.7-.81,1.32-1.27,1.54-.68.32-1.18-.17-1.35-.86-.23-.92.29-1.9,1.01-1.77.5.09.92.6,1.61,1.09Z"/><path class="cls-1" d="m382.39,180.86c2-.09,2.95-.27,3.86-.13.47.07,1.04.62,1.23,1.08.23.56-.93,1.18-1.76.85-.85-.34-1.62-.86-3.32-1.81Z"/><path class="cls-1" d="m333.78,186.91c1.04-.94,1.7-1.53,2.53-2.27.23.62.59,1.09.48,1.36-.71,1.63-.94,1.7-3.01.91Z"/><path class="cls-1" d="m493.03,324.97c-.2-.71-.46-1.41-.55-2.14-.04-.3.31-.66.48-.99.32.29.84.54.91.89.14.73.04,1.5.04,2.26-.29,0-.58-.02-.87-.02Z"/><path class="cls-1" d="m629.48,301.17q-2.84-1.01-2.47-3.15c1.55.25,2.38,1.05,2.47,3.15Z"/><path class="cls-1" d="m490.63,444.27c1-.88,1.46-1.43,2.05-1.73.24-.12.95.21,1.1.51.32.63.06,1.25-.72,1.35-.57.07-1.17-.05-2.43-.13Z"/><path class="cls-1" d="m640.68,316.26c-.79-.25-1.35-.42-1.87-.58-.21-1.54,1.03-1.67,1.87-2.9v3.49Z"/><path class="cls-1" d="m822.2,332.16c-.86-1.5-.91-3-.07-4.62.5.43.72.55.71.63-.2,1.33-.42,2.66-.64,3.98Z"/><path class="cls-1" d="m493.38,514.11c-.13.09-.26.24-.4.24-.89,0-1.52-.42-1.68-1.31-.04-.24.27-.53.42-.8.46.34.97.65,1.38,1.04.19.18.19.54.28.82Z"/><path class="cls-1" d="m488.72,358.4c-.17.22-.49.98-.88,1.02-.98.09-1.3-.79-1.34-1.59-.02-.36.33-.89.66-1.09.63-.38,1.44.35,1.56,1.67Z"/><path class="cls-1" d="m125.15,310.22c2.09,1.28,2.09,1.47,0,2.76v-2.76Z"/><path class="cls-1" d="m364.25,314.16c-.24-.35-.61-.7-.7-1.1-.07-.33.2-.74.31-1.11.47.29,1.03.52,1.38.92.12.14-.27.74-.48,1.1-.06.1-.28.11-.51.18Z"/><path class="cls-1" d="m265.36,442.09c-.73.57-1.12.96-1.6,1.17-.1.04-.64-.58-.73-.96-.15-.63-.02-1.41.76-1.42.41,0,.83.62,1.57,1.21Z"/><path class="cls-1" d="m811.98,410.75c-.8.41-1.38.71-1.96,1.02-.14-.41-.53-.96-.38-1.19.27-.42.81-.75,1.3-.92.16-.05.53.54,1.04,1.09Z"/><path class="cls-1" d="m370.61,532.83c1.11-.08,2.22-.15,3.86-.26q-1.68,1.01-3.86.26Z"/><path class="cls-1" d="m851.06,536.81c.42-.2.56-.32.7-.32.78-.01,1.63-.14,1.85.93.03.13-.04.34-.14.42-.83.66-1.43-.05-2.07-.4-.11-.06-.15-.26-.33-.63Z"/><path class="cls-1" d="m440.08,443.82c.51.19.88.21,1.01.39.51.73.35,1.85-.27,1.93-.31.04-.93-.37-.98-.65-.09-.51.14-1.08.24-1.67Z"/><path class="cls-1" d="m598.54,263.42c.46.41.98.65,1.03.97.05.3-.37.91-.65.95-.3.05-.88-.34-.97-.65-.09-.28.31-.71.59-1.27Z"/><path class="cls-1" d="m532.05,347.81c-.12-.28-.36-.59-.32-.85.06-.41.32-.78.49-1.17.27.14.65.21.78.43.37.63.17,1.17-.49,1.51-.13.07-.31.06-.46.09Z"/><path class="cls-1" d="m883.5,363.71c.15.71.34,1.42.42,2.14.02.16-.34.52-.51.51-.23-.02-.61-.28-.62-.47-.07-.72-.03-1.46-.03-2.19.25,0,.49,0,.74.01Z"/><path class="cls-1" d="m130.49,199.29c.26-.12.66-.4.77-.32.44.33.8.78,1.18,1.19.01.01-.24.33-.29.31-.51-.23-1.01-.48-1.5-.76-.1-.06-.11-.28-.16-.42Z"/><path class="cls-1" d="m384.29,380.02c-.15-1.45-.3-2.91-.45-4.36,1.54,1.4.61,2.89.45,4.37,0,.01,0-.01,0-.01Z"/><path class="cls-1" d="m656.42,471.31c.53,1.17.23,1.73-.59,1.97-.19.06-.48-.22-.72-.35.4-.49.8-.99,1.31-1.63Z"/><path class="cls-1" d="m497.22,522.6c-.27-.35-.65-.66-.76-1.05-.08-.3.19-.69.31-1.04.26.12.67.18.74.37.19.5.24,1.06.34,1.59-.21.04-.42.08-.63.12Z"/><path class="cls-1" d="m593.98,280.26c-.92.05-1.85.11-3.28.19q1.58-.85,3.28-.19Z"/><path class="cls-1" d="m530.85,331.17c.22-.36.4-.76.69-1.06.18-.19.51-.23.78-.33.02.39.2.88.02,1.16-.21.34-.71.49-1.08.72-.14-.16-.27-.33-.41-.49Z"/><path class="cls-1" d="m837.18,343.02c.13-.27.21-.6.4-.81.46-.51,1.08-.69,1.57-.15.19.21.09,1.07-.04,1.11-.52.17-1.11.14-1.67.15-.09,0-.17-.2-.26-.3Z"/><path class="cls-1" d="m856.14,459.76c-.25.24-.42.45-.64.59-.07.05-.35-.06-.37-.14-.12-.42-.24-.86-.24-1.29,0-.1.63-.33.65-.3.24.36.41.76.6,1.14Z"/><path class="cls-1" d="m244.12,493.95c.76-.78,1.52-.65,2.44-.15"/><path class="cls-1" d="m707.22,485.76c-.35.29-.54.46-.74.62-.23-.33-.46-.66-.67-1.01-.01-.02.28-.3.34-.27.35.18.68.41,1.07.66Z"/><path class="cls-1" d="m829.12,320.26c-.07.1-.13.25-.23.29-.08.04-.22-.04-.33-.07.07-.11.11-.27.2-.31.09-.04.23.05.35.08Z"/><path class="cls-1" d="m766.65,439.87c-.3.19-.59.47-.94.56-.18.05-.45-.23-.68-.37.4-.37.8-.74,1.21-1.12.11.25.23.51.41.92Z"/><path class="cls-1" d="m430.09,415.88c.26.23.62.46.59.54-.13.36-.37.68-.58,1.01-.28-.2-.56-.39-.84-.59.27-.32.54-.63.82-.96Z"/><path class="cls-1" d="m647.87,415.56c.18.37.44.75.38.81-.3.31-.69.54-1.05.8-.1-.28-.36-.66-.27-.82.2-.32.59-.52.94-.79Z"/><path class="cls-1" d="m317.24,191.25c-.17.16-.33.33-.5.49-.14-.17-.29-.33-.39-.53-.02-.04.19-.29.25-.27.22.06.42.2.63.31Z"/><path class="cls-1" d="m677.56,222.13c-.09-.38-.17-.72-.25-1.06.26-.04.59-.2.75-.1.18.12.32.5.27.72-.03.16-.41.24-.77.43Z"/><path class="cls-1" d="m427.42,213.87c-.18-.21-.53-.47-.49-.62.09-.34.38-.62.58-.93.12.27.34.54.33.79-.01.26-.27.5-.42.75Z"/><path class="cls-1" d="m494.35,518.89c-.24.11-.48.27-.74.3-.08,0-.2-.35-.29-.54.13-.06.29-.2.38-.16.23.09.44.26.66.4Z"/><path class="cls-1" d="m842.23,390.89c-.32.25-.6.57-.69.53-.33-.17-.63-.44-.85-.74-.05-.07.27-.41.41-.63.33.25.67.5,1.13.84Z"/><path class="cls-1" d="m344.54,526.68c-.12-.24-.38-.64-.32-.69.29-.26.65-.42.99-.62.03.29.17.63.06.85-.11.22-.48.31-.73.46Z"/><path class="cls-1" d="m871.52,543.23c-.15-.19-.31-.38-.46-.57.32-.19.65-.38.97-.58.09.27.3.6.22.79-.09.19-.48.25-.73.36Z"/><path class="cls-1" d="m647.1,567.61c-.31.27-.5.57-.64.55-.37-.07-.71-.27-1.06-.42.11-.1.23-.28.33-.27.41.01.81.08,1.37.15Z"/><path class="cls-1" d="m224.87,362.78c.23.11.46.22.68.32-.17.32-.34.64-.52.96-.19-.21-.5-.39-.55-.63-.04-.18.24-.43.38-.65Z"/><path class="cls-1" d="m618.44,356.23c.06.12.12.23.19.35-.2.05-.4.1-.6.16.02-.14.01-.3.08-.4.05-.08.22-.07.33-.1Z"/><path class="cls-1" d="m847.84,425.7c-.02.1,0,.26-.06.3-.08.06-.23.04-.34.05.03-.16.06-.32.08-.48.11.04.21.08.32.12Z"/><path class="cls-1" d="m830.82,316.22c-.14.45-.27.9-.41,1.35-.12-.07-.24-.13-.37-.2.26-.38.52-.77.78-1.16,0,0,0,0,0,0Z"/><path class="cls-1" d="m213.24,197.74c-.31.01-.63.08-.91.02-.2-.04-.35-.28-.52-.43.26-.06.57-.24.76-.15.24.11.38.44.57.67,0,0,.1-.11.1-.11Z"/><path class="cls-1" d="m262.58,196.25c.13-.04.25-.08.38-.13.04.17.07.33.11.5-.13-.02-.29,0-.4-.07-.07-.04-.06-.2-.09-.3Z"/><path class="cls-1" d="m699.5,464.61c.13-.24.22-.64.4-.68.34-.08.73.04,1.09.11.03,0,.07.29.04.3-.25.13-.5.3-.77.32-.27.03-.56-.09-.84-.15,0,0,.08.1.08.1Z"/><path class="cls-1" d="m269.44,366.71c-.1.03-.21.07-.31.1-.04-.14-.07-.28-.11-.41.14.1.28.21.42.31Z"/><path class="cls-1" d="m704.52,496.99c-.13.07-.27.22-.39.2-.27-.03-.54-.15-.81-.23.05-.13.09-.26.14-.39.31.18.62.37.93.55,0,0,.12-.14.12-.14Z"/><polygon class="cls-1" points="871.81 587.82 871.68 587.48 871.98 587.51 871.81 587.82"/><path class="cls-1" d="m689.57,277.83c-.11.03-.28.11-.31.07-.08-.1-.1-.25-.14-.38.17-.04.34-.07.51-.11-.02.14-.04.28-.06.42Z"/><path class="cls-1" d="m688.2,485.19c-.23.1-.46.21-.7.27-.05.01-.15-.2-.23-.31.22-.09.43-.2.66-.24.07-.01.18.18.26.28Z"/></g></svg>