<?xml version="1.0" encoding="UTF-8"?><svg id="Calque_1" xmlns="http://www.w3.org/2000/svg" viewBox="0 0 1646.61 766.36"><defs><style>.cls-1{fill:#ffffff;}</style></defs><path class="cls-1" d="m92.41,215.05c4.92-21.17,22.15-37.24,43.42-41.69,37.21-7.78,85.58-22.21,201.35-28.89,162.78-9.39,158.09-6.26,183.13-12.52,25.04-6.26,86.09-10.96,115.83-17.22,19.31-4.07,47.86-2.85,65.51-1.5,10.42.8,19.45,7.47,23.33,17.18,4.68,11.72,8.9,27.34,3.5,37.12-16.44,29.77-104.87,29.77-178.43,29.77s-98.61,9.78-100.17,22.3,14.09,176.87,4.7,208.17,3.13,34.43-4.7,84.52-3.13,67.3-3.13,78.26,17.22,56.35-26.61,59.48-43.83-14.09-53.22-25.04,3.91-126,5.48-152.61-6.26-115.83-8.61-144.78,6.26-104.09,1.57-110.35-102.39,6.26-122.74,13.3c-20.35,7.04-50.87,31.3-81.39,30.52s-51.65-20.35-64.96-27.39c-5.24-2.77-5.85-10.08-3.86-18.63Z"/><path class="cls-1" d="m540.01,367.02s36.65-16.92,71.87-25.05,42.26-14.39,61.04-19.08,49.8-8.77,57.63,4.53,31.59,47.9,26.89,101.12,2.35,88.43,13.3,105.65,40.7,68.87,18,83.74-39.91,8.61-72,7.04-34.43-5.48-66.52,1.57-72-18-79.04-32.09-2.35-28.96,43.04-36.78,84.52-11.74,81.39-24.26-19.57-59.48-15.65-80.61-2.35-29.74-27.39-33.65-46.96,17.22-75.14,8.14c-13.18-4.25-32.07-22.22-39.9-30.05s-8.48-20.83,2.48-30.22Z"/><path class="cls-1" d="m987.87,253.44c9.22,38.23,17.66,39.71,21.58,53.8s13.48,16.43,23.65,15.65,41.48-72.78,49.3-92.35c7.83-19.57,7.65-40.7,23.3-43.83,15.65-3.13,35.22-14.87,50.09-18.78,14.87-3.91,43.04,18.78,37.57,95.48s3.91,143.22,5.48,168.26,5.48,94.7,7.83,108.78,12.52,6.26,12.52,21.91,3.13,61.93-21.13,65.4-36.78-2.79-57.91-19.22-17.22-75.91-21.91-120.52,4.47-126.86-3.91-129.91-19.5,31.3-31.3,56.35-43.04,35.22-73.57,17.22-56.35-76.7-60.26-60.26-3.13,126.78,0,141.65,24.26,37.57,18.78,57.91-21.91,50.87-46.96,33.65-43.83-24.26-48.52-82.17-10.17-99.39-10.17-128.35-.59-146.35-.78-156.52c-.4-21.13,21.77-26.16,33.39-37.57,14.09-13.83,51.91-32.09,67.57-2.74,15.65,29.35,20.1,34.27,25.38,56.16Z"/><path class="cls-1" d="m1307.62,197.29c16.45-17.71,25.83-18.45,50.48-29.77,24.65-11.32,62.35,21.68,65.87,27.55s32.61,78.26,34.96,106.43,51.39,156.13,53.74,173.74,39.39,102.78,41.74,116.87,2.61,51.26-39.65,45.39-47.22-10.3-54.26-44.35-43.7-173.84-50.74-195.05-19.96-76.26-32.87-72.86-11.18,81.03-12.91,112.7c-7.3,133.83,13.96,178.43,5.74,194.87s-27.73,31.7-65.74,13.04c-34.96-17.15-20.92-58.66-18.65-119.87,1.96-52.79,3.52-167.87,7.04-206.61s0-105.65,15.26-122.09Z"/></svg>