<?xml version="1.0" encoding="UTF-8"?>
<svg id="Layer_1" data-name="Layer 1" xmlns="http://www.w3.org/2000/svg" viewBox="0 0 400 400">
  <defs>
    <style>
      .cls-1 {
        fill: #fff;
      }
    </style>
  </defs>
  <path class="cls-1" d="m200.4,39.32c-.19-1.73-.98-3.17-2.27-4.29-3.68-3.18-8.07-4.87-12.73-5.94-.17-.11-.35-.22-.52-.33-1.48-.17-2.99-.22-4.43-.54-5.12-1.17-10.23-.35-15.32.11-3.26.29-6.49,1.01-9.75,1.3-5.6.5-11.23.33-16.82,1.06-3.88.51-7.81.69-11.71,1.02-.19.12-.37.25-.56.37-2.14.16-4.28.33-6.43.46-3.17.19-6.36.27-9.52.56-2.35.21-4.67.66-7.01,1.01-.18.13-.36.25-.53.38-.88,0-1.79-.14-2.62.05-4.49,1.05-8.96,2.16-13.43,3.28-3.28.82-6.54,1.68-9.81,2.53-.17.13-.35.26-.52.38-.46.07-.93.08-1.36.22-2.91.96-5.81,1.94-8.72,2.91-2.71.91-5.41,1.81-8.12,2.72-.17.13-.35.26-.52.39-.63.19-1.25.38-1.88.57-.18.13-.37.26-.55.38-1.58.67-3.15,1.35-4.73,2.02-.16.13-.33.26-.49.4-.48.19-.95.37-1.43.56-.16.13-.32.27-.48.4-3.75,1.74-5.04,4.85-4.88,8.78.05,1.12-.1,2.25.04,3.35.24,1.8.39,3.68,1.01,5.36,2.38,6.48,5.79,12.39,10.25,17.71,3.58,4.27,8.03,6.6,13.65,6.56,1.36,0,2.74-.16,4.07.02,1.63.22,3.28.57,4.82,1.14,1.51.55,2.3,1.93,2.74,3.43.39,1.33.67,2.7.99,4.06.11.49.23.98.34,1.48.06.95.11,1.9.17,2.84.12.33.23.65.35.98.19,1.55.39,3.11.58,4.66.31,2.48.78,4.95.9,7.43.2,4.19,1.96,7.94,3,11.89.12.17.23.35.35.52,0,.15.03.3.1.44l.38.53c.2.62.4,1.24.59,1.87.13.16.26.32.38.48.67,1.44,1.34,2.88,2.02,4.32.13.15.26.3.39.45,1.25,2.22,2.58,4.41,3.75,6.67,1.7,3.3,3.78,6.24,6.68,8.64,1.96,1.62,3.8,3.43,5.41,5.4,1.96,2.4,3.57,5.09,5.43,7.58,3.21,4.3,6.89,8.14,11.27,11.31,2.58,1.87,5.08,1.62,7.55-.02,1.11-.74,2.15-1.66,3.04-2.66,3.99-4.48,6.22-9.98,8.79-15.28.13-.17.26-.33.38-.5.84-1.8,1.71-3.59,2.5-5.41,2.19-5.06,4.42-10.1,6.49-15.2,1.52-3.74,2.29-7.7,3.07-11.67.77-3.91.86-7.66-.66-11.42-.61-1.51-.85-3.17-1.26-4.76.14-.13.28-.26.43-.39,2.37.29,4.74.63,7.12.86,2.49.24,4.99.38,7.49.54,2.68.17,5.36.48,8.04.44,4.13-.07,7.46-1.8,9.7-5.4,2.69-4.32,4.79-8.91,6.17-13.82.12-.17.24-.34.36-.52,1.94-7.28,3.69-14.61,4.96-22.05l.32-.52c.08-.62.08-1.26.24-1.86,1.3-4.72,1.78-9.57,2.26-14.42.13-.18.25-.35.38-.53.16-1.93.41-3.86.46-5.8.08-2.98.01-5.97.01-8.96-.11-.18-.22-.36-.33-.54Z"/>
  <path class="cls-1" d="m349.16,296.59c-1.32-2.06-2.55-4.18-3.98-6.16-3.51-4.85-7.27-9.53-10.64-14.48-5.52-8.12-10.84-16.39-16.2-24.62-3.4-5.22-6.71-10.49-10.06-15.74l-.38-.44-2.04-4.78c-.13-.17-.26-.33-.38-.5-.08-.13-.12-.27-.11-.43-.12-.18-.23-.35-.35-.53-.92-1.75-1.67-3.61-2.79-5.22-1.67-2.39-4.12-3.35-7.04-2.86-4.4.74-8.79,1.61-13.2,2.29-5.12.79-10.08,2.2-14.95,3.9-1.4.49-2.68,1.33-3.98,2.07-1.34.76-2.66,1.35-4.28,1.14-.92-.12-1.88.11-2.82.18-.49.1-.99.2-1.48.31l-.92.23c-.33.1-.66.2-.98.3-2.23.53-4.47,1.05-6.7,1.58-.17.13-.35.25-.52.38-.47.03-.93.06-1.4.09-.19.12-.37.25-.56.37l-5.68,1.55c-.16.13-.32.26-.48.39-1.93.94-3.42,2.33-4.32,4.31-.13.16-.25.32-.38.49-.18.42-.42.83-.52,1.27-.86,3.71-.35,7.47-.38,11.21.25,1.13.49,2.26.74,3.39.22.95.45,1.9.67,2.85.1.33.21.65.31.98.06.64.11,1.27.17,1.91.11.17.22.35.33.52.41,2.39,1.7,4.44,2.52,6.67.13.15.26.3.39.45.19.49.39.98.58,1.46.03.32.06.65.09.97-.07.16-.13.31-.2.47-.13.16-.26.32-.38.48-.69,1.72-1.37,3.45-2.06,5.17-.23.21-.57.38-.68.64-1.23,3.01-2.43,6.03-3.63,9.05,0,0,0,0,0,0-.12.16-.24.33-.36.49-.21.74-.43,1.48-.64,2.22-.26.28-.64.52-.77.86-1.02,2.49-2.02,4.98-2.96,7.49-.53,1.41-.93,2.87-1.39,4.31-.19.47-.39.94-.58,1.41-.12.17-.24.33-.36.5-.04.3-.09.61-.13.91-.12.18-.24.35-.36.53-.04.3-.09.59-.13.89-.12.18-.24.37-.35.55-.36,1.43-.71,2.86-1.07,4.28-.12.17-.25.34-.37.52-.52,1.43-1.03,2.86-1.55,4.28-.12.17-.23.34-.35.52-.05.31-.09.61-.14.92-.12.17-.25.35-.37.52-.2.63-.39,1.26-.59,1.9-.12.17-.24.34-.36.5-.06.31-.12.63-.18.94-.5,1.08-1.07,2.14-1.47,3.26-.79,2.22-1.92,4.36-1.91,6.81-.29.97-.58,1.93-.87,2.9-.13.17-.26.33-.39.5-.03,4.32-.92,8.65,0,12.97.13.18.25.36.38.54.68,3.28,1.85,6.34,3.85,9.06.31.53.61,1.05.92,1.58,2.43,4.81,6.25,8.14,11.06,10.43.17.13.34.26.5.39.79.22,1.58.45,2.37.67,1.95,1.29,3.89.82,5.84-.01,3.56-.92,6.54-2.54,7.73-6.34.13-.17.25-.34.38-.51.2-.63.39-1.26.59-1.89.12-.16.25-.33.37-.49.51-.96,1.03-1.91,1.54-2.87.12-.18.24-.35.37-.53.04-.3.09-.61.13-.91.12-.18.23-.35.35-.53.2-.62.39-1.25.59-1.87.12-.18.25-.35.37-.53.05-.31.09-.61.14-.92.11-.17.23-.34.34-.51,0-.16.03-.31.11-.44.13-.17.25-.33.38-.5.35-.95.71-1.91,1.06-2.86.13-.17.25-.33.38-.5.19-.47.38-.95.57-1.42.13-.18.25-.35.38-.53.85-1.9,1.69-3.81,2.54-5.71.12-.14.25-.28.37-.42,1.79-3.86,3.57-7.72,5.36-11.58.13-.16.25-.33.38-.49.67-1.59,1.35-3.19,2.02-4.78.13-.17.25-.34.38-.5.36-.95.72-1.91,1.07-2.86.12-.18.23-.36.35-.54-.02-.15.02-.29.1-.42.13-.19.27-.38.4-.57.44-.77,1-.72,1.52-.15.37.41.63.92.94,1.38,3.36,5.05,6.74,10.1,10.08,15.16,8.61,13.04,20.08,22.81,34,29.78l.48.39c1.53.67,3.05,1.38,4.6,2,.98.39,2.02.66,3.03.98.18.13.35.25.53.38.31.03.62.06.93.1.17.11.34.22.51.33.47.06,1,0,1.41.18,2.35,1.04,4.6.12,6.81-.41,2.67-.64,4.61-2.48,5.95-4.81,1.36-2.37,2.48-4.87,3.7-7.31.13-.15.26-.29.4-.44.99-2.57,1.98-5.15,2.97-7.72.12-.18.24-.36.36-.53.71-2.68,1.49-5.34,2.1-8.04.42-1.83.58-3.71.9-5.56.42-2.44.96-4.87,1.32-7.32.27-1.87.11-3.83.56-5.64,1.11-4.45.94-8.97,1.13-13.47.16-3.96-.38-7.84-1.2-11.7-.13-.18-.25-.35-.38-.53Z"/>
  <path class="cls-1" d="m356.25,114.66c.13-3.01.44-6.02.34-9.03-.12-3.87-.56-7.72-.86-11.58.73-.8.97-1.5-.34-1.94-.03-.64-.06-1.28-.09-1.91.64-.74.86-1.42-.26-1.93-.08-.47-.16-.95-.24-1.42.72-.62.72-1.12-.24-1.46-.06-.32-.12-.64-.18-.97-.13-.48-.26-.95-.39-1.43-.05-.46-.1-.91-.15-1.37-.11-.18-.22-.36-.32-.54-.39-1.7-.78-3.41-1.17-5.11-.3-1.33-.61-2.67-.91-4,.72-.54.41-.8-.26-.98-.07-.3-.14-.61-.21-.91-.11-.17-.23-.34-.34-.52-.05-.32-.09-.64-.14-.96.72-.57.36-.81-.29-.97l-.2-.89c-.11-.18-.23-.36-.34-.54-.04-.31-.08-.62-.12-.92-.12-.17-.23-.34-.35-.52-.04-.31-.08-.63-.12-.94-.11-.17-.23-.33-.34-.5-.85-2.71-1.7-5.42-2.55-8.13-.12-.17-.24-.34-.35-.52-.2-.64-.4-1.27-.6-1.91l-.36-.49c-.2-.64-.4-1.27-.59-1.91-.12-.16-.25-.33-.37-.49-1.59-3.75-3.5-7.33-6.67-9.95-2.12-1.76-4.57-3.12-6.87-4.67-.24-.96-.98-.72-1.64-.68-.57-.23-1.14-.42-1.69-.69-1.62-.78-3.22-1.58-4.83-2.37-.22-.84-.69-.9-1.34-.44-4.98-1.56-10.08-2.36-15.3-2.27-3.26.06-6.51.35-9.77.54-.49.09-.98.19-1.47.28.33.39.62.58.87.54-.25.04-.54-.15-.87-.54-.47.06-.94.13-1.41.19-.64.11-1.29.22-1.93.33h0c-2.23.35-4.5.56-6.7,1.07-3.52.81-7.22.88-10.58,2.4-.16.13-.32.26-.49.4-1.12.51-2.24,1.02-3.35,1.52-.15.13-.31.27-.46.4-2.25,1.47-4.49,2.93-6.74,4.4l-.44.41c-3.72,2.19-7.12,4.78-10.24,7.76-5.12,4.89-10.17,9.87-14,15.88-1.17,1.84-1.82,4.02-2.71,6.04-.11.18-.22.36-.34.54-.05.32-.1.64-.16.96-.09.33-.18.65-.27.98-.22.79-.44,1.57-.67,2.36-.11.17-.23.34-.34.51-.21.95-.41,1.9-.62,2.84-.11.17-.22.34-.33.52-.38,1.89-.75,3.79-1.13,5.68-.11.19-.23.37-.34.56-.04.31-.08.62-.11.93-.11.17-.23.34-.34.51-.05.45-.11.91-.16,1.36-.12.19-.23.37-.35.56-.52,2.54-1.05,5.07-1.57,7.61-.12.18-.24.37-.35.55-.04.3-.08.6-.12.9-.12.18-.23.36-.35.54-.3.97-.64,1.93-.9,2.92-.41,1.57-.76,3.14-1.14,4.72-.12.17-.24.35-.36.52-.21,1.41-.42,2.82-.62,4.23-.11.19-.23.38-.34.57-.04.3-.08.6-.12.91-.12.18-.24.36-.35.53-.19.64-.39,1.29-.58,1.93-.12.16-.25.31-.37.47-.88,2.7-2.34,4.95-4.91,6.33-.15.14-.29.27-.44.41-.49.18-.99.37-1.48.55-.17.13-.33.26-.5.39-2.07.51-4.15,1.01-6.22,1.52-.18.13-.36.26-.54.38-1.85.79-3.54,1.77-4.28,3.8-.12.18-.25.35-.37.53l-.58,1.42c-.12.17-.25.33-.37.5-.04.3-.09.59-.13.89-.12.18-.23.37-.35.55-.16,1.76-.31,3.53-.47,5.29.12.17.23.35.35.52.04.31.08.61.13.92.12.18.23.36.35.53.53,1.74,1.05,3.48,1.58,5.23.12.17.23.35.35.52.04.31.09.61.13.92.12.17.23.35.35.52.04.31.09.61.13.92.12.17.24.34.36.51.04.31.09.62.13.93.11.17.23.35.34.52.2.62.4,1.25.6,1.87.12.17.24.35.37.52.2.63.4,1.25.6,1.88.12.18.24.36.36.54-.01.15.02.29.1.42.13.18.26.35.38.53.68,1.58,1.36,3.17,2.04,4.75.13.15.26.29.39.44,1.63,3.05,3.25,6.11,4.88,9.16.13.15.26.31.4.46.51.97,1.01,1.93,1.52,2.9.13.16.27.32.4.48,3.47,6.1,9.22,9.7,14.82,13.46.18.13.35.26.53.39l.89.1c.18.12.36.25.55.37,2.48.02,4.98.29,7.42.02,3.95-.44,7.9-1.07,11.78-1.92,2.36-.52,4.79-.4,7.14-1.28,2.08-.77,4.45-.76,6.69-1.09.19-.12.38-.24.56-.37.83-.19,1.66-.37,2.48-.56,4.08-.96,8.16-1.88,12.22-2.89,3.71-.92,7.4-1.94,11.1-2.92.2-.12.4-.24.59-.36,1.6-.36,3.19-.71,4.79-1.07h0c.64.76.84.31.98-.35,1.09-.2,2.19-.41,3.28-.61.18-.11.37-.23.55-.34,3.83-1,7.66-2,11.49-3,.17-.13.34-.26.51-.39l2.37-.58.51-.38c.31-.03.61-.07.92-.1.17-.13.35-.26.52-.38.63-.19,1.26-.38,1.89-.57.17-.13.34-.26.51-.39,3.41-1.11,6.52-2.83,9.4-4.93,4.55-3.32,8.31-7.36,10.88-12.44.13-.14.26-.28.39-.41.66-1.3,1.33-2.6,1.99-3.91.12-.18.25-.35.37-.53.2-.62.4-1.25.6-1.87.13-.15.26-.29.39-.44.51-.97,1.01-1.95,1.52-2.92.13-.16.26-.33.39-.49.05-.32.1-.64.15-.96.11-.16.22-.32.33-.49.38-.95.76-1.91,1.14-2.86h0c.69-.17,1-.44.25-.98h0c.7-2.24,1.4-4.47,2.1-6.71.11-.18.23-.35.34-.53l.2-.9c1.14-.44.91-1.15.38-1.92v-.48c1-.2,1.09-.7.48-1.44,0-.16,0-.32,0-.48.67-.13,1.13-.34.34-.98.06-.47.13-.94.19-1.42h0c1.04-.3,1.06-.8.29-1.46.04-.63.09-1.27.13-1.9,1.12-.72,1.17-1.06.38-2.41Zm-28.44-50.99c-.92,1.92-1.59,3.95-2.45,5.9-.93,2.12-2.36,3.76-4.64,4.53-1.56.53-2.97.39-4.28-.66-1.06-.84-2.15-1.64-3.19-2.5-.43-.35-.9-.72-1.16-1.19-1.62-2.92-3.32-5.82-4.72-8.84-.76-1.64-.93-3.51-.25-5.37.37-1,.31-2.17.74-3.13,1.02-2.28,3.36-2.47,5.39-3,2.05-.54,4.17-.84,6.26-1.25,1.7-.33,3.32-.26,4.75.91.42.34.9.66,1.4.84,3.01,1.05,3.8,2.09,3.82,5.19,0,.32,0,.64,0,.96.08,2.68-.51,5.18-1.67,7.61Z"/>
  <path class="cls-1" d="m354,82.99c.13.48.26.95.39,1.43.68-.7.59-1.19-.39-1.43Z"/>
  <path class="cls-1" d="m190.86,247.15c-.51-2.8-1.1-5.58-1.52-8.39-.39-2.6-1.98-4.38-3.78-6.07-2.35-2.62-5.31-3.78-8.8-3.69-4.35-.45-8.65.02-12.95.59l-.97.27c-1.09.18-2.2.28-3.26.56-3.7.98-7.39,2.01-11.08,3.03-2.1.58-4.2,1.18-6.3,1.77-.18.13-.36.25-.54.38l-6.18,2.5c-.18.13-.35.25-.53.38-.46.09-.95.09-1.36.27-2.87,1.23-5.79,2.38-8.57,3.78-2.7,1.36-4.87.31-6.78-1.32-2.04-1.76-3.82-3.83-5.66-5.8-1.25-1.34-2.44-2.74-3.64-4.13-4.01-4.64-8.11-9.22-12-13.96-2.98-3.63-5.66-7.51-8.54-11.23-2.45-3.17-5.7-4.91-9.73-4.58-3.06.25-6.12.74-9.12,1.4-6.2,1.37-10.58,5.43-14.02,10.44-4.33,6.3-6.06,13.65-7.32,21.03-.88,5.15-1.08,10.41-1.58,15.62-.11.97-.23,1.94-.34,2.9-.38,5.07-.79,10.13-1.14,15.2-.16,2.29-.18,4.58-.27,6.88-.17,3.18-.44,6.36-.5,9.54-.14,6.55-.38,13.11-.2,19.65.2,7.16.7,14.32,1.3,21.46.28,3.4.72,6.85,2.16,10.02,2.23,4.92,4.54,9.79,6.82,14.69.13.17.26.33.39.5.35.79.7,1.59,1.05,2.38.13.16.26.33.4.49.78,1.16,1.77,2.24,2.29,3.51.76,1.86,2.14,2.78,3.9,3.37,1.51.86,3.01,1.76,4.86,1.66.64.18,1.27.36,1.91.53.66.76.85.28.97-.37.46-.04.92-.07,1.37-.11.18-.13.36-.26.54-.38,1.42-.85,3.29-1.1,3.96-2.96.12-.12.24-.24.35-.35.35-.52.69-1.04,1.04-1.56.13-.17.26-.34.4-.51.19-.47.38-.94.57-1.41.13-.17.26-.33.39-.5.43-1.1.74-2.25,1.31-3.27,1.1-1.98,2.33-3.88,3.51-5.82.58-.53,1.19-1.04,1.75-1.59.89-.87,1.94-1.24,3.19-1.27,1.45-.03,2.8.14,4.1.89.57.33,1.32.34,1.99.5l.07.13.14-.02c.41.27.82.53,1.23.8,2.42,2.07,4.8,4.19,7.27,6.2,3.46,2.8,7,5.52,10.5,8.27.15.14.3.28.46.41,2.8,2.18,5.83,3.96,9.08,5.37.17.13.35.26.52.38,1.58.52,3.16,1.03,4.74,1.55.18.12.36.25.54.37,4.39.87,8.69.45,12.93-.89.17-.13.34-.26.52-.39.29-.08.6-.13.87-.26,4.24-1.92,6.92-5.31,8.83-9.42.13-.15.26-.31.39-.46l.58-1.46c.12-.14.25-.28.37-.43.34-.66.69-1.31,1.03-1.97.14-.14.27-.28.41-.42.17-.14.35-.29.52-.43.94.02,1.88.04,2.83.06.96.59,1.92,1.18,2.87,1.77.03.62.22,1.07.98.89.47.62.94,1.09,1.85,1.15,3.42.22,6.13-.84,7.83-3.97.13-.15.27-.3.4-.44.45-1.14.91-2.28,1.36-3.42-.61,0-1.23.02-1.84.03-.48,0-.96,0-1.44,0,.48,0,.96,0,1.44,0,.61,0,1.23-.02,1.84-.03,0,0,.17.06.17.06.12-.2.23-.4.35-.6-.02-.15,0-.28.1-.39.13-.18.26-.37.39-.55.21-.78.41-1.56.62-2.33.12-.16.24-.32.36-.49.33-1.11.66-2.22,1-3.34,1.24-4.32,2.47-8.65,3.71-12.97.05-.31.1-.63.15-.94.1-.33.2-.65.3-.98,2.13-7.23,3.4-14.63,4.48-22.07,1.33-3.41,1.01-7.06,1.47-10.6.27-2.07,0-4.25.51-6.25.76-3.01.91-6.03.96-9.08.13-.17.26-.33.39-.5.15-2.23.3-4.47.46-6.7.37-2.7.83-5.4,1.1-8.12.39-4,1.07-8,.65-12.04-.05-.35-.1-.7-.15-1.05.08-.1.14-.21.19-.33.76-.45.66-.79-.14-1.03Zm-3.34,17.86c-.04-.1.1-.26.15-.39,0,0,0,0,0,0-.06.13-.19.3-.15.39Z"/>
</svg>