<svg width="152" height="152" viewBox="0 0 152 152" fill="none" xmlns="http://www.w3.org/2000/svg">
<g clip-path="url(#clip0_414_1389)">
<path d="M65.5363 4.0459C65.8438 4.16608 66.0763 4.33133 66.2338 4.53413C66.3838 4.73693 66.4888 5.01484 66.5488 5.36787C66.6013 5.71339 66.5488 6.04388 66.4063 6.35184C66.2563 6.66731 66.0313 6.9302 65.7163 7.14051C65.4014 7.35083 65.0339 7.49354 64.6139 7.56114C64.1714 7.62874 63.7665 7.62874 63.4065 7.56114C63.0465 7.49354 62.754 7.35834 62.5291 7.16305C62.3041 6.96776 62.1766 6.7274 62.1241 6.43446C62.0866 6.1941 62.1241 5.98379 62.2366 5.81103C62.3491 5.63827 62.5216 5.54063 62.7465 5.50307C62.9715 5.46552 63.159 5.50307 63.3165 5.60823C63.474 5.71339 63.564 5.86361 63.6015 6.06641C63.624 6.1941 63.609 6.31428 63.5715 6.44197C63.804 6.54713 64.0815 6.56966 64.3889 6.52459C64.7264 6.47202 64.9739 6.36686 65.1314 6.20912C65.2889 6.05139 65.3489 5.86361 65.3114 5.63076C65.2889 5.49556 65.2439 5.3904 65.1764 5.31529C65.1089 5.24018 64.9964 5.18009 64.8389 5.12751C64.6814 5.07493 64.4489 5.02987 64.1264 4.9848C63.5865 4.90218 63.1515 4.79702 62.8215 4.66933C62.4916 4.54164 62.2366 4.36888 62.0641 4.15857C61.8916 3.94825 61.7716 3.67034 61.7191 3.33234C61.6591 2.9718 61.7116 2.63379 61.8616 2.32584C62.0116 2.01788 62.2516 1.75498 62.5816 1.54467C62.9115 1.33436 63.3015 1.19164 63.7515 1.12404C64.1339 1.06395 64.4864 1.07147 64.8089 1.14658C65.1239 1.22169 65.3864 1.35689 65.5888 1.55218C65.7913 1.74747 65.9188 1.98783 65.9638 2.26575C66.0013 2.5061 65.9638 2.71642 65.8438 2.88918C65.7238 3.06193 65.5513 3.15958 65.3264 3.19713C65.1089 3.23469 64.9214 3.19713 64.7564 3.09198C64.5989 2.98682 64.5014 2.8366 64.4714 2.63379C64.4489 2.5061 64.4639 2.38593 64.5014 2.25823C64.3589 2.15308 64.1189 2.12303 63.7965 2.17561C63.504 2.22068 63.2865 2.31832 63.1365 2.47606C62.9865 2.63379 62.9265 2.82157 62.964 3.0394C62.9865 3.18211 63.039 3.29478 63.114 3.3774C63.189 3.46003 63.3165 3.52763 63.4815 3.58021C63.654 3.63278 63.9015 3.68536 64.2314 3.73794C64.7939 3.82056 65.2289 3.91821 65.5363 4.0459Z" fill="black"/>
<path d="M73.141 4.72953C73.261 4.81215 73.321 4.91731 73.3285 5.05251C73.3285 5.12762 73.3285 5.21775 73.2985 5.32291C73.2685 5.42807 73.2385 5.53322 73.186 5.62336C72.991 6.00643 72.7285 6.29185 72.406 6.49466C72.0835 6.68995 71.6861 6.81013 71.2061 6.84017C70.6511 6.87773 70.1562 6.77257 69.7362 6.53221C69.3087 6.29185 68.9713 5.92381 68.7238 5.44309C68.4763 4.96237 68.3263 4.39152 68.2813 3.73054C68.2363 3.06955 68.3113 2.49119 68.4913 2.00296C68.6788 1.50722 68.9638 1.12415 69.3537 0.838725C69.7437 0.560811 70.2237 0.395565 70.7936 0.36552C71.2061 0.335475 71.5886 0.380542 71.9336 0.49321C72.2785 0.605878 72.556 0.778636 72.766 1.00397C72.976 1.22931 73.0885 1.4922 73.111 1.78514C73.126 2.03301 73.066 2.23581 72.9385 2.39354C72.811 2.55128 72.631 2.64141 72.3985 2.65644C72.181 2.67146 71.9936 2.61888 71.8436 2.4987C71.6936 2.37852 71.6111 2.22079 71.6036 2.01798C71.5961 1.86025 71.6186 1.72505 71.6861 1.60487C71.4836 1.45464 71.2136 1.39455 70.8836 1.40958C70.3812 1.43962 70.0212 1.63491 69.8112 1.99545C69.6012 2.35599 69.5187 2.89679 69.5637 3.61787C69.6612 5.12011 70.2087 5.84118 71.2211 5.78109C71.4761 5.76607 71.6861 5.69847 71.8511 5.57078C72.0236 5.4506 72.1585 5.26282 72.2635 5.02246C72.3235 4.87224 72.391 4.77459 72.4585 4.7145C72.526 4.66192 72.6235 4.62437 72.7435 4.61686C72.8935 4.60935 73.0285 4.63939 73.141 4.72201V4.72953Z" fill="black"/>
<path d="M80.6703 6.05148L80.6554 6.40451C80.6554 6.52469 80.6104 6.61482 80.5354 6.6674C80.4604 6.71998 80.3629 6.75002 80.2429 6.74251L79.2155 6.71247C79.148 6.71247 79.088 6.68993 79.0355 6.65989C78.9755 6.62233 78.938 6.57726 78.908 6.51717L78.0755 4.93231C77.9555 4.71449 77.858 4.54924 77.783 4.45159C77.7081 4.34644 77.6181 4.27884 77.5206 4.24128C77.4231 4.20373 77.2881 4.18119 77.1156 4.18119H76.8606L76.8156 5.58579H76.9806C77.2356 5.60081 77.3631 5.72099 77.3556 5.95383V6.30686C77.3331 6.53971 77.2056 6.65238 76.9431 6.64486L75.3607 6.59229C75.2407 6.59229 75.1432 6.55473 75.0757 6.49464C75.0082 6.43455 74.9707 6.34442 74.9782 6.22424V5.87121C74.9932 5.75103 75.0307 5.6609 75.1057 5.60832C75.1807 5.55574 75.2782 5.5257 75.3982 5.53321H75.5632L75.6982 1.34196H75.5332C75.4132 1.33445 75.3157 1.3044 75.2482 1.24431C75.1807 1.18422 75.1432 1.09409 75.1507 0.973911L75.1657 0.620884C75.1657 0.500705 75.2107 0.410571 75.2857 0.357992C75.3607 0.305414 75.4507 0.275369 75.5707 0.28288L77.7755 0.350481C78.548 0.373015 79.1255 0.545772 79.5154 0.868754C79.8979 1.18422 80.0854 1.64992 80.0629 2.25081C80.0479 2.66393 79.9279 3.01696 79.6954 3.30238C79.4629 3.58781 79.148 3.79061 78.7505 3.91079C78.8555 3.96337 78.953 4.03848 79.0355 4.14364C79.118 4.24879 79.208 4.38399 79.2979 4.55675L79.8829 5.69094L80.2954 5.70596C80.5579 5.71348 80.6853 5.83366 80.6778 6.0665L80.6703 6.05148ZM77.5656 3.12962C77.9705 3.14465 78.2705 3.07705 78.4655 2.92682C78.653 2.7766 78.758 2.54375 78.7655 2.22077C78.773 1.95788 78.6905 1.75508 78.518 1.61987C78.3455 1.48467 78.068 1.40956 77.6856 1.40205L76.9581 1.37952L76.9056 3.10709L77.5731 3.12962H77.5656Z" fill="black"/>
<path d="M83.0551 6.72756C82.6726 6.4196 82.3951 6.02151 82.2301 5.51826C82.0726 5.01501 82.0277 4.44416 82.1176 3.79068C82.2076 3.11468 82.4026 2.55134 82.7026 2.08564C83.0026 1.61995 83.3926 1.28946 83.865 1.07163C84.3375 0.853806 84.87 0.793717 85.4624 0.87634C86.0324 0.951452 86.5123 1.13923 86.8948 1.44719C87.2773 1.75515 87.5548 2.15324 87.7123 2.65649C87.8697 3.15974 87.9147 3.73059 87.8248 4.38407C87.7348 5.05257 87.5398 5.61591 87.2398 6.0816C86.9398 6.54729 86.5498 6.8853 86.0774 7.09561C85.6049 7.30592 85.0724 7.37353 84.4875 7.29841C83.91 7.2233 83.4301 7.03552 83.0401 6.72756H83.0551ZM85.9274 5.84875C86.2499 5.50324 86.4598 4.96243 86.5573 4.21882C86.7373 2.82174 86.3249 2.06311 85.3124 1.92791C84.78 1.86031 84.36 1.99551 84.03 2.33351C83.7075 2.67903 83.4975 3.21232 83.4001 3.94842C83.2126 5.35301 83.6325 6.12667 84.6375 6.25436C85.1699 6.32196 85.5899 6.18676 85.9199 5.84875H85.9274Z" fill="black"/>
<path d="M93.8768 7.05034C93.9143 7.13296 93.9218 7.23061 93.8918 7.35079L93.6218 8.50751C93.5918 8.6352 93.5244 8.73285 93.4119 8.80045C93.3069 8.86805 93.1794 8.88307 93.0519 8.85303L89.3471 7.98924C89.2271 7.9592 89.1446 7.91413 89.0847 7.83902C89.0247 7.7639 89.0097 7.67377 89.0397 7.55359L89.1222 7.20808C89.1522 7.0879 89.2046 7.01278 89.2871 6.97523C89.3696 6.93767 89.4671 6.93016 89.5871 6.96021L89.7446 6.99776L90.697 2.90416L90.5396 2.8666C90.4196 2.83656 90.3371 2.79149 90.2771 2.71638C90.2171 2.64127 90.2021 2.55113 90.2321 2.43095L90.3146 2.08544C90.3446 1.96526 90.3971 1.89015 90.4796 1.85259C90.5621 1.81504 90.6595 1.80752 90.772 1.83006L92.6919 2.27322C92.8044 2.29575 92.8869 2.34833 92.9469 2.42344C93.0069 2.49855 93.0219 2.58869 92.9919 2.70887L92.9094 3.05438C92.8794 3.17456 92.8269 3.24967 92.7444 3.28723C92.6619 3.32479 92.5644 3.3323 92.4519 3.30976L91.927 3.18958L90.9745 7.28319L92.7369 7.6963L92.8719 7.11043C92.9019 6.99025 92.9469 6.90763 93.0219 6.84754C93.0969 6.78745 93.1869 6.77243 93.3069 6.80247L93.6518 6.88509C93.7718 6.91514 93.8468 6.96772 93.8843 7.05034H93.8768Z" fill="black"/>
<path d="M99.9216 8.95827C99.9516 9.04841 99.9516 9.14605 99.9141 9.25872L99.5391 10.3854C99.5016 10.5131 99.4191 10.6032 99.3067 10.6633C99.1942 10.7234 99.0742 10.7309 98.9392 10.6858L95.3244 9.49157C95.2119 9.45401 95.1294 9.39392 95.0769 9.31881C95.0244 9.2437 95.0169 9.14605 95.0544 9.03338L95.1669 8.70289C95.2044 8.59022 95.2644 8.51511 95.3544 8.48507C95.4369 8.45502 95.5419 8.45502 95.6544 8.49258L95.8119 8.54516L97.1243 4.55671L96.9668 4.50413C96.8543 4.46658 96.7718 4.40649 96.7193 4.33137C96.6668 4.25626 96.6593 4.15862 96.6968 4.04595L96.8093 3.71546C96.8468 3.60279 96.9068 3.52768 96.9968 3.49763C97.0793 3.46759 97.1768 3.46759 97.2893 3.49763L99.1642 4.11355C99.2692 4.15111 99.3516 4.20368 99.4041 4.2788C99.4566 4.35391 99.4641 4.45155 99.4266 4.56422L99.3141 4.89471C99.2766 5.00738 99.2167 5.08249 99.1267 5.11254C99.0367 5.14258 98.9392 5.14258 98.8342 5.11254L98.3242 4.93978L97.0118 8.92823L98.7292 9.49157L98.9167 8.92072C98.9542 8.80805 99.0142 8.72542 99.0892 8.67285C99.1642 8.62027 99.2617 8.61276 99.3741 8.65031L99.7116 8.76298C99.8241 8.80054 99.8991 8.86063 99.9291 8.95076L99.9216 8.95827Z" fill="black"/>
<path d="M110.518 9.78475C110.758 10.4833 110.668 11.2569 110.248 12.1057C109.956 12.6916 109.588 13.1573 109.138 13.4953C108.689 13.8333 108.201 14.0286 107.669 14.0736C107.136 14.1187 106.604 14.0135 106.079 13.7507L104.099 12.7592C103.994 12.7066 103.919 12.639 103.881 12.5564C103.844 12.4738 103.851 12.3761 103.904 12.271L104.061 11.9555C104.114 11.8503 104.189 11.7827 104.279 11.7677C104.369 11.7527 104.466 11.7677 104.571 11.8203L104.714 11.8954L106.581 8.13228L106.439 8.05717C106.334 8.00459 106.259 7.93699 106.221 7.85437C106.184 7.77174 106.191 7.6741 106.244 7.56894L106.401 7.25347C106.454 7.14832 106.529 7.08071 106.619 7.06569C106.709 7.05067 106.806 7.06569 106.904 7.11076L108.869 8.08721C109.731 8.51535 110.278 9.07869 110.518 9.77723V9.78475ZM107.924 12.8418C108.374 12.6315 108.756 12.2109 109.071 11.5799C109.363 10.9865 109.453 10.4833 109.333 10.0551C109.213 9.63452 108.891 9.2815 108.351 9.0186L107.706 8.69562L105.839 12.4587L106.491 12.7817C106.994 13.0296 107.466 13.0521 107.924 12.8418Z" fill="black"/>
<path d="M111.433 16.3493C111.216 15.9061 111.133 15.4254 111.201 14.9071C111.268 14.3889 111.471 13.8481 111.823 13.2998C112.191 12.7289 112.603 12.2933 113.076 12.0003C113.548 11.7074 114.035 11.5647 114.553 11.5797C115.07 11.5947 115.58 11.7524 116.09 12.0754C116.578 12.3834 116.93 12.7589 117.148 13.2021C117.365 13.6378 117.44 14.1185 117.38 14.6443C117.313 15.1625 117.11 15.7033 116.758 16.2592C116.398 16.83 115.978 17.2582 115.513 17.5511C115.048 17.844 114.553 17.9867 114.035 17.9792C113.518 17.9717 113.008 17.8065 112.506 17.4835C112.018 17.168 111.658 16.7925 111.441 16.3568L111.433 16.3493ZM114.403 16.7624C114.838 16.5897 115.258 16.1841 115.663 15.5531C116.42 14.3663 116.36 13.5026 115.505 12.9542C115.055 12.6688 114.613 12.6087 114.17 12.7815C113.728 12.9542 113.316 13.3523 112.918 13.9758C112.161 15.17 112.206 16.0413 113.068 16.5897C113.518 16.8751 113.96 16.9352 114.403 16.7624Z" fill="black"/>
<path d="M126.65 20.2929C126.672 20.383 126.642 20.4731 126.567 20.5708L126.342 20.8412C126.267 20.9313 126.185 20.9764 126.087 20.9764C125.997 20.9764 125.907 20.9388 125.817 20.8637L125.682 20.7586L121.483 23.748C121.408 23.8006 121.333 23.8231 121.243 23.8156C121.153 23.8156 121.07 23.7781 121.003 23.718L120.56 23.3499C120.485 23.2898 120.433 23.2147 120.41 23.1246C120.38 23.0344 120.388 22.9518 120.425 22.8767L121.745 19.4816L118.685 21.4421C118.61 21.4871 118.528 21.5097 118.438 21.5022C118.348 21.4946 118.265 21.4571 118.19 21.397L117.74 21.0214C117.673 20.9614 117.62 20.8938 117.598 20.8036C117.575 20.7135 117.575 20.6309 117.613 20.5557L119.72 15.8537L119.585 15.7411C119.495 15.666 119.443 15.5908 119.42 15.5007C119.398 15.4106 119.428 15.3204 119.503 15.2303L119.728 14.9599C119.803 14.8698 119.885 14.8247 119.983 14.8247C120.073 14.8247 120.163 14.8623 120.253 14.9374L121.498 15.9589C121.7 16.1241 121.723 16.2969 121.573 16.4772L121.348 16.7476C121.198 16.9278 121.025 16.9354 120.823 16.7701L120.695 16.6649L119.21 19.9248L122.15 18.047C122.233 17.9944 122.308 17.9719 122.39 17.9719C122.473 17.9719 122.548 18.0019 122.615 18.062L123.132 18.4827C123.2 18.5352 123.237 18.6028 123.26 18.6855C123.275 18.7681 123.267 18.8507 123.237 18.9408L121.985 22.1556L124.85 20.0825L124.722 19.9774C124.52 19.8121 124.497 19.6394 124.647 19.4591L124.872 19.1887C125.022 19.0084 125.195 19.0009 125.397 19.1662L126.492 20.0675C126.582 20.1426 126.635 20.2177 126.65 20.3079V20.2929Z" fill="black"/>
<path d="M132.124 26.3921L131.869 26.6324C131.697 26.7902 131.524 26.7826 131.352 26.5949L131.239 26.4747L127.73 29.8022C127.647 29.8773 127.55 29.9223 127.437 29.9148C127.325 29.9148 127.227 29.8697 127.145 29.7796L126.755 29.3665C126.665 29.2689 126.635 29.1637 126.665 29.036L127.835 24.5143L125.615 26.6249L125.727 26.7451C125.907 26.9329 125.907 27.1056 125.735 27.2709L125.48 27.5112C125.307 27.669 125.135 27.6615 124.962 27.4737L123.995 26.4522C123.912 26.362 123.867 26.2719 123.86 26.1818C123.852 26.0916 123.89 26.0015 123.98 25.9189L124.235 25.6785C124.325 25.5959 124.415 25.5583 124.505 25.5733C124.595 25.5884 124.685 25.6334 124.767 25.7236L124.88 25.8437L127.925 22.9519L127.812 22.8318C127.73 22.7416 127.685 22.6515 127.677 22.5614C127.67 22.4712 127.707 22.3811 127.797 22.2985L128.052 22.0581C128.142 21.9755 128.225 21.9379 128.322 21.9529C128.42 21.968 128.495 22.013 128.577 22.0957L129.372 22.9369C129.462 23.0346 129.492 23.1397 129.462 23.2674L128.292 27.7967L130.519 25.686L130.407 25.5658C130.324 25.4757 130.279 25.3856 130.272 25.2954C130.264 25.2053 130.302 25.1152 130.392 25.0325L130.647 24.7922C130.737 24.7096 130.827 24.672 130.917 24.687C131.007 24.702 131.097 24.7471 131.179 24.8372L132.147 25.8588C132.327 26.0466 132.327 26.2193 132.154 26.3846L132.124 26.3921Z" fill="black"/>
<path d="M140.591 44.0882C140.576 44.4186 140.494 44.6966 140.344 44.9069C140.194 45.1172 139.969 45.305 139.654 45.4627C139.346 45.6204 139.016 45.6805 138.679 45.6355C138.334 45.5904 138.011 45.4552 137.712 45.2223C137.412 44.9895 137.164 44.689 136.969 44.306C136.767 43.9079 136.632 43.5248 136.587 43.1568C136.534 42.7887 136.572 42.4732 136.684 42.1953C136.797 41.9174 136.992 41.7221 137.247 41.5869C137.464 41.4743 137.674 41.4442 137.869 41.5043C138.064 41.5644 138.221 41.6921 138.326 41.8949C138.431 42.0977 138.461 42.293 138.409 42.4732C138.364 42.6535 138.244 42.7887 138.064 42.8864C137.951 42.9464 137.832 42.9765 137.697 42.9765C137.674 43.2319 137.734 43.5023 137.876 43.7802C138.034 44.0882 138.206 44.291 138.409 44.3886C138.604 44.4862 138.806 44.4862 139.016 44.3811C139.136 44.321 139.226 44.2459 139.271 44.1558C139.324 44.0656 139.346 43.9454 139.339 43.7802C139.339 43.6149 139.309 43.3746 139.249 43.0591C139.159 42.5183 139.121 42.0676 139.144 41.7146C139.159 41.3616 139.241 41.0687 139.391 40.8358C139.541 40.603 139.766 40.4077 140.066 40.2499C140.389 40.0847 140.726 40.0246 141.064 40.0697C141.409 40.1147 141.724 40.265 142.031 40.5128C142.331 40.7607 142.586 41.0837 142.796 41.4893C142.976 41.8348 143.081 42.1728 143.104 42.5033C143.134 42.8338 143.081 43.1192 142.969 43.3746C142.849 43.63 142.661 43.8253 142.406 43.953C142.189 44.0656 141.979 44.0957 141.776 44.0356C141.574 43.9755 141.424 43.8478 141.319 43.645C141.214 43.4497 141.191 43.2544 141.236 43.0741C141.281 42.8939 141.401 42.7512 141.581 42.661C141.694 42.6009 141.814 42.5709 141.949 42.5709C142.001 42.3981 141.949 42.1653 141.806 41.8723C141.671 41.6095 141.506 41.4292 141.311 41.3391C141.116 41.2414 140.921 41.2489 140.726 41.3466C140.599 41.4142 140.509 41.4968 140.456 41.5944C140.404 41.6921 140.374 41.8273 140.381 42.0076C140.381 42.1878 140.411 42.4357 140.471 42.7662C140.569 43.322 140.606 43.7727 140.591 44.1032V44.0882Z" fill="black"/>
<path d="M142.316 51.5166C142.279 51.6518 142.196 51.7494 142.069 51.7945C142.001 51.8245 141.911 51.8396 141.806 51.8471C141.694 51.8546 141.589 51.8471 141.484 51.8321C141.064 51.7645 140.704 51.6067 140.419 51.3664C140.134 51.126 139.894 50.7805 139.714 50.3298C139.504 49.8115 139.451 49.3158 139.549 48.8351C139.646 48.3544 139.886 47.9187 140.261 47.5281C140.636 47.1376 141.131 46.8221 141.746 46.5742C142.361 46.3264 142.924 46.2137 143.456 46.2362C143.981 46.2587 144.438 46.409 144.828 46.6944C145.218 46.9798 145.518 47.3854 145.728 47.9112C145.886 48.2943 145.961 48.6698 145.961 49.0379C145.961 49.4059 145.886 49.7214 145.736 49.9918C145.586 50.2622 145.376 50.45 145.106 50.5627C144.881 50.6528 144.671 50.6603 144.476 50.5852C144.281 50.5101 144.146 50.3674 144.063 50.1571C143.981 49.9543 143.973 49.759 144.033 49.5787C144.093 49.3984 144.221 49.2707 144.416 49.1956C144.558 49.1355 144.701 49.1205 144.828 49.143C144.903 48.9027 144.881 48.6248 144.761 48.3168C144.573 47.8511 144.273 47.5732 143.868 47.4831C143.463 47.3929 142.924 47.4831 142.256 47.7535C140.861 48.3168 140.351 49.0679 140.726 50.0068C140.816 50.2397 140.951 50.42 141.124 50.5401C141.296 50.6603 141.506 50.7354 141.769 50.758C141.926 50.773 142.046 50.803 142.121 50.8481C142.196 50.8932 142.256 50.9758 142.301 51.0885C142.361 51.2312 142.369 51.3664 142.324 51.5016L142.316 51.5166Z" fill="black"/>
<path d="M143.411 59.0882L143.074 59.1859C142.961 59.2159 142.864 59.2084 142.789 59.1558C142.714 59.1032 142.661 59.0206 142.624 58.9004L142.339 57.9165C142.316 57.8564 142.316 57.7888 142.339 57.7287C142.354 57.6611 142.384 57.6085 142.436 57.5634L143.681 56.279C143.853 56.0988 143.973 55.956 144.048 55.8509C144.123 55.7457 144.161 55.6406 144.161 55.5354C144.161 55.4303 144.146 55.2951 144.093 55.1298L144.026 54.8895L142.669 55.2876L142.714 55.4453C142.789 55.6932 142.714 55.8509 142.489 55.9185L142.151 56.0161C141.926 56.0837 141.776 55.9936 141.709 55.7457L141.266 54.221C141.236 54.1083 141.236 54.0031 141.266 53.9205C141.304 53.8379 141.379 53.7778 141.491 53.7402L141.829 53.6426C141.941 53.6126 142.039 53.6201 142.114 53.6726C142.189 53.7252 142.241 53.8078 142.279 53.928L142.324 54.0858L146.351 52.9065L146.306 52.7488C146.276 52.6361 146.276 52.5309 146.306 52.4483C146.343 52.3657 146.418 52.3056 146.531 52.2681L146.868 52.1704C146.981 52.1404 147.078 52.1479 147.153 52.2005C147.228 52.253 147.281 52.3357 147.311 52.4483L147.933 54.5665C148.151 55.3101 148.166 55.9185 147.986 56.3842C147.806 56.8499 147.423 57.1654 146.846 57.3381C146.448 57.4583 146.081 57.4508 145.736 57.3156C145.391 57.1879 145.106 56.9475 144.866 56.602C144.851 56.7222 144.806 56.8349 144.738 56.9475C144.671 57.0602 144.566 57.1879 144.431 57.3231L143.531 58.2319L143.651 58.63C143.726 58.8854 143.651 59.0432 143.426 59.1108L143.411 59.0882ZM145.218 55.2275C145.331 55.618 145.488 55.8809 145.691 56.0161C145.893 56.1513 146.148 56.1739 146.456 56.0837C146.711 56.0086 146.876 55.8659 146.943 55.6556C147.011 55.4453 147.003 55.1599 146.891 54.7993L146.688 54.1008L145.031 54.589L145.218 55.2275Z" fill="black"/>
<path d="M143.509 61.5592C143.681 61.0935 143.974 60.7104 144.401 60.4025C144.828 60.0945 145.361 59.8767 146.006 59.7565C146.673 59.6288 147.273 59.6438 147.806 59.7866C148.338 59.9293 148.781 60.1922 149.126 60.5827C149.471 60.9658 149.703 61.454 149.808 62.0474C149.913 62.6108 149.883 63.129 149.711 63.5872C149.538 64.0454 149.246 64.4285 148.818 64.7364C148.391 65.0444 147.858 65.2622 147.221 65.3824C146.561 65.5101 145.961 65.4951 145.428 65.3524C144.896 65.2096 144.453 64.9467 144.108 64.5637C143.764 64.1806 143.539 63.6924 143.426 63.1065C143.321 62.5357 143.351 62.0174 143.524 61.5517L143.509 61.5592ZM145.233 64.0229C145.661 64.2257 146.238 64.2557 146.973 64.1205C148.353 63.8651 148.953 63.2342 148.766 62.2277C148.668 61.7019 148.406 61.3414 147.978 61.1386C147.551 60.9358 146.981 60.9057 146.253 61.0409C144.858 61.3038 144.258 61.9348 144.446 62.9413C144.543 63.467 144.806 63.8276 145.233 64.0304V64.0229Z" fill="black"/>
<path d="M146.561 71.9548C146.493 72.0149 146.403 72.0524 146.283 72.0675L145.098 72.1726C144.971 72.1801 144.851 72.1501 144.753 72.0675C144.656 71.9848 144.603 71.8722 144.588 71.737L144.258 67.9363C144.251 67.8161 144.266 67.7185 144.318 67.6434C144.371 67.5683 144.453 67.5232 144.573 67.5157L144.926 67.4856C145.046 67.4781 145.136 67.5006 145.203 67.5682C145.263 67.6358 145.301 67.726 145.316 67.8462L145.331 68.0039L149.508 67.6359L149.493 67.4706C149.486 67.3504 149.501 67.2528 149.553 67.1777C149.606 67.1026 149.688 67.0575 149.808 67.05L150.16 67.0199C150.28 67.0124 150.37 67.035 150.438 67.1026C150.505 67.1702 150.535 67.2603 150.55 67.373L150.723 69.3409C150.73 69.4536 150.715 69.5512 150.663 69.6263C150.61 69.7014 150.528 69.7465 150.408 69.754L150.056 69.7841C149.936 69.7916 149.846 69.769 149.778 69.7014C149.711 69.6338 149.681 69.5437 149.666 69.431L149.621 68.8902L145.443 69.2583L145.601 71.061L146.201 71.0084C146.321 71.0009 146.418 71.0159 146.493 71.0685C146.568 71.121 146.613 71.2037 146.621 71.3238L146.651 71.6769C146.658 71.7971 146.636 71.8872 146.568 71.9548H146.561Z" fill="black"/>
<path d="M146.598 78.3317C146.523 78.3843 146.426 78.4143 146.306 78.4143L145.121 78.3918C144.986 78.3918 144.881 78.3392 144.791 78.249C144.701 78.1589 144.656 78.0462 144.663 77.9035L144.723 74.0878C144.723 73.9677 144.753 73.87 144.813 73.8024C144.873 73.7348 144.963 73.6973 145.083 73.6973H145.436C145.556 73.7048 145.646 73.7423 145.698 73.8174C145.751 73.8926 145.781 73.9902 145.781 74.1104V74.2756L149.973 74.3432V74.178C149.973 74.0578 150.011 73.9602 150.063 73.8926C150.123 73.825 150.213 73.7874 150.333 73.7874H150.685C150.805 73.7949 150.895 73.8325 150.948 73.9076C151 73.9827 151.03 74.0728 151.03 74.1855L151 76.1609C151 76.2736 150.97 76.3713 150.91 76.4389C150.85 76.5065 150.76 76.544 150.64 76.544H150.288C150.168 76.544 150.078 76.4989 150.026 76.4238C149.966 76.3487 149.943 76.2586 149.943 76.1459V75.6051L145.758 75.5375L145.728 77.3477H146.328C146.448 77.3627 146.546 77.3928 146.613 77.4454C146.681 77.5054 146.718 77.5956 146.718 77.7158V78.0688C146.711 78.189 146.673 78.2791 146.598 78.3317Z" fill="black"/>
<path d="M149.171 88.6523C148.586 89.103 147.821 89.2607 146.883 89.1255C146.238 89.0354 145.683 88.8251 145.218 88.5096C144.753 88.1941 144.416 87.7885 144.206 87.2928C143.996 86.797 143.928 86.2637 144.011 85.6779L144.326 83.4846C144.341 83.3644 144.386 83.2743 144.453 83.2142C144.521 83.1541 144.611 83.1316 144.731 83.1466L145.076 83.1992C145.196 83.2142 145.278 83.2668 145.323 83.3419C145.368 83.4245 145.383 83.5222 145.368 83.6423L145.346 83.8001L149.501 84.3935L149.523 84.2357C149.538 84.1155 149.583 84.0254 149.651 83.9653C149.718 83.9052 149.808 83.8827 149.928 83.8977L150.273 83.9503C150.393 83.9653 150.476 84.0179 150.521 84.093C150.566 84.1681 150.581 84.2658 150.566 84.3784L150.251 86.5567C150.116 87.5106 149.756 88.2091 149.171 88.6598V88.6523ZM145.458 87.1426C145.803 87.5106 146.321 87.7359 147.011 87.8411C147.663 87.9312 148.173 87.8561 148.541 87.6158C148.908 87.3754 149.133 86.9473 149.216 86.3539L149.321 85.6403L145.166 85.0469L145.061 85.768C144.978 86.3238 145.113 86.782 145.458 87.1426Z" fill="black"/>
<path d="M143.239 91.5889C143.584 91.2434 144.019 91.0181 144.536 90.9129C145.054 90.8077 145.624 90.8378 146.261 91.003C146.921 91.1683 147.461 91.4312 147.881 91.7842C148.308 92.1372 148.593 92.5654 148.751 93.0611C148.901 93.5568 148.908 94.0977 148.758 94.676C148.616 95.2394 148.376 95.69 148.023 96.0355C147.671 96.3811 147.243 96.6064 146.733 96.704C146.223 96.8017 145.646 96.7791 145.009 96.6139C144.356 96.4487 143.816 96.1858 143.389 95.8327C142.961 95.4797 142.669 95.0516 142.519 94.5633C142.369 94.0751 142.361 93.5343 142.504 92.9559C142.646 92.3926 142.894 91.9344 143.239 91.5889ZM143.779 94.5483C144.079 94.9089 144.596 95.1793 145.324 95.367C146.681 95.7126 147.491 95.3896 147.738 94.3981C147.866 93.8798 147.783 93.4367 147.483 93.0761C147.183 92.7156 146.673 92.4452 145.961 92.2649C144.589 91.9194 143.779 92.2349 143.524 93.2264C143.396 93.7446 143.479 94.1878 143.779 94.5483Z" fill="black"/>
<path d="M144.266 107.303C144.184 107.348 144.094 107.348 143.981 107.303L143.651 107.175C143.539 107.13 143.471 107.062 143.441 106.98C143.411 106.89 143.419 106.792 143.464 106.687L143.524 106.529L139.376 103.472C139.309 103.419 139.264 103.352 139.241 103.262C139.219 103.179 139.226 103.089 139.264 102.999L139.474 102.458C139.511 102.368 139.564 102.3 139.639 102.248C139.714 102.195 139.796 102.173 139.879 102.18L143.509 102.375L140.696 100.077C140.629 100.017 140.584 99.9417 140.561 99.8591C140.539 99.769 140.546 99.6788 140.584 99.5887L140.794 99.0404C140.824 98.9577 140.876 98.8901 140.951 98.8376C141.026 98.785 141.109 98.7625 141.191 98.77L146.313 99.3108L146.373 99.153C146.411 99.0479 146.471 98.9728 146.553 98.9202C146.636 98.8751 146.726 98.8751 146.838 98.9202L147.168 99.0479C147.281 99.0929 147.348 99.1605 147.378 99.2432C147.408 99.3258 147.401 99.4309 147.356 99.5361L146.771 101.038C146.681 101.279 146.523 101.354 146.306 101.271L145.976 101.143C145.758 101.061 145.698 100.896 145.788 100.655L145.848 100.505L142.294 100.114L144.994 102.323C145.069 102.383 145.114 102.45 145.144 102.533C145.166 102.608 145.166 102.691 145.136 102.773L144.896 103.397C144.866 103.472 144.814 103.54 144.746 103.577C144.679 103.622 144.589 103.637 144.499 103.637L141.056 103.449L143.921 105.53L143.981 105.38C144.071 105.139 144.229 105.064 144.446 105.147L144.776 105.275C144.994 105.357 145.061 105.523 144.964 105.763L144.454 107.085C144.416 107.19 144.349 107.265 144.274 107.318L144.266 107.303Z" fill="black"/>
<path d="M140.179 114.423L139.871 114.258C139.669 114.145 139.624 113.98 139.744 113.747L139.819 113.604L135.567 111.298C135.469 111.246 135.402 111.163 135.364 111.058C135.334 110.953 135.342 110.848 135.402 110.742L135.672 110.239C135.732 110.119 135.829 110.059 135.957 110.051L140.606 109.758L137.914 108.301L137.839 108.444C137.719 108.669 137.554 108.729 137.344 108.617L137.036 108.452C136.834 108.339 136.789 108.174 136.909 107.941L137.576 106.701C137.636 106.596 137.704 106.521 137.786 106.491C137.869 106.454 137.966 106.469 138.071 106.521L138.379 106.686C138.484 106.746 138.544 106.814 138.559 106.904C138.574 106.994 138.559 107.092 138.499 107.197L138.424 107.34L142.114 109.338L142.189 109.195C142.249 109.09 142.316 109.015 142.399 108.985C142.481 108.947 142.579 108.962 142.684 109.015L142.991 109.18C143.096 109.24 143.156 109.308 143.171 109.398C143.186 109.488 143.171 109.586 143.111 109.683L142.564 110.697C142.504 110.81 142.406 110.878 142.279 110.885L137.621 111.178L140.321 112.643L140.396 112.5C140.456 112.395 140.524 112.32 140.606 112.29C140.689 112.252 140.786 112.267 140.891 112.32L141.199 112.485C141.304 112.545 141.364 112.613 141.379 112.703C141.394 112.793 141.379 112.891 141.319 112.996L140.651 114.235C140.531 114.46 140.366 114.521 140.156 114.408L140.179 114.423Z" fill="black"/>
<path d="M126.027 127.973C125.705 128.063 125.42 128.071 125.18 127.996C124.932 127.921 124.685 127.763 124.437 127.515C124.19 127.267 124.032 126.982 123.965 126.636C123.897 126.291 123.927 125.945 124.055 125.592C124.182 125.239 124.392 124.901 124.692 124.601C125.007 124.278 125.33 124.037 125.667 123.88C125.997 123.722 126.312 123.647 126.605 123.677C126.897 123.707 127.152 123.82 127.362 124.022C127.535 124.195 127.632 124.383 127.64 124.593C127.64 124.796 127.572 124.984 127.415 125.149C127.257 125.314 127.085 125.397 126.897 125.404C126.71 125.412 126.545 125.344 126.402 125.202C126.312 125.112 126.245 125.006 126.2 124.879C125.952 124.939 125.712 125.074 125.495 125.299C125.255 125.547 125.12 125.773 125.082 125.99C125.045 126.208 125.112 126.403 125.277 126.569C125.375 126.666 125.472 126.726 125.57 126.741C125.667 126.764 125.795 126.741 125.945 126.689C126.095 126.636 126.32 126.531 126.605 126.381C127.092 126.126 127.505 125.953 127.842 125.863C128.187 125.773 128.487 125.758 128.757 125.818C129.027 125.885 129.282 126.035 129.522 126.276C129.785 126.531 129.942 126.832 130.002 127.17C130.062 127.508 130.025 127.861 129.882 128.229C129.74 128.589 129.515 128.935 129.192 129.265C128.915 129.543 128.63 129.746 128.33 129.874C128.03 130.001 127.737 130.046 127.46 130.016C127.182 129.979 126.942 129.866 126.732 129.663C126.56 129.491 126.47 129.303 126.462 129.092C126.462 128.882 126.537 128.702 126.695 128.537C126.852 128.379 127.025 128.296 127.212 128.281C127.4 128.266 127.565 128.334 127.715 128.477C127.805 128.567 127.872 128.672 127.917 128.8C128.097 128.8 128.3 128.679 128.532 128.447C128.742 128.236 128.855 128.026 128.885 127.808C128.915 127.59 128.855 127.41 128.69 127.252C128.585 127.155 128.48 127.087 128.367 127.072C128.255 127.057 128.12 127.072 127.947 127.132C127.775 127.192 127.55 127.297 127.25 127.455C126.747 127.725 126.342 127.898 126.02 127.988L126.027 127.973Z" fill="black"/>
<path d="M119.518 131.932C119.375 131.932 119.263 131.886 119.173 131.781C119.128 131.729 119.083 131.646 119.038 131.548C118.993 131.443 118.963 131.346 118.948 131.241C118.88 130.82 118.918 130.429 119.06 130.076C119.203 129.723 119.458 129.393 119.818 129.085C120.245 128.724 120.703 128.514 121.19 128.461C121.678 128.401 122.165 128.491 122.653 128.732C123.14 128.972 123.598 129.34 124.017 129.843C124.445 130.347 124.73 130.857 124.872 131.361C125.015 131.864 125.015 132.352 124.872 132.81C124.722 133.269 124.437 133.682 123.995 134.05C123.68 134.32 123.35 134.508 122.998 134.621C122.653 134.733 122.33 134.763 122.023 134.711C121.715 134.658 121.475 134.515 121.28 134.29C121.123 134.102 121.048 133.907 121.063 133.697C121.078 133.486 121.168 133.314 121.34 133.163C121.513 133.021 121.685 132.953 121.88 132.953C122.068 132.953 122.233 133.036 122.36 133.193C122.458 133.314 122.518 133.441 122.54 133.569C122.788 133.569 123.043 133.464 123.305 133.246C123.687 132.923 123.86 132.547 123.815 132.134C123.77 131.721 123.515 131.233 123.05 130.685C122.083 129.528 121.205 129.28 120.44 129.934C120.245 130.099 120.118 130.279 120.058 130.474C119.998 130.677 119.99 130.903 120.058 131.158C120.095 131.316 120.103 131.436 120.08 131.518C120.058 131.601 119.998 131.684 119.908 131.766C119.795 131.864 119.668 131.917 119.525 131.917L119.518 131.932Z" fill="black"/>
<path d="M112.663 135.357L112.461 135.064C112.393 134.966 112.371 134.868 112.401 134.786C112.431 134.696 112.491 134.621 112.588 134.553L113.436 133.967C113.488 133.929 113.548 133.907 113.616 133.907C113.683 133.907 113.743 133.914 113.803 133.945L115.416 134.726C115.641 134.831 115.813 134.906 115.94 134.936C116.06 134.974 116.173 134.974 116.278 134.943C116.375 134.913 116.503 134.853 116.645 134.748L116.855 134.605L116.053 133.441L115.918 133.531C115.708 133.682 115.536 133.652 115.401 133.464L115.198 133.171C115.063 132.976 115.108 132.81 115.318 132.66L116.623 131.759C116.72 131.691 116.818 131.661 116.908 131.669C116.998 131.676 117.08 131.729 117.148 131.826L117.35 132.119C117.418 132.217 117.44 132.315 117.41 132.397C117.38 132.487 117.32 132.562 117.223 132.63L117.088 132.72L119.465 136.175L119.6 136.085C119.698 136.018 119.795 135.988 119.885 135.995C119.975 136.003 120.058 136.055 120.125 136.153L120.328 136.438C120.395 136.536 120.418 136.634 120.388 136.716C120.358 136.806 120.298 136.881 120.208 136.941L118.393 138.196C117.755 138.631 117.185 138.842 116.69 138.812C116.188 138.782 115.768 138.526 115.431 138.031C115.198 137.685 115.086 137.332 115.108 136.972C115.123 136.603 115.258 136.258 115.513 135.92C115.401 135.942 115.273 135.935 115.146 135.905C115.018 135.875 114.868 135.815 114.696 135.732L113.548 135.161L113.211 135.394C112.993 135.544 112.821 135.522 112.686 135.327L112.663 135.357ZM116.893 135.867C116.555 136.1 116.353 136.333 116.293 136.566C116.233 136.799 116.285 137.047 116.465 137.317C116.615 137.535 116.803 137.648 117.02 137.648C117.245 137.648 117.508 137.55 117.823 137.332L118.423 136.919L117.44 135.492L116.893 135.867Z" fill="black"/>
<path d="M110.353 136.22C110.848 136.235 111.306 136.401 111.733 136.709C112.161 137.017 112.528 137.452 112.843 138.031C113.173 138.624 113.346 139.202 113.383 139.751C113.413 140.306 113.301 140.802 113.046 141.253C112.791 141.704 112.401 142.072 111.876 142.365C111.373 142.642 110.878 142.77 110.383 142.755C109.896 142.74 109.438 142.575 109.011 142.267C108.583 141.959 108.216 141.516 107.901 140.945C107.579 140.352 107.399 139.781 107.361 139.232C107.324 138.677 107.436 138.173 107.691 137.723C107.946 137.272 108.336 136.904 108.853 136.618C109.363 136.341 109.866 136.205 110.353 136.22ZM108.561 138.631C108.501 139.097 108.658 139.66 109.018 140.321C109.693 141.553 110.481 141.921 111.373 141.426C111.838 141.17 112.101 140.802 112.161 140.336C112.221 139.871 112.071 139.315 111.711 138.662C111.028 137.422 110.241 137.047 109.348 137.535C108.883 137.79 108.621 138.158 108.561 138.624V138.631Z" fill="black"/>
<path d="M101.444 142.395C101.361 142.35 101.301 142.275 101.249 142.162L100.776 141.065C100.724 140.945 100.724 140.825 100.776 140.705C100.821 140.585 100.911 140.502 101.039 140.442L104.534 138.932C104.646 138.887 104.744 138.872 104.834 138.895C104.924 138.917 104.991 138.985 105.036 139.097L105.171 139.42C105.216 139.533 105.224 139.623 105.171 139.706C105.126 139.788 105.051 139.849 104.939 139.901L104.789 139.961L106.446 143.822L106.596 143.762C106.709 143.717 106.806 143.702 106.896 143.724C106.986 143.747 107.054 143.814 107.099 143.927L107.233 144.25C107.278 144.363 107.286 144.453 107.233 144.536C107.188 144.618 107.114 144.678 107.009 144.723L105.201 145.504C105.096 145.55 104.999 145.557 104.909 145.535C104.819 145.512 104.751 145.444 104.706 145.332L104.564 145.009C104.519 144.896 104.511 144.806 104.564 144.723C104.609 144.641 104.684 144.581 104.789 144.536L105.284 144.325L103.626 140.464L101.969 141.178L102.209 141.734C102.254 141.847 102.269 141.944 102.246 142.034C102.224 142.124 102.156 142.192 102.044 142.237L101.721 142.38C101.609 142.425 101.519 142.432 101.436 142.38L101.444 142.395Z" fill="black"/>
<path d="M95.4518 144.445C95.3768 144.393 95.3168 144.31 95.2793 144.197L94.9119 143.063C94.8744 142.936 94.8819 142.815 94.9344 142.703C94.9944 142.59 95.0843 142.507 95.2193 142.47L98.8341 141.283C98.9466 141.246 99.0516 141.246 99.1341 141.276C99.2166 141.306 99.2841 141.381 99.3216 141.493L99.4341 141.824C99.4715 141.937 99.4641 142.034 99.4116 142.109C99.3591 142.184 99.2766 142.245 99.1641 142.282L99.0066 142.335L100.311 146.323L100.469 146.271C100.581 146.233 100.686 146.233 100.769 146.263C100.859 146.293 100.919 146.368 100.956 146.481L101.069 146.811C101.106 146.924 101.099 147.022 101.046 147.097C100.994 147.172 100.919 147.232 100.806 147.262L98.9316 147.878C98.8266 147.915 98.7291 147.915 98.6391 147.878C98.5491 147.848 98.4891 147.773 98.4516 147.66L98.3391 147.33C98.3016 147.217 98.3091 147.119 98.3616 147.044C98.4141 146.969 98.4891 146.909 98.6016 146.879L99.1116 146.714L97.8067 142.725L96.0893 143.289L96.2768 143.859C96.3143 143.972 96.3143 144.077 96.2843 144.16C96.2543 144.25 96.1793 144.31 96.0668 144.348L95.7293 144.46C95.6168 144.498 95.5193 144.49 95.4443 144.438L95.4518 144.445Z" fill="black"/>
<path d="M86.4149 150.071C85.8075 149.651 85.4175 148.975 85.26 148.043C85.1475 147.397 85.17 146.804 85.3275 146.263C85.485 145.722 85.7625 145.279 86.1674 144.919C86.5724 144.566 87.0599 144.34 87.6373 144.235L89.8197 143.852C89.9397 143.83 90.0372 143.845 90.1197 143.89C90.2022 143.935 90.2547 144.017 90.2697 144.13L90.3297 144.476C90.3522 144.596 90.3297 144.686 90.2697 144.754C90.2097 144.821 90.1197 144.866 89.9997 144.889L89.8422 144.919L90.5621 149.057L90.7196 149.027C90.8396 149.005 90.9371 149.02 91.0196 149.065C91.1021 149.11 91.1546 149.193 91.1696 149.305L91.2296 149.651C91.2521 149.771 91.2296 149.861 91.1696 149.929C91.1096 149.996 91.0196 150.041 90.9071 150.064L88.7473 150.439C87.8023 150.605 87.0224 150.477 86.4149 150.064V150.071ZM86.6924 146.068C86.4524 146.504 86.3924 147.074 86.5124 147.765C86.6249 148.419 86.8574 148.877 87.2024 149.148C87.5473 149.418 88.0198 149.501 88.6048 149.403L89.3172 149.275L88.5973 145.137L87.8773 145.264C87.3299 145.362 86.9324 145.625 86.6924 146.068Z" fill="black"/>
<path d="M81.8103 145.332C82.2527 145.557 82.5977 145.895 82.8527 146.353C83.1077 146.811 83.2577 147.367 83.3027 148.021C83.3477 148.697 83.2727 149.297 83.0627 149.808C82.8602 150.319 82.5452 150.732 82.1252 151.025C81.7053 151.326 81.1953 151.498 80.5953 151.536C80.0179 151.573 79.5154 151.483 79.0804 151.258C78.6455 151.033 78.3005 150.695 78.038 150.236C77.783 149.778 77.633 149.222 77.588 148.569C77.543 147.9 77.618 147.3 77.8205 146.789C78.023 146.27 78.338 145.865 78.758 145.564C79.1779 145.264 79.6879 145.099 80.2804 145.054C80.8578 145.016 81.3678 145.106 81.8103 145.332ZM79.1704 146.766C78.923 147.164 78.8255 147.743 78.8705 148.486C78.968 149.891 79.5229 150.559 80.5428 150.484C81.0753 150.447 81.4653 150.229 81.7128 149.831C81.9602 149.433 82.0652 148.862 82.0127 148.126C81.9152 146.714 81.3603 146.038 80.3404 146.105C79.8079 146.143 79.4179 146.361 79.1704 146.759V146.766Z" fill="black"/>
<path d="M67.2237 151.213C67.1562 151.153 67.1262 151.063 67.1262 150.943L67.1412 150.59C67.1412 150.469 67.1862 150.379 67.2612 150.327C67.3362 150.274 67.4337 150.252 67.5462 150.252H67.7187L69.3236 145.362C69.3536 145.279 69.4061 145.212 69.4811 145.166C69.5561 145.121 69.6386 145.099 69.736 145.106L70.3135 145.136C70.411 145.136 70.4935 145.174 70.5685 145.227C70.6435 145.279 70.6885 145.354 70.7035 145.437L71.6559 148.952L72.9533 145.55C72.9908 145.467 73.0433 145.399 73.1183 145.354C73.1933 145.309 73.2833 145.287 73.3808 145.294L73.9658 145.324C74.0557 145.324 74.1382 145.362 74.2057 145.414C74.2807 145.467 74.3257 145.542 74.3407 145.625L75.4356 150.665H75.6081C75.7206 150.68 75.8106 150.71 75.8856 150.77C75.9531 150.83 75.9831 150.92 75.9756 151.04L75.9606 151.393C75.9606 151.513 75.9156 151.604 75.8406 151.656C75.7656 151.709 75.6681 151.731 75.5556 151.724L73.9507 151.641C73.6958 151.626 73.5683 151.506 73.5833 151.273L73.5983 150.92C73.6133 150.687 73.7483 150.575 74.0032 150.59H74.1682L73.4258 147.097L72.1809 150.357C72.1434 150.447 72.0984 150.514 72.0309 150.56C71.9634 150.605 71.8884 150.627 71.7984 150.627L71.1309 150.59C71.0485 150.59 70.9735 150.56 70.9135 150.499C70.8535 150.447 70.8085 150.372 70.7785 150.282L69.8785 146.954L68.8061 150.327H68.9711C69.2261 150.349 69.3536 150.469 69.3386 150.702L69.3236 151.055C69.3086 151.288 69.1736 151.401 68.9186 151.386L67.5087 151.311C67.3962 151.311 67.3062 151.273 67.2312 151.213H67.2237Z" fill="black"/>
<path d="M59.2068 149.568L59.2668 149.223C59.3043 148.99 59.4543 148.9 59.7093 148.945L59.8668 148.975L60.7142 144.213C60.7367 144.1 60.7892 144.01 60.8792 143.942C60.9692 143.875 61.0742 143.852 61.1942 143.875L61.7492 143.972C61.8767 143.995 61.9667 144.062 62.0117 144.183L63.7515 148.517L64.2915 145.497L64.134 145.467C63.879 145.422 63.774 145.287 63.8115 145.054L63.8715 144.708C63.909 144.476 64.059 144.385 64.314 144.43L65.6939 144.678C65.8139 144.701 65.9039 144.746 65.9639 144.814C66.0239 144.881 66.0464 144.979 66.0239 145.091L65.9639 145.437C65.9414 145.557 65.8889 145.64 65.8139 145.677C65.7389 145.715 65.6339 145.73 65.5139 145.707L65.3564 145.677L64.6215 149.816L64.779 149.846C64.899 149.869 64.989 149.914 65.0489 149.981C65.1089 150.049 65.1314 150.147 65.1089 150.259L65.0489 150.605C65.0264 150.725 64.9739 150.8 64.899 150.845C64.8165 150.89 64.719 150.898 64.6065 150.883L63.474 150.68C63.3466 150.657 63.2566 150.59 63.2116 150.47L61.4717 146.128L60.9317 149.155L61.0892 149.185C61.2092 149.208 61.2992 149.253 61.3592 149.32C61.4192 149.388 61.4417 149.486 61.4192 149.598L61.3592 149.944C61.3367 150.064 61.2842 150.139 61.2092 150.184C61.1267 150.229 61.0292 150.237 60.9092 150.214L59.5293 149.966C59.2743 149.921 59.1693 149.786 59.2068 149.553V149.568Z" fill="black"/>
<path d="M41.9055 140.329C41.7255 140.051 41.628 139.781 41.6205 139.526C41.6205 139.27 41.688 138.985 41.8455 138.669C42.003 138.354 42.2279 138.114 42.5279 137.948C42.8279 137.783 43.1729 137.7 43.5479 137.708C43.9228 137.716 44.3053 137.813 44.6878 138.001C45.0927 138.204 45.4227 138.437 45.6777 138.699C45.9327 138.962 46.0977 139.24 46.1652 139.533C46.2327 139.819 46.2027 140.097 46.0677 140.359C45.9552 140.577 45.8052 140.727 45.6177 140.795C45.4227 140.87 45.2277 140.855 45.0252 140.75C44.8228 140.645 44.6878 140.51 44.6203 140.337C44.5528 140.164 44.5678 139.984 44.6578 139.804C44.7178 139.691 44.7928 139.593 44.9053 139.511C44.7703 139.293 44.5678 139.113 44.2903 138.97C43.9828 138.82 43.7203 138.76 43.5029 138.797C43.2854 138.835 43.1204 138.955 43.0154 139.165C42.9554 139.293 42.9254 139.398 42.9404 139.503C42.9479 139.601 43.0079 139.721 43.1054 139.849C43.2029 139.976 43.3679 140.157 43.6003 140.374C43.9903 140.758 44.2903 141.096 44.4853 141.396C44.6803 141.689 44.7853 141.974 44.8078 142.252C44.8303 142.53 44.7628 142.816 44.6128 143.124C44.4478 143.454 44.2153 143.694 43.9153 143.86C43.6153 144.025 43.2629 144.1 42.8804 144.077C42.4904 144.055 42.093 143.95 41.688 143.747C41.3355 143.574 41.058 143.364 40.8405 143.116C40.6231 142.868 40.4881 142.605 40.4356 142.327C40.3831 142.049 40.4206 141.787 40.5481 141.524C40.6606 141.306 40.8105 141.156 41.0055 141.088C41.2005 141.02 41.403 141.035 41.6055 141.133C41.808 141.231 41.9355 141.366 42.0105 141.546C42.078 141.719 42.0705 141.899 41.9805 142.087C41.9205 142.2 41.8455 142.297 41.733 142.38C41.793 142.553 41.9655 142.71 42.2579 142.853C42.5204 142.981 42.7604 143.033 42.9704 142.996C43.1804 142.958 43.3379 142.838 43.4354 142.643C43.5029 142.515 43.5254 142.395 43.5104 142.282C43.4954 142.17 43.4354 142.042 43.3229 141.907C43.2179 141.764 43.0454 141.576 42.8054 141.343C42.4004 140.953 42.1004 140.615 41.9205 140.337L41.9055 140.329Z" fill="black"/>
<path d="M36.1235 135.372C36.0785 135.236 36.086 135.116 36.161 134.996C36.1985 134.936 36.2585 134.868 36.341 134.793C36.4235 134.718 36.5135 134.658 36.6034 134.613C36.9859 134.418 37.3609 134.335 37.7434 134.358C38.1183 134.38 38.5083 134.523 38.9208 134.771C39.3933 135.064 39.7382 135.432 39.9407 135.882C40.1432 136.326 40.2107 136.821 40.1357 137.355C40.0607 137.888 39.8507 138.444 39.5057 139.007C39.1608 139.57 38.7708 139.999 38.3283 140.291C37.8934 140.584 37.4359 140.735 36.9559 140.735C36.476 140.735 35.9885 140.584 35.5085 140.291C35.156 140.074 34.8711 139.818 34.6536 139.525C34.4361 139.232 34.3086 138.932 34.2711 138.624C34.2336 138.316 34.2861 138.038 34.4436 137.79C34.5711 137.58 34.7361 137.452 34.9386 137.392C35.141 137.34 35.336 137.37 35.531 137.49C35.7185 137.61 35.8385 137.753 35.891 137.94C35.9435 138.121 35.921 138.301 35.8085 138.474C35.726 138.609 35.6285 138.699 35.501 138.759C35.576 139 35.7635 139.21 36.0485 139.383C36.476 139.646 36.8809 139.698 37.2634 139.525C37.6459 139.353 38.0208 138.962 38.4033 138.346C39.1983 137.062 39.1608 136.153 38.3058 135.627C38.0883 135.492 37.8784 135.432 37.6684 135.432C37.4584 135.432 37.2409 135.499 37.0159 135.635C36.8809 135.717 36.7684 135.762 36.6784 135.77C36.5884 135.77 36.4985 135.747 36.3935 135.68C36.266 135.597 36.176 135.492 36.131 135.364L36.1235 135.372Z" fill="black"/>
<path d="M30.7537 129.919L30.9637 129.641C31.0387 129.543 31.1212 129.498 31.2112 129.498C31.3012 129.498 31.3987 129.536 31.4887 129.603L32.3061 130.227C32.3586 130.264 32.3961 130.317 32.4261 130.377C32.4561 130.437 32.4561 130.505 32.4486 130.565L32.2086 132.337C32.1786 132.585 32.1636 132.773 32.1711 132.901C32.1786 133.028 32.2086 133.133 32.2686 133.224C32.3286 133.306 32.4261 133.404 32.5611 133.509L32.7636 133.659L33.6185 132.533L33.491 132.435C33.2885 132.277 33.251 132.104 33.3935 131.917L33.6035 131.639C33.746 131.451 33.9185 131.436 34.121 131.594L35.3809 132.555C35.4784 132.63 35.5384 132.705 35.5609 132.795C35.5834 132.886 35.5609 132.976 35.4859 133.073L35.2759 133.351C35.2009 133.449 35.1184 133.494 35.0284 133.494C34.9384 133.494 34.8409 133.456 34.7509 133.389L34.6234 133.291L32.0811 136.634L32.2086 136.731C32.3061 136.806 32.3661 136.882 32.3886 136.972C32.4111 137.062 32.3886 137.152 32.3136 137.25L32.1036 137.528C32.0286 137.625 31.9461 137.67 31.8561 137.67C31.7661 137.67 31.6761 137.64 31.5862 137.573L29.8313 136.236C29.2163 135.762 28.8413 135.289 28.7138 134.801C28.5864 134.32 28.6989 133.84 29.0663 133.359C29.3138 133.028 29.6213 132.818 29.9738 132.72C30.3262 132.623 30.7012 132.645 31.0987 132.78C31.0387 132.675 31.0087 132.563 31.0012 132.427C30.9937 132.292 31.0012 132.134 31.0237 131.939L31.2037 130.67L30.8737 130.422C30.6637 130.264 30.6262 130.091 30.7687 129.904L30.7537 129.919ZM31.5862 134.102C31.2637 133.855 30.9787 133.734 30.7387 133.742C30.4987 133.749 30.2812 133.885 30.0863 134.14C29.9288 134.35 29.8763 134.561 29.9438 134.771C30.0113 134.981 30.1913 135.207 30.4912 135.432L31.0687 135.875L32.1186 134.501L31.5862 134.095V134.102Z" fill="black"/>
<path d="M29.2014 127.973C29.3364 128.447 29.3289 128.935 29.1714 129.438C29.0139 129.941 28.7139 130.43 28.2639 130.91C27.799 131.406 27.3115 131.759 26.794 131.954C26.2766 132.157 25.7666 132.202 25.2641 132.097C24.7542 131.992 24.2817 131.737 23.8467 131.331C23.4268 130.94 23.1493 130.505 23.0143 130.031C22.8793 129.558 22.8868 129.078 23.0518 128.574C23.2168 128.071 23.5093 127.583 23.9592 127.102C24.4167 126.606 24.9042 126.261 25.4216 126.058C25.9391 125.855 26.4491 125.803 26.9515 125.908C27.4615 126.013 27.9265 126.268 28.3614 126.674C28.7889 127.072 29.0664 127.508 29.2089 127.981L29.2014 127.973ZM26.3516 127.02C25.8866 127.11 25.4066 127.433 24.8892 127.981C23.9292 129.01 23.8242 129.874 24.5742 130.572C24.9642 130.94 25.3916 131.076 25.8491 130.985C26.3141 130.895 26.794 130.58 27.2965 130.039C28.2639 129.002 28.3689 128.131 27.6265 127.44C27.2365 127.072 26.809 126.937 26.3516 127.027V127.02Z" fill="black"/>
<path d="M20.5844 121.439C20.5994 121.348 20.6519 121.266 20.7419 121.183L21.6343 120.395C21.7318 120.304 21.8443 120.267 21.9718 120.274C22.0993 120.274 22.2043 120.334 22.3018 120.44L24.8216 123.294C24.9041 123.384 24.9416 123.474 24.9491 123.564C24.9491 123.654 24.9116 123.745 24.8216 123.82L24.5591 124.053C24.4691 124.135 24.3791 124.165 24.2891 124.15C24.1991 124.135 24.1166 124.083 24.0341 123.992L23.9292 123.872L20.7869 126.651L20.8919 126.772C20.9744 126.862 21.0119 126.952 21.0194 127.042C21.0194 127.132 20.9819 127.222 20.8919 127.297L20.6294 127.53C20.5394 127.613 20.4494 127.643 20.3594 127.628C20.2694 127.613 20.1869 127.56 20.1119 127.478L18.807 125.998C18.732 125.915 18.6945 125.825 18.687 125.735C18.687 125.645 18.7245 125.555 18.8145 125.48L19.077 125.247C19.167 125.164 19.257 125.134 19.347 125.149C19.437 125.164 19.5195 125.217 19.5945 125.299L19.9544 125.705L23.0967 122.926L21.8968 121.566L21.4468 121.964C21.3568 122.047 21.2668 122.085 21.1768 122.092C21.0868 122.092 20.9969 122.055 20.9219 121.964L20.6894 121.702C20.6069 121.611 20.5769 121.521 20.5919 121.431L20.5844 121.439Z" fill="black"/>
<path d="M16.7523 116.361C16.7748 116.271 16.8347 116.196 16.9322 116.121L17.8847 115.415C17.9897 115.34 18.1097 115.31 18.2297 115.325C18.3496 115.34 18.4621 115.407 18.5446 115.52L20.802 118.592C20.877 118.69 20.907 118.78 20.907 118.877C20.907 118.967 20.8545 119.05 20.757 119.125L20.472 119.336C20.3745 119.403 20.2845 119.433 20.1945 119.403C20.1045 119.373 20.0295 119.321 19.9545 119.223L19.857 119.095L16.4823 121.589L16.5798 121.717C16.6473 121.814 16.6848 121.904 16.6848 122.002C16.6848 122.092 16.6323 122.175 16.5348 122.25L16.2498 122.46C16.1523 122.528 16.0623 122.558 15.9723 122.528C15.8823 122.498 15.8073 122.445 15.7398 122.355L14.5699 120.763C14.5024 120.673 14.4724 120.582 14.4724 120.485C14.4724 120.395 14.5249 120.312 14.6224 120.237L14.9074 120.027C15.0049 119.959 15.0949 119.929 15.1849 119.959C15.2749 119.989 15.3499 120.042 15.4173 120.132L15.7398 120.567L19.1146 118.074L18.0422 116.616L17.5547 116.977C17.4572 117.045 17.3672 117.082 17.2697 117.082C17.1797 117.082 17.0972 117.03 17.0222 116.932L16.8123 116.647C16.7373 116.549 16.7148 116.459 16.7448 116.369L16.7523 116.361Z" fill="black"/>
<path d="M8.58524 109.541C8.78773 108.827 9.31269 108.249 10.1451 107.806C10.7226 107.498 11.2926 107.332 11.855 107.31C12.4175 107.295 12.9274 107.415 13.3924 107.685C13.8574 107.956 14.2249 108.354 14.5023 108.872L15.5523 110.825C15.6123 110.93 15.6273 111.028 15.6123 111.118C15.5973 111.208 15.5373 111.283 15.4323 111.336L15.1248 111.501C15.0198 111.561 14.9223 111.569 14.8398 111.531C14.7573 111.494 14.6823 111.426 14.6298 111.313L14.5548 111.171L10.8576 113.154L10.9326 113.296C10.9926 113.401 11.0076 113.499 10.9926 113.589C10.9776 113.679 10.9176 113.754 10.8126 113.807L10.5051 113.972C10.4001 114.032 10.3026 114.04 10.2201 114.002C10.1376 113.965 10.0701 113.897 10.0101 113.8L8.97522 111.862C8.52525 111.013 8.39776 110.232 8.60024 109.526L8.58524 109.541ZM12.47 108.549C11.9825 108.459 11.4275 108.579 10.8051 108.91C10.2201 109.225 9.86016 109.586 9.71017 109.999C9.56018 110.412 9.62767 110.885 9.91265 111.411L10.2501 112.049L13.9474 110.066L13.6024 109.42C13.3399 108.925 12.9649 108.639 12.47 108.549Z" fill="black"/>
<path d="M11.6375 103.689C11.5625 104.178 11.3526 104.613 10.9926 105.004C10.6401 105.394 10.1601 105.71 9.55268 105.958C8.92273 106.213 8.33777 106.326 7.78281 106.288C7.22784 106.258 6.74788 106.085 6.32791 105.777C5.90793 105.469 5.59296 105.041 5.36047 104.486C5.14299 103.952 5.06799 103.441 5.14299 102.953C5.21798 102.473 5.43547 102.029 5.78794 101.646C6.14042 101.256 6.62039 100.94 7.22784 100.692C7.8503 100.437 8.43526 100.324 8.99022 100.354C9.54519 100.384 10.0252 100.55 10.4451 100.858C10.8651 101.166 11.1801 101.594 11.4051 102.142C11.6225 102.683 11.6975 103.194 11.6225 103.682L11.6375 103.689ZM9.45519 101.624C8.99772 101.511 8.42026 101.601 7.73031 101.879C6.4329 102.412 5.97543 103.149 6.3579 104.095C6.56039 104.591 6.89037 104.891 7.34784 105.004C7.8053 105.116 8.37527 105.034 9.05772 104.756C10.3701 104.223 10.8351 103.479 10.4451 102.533C10.2426 102.037 9.91266 101.736 9.45519 101.624Z" fill="black"/>
<path d="M1.50591 91.6341C1.54341 91.5514 1.6184 91.4913 1.73089 91.4613L2.06837 91.3712C2.18086 91.3411 2.27835 91.3486 2.35335 91.4087C2.42834 91.4613 2.48084 91.5439 2.51084 91.6566L2.55584 91.8218H7.70048C7.79048 91.8218 7.86547 91.8519 7.93297 91.912C8.00046 91.9646 8.04546 92.0397 8.07546 92.1373L8.22545 92.6931C8.24794 92.7833 8.24794 92.8734 8.22545 92.9635C8.19545 93.0462 8.14295 93.1138 8.06796 93.1588L5.03067 95.1643L8.66042 95.3446C8.75041 95.3446 8.8254 95.3821 8.9004 95.4422C8.9679 95.5023 9.01289 95.5774 9.04289 95.6676L9.19288 96.2309C9.21538 96.321 9.21538 96.4037 9.18538 96.4863C9.15538 96.5764 9.10289 96.6365 9.02789 96.6816L4.5882 99.288L4.63319 99.4532C4.66319 99.5659 4.66319 99.6635 4.62569 99.7461C4.5882 99.8288 4.5132 99.8889 4.40071 99.9189L4.06323 100.009C3.95074 100.039 3.85325 100.032 3.77825 99.9715C3.70326 99.9189 3.65076 99.8363 3.62076 99.7236L3.20079 98.1688C3.1333 97.9209 3.21579 97.7632 3.44077 97.7031L3.77825 97.613C4.00324 97.5529 4.15323 97.643 4.22072 97.8984L4.26572 98.0561L7.36301 96.261L3.88324 96.0882C3.78575 96.0882 3.71076 96.0582 3.64326 96.0056C3.57577 95.9605 3.53077 95.8929 3.50827 95.8028L3.33578 95.1568C3.31328 95.0742 3.32078 94.9991 3.35078 94.9165C3.38078 94.8413 3.44078 94.7737 3.51577 94.7212L6.39557 92.8283L2.86331 92.8584L2.90831 93.0161C2.97581 93.264 2.89331 93.4217 2.66833 93.4818L2.33085 93.5719C2.10587 93.632 1.95588 93.5419 1.88838 93.2865L1.52091 91.9195C1.49091 91.8068 1.49091 91.7092 1.52841 91.6266L1.50591 91.6341Z" fill="black"/>
<path d="M0.575858 83.462L0.920834 83.417C1.15332 83.3869 1.28831 83.4996 1.32581 83.755L1.3483 83.9127L6.13298 83.2442C6.24547 83.2292 6.35046 83.2517 6.44046 83.3193C6.53045 83.3869 6.58295 83.477 6.59794 83.5972L6.67294 84.1606C6.68794 84.2883 6.65044 84.4009 6.55295 84.476L2.98319 87.4805L6.01298 87.0599L5.99049 86.9021C5.95299 86.6468 6.05048 86.5041 6.28297 86.4665L6.62794 86.4214C6.86043 86.3914 6.99542 86.5041 7.02541 86.7594L7.2204 88.149C7.2354 88.2692 7.2204 88.3668 7.1754 88.4495C7.13041 88.5321 7.04791 88.5771 6.92792 88.5922L6.58295 88.6372C6.46295 88.6523 6.37296 88.6372 6.30546 88.5696C6.23797 88.5095 6.20047 88.4119 6.17797 88.2992L6.15547 88.1415L2.00076 88.7199L2.02326 88.8776C2.03826 88.9978 2.02326 89.0954 1.97826 89.178C1.93326 89.2607 1.85077 89.3057 1.73078 89.3208L1.3858 89.3658C1.26581 89.3808 1.17582 89.3658 1.10832 89.2982C1.04083 89.2381 1.00333 89.148 0.988329 89.0353L0.83084 87.8936C0.815841 87.7659 0.853339 87.6608 0.950832 87.5782L4.52809 84.5737L1.49079 85.0018L1.51329 85.1596C1.52829 85.2797 1.51329 85.3774 1.4683 85.46C1.4233 85.5426 1.34081 85.5877 1.22081 85.6027L0.875837 85.6478C0.755845 85.6628 0.665852 85.6478 0.598356 85.5802C0.530861 85.5201 0.493363 85.4224 0.470865 85.3098L0.275878 83.9202C0.238381 83.6648 0.335874 83.5221 0.568358 83.4846L0.575858 83.462Z" fill="black"/>
<path d="M3.92813 64.1654C4.13812 63.9025 4.3556 63.7298 4.59559 63.6397C4.83557 63.5495 5.12805 63.5345 5.48053 63.5871C5.8255 63.6397 6.12548 63.7749 6.38046 64.0077C6.63545 64.2406 6.81543 64.541 6.92793 64.9015C7.04042 65.2621 7.06292 65.6527 7.00292 66.0808C6.94293 66.524 6.82293 66.9145 6.65044 67.245C6.47796 67.5755 6.26797 67.8159 6.01299 67.9661C5.75801 68.1238 5.48802 68.1764 5.19554 68.1389C4.95556 68.1013 4.76807 68.0037 4.64058 67.8459C4.51309 67.6882 4.4606 67.4929 4.49809 67.2676C4.53559 67.0422 4.61808 66.8695 4.76057 66.7493C4.90306 66.6291 5.07555 66.584 5.27804 66.6141C5.40553 66.6291 5.51802 66.6817 5.63051 66.7568C5.7955 66.5615 5.9005 66.3136 5.94549 65.9982C5.99049 65.6602 5.96799 65.3898 5.863 65.1945C5.75801 64.9992 5.59302 64.879 5.36053 64.849C5.22554 64.8264 5.11305 64.8414 5.02306 64.879C4.93306 64.9166 4.84307 65.0067 4.74558 65.1419C4.65558 65.2771 4.53559 65.4874 4.4006 65.7803C4.16062 66.2761 3.92813 66.6592 3.71065 66.9371C3.49316 67.215 3.25318 67.4103 2.9982 67.5154C2.74321 67.6206 2.45073 67.6506 2.10576 67.6056C1.74578 67.553 1.4383 67.4103 1.18332 67.1699C0.928338 66.9296 0.75585 66.6291 0.650857 66.2536C0.545865 65.878 0.523366 65.4649 0.590861 65.0142C0.643358 64.6311 0.75585 64.2931 0.928338 64.0077C1.09333 63.7223 1.30331 63.512 1.5433 63.3768C1.79078 63.2416 2.05326 63.189 2.33824 63.2341C2.58572 63.2716 2.76571 63.3693 2.8932 63.5345C3.02069 63.6997 3.06569 63.895 3.03569 64.1204C3.0057 64.3457 2.9157 64.511 2.77321 64.6311C2.63072 64.7513 2.45823 64.7964 2.25575 64.7738C2.12826 64.7588 2.01576 64.7062 1.90327 64.6311C1.76078 64.7363 1.66329 64.9541 1.61829 65.2846C1.57329 65.5775 1.61079 65.8179 1.70828 66.0057C1.81328 66.1935 1.97077 66.3061 2.19575 66.3362C2.33824 66.3587 2.45823 66.3362 2.56323 66.2911C2.66072 66.2385 2.76571 66.1409 2.86321 65.9982C2.9607 65.8555 3.08819 65.6301 3.23068 65.3297C3.47066 64.8189 3.69565 64.4283 3.90563 64.173L3.92813 64.1654Z" fill="black"/>
<path d="M6.81555 57.0901C6.92804 57 7.04803 56.9774 7.18302 57.0075C7.25052 57.0225 7.33301 57.0601 7.43051 57.1201C7.528 57.1802 7.6105 57.2403 7.68549 57.3154C7.99297 57.6159 8.18796 57.9539 8.28545 58.3144C8.38294 58.6825 8.37544 59.0956 8.26295 59.5613C8.13546 60.1021 7.88798 60.5453 7.5355 60.8757C7.17553 61.2137 6.73306 61.4241 6.20059 61.5217C5.66813 61.6194 5.08317 61.5893 4.43821 61.4391C3.79326 61.2889 3.26829 61.0485 2.84832 60.7255C2.42835 60.4025 2.14337 60.012 1.99338 59.5538C1.84339 59.0956 1.82839 58.5923 1.96338 58.0365C2.06088 57.6309 2.21087 57.2854 2.42085 56.9849C2.63084 56.6845 2.87832 56.4667 3.1558 56.339C3.43328 56.2038 3.71826 56.1737 4.00324 56.2413C4.24323 56.3014 4.41571 56.4141 4.52821 56.5869C4.6407 56.7596 4.6707 56.9549 4.6182 57.1802C4.5657 57.3981 4.46071 57.5558 4.31072 57.6685C4.16073 57.7811 3.98074 57.8037 3.77826 57.7586C3.62827 57.721 3.50078 57.6534 3.41078 57.5558C3.2083 57.706 3.06581 57.9464 2.99081 58.2694C2.87082 58.7576 2.95332 59.1632 3.2383 59.4711C3.52328 59.7791 4.01074 60.0195 4.70819 60.1847C6.17059 60.5377 7.02554 60.2223 7.25802 59.2383C7.31802 58.9904 7.31052 58.7726 7.24302 58.5698C7.17553 58.367 7.04053 58.1867 6.84555 58.014C6.72556 57.9088 6.64306 57.8187 6.61306 57.7361C6.58307 57.6534 6.57557 57.5558 6.60556 57.4356C6.64306 57.2929 6.71056 57.1727 6.82305 57.0826L6.81555 57.0901Z" fill="black"/>
<path d="M10.3101 50.2625L10.6401 50.3752C10.7526 50.4127 10.8276 50.4803 10.8576 50.563C10.8876 50.6456 10.8801 50.7508 10.8426 50.8634L10.5051 51.8324C10.4826 51.8925 10.4451 51.945 10.4001 51.9901C10.3551 52.0352 10.2951 52.0577 10.2276 52.0652L8.46526 52.3882C8.21777 52.4333 8.03779 52.4858 7.91779 52.5309C7.7978 52.576 7.70781 52.6361 7.64031 52.7187C7.58032 52.8013 7.51282 52.929 7.46033 53.0867L7.37783 53.3271L8.71274 53.7928L8.76524 53.6426C8.84773 53.4022 9.00522 53.3121 9.22271 53.3947L9.55268 53.5074C9.77017 53.5825 9.84516 53.7477 9.75517 53.9881L9.2377 55.4903C9.20021 55.603 9.14021 55.6856 9.06522 55.7382C8.99022 55.7908 8.89273 55.7908 8.78024 55.7532L8.45026 55.6405C8.33777 55.603 8.26277 55.5354 8.23277 55.4528C8.20278 55.3701 8.21028 55.265 8.24777 55.1523L8.30027 55.0021L4.34054 53.6275L4.28804 53.7778C4.25055 53.8904 4.19055 53.9731 4.11556 54.0256C4.04056 54.0782 3.94307 54.0782 3.83058 54.0407L3.5006 53.928C3.38811 53.8904 3.31311 53.8228 3.28311 53.7402C3.25312 53.6576 3.25312 53.5524 3.29061 53.4473L4.01056 51.3592C4.26555 50.6231 4.60302 50.1198 5.01549 49.8494C5.43547 49.5715 5.93043 49.5339 6.49289 49.7292C6.88287 49.8644 7.18285 50.0823 7.38533 50.3902C7.58782 50.6982 7.68531 51.0587 7.68531 51.4718C7.76781 51.3817 7.8653 51.3141 7.99279 51.269C8.11278 51.2164 8.27027 51.1789 8.45776 51.1413L9.71767 50.916L9.85266 50.5254C9.94266 50.2775 10.0926 50.1874 10.3176 50.2625H10.3101ZM6.60539 52.3657C6.74038 51.9826 6.76287 51.6746 6.68038 51.4493C6.59789 51.224 6.4029 51.0587 6.09542 50.9536C5.84794 50.8709 5.63045 50.886 5.45046 51.0136C5.27048 51.1413 5.12049 51.3817 4.993 51.7422L4.75301 52.4333L6.3879 52.9966L6.60539 52.3657Z" fill="black"/>
<path d="M11.6526 48.2042C11.2477 48.4821 10.7827 48.6248 10.2577 48.6323C9.73276 48.6323 9.1778 48.5046 8.57784 48.2267C7.96289 47.9413 7.48292 47.5882 7.13044 47.1601C6.77797 46.732 6.57548 46.2588 6.51548 45.748C6.45549 45.2297 6.55298 44.7039 6.80047 44.1556C7.04045 43.6298 7.36293 43.2317 7.7679 42.9538C8.17287 42.6759 8.63784 42.5407 9.1628 42.5332C9.68777 42.5332 10.2502 42.6609 10.8427 42.9388C11.4501 43.2242 11.9376 43.5773 12.2901 43.9979C12.6426 44.426 12.8525 44.8917 12.9125 45.41C12.9725 45.9283 12.875 46.454 12.6276 46.9949C12.3801 47.5206 12.0576 47.9262 11.6526 48.2042ZM11.6676 45.1997C11.4351 44.7866 10.9852 44.426 10.3027 44.1106C9.02781 43.5172 8.18037 43.6899 7.7529 44.6138C7.52792 45.102 7.53541 45.5452 7.7604 45.9583C7.98538 46.3714 8.44285 46.732 9.11031 47.0399C10.3927 47.6333 11.2552 47.4681 11.6826 46.5442C11.9076 46.056 11.9001 45.6128 11.6751 45.1997H11.6676Z" fill="black"/>
<path d="M15.1772 37.9593C15.2672 37.9443 15.3647 37.9743 15.4697 38.0344L16.4972 38.6353C16.6096 38.7029 16.6846 38.8006 16.7146 38.9207C16.7446 39.0409 16.7296 39.1686 16.6546 39.2813L14.7273 42.5712C14.6673 42.6763 14.5923 42.7439 14.5098 42.774C14.4273 42.804 14.3298 42.7965 14.2248 42.7289L13.9248 42.5486C13.8198 42.4886 13.7598 42.4134 13.7523 42.3233C13.7373 42.2332 13.7673 42.1355 13.8273 42.0304L13.9098 41.8877L10.2951 39.762L10.2126 39.9047C10.1526 40.0099 10.0776 40.0775 9.9951 40.1075C9.91261 40.1376 9.81511 40.13 9.71012 40.07L9.41014 39.8897C9.30515 39.8296 9.24515 39.7545 9.23765 39.6643C9.22266 39.5742 9.24515 39.4766 9.30515 39.3789L10.3026 37.6739C10.3626 37.5762 10.4301 37.5086 10.5201 37.4786C10.6101 37.4485 10.7001 37.4561 10.805 37.5161L11.105 37.6964C11.21 37.7565 11.27 37.8316 11.2775 37.9218C11.2925 38.0119 11.27 38.1095 11.21 38.2072L10.94 38.6729L14.5548 40.7985L15.4697 39.2362L14.9523 38.9283C14.8473 38.8682 14.7798 38.793 14.7498 38.7104C14.7198 38.6278 14.7273 38.5302 14.7948 38.425L14.9748 38.1246C15.0348 38.0194 15.1098 37.9593 15.1997 37.9518L15.1772 37.9593Z" fill="black"/>
<path d="M18.807 32.7312C18.897 32.7312 18.9945 32.7612 19.092 32.8288L20.0594 33.5199C20.1644 33.595 20.2319 33.7001 20.2544 33.8203C20.2769 33.948 20.2469 34.0682 20.1644 34.1809L17.9521 37.283C17.8846 37.3806 17.8021 37.4407 17.7121 37.4708C17.6221 37.5008 17.5321 37.4708 17.4346 37.4032L17.1496 37.2004C17.0521 37.1328 16.9996 37.0501 16.9996 36.96C16.9996 36.8699 17.0296 36.7722 17.0971 36.6746L17.1946 36.5394L13.7823 34.0982L13.6849 34.2334C13.6174 34.3311 13.5349 34.3912 13.4449 34.4212C13.3549 34.4513 13.2649 34.4212 13.1674 34.3536L12.8824 34.1508C12.7849 34.0832 12.7324 34.0006 12.7324 33.9105C12.7324 33.8203 12.7624 33.7227 12.8224 33.6325L13.9698 32.0251C14.0373 31.935 14.1123 31.8749 14.2023 31.8449C14.2923 31.8223 14.3823 31.8449 14.4798 31.9125L14.7648 32.1153C14.8623 32.1829 14.9148 32.2655 14.9148 32.3556C14.9148 32.4458 14.8848 32.5434 14.8248 32.6336L14.5098 33.0767L17.9221 35.5179L18.972 34.0457L18.4845 33.6926C18.387 33.625 18.327 33.5424 18.297 33.4523C18.2745 33.3621 18.297 33.272 18.3645 33.1744L18.567 32.8889C18.6345 32.7913 18.717 32.7387 18.807 32.7387V32.7312Z" fill="black"/>
<path d="M22.7444 22.8317C23.4793 22.8092 24.1918 23.1171 24.8817 23.7781C25.3542 24.2288 25.6917 24.7245 25.8791 25.2503C26.0741 25.7761 26.1116 26.3019 25.9991 26.8277C25.8866 27.3535 25.6242 27.8267 25.2192 28.2548L23.6893 29.8622C23.6068 29.9523 23.5168 29.9974 23.4268 30.0124C23.3368 30.0274 23.2468 29.9899 23.1568 29.9073L22.9019 29.6669C22.8119 29.5843 22.7744 29.4941 22.7819 29.404C22.7894 29.3139 22.8344 29.2237 22.9169 29.1336L23.0293 29.0134L19.9921 26.1141L19.8796 26.2343C19.7971 26.3244 19.7071 26.3695 19.6171 26.3845C19.5271 26.3995 19.4371 26.362 19.3471 26.2794L19.0921 26.039C19.0021 25.9564 18.9646 25.8662 18.9721 25.7761C18.9796 25.686 19.0246 25.5958 19.0996 25.5132L20.6145 23.9208C21.2745 23.2223 21.9794 22.8618 22.7144 22.8392L22.7444 22.8317ZM24.8892 26.2193C24.8217 25.7235 24.5367 25.2353 24.0268 24.7471C23.5468 24.2889 23.0893 24.056 22.6544 24.041C22.2119 24.026 21.7844 24.2363 21.372 24.672L20.877 25.1902L23.9143 28.0896L24.4167 27.5638C24.7992 27.1582 24.9642 26.7075 24.8967 26.2118L24.8892 26.2193Z" fill="black"/>
<path d="M29.2539 23.9058C28.7664 23.9884 28.2865 23.9208 27.8065 23.703C27.3265 23.4852 26.8766 23.1321 26.4566 22.6289C26.0141 22.1106 25.7291 21.5848 25.5867 21.0515C25.4442 20.5182 25.4592 20 25.6166 19.5117C25.7741 19.0235 26.0891 18.5804 26.5466 18.1898C26.9891 17.8142 27.4465 17.5889 27.9265 17.5063C28.4065 17.4236 28.8939 17.4912 29.3664 17.7091C29.8464 17.9269 30.2963 18.2799 30.7163 18.7832C31.1513 19.2939 31.4437 19.8197 31.5862 20.353C31.7287 20.8863 31.7212 21.4046 31.5637 21.8928C31.4063 22.381 31.0988 22.8242 30.6413 23.2072C30.1988 23.5828 29.7339 23.8157 29.2464 23.8983L29.2539 23.9058ZM30.5288 21.1792C30.4913 20.7135 30.2288 20.1877 29.7489 19.6169C28.8414 18.5428 27.994 18.34 27.2215 19.001C26.8166 19.3465 26.6291 19.7521 26.6666 20.2253C26.7041 20.6985 26.9591 21.2093 27.439 21.7726C28.354 22.8542 29.2014 23.0645 29.9813 22.4035C30.3863 22.058 30.5738 21.6524 30.5363 21.1792H30.5288Z" fill="black"/>
<path d="M37.5033 10.4982C37.5933 10.5057 37.6758 10.5583 37.7433 10.6635L37.9383 10.9564C38.0058 11.054 38.0208 11.1517 37.9908 11.2418C37.9608 11.3319 37.9008 11.4071 37.8033 11.4671L37.6608 11.5648L39.2732 16.4621C39.2957 16.5447 39.2957 16.6273 39.2657 16.71C39.2357 16.7926 39.1757 16.8602 39.1007 16.9128L38.6208 17.2282C38.5383 17.2808 38.4558 17.3109 38.3658 17.3033C38.2758 17.3033 38.1933 17.2733 38.1333 17.2132L35.2835 14.9523L36.2509 18.4601C36.2734 18.5502 36.2659 18.6328 36.2284 18.7155C36.1909 18.7981 36.1384 18.8657 36.0559 18.9183L35.5685 19.2412C35.4935 19.2938 35.411 19.3163 35.321 19.3163C35.231 19.3163 35.1485 19.2863 35.0885 19.2262L31.2263 15.8236L31.0838 15.9213C30.9863 15.9814 30.8963 16.0114 30.8063 16.0039C30.7163 15.9964 30.6338 15.9438 30.5738 15.8387L30.3788 15.5457C30.3113 15.4481 30.2963 15.3504 30.3188 15.2678C30.3488 15.1777 30.4088 15.1026 30.5063 15.0425L31.8487 14.1562C32.0662 14.0134 32.2387 14.0435 32.3662 14.2388L32.5612 14.5317C32.6887 14.727 32.6437 14.8998 32.4337 15.035L32.2987 15.1251L34.9685 17.5062L34.0461 14.1411C34.0236 14.051 34.0236 13.9684 34.0461 13.8858C34.0686 13.8106 34.1211 13.743 34.1961 13.698L34.751 13.3299C34.8185 13.2849 34.901 13.2623 34.9835 13.2698C35.066 13.2773 35.1485 13.3074 35.2235 13.3675L37.9233 15.5157L36.7909 12.1582L36.6559 12.2483C36.4384 12.391 36.2659 12.361 36.1384 12.1657L35.9434 11.8728C35.816 11.6775 35.861 11.5047 36.0709 11.362L37.2484 10.5808C37.3458 10.5207 37.4358 10.4907 37.5258 10.4982H37.5033Z" fill="black"/>
<path d="M44.9504 7.05783L45.1079 7.3733C45.2129 7.58361 45.1454 7.74886 44.9129 7.86153L44.7704 7.93664L46.9077 12.2781C46.9602 12.3833 46.9677 12.4884 46.9302 12.5936C46.8927 12.6987 46.8252 12.7814 46.7202 12.8339L46.2103 13.0818C46.0903 13.1419 45.9778 13.1344 45.8728 13.0668L41.9056 10.6106L43.2555 13.3597L43.398 13.2846C43.6305 13.1719 43.7954 13.217 43.9004 13.4273L44.0579 13.7428C44.1629 13.9531 44.0954 14.1184 43.8629 14.231L42.603 14.8544C42.498 14.907 42.4005 14.9221 42.3031 14.907C42.2131 14.8845 42.1456 14.8244 42.0856 14.7192L41.9281 14.4038C41.8756 14.2986 41.8681 14.201 41.9056 14.1184C41.9431 14.0357 42.0181 13.9681 42.1231 13.9156L42.2656 13.8404L40.4132 10.0698L40.2707 10.1449C40.1657 10.1975 40.0682 10.2125 39.9707 10.1975C39.8807 10.175 39.8132 10.1149 39.7532 10.0097L39.5957 9.69426C39.5432 9.5891 39.5357 9.49146 39.5732 9.40883C39.6107 9.32621 39.6857 9.25861 39.7832 9.20603L40.8182 8.69527C40.9381 8.63518 41.0506 8.64269 41.1556 8.71029L45.1304 11.174L43.773 8.41735L43.6305 8.49247C43.5255 8.54504 43.428 8.56007 43.338 8.54504C43.248 8.52251 43.1805 8.46242 43.1205 8.35726L42.963 8.04179C42.9105 7.93664 42.903 7.83899 42.9405 7.75637C42.978 7.67375 43.053 7.60614 43.158 7.55357L44.4179 6.93014C44.6504 6.81747 44.8154 6.86254 44.9204 7.07285L44.9504 7.05783Z" fill="black"/>
</g>
<defs>
<clipPath id="clip0_414_1389">
<rect width="150.747" height="151.448" fill="white" transform="translate(0.275879 0.275391)"/>
</clipPath>
</defs>
</svg>
