<?xml version="1.0" encoding="UTF-8"?>
<svg id="Layer_1" data-name="Layer 1" xmlns="http://www.w3.org/2000/svg" viewBox="0 0 300 300">
  <defs>
    <style>
      .cls-1 {
        fill: #fff;
      }
    </style>
  </defs>
  <path class="cls-1" d="m169.56,244.2c-.5.48-1.01.95-1.54,1.41l1.55.27c.49-.34.88-1.43-.01-1.68Z"/>
  <path class="cls-1" d="m168.85,243.13c-.12-.93-.38-1.61-.89-2.02-.5-.42-1.27-.54-2.21-.47.02-.54.57-.77.84-1.02-1.32.2-3.28.82-3.89,2.65,1.96-.9,1.65-.1,3.86-1.32.82.28.85,1.36.32,1.88.52-.26.87,1.14,1.97.3Z"/>
  <path class="cls-1" d="m110.75,184.21c-.02-.19-.11-.36-.23-.51l.23.51Z"/>
  <path class="cls-1" d="m75.86,149.92c.27.25.52.23.67.13-.32-.17-.59-.3-.67-.13Z"/>
  <path class="cls-1" d="m72.4,142.25c.06.17.13.3.19.45.03-.25,0-.46-.19-.45Z"/>
  <path class="cls-1" d="m110.52,183.7l-.58-1.33c-.49.43.19.8.58,1.33Z"/>
  <path class="cls-1" d="m155,236.03c.27.12.57.15.89.12-.23-.09-.44-.19-.64-.31-.08.07-.15.13-.24.2Z"/>
  <path class="cls-1" d="m127.92,196.6l.3.26c.24-.09.5-.23.78-.39l-1.08.14Z"/>
  <path class="cls-1" d="m138.7,208.61c.66-.34,1.17-.27,1.5-.12.24-.22.48-.52.73-.96-.29-.4-1.6.65-2.23,1.08Z"/>
  <path class="cls-1" d="m156.98,228.49l.49.15c-.14-.03-.33-.12-.49-.15Z"/>
  <path class="cls-1" d="m119.18,188.57c.14-.21.24-.41.28-.55-.14.16-.22.35-.28.55Z"/>
  <path class="cls-1" d="m251.06,206.86c-.12.02-.19.06-.29.08.2.06.32.06.29-.08Z"/>
  <path class="cls-1" d="m243.71,227.87l-.04-.28c-.31-.1-.61-.19-.91-.26l.95.54Z"/>
  <path class="cls-1" d="m65.87,129.1s0,.04,0,.07c.37.22.22.05,0-.07Z"/>
  <path class="cls-1" d="m110.83,76.72c.06-1.03.8-.95,1.52-.93.7.02,1.39-.01,1.24-1.41-.36.58-3.28.39-2.76,2.34Z"/>
  <path class="cls-1" d="m154.83,235.57c-.18-.14-.36-.29-.52-.46.19.26.36.4.52.46Z"/>
  <path class="cls-1" d="m52.93,100.22c.17-.03.37-.13.69-.4-.29.1-.49.25-.69.4Z"/>
  <path class="cls-1" d="m58.76,123.39l-.09-.65c-.02.29.02.49.09.65Z"/>
  <path class="cls-1" d="m51.52,87.54c.12-.14.2-.27.1-.59-.09.03-.16.05-.22.1.15.14.22.29.13.49Z"/>
  <path class="cls-1" d="m51.52,87.54c-.06.07-.12.14-.18.24.09-.09.14-.16.18-.24Z"/>
  <path class="cls-1" d="m55.1,75.76c-.14,0-.27.04-.4.06-.03.13-.06.27-.09.4l.5-.46Z"/>
  <path class="cls-1" d="m220.69,169.85c.07.59,0,1.15-.12,1.68.38-1.16,2.64-.34.12-1.68Z"/>
  <path class="cls-1" d="m155.64,235.34c-.35.25-.59.32-.81.24.14.1.28.19.42.27.2-.15.37-.32.4-.5Z"/>
  <path class="cls-1" d="m38.29,85.17c.24-.86.43-1.73.72-2.58-.34.69-.57,1.64-.72,2.58Z"/>
  <path class="cls-1" d="m135.81,151.39c-.11-.17-.27-.26-.5-.23l.5.23Z"/>
  <path class="cls-1" d="m40.99,74.88c.71-.25,1.24-.58,1.64-.97-.08-.15-.13-.31-.28-.45-.45.47-.93.93-1.36,1.42Z"/>
  <path class="cls-1" d="m66.17,130.57c-.14-.17-.27-.27-.39-.35.11.14.24.26.39.35Z"/>
  <path class="cls-1" d="m249.96,218.72c1.08-.37,2.21,1.13,2.75-.69-1.28-1.16-2.41,1.26-3.29-.67,1.17-1.3,2.22-1.07.99-2.42.69-.29,1.18-.03,1.56.53-.95-1.25-.84-3.46-2.42-3.85.68-.79.32-1.84.14-2.74-.18-.9-.2-1.66,1.09-1.95-.74-.25-2.64-1.63-3.12-2.68,3.74,1-1.34-4.21,1.92-4.94-1.66-.2-2.48-1.43-3.39-2.78-.44-.68-.84-1.42-1.35-2.07-.51-.65-1.09-1.23-1.78-1.63.27.02.82.05.82.34-.59-1.5-.14-2.34-.27-3.5-1.04.56-2.01.4-2.96.09-.94-.31-1.92-.74-2.88-.82.66-2.9,2.9-.74,4.29-2.51-.74.61-1.63.2-2.44-.15-.8-.36-1.58-.62-1.98.12.14-2.01-.28-1.39.7-3.25-1.2.86-1.51.68-1.8.32-.3-.35-.59-.89-1.67-.71-.42-2.53,1.63-2.34-.69-3.38-.1-.72.42-.9.96-.89.55,0,1.12.21,1.12.21-1.75-1.78-2.35.74-3.6,1.3-2.49-1.48.14-2.09.17-3.61-1.77-.81-4.14-.09-5.12-.97.14-.35.02-.61.54-.79-1.29.11-2.42-.7-3.66-1.44-1.23-.74-2.56-1.43-4.07-1.01-.04-.25-.02-.45.03-.62-.26,1.14-.79,2.13-1.26,2.79-.89-.49-2.29.3-1.94-1.15.53.33.85-.16,1.33-.41l-1.25.04c.12-2.29,1.65.05,2.39-1.27-2.24-.49-5.16-.02-6.4-1.16.24-1,1.2-.79,1.92-.61.72.18,1.23.3.61-1,.67.62,1.34,1.2,1.97,1.84-.29-3.79,1.31.95,1.26-2.97-1.46-1.06-2.48-1.27-3.5-1.42-1.02-.17-2.01-.31-3.57-1.2-1.13.79-.33,1.65-1.44,2.47-2.59.18-3.1-1.25-3.58-2.64-.47-1.34-.9-2.64-3.03-1.67-1.24,1.14-1.96,3.59-4.28,1.92.38-.74.77-1.46,1.17-2.17-3.48-.62-2.24,3.02-5.69,1.32.65-.93,2.72-.63,2.22-.95-2.28-1.95-1.72,1.23-3.46,1.21l-.41-2.04c-3.82.42-7.73,2.45-11.44,4.11.01-.64.53-1.48-.62-1.76-2.41,1.34-5.02,2.48-7.67,3.75-2.65,1.26-5.31,2.68-7.69,4.27-.11.54.14.68.24.99.12.28.25.59.34.89-.16.09-.74-.44-.83-.8-.44-.08-.27.16.01.5.28.34.74.78.77,1.18-.37.37-1.02-.54-1.1-1.13-.05.92-.72,2.16-1.89,2.63-.56.28-1.2.3-1.74.16-.54-.18-.99-.55-1.18-1.14.16-.12.3-.24.45-.39-.2-.26-.43-.22-.73-.03-.28.16-.63.45-1,.71-.69.49-1.51.77-1.53-.32l.41-.08-.19-.23-.31-.34c-.22-.24-.45-.47-.68-.71-.46-.46-.95-.91-1.44-1.35-.98-.88-1.98-1.74-2.91-2.62-1.86-1.76-3.44-3.61-3.93-5.93-2.3,1.31-2.87-4.35-5.58-2.06-.87-3.32.17-3.17-1.92-6.94-.66-.9-2.73.38-3.95-.34l1.3-1.32-2.69.02.9-2.25-1.23-.59c.28.44.16,1.36-.28,1.67-2-.86-2.45-4.42-1.79-5.11l-4.37-2.39c.47-.33,1-.17,1.57-.01-1.99-.59,1.46-1.56-1.17-2.05-.1.51-.93.62-1.24.83.02-.8-.4-1.69-1.03-2.52-.16-.21-.33-.41-.51-.61-.16-.18-.43-.44-.47-.48-.18-.16-.43-.28-.62-.41.38-.19.76-.39,1.13-.6-.23-.61-.61-1.08-.93-1.74-.32-.64-.57-1.5-.32-2.31-.69.43-2.89.05-2.91-.79.66.07,1.31.16,1.95.27-.53-.36-.74-.27-.98-.22-.24.04-.51.08-1.08-.63.57-.87,2.27.3,2.74.82-.1-.32-.24-.69-.28-1.05.54.22.73.53,1.39.87-.48-.38.1-.49.59-.52.22-.04.47-.04.53-.17.06-.13-.01-.34-.32-.77l.46.36c.06-.07.12-.14.17-.21.21-.22.41-.45.61-.66.39-.43.74-.85,1.07-1.25.61-.84,1.16-1.59,1.61-2.37.45-.78.89-1.52,1.29-2.33.42-.8.85-1.63,1.31-2.57-.73-.43-.81-.95-.82-1.58-.02-.63.04-1.36-.34-2.15,1.62-2.35,3.85-5.16,4.25-8.69-.49-2.53-1.3-.9-2.17-2.07.77,0,1.2-.84,1.55-1.47.33-.62.58-1.03,1.1-.1-.01-2.08-.1-3.4-.35-4.82-.28-1.42-.68-2.97-1.69-5.33-.54.63-.73,1.25-1.29,1.02-.37-.82.33-2.08,1.07-2.09l.2.2c-1.6-2.52-1.3-5.76-1.42-9.03-.08-3.24-.61-6.43-3.08-7.64l.26.15c-1.2-1.11-2.45-2.14-3.71-3.11-.89-1.89,1.65.44,1.62-1.37-2.4-1.42-3.46-2.97-4.42-4.55-.48-.78-.96-1.54-1.54-2.24-.61-.68-1.33-1.3-2.32-1.74.59-2.67-1.48-4.71-3.92-6.41-2.45-1.74-5.19-3.13-6.2-5.55l-.38,1.03c-1.51.27-.8-1.24-1.37-1.9-.33.77.51,1.46-.38,1.58-4.28-1.94-8.36-4.37-12.88-6.56-4.48-2.19-9.44-4.11-14.74-4.72-1.95-.17-2.48,1.25-3.07,2.37-.62,1.13-1.23,1.95-3.68.96.35-.73.72-1.42,1.11-2.12-3.73,1.55-7.51,2.47-11.25,3.95-3.68,1.49-7.33,3.65-9.48,6.99.03-.65-.36-1.11.24-1.59-.56-.02-1.13.24-1.65.66-.52.41-1.03.97-1.33,1.53-.67,1.13-.89,2.34-.44,2.74-.83.77-.97-.5-1.89-.35-.86.32-1.09,1.42-1.32,2.34-.23.94-.39,1.76-1.22,1.69-.19-.01-.18-.32-.13-.6-.4,1.3-2.49,3.58-.72,3.6-1.01.96-1.5,2.19-1.87,3.36-.19.58-.38,1.15-.63,1.66-.23.52-.52.99-.95,1.4.58.99-.02,1.95-.47,2.88-.47.91-.75,1.78.45,2.36-1.26-.48-2.15.48-2.53,1.85-.37,1.37-.28,3.07.24,3.99-.72-.69-1.08,1.3-2.09.48-.28,1.95.11,3.77,1.51,3.55-.92.79-1.18,1.66-1.2,2.52,0,.86.24,1.7.53,2.48.55,1.56.99,2.84-.99,3.94,1.82,5.54,3.81,10.19,5.74,14.55-1.3.29-1.81-.94-2.17-2.19-.39-1.24-.77-2.43-2.14-2.02.55,1.09,1.14,2.02,1.72,2.87.61.85,1.24,1.6,1.79,2.37,1.09,1.55,2.12,3.02,2.54,5.23.08,1.2-1.34-.19-1.89-.42.62.99,1.19,1.95,1.65,2.95.47.99.84,2,1.29,2.95.44.96.88,1.9,1.4,2.78.53.88,1.18,1.67,1.96,2.37-.23.11-.67-.14-1.04-.41.44.65.49,1.8,1.53,1.14l-.65-.52c1.02-1.9,4.69.94,5.61.54-3.72.61,1.13,3.72-3.75,4.18.46.33,1.28.58,1.93.06.17.77-.12,1.23-1.31,1.04,2,2.04,2.62.48,3.92,2.6-.51.32-.97.02-1.7.17,1.66.45,3.28.88,4.06,2.86-.31.08-.53.42-.81.21,1.09,1.31,2.48,2.13,3.85,2.98,1.43.89,2.72,1.89,3.45,3.78-2.76.69.15,1.55-1.47,3.11l1.85,1.23.32-1.34c1.12,1.47,3.39,1.68,3.86,3.33l-1.59-.44,2.56,2.33-.62-2.02c2.08.65,2.03-1.99,3.12.24-.48-.23,1.13,1.4.8,2.96,0,0,0,0,0,0,1.14.19,2.31.36,2.8,1.71-.29.74-2.01,1.47-2.21,1.96.99-.31,1.8.39,2.65,1.1.87.68,1.77,1.38,2.87,1.09-.6.06-1.46.86-1.54,1.12l1.61-.53c.23.94.15,1.19-.61,1.75,1.57,2.01,1.47-2.57,2.68.44-.25-.08-.33.16-.84-.03.22.34.41.6.73.95.16.18.37.34.53.48l.43.34c.58.43,1.19.81,1.8,1.18,1.21.75,2.39,1.48,3.18,2.66-.86,2.23-2.17-1.14-2.71.9,3.25,2.27,7.94,3.29,10.48,6.18l-.37-.65c2.48-2.06,1.12,3.05,3.56,3.17-.51-.13-1.62.93-1.29.75,1.64,2.09,4.55,2.9,8.2,4.72l-.91.3c.69,1.56,2.79,2.97,3.81,4.33.91-.3,1.54.43,1.88-.85.84,6.87,9.03,4.5,9.94,10.41-.42-.35-1.45-.31-1.12-.02l3.42,1.96c.67-1.25.16-.97.25-2.32.91-.3,2.15-.07,2.88.56-1.92-.44-1.44,1.7-1.38,2.77.18-.4.68-.59.92-.96-.08,3.19,2.08-1.89,3.08,1.17l-.59.46c1.03.39,2.38.29,3.08,1.17-.7,1.52-1.32-.15-2.24.8,1.25.95,4.32-.28,4.35,1.86-.8-.1-1.52-.72-2.32-.81-.06,2.43.39,2.19,1.06,3.16l-.06-.11,1.45,2.38-.18-.83c1.05-.48,1.81-.57,2.38-.49.51,0,.85.34,1.23.72.74.78,1.41,1.75,3.31,1.79-3.64-.12-1.39.71-2.86,1.8.09.84.37,1.98-.2,2.11,1.93-.08.58,2.32,3.36,2.16-.37.46.88,1.02-.39,1.82,1.46.88.47-.98,1.11-1.38,3.17.45,2.32,5.99,6.85,6.68,3.02,1.43,4.8.46,7.55,1.75.05,1.35-2.06.97-2.06.97.53,1.72,1.5,2.45,3.05,2.97-.57.17-.64.69-.75,1.49.99.71,2.02-1,2.62.69-.64.3-1.61.84-2.48.92,1.42.58,3.22.7,4.66,1.28-.37,1.03-1.69.58-2.52.72,1.53.79,3.95,2.15,5.34,1.22l-.34-.85c-.07.41-.86.98-1.29.93-1.92.04-1.23-1.76-.9-2.25l1.05.39c.69-1.65-.17-2.21-1.4-2.59-1.23-.37-2.84-.54-3.53-1.34l2.33-1.24-2.97.06c.11-.78.85-2,1.85-1.58-.23-1.9-1.57-.26-1.53-2.13.05-.25.18-.29.34-.27l-1.55-.47c.57-.18,1.06-1.43,1.44-.55-.84-2.81-4.28-1.61-3.64-3.63l.26.04c-3.12-1.97-1.54,1.05-4.98.61l1.98-4.45-1.56,1.02c-.21-.31-.62-.94,0-1.35-1.86-.13-.41.72-1.82.96-.03-2.44-3.97-3.06-2.11-5.35-1.46.48.39,1.99-1.63,1.25,1.92-2.54-1.9-1.25-1.96-3.43,1.53-.73,1.95.99,1.9-1.2-2.69,1.13-1.7-2.73-3.1-3.44-.41.36-.78.45-1.2.3-.2-.08-.43-.18-.66-.32-.22-.13-.4-.25-.61-.42-.81-.64-1.72-1.6-2.84-2.09.59-.46-2.52-3.76-3.64-5.77l.29-.23c-1.76,1.39-3.17-.38-4.7-1.09.91-.96,1.47-1.16,2.52-1.03l-1.16-.99c-.73.3-1.34.27-2.25-.19l1.37-1c-1.59-1.26-4.36-1.2-5.62-3.74-1.12,1.07-1.22,4.6-3.98,3.57.47-.7,1.32-1.84,2.09-1.62-.25-.07-1.09-.03-1.22-.61l1.75-.34c-.5-1.24-1.23.48-1.87-.24.79-.88.02-1.1.74-1.72.26.07.31.91.89.8-.67-.86-1.19-2.24-.93-3.2-.37.57-1.04,1.21-1.74.81-1.59-1.26.41-1.53-.09-2.77-.91.3-1.33-1.19-2.52.13-.44-.39.01-1.09.15-1.6-1.3-.1-3.86-3.04-4.19-.84l.12.27c-.06,0-.11-.04-.18-.05-3.76-.92-4.76-5.43-7.84-7.09l.39-.45c-1.99-.82-3.7-2.66-5.63-2.65-.46-.4-.37-1.75.29-2.11-1.47-.68-2.04-.29-3.1-2.5,1.86.24.19-1.05,1.71.48-1.2-1.71-.93-2.73-3.63-2.92,1.55-.66.1-2.44-.93-2.73l.36,1.75c-.96-.54-1.59-1.26-2.24-1.99l1.7-1.17c-.39-1.14-1.1-1.81-1.96-2.27-.21-.11-.43-.22-.66-.31l-.34-.13-.17-.06s-.07,0-.1,0c-.13.02-.25.04-.44,0-.22-.08-.45-.16-.67-.23-1.77-.64-3.34-1.36-2.94-3.86-1.76.19.82,2.26-1.02,2.7-1.14-1.53-.34-4.92-.72-5.35-.87-2.61-3.79.24-4.98-2.29-.31.72-1.52,2.24-3.35,1.14-1.04-1.62.77-3.69,1.97-3.17.34.3.31.61.11.75.59.29,1.33.68,1.44-.38l-.7.28c-.05-1.17-1.77-3.05-.48-3.35-1.43-.62-1.29.29-.89,1.32-.75-2.46-2.31-2.9-3.31-5.22-.07.54-.5,1.34-.74,1.03-1.5-3.37-2.03-.43-3.76-2.2.04-1.76,2.38-1.14.18-2.56-.28-1.63,1.34-1.35,2.16-1.23-2.41-.98-1.59-3.86-2.08-5l1.12.61c-.66-.37-.98-.83-1.29-1.3l-.82,1.33c-.18-.69-.46-1.18.04-1.49-1.15-.08-1.7,1.75-3.51,1.26.13-1.15-2.15-1.94-.71-3.19.89,2.49,1.37-.57,2.6.24-.22-.27-.39-.63-.49-1.08.13-.19.38-.12.57-.03.07-3.13-2.45.06-3.83-2.38,1.1-.22,1.44-1.55,1.02-1.82.54.96-1.3,1.34-2.5.82-.1-1.98-1.45-1.44-1.8-2.33l.15,1.14c-1.11.16-1.43-.7-2.29-1.7.69-.46,1.02.78,1.15.21-1.16-.21-1.05-1.16-.91-2.17.16-1.02.31-2.09-.62-2.74.33-1.1,1.81-.86,1.97-1.76-1.04-.71-.92-1.38-.77-2.06.17-.68.38-1.37-.52-2.21-1.14,1.06-.77,1.08-2.61.04.75,1.05,1.42,2.1,2.2,3.11-.96-.47-1.84-.98-2.77-1.5.18.54.59,1.02.95,1.46.39.43.73.81.74,1.17-1.52-.63-1.15-.66-2.05.28.68-1.12.15-1.73-.49-2.36-.64-.63-1.41-1.27-.99-2.36l3.39-1.03c.4-1.48-.4-2.41-1.22-3.49-.8-1.06-1.79-2.26-1.62-4l-.41,1.19c-1.45-.18-.6-2.04-1.31-3.03,1.18-.07,1.53-.81,2.2-1.35-.43.08-.49-.52-.74-1.15-.23-.63-.61-1.29-1.81-1.36.48-.54.97-1.07,1.45-1.58.3-1.33-.55-2.06-1.43-2.85-.83-.77-1.72-1.6-1.42-2.94,1.22.89,2.13-.21,2.97,1.55.03-.85.32-1.57-.48-1.66.4-.21.06-.83-.22-1.5-.3-.67-.45-1.38.16-1.68-.45-.44-1.67-.78-1.38-1.75.26-.06.57.12.57.12-.57-.11-.43-1.7-1.91-1.11,1.06-.49,1.65-1.19,2.1-1.98.22-.4.38-.82.51-1.27.14-.44.28-.88.4-1.34.47-1.79,1.08-3.58,3.01-3.91.48-1.83,1.31-4.02,2.27-5.45.23.3.48.35.19.54,1.1-.65.67-1.39.26-2.25-.42-.84-.74-1.74.66-2.41,2.35.23-.18,1.78.94,1.61,1.59,1.12,1.98.48,2.4-.43.4-.89.85-2.04,2.21-1.67l-.15.42c.45.06.74-.09.98-.37.25-.26.44-.67.64-1.12.41-.88.95-1.95,1.95-2.31,0,0,.07.36.26.53.32-2.43,2.91-4.19,5-5.21-.32,1.66-.76,1.04,0,2.44.88-.44-.93-2.38.99-3.22.82.65,2.36,1.21,2.72,2.81-.57.12-1.15.22-1.72.36.63.97,1.15.89,1.67.56.52-.31,1.05-.81,1.53-.67l-.04.94c1.28-.24,1.94-.92,2.67-1.51.72-.61,1.53-1.13,3.05-.92l-.26-.74c.96-1.07,1.31-.71,1.62-.27.31.45.58.98,1.57.25.04.81.08,1.61.1,2.42.58-.17,1.63-.58,2.82-.84,1.19-.3,2.53-.46,3.59-.35-.83.63-1.87,1.05-2.88,1.34-1.02.35-2.01.58-2.79.97.51.09,1.38.28,2.24.28.85.04,1.7-.07,2.14-.55-.49.1-1.17.5-1.49.03,1.76-1.45,3.86-1.74,5.97-.85-1.05,2.07.17,2.84,1.58,3.72,1.43.84,3.08,1.84,2.82,3.76,2.02.23,3.52,1.44,4.82,2.91,1.32,1.47,2.48,3.14,4.11,4.56,1.36-3.65,1,.8,3.39-1.96.91.61,1.16.95,1.05,1.18l-.05-.27c.02.12.02.19.04.29h0c.2,1.3.38,2.56.46,3.84-.36,1.25-1.23-.24-1.8.38,1.17,1.86-.6,1.7-.5,3.39.85-1.04,1.94-.56,2.26.72.13-.8.22-1.59.31-2.41,1.73.64,1.49,1.68,1.22,2.65-.25.98-.57,1.92,1.04,2.7-.48-.08-.98-.14-1.48-.2.7.46,1.42,1.66,2.3,2.78.9,1.11,1.98,2.14,3.64,2.29-.28.43-1.06,1.14-1.58.62.51,1.76,1.92,3.38,3.03,5.13,1.1,1.73,1.86,3.57,1.15,5.1l-.92-.16c.33.61,1.81.99.98,1.92-.37-.02-.91-.2-.94.11.16.16.58.57.9,1.08.31.5.48,1.09.23,1.53l-1.02-.75c-.56,1.7-.06,2.93.62,4.28.67,1.33,1.47,2.76,1.36,4.32-1.26-.35-2.31.04-3.12.59-.84.54-1.47,1.25-1.92,1.68l-.32-.2c-.88,1.47-1.17,2.92-1.54,4.53-.17.81-.4,1.62-.68,2.47-.73,1.29-1.48,2.7-2.08,4.17-2.26.86-4.27,4.19-4.73,8.2-.58,4.02.42,8.39,1.48,11.97-.05-.61.44-.79,1.02-.72.59.07,1.25.38,1.69.78.1.39.39.76.74,1.08.37.3.8.56,1.14.81.17.12.32.24.44.36.09.08.15.18.16.28.02.21-.15.48-.63.85l-.22-.32c-1.23,2.19.74,3.44,1.87,4.76l2.53-1.93c-.17,3.23,2.19,5.12,4.41,6.75,2.22,1.63,4.32,2.99,3.71,5.32,1.33.22,2.28,1.19,3.6,1.4l-1.24,1.16c1.84,2.45,2.76,3.67,5.74,6l-1.4.34c1.45,1.56,5.32-1.66,6.79-.4l-1.32,2.24c2.69,2.5,3.94,6.7,8.21,7.44-.29.24-.86.71-1.38.38.31.3.71.82,1.17,1.37.26.3.37.49.88.96.44.4.88.8,1.34,1.12.94.63,1.87,1.06,2.61,1.04.73,0,1.22-.37,1.38-1.26-.23.52-.03.95.49,1.28.51.34,1.32.56,2.25.63,1.87.16,4.07-.34,5.43-.91-.14.56-.28,1.12-.45,1.67,1.28-1.04,1.79-1.84,2.43-2.37.62-.6,1.35-.98,2.68-1.71.37,0,.63.24.67.51.03.19-.08.39-.35.44,1.03-.06,1.33-.61,1.63-1.11.32-.62.66-1.14,2.09-1.57-.1.49-.23.99-.38,1.5,1.15-.63,1.58-1.08,1.75-1.59.17-.51.15-1.02.18-1.94.08-.19.19-.37.32-.55.13-.17.33-.37.44-.47.27-.23.61-.42,1-.51.77-.19,1.6-.11,2.19.41-.44-.8-.56-2.39.53-2.59.44.39.36.88.33,1.11,1.39-.31,1.91-1.21,2.5-2.01.56-.81,1.18-1.49,2.36-1.11.25.5.47.71.67.81-1.92.74-3.37,1.53-3.3,1.35.39.65.97.84,1.43,1.2.47.35.79.86.83,2.04.19-.76.46-1.96.99-2.95.52-.98,1.3-1.75,2.17-1.64.12.12.23.24.36.44l-.1.22c.38.03.64-.19.87-.51.55.12.89.2,1.36.14.23.61.69.68,1.2.6.52-.05,1.09-.28,1.49-.29-.28-1.67.87-1.5-.32-2.79.15.11-.14.21-.69.37-.12.07-.27.12-.33.23.01-.04.02-.1.04-.15-.55.11-1.25.31-2.06.5.46-.96,1.08-1.85,2.18-1.05.28-1.15.68-2.32.93-2.86,1.55,2.15,3.83,3.44,4.09,4.9.63-.25,1.34-.33,2.07-.46.73-.06,1.48-.18,2.22-.26.74-.11,1.47-.29,2.18-.58.7-.31,1.38-.75,2-1.4.89-.2.69,1.09.84,1.66-.52.19-1.03.02-1.37.41.85-.23,1.99.02,3.04.06,1.04.09,2.02-.05,2.59-1,1.56,1.67-1.77,1.5.94,2.16l-.6.49c1.78,2.62,4.18,2.27,6.86,2.34,2.61.04,5.48.55,6.48,4.27-.15-.49-.24-.73-.08-1.07,2.15,2.97,5.02,5.1,7.65,7.66,2.6,2.52,4.92,5.53,5.18,9.3.31,2.01,1.68,1.52,3.17,2.18l-1.48,1.15c.9.33,1.83.67,2.75,1.06,1.22,1.12.68,2.74.13,4.29-.26.78-.45,1.54-.43,2.29.02.75.43,1.46,1.27,2.21l1.12-.7c0,.68.36,1.68.52,2.53.12.85.08,1.53-.63,1.48.24.11,1.31.32.73.89l-.94.11c.56,1.01,1.21,2.08,1.69,3.18-.39,1.27-1.32,1.1-2.2,1.1-.89,0-1.65.14-1.95,1.74.05.31.25.71.47,1.13.21.41.49.86.78,1.26.59.81,1.23,1.48,1.59,1.3.14-.52.84-1.25,1.78-1.14l.24,1.38c1.34.42,2.65,1.06,3.95,1.23,1.3.17,2.6-.18,3.92-1.99-.41-1-.91-1.96-1.37-2.89.48-.24.97-.49,1.44-.75l-.16,2.29c1.4-1.16.41-2.14-.36-3.07.73-.18,1.25-.54,1.53-1.08-.84-.93-1.75-1.8-2.68-2.61Zm-70.11-49.29c.08-.46-1.07-.31-1.95-.43.56-.2,1.24-.5,1.94-.83.38.47.45,1.09,0,1.26Zm2.53-2.31s0-.03-.01-.03c.46-.19.85-.35,1.11-.46-.23.1-.54.24-1.09.49Zm7.27,9.56c0-.05.02-.16.03-.21,0,.33,0,.63-.06.87-.46.34-.7.05-.84-.27.24-.08.51-.2.88-.38Z"/>
  <path class="cls-1" d="m131.1,145.59c.13.03.26.06.39.09-.15-.03-.27-.06-.39-.09Z"/>
  <path class="cls-1" d="m57.79,141.3c-.05-.06-.11-.11-.16-.17.05.08.11.13.16.17Z"/>
  <path class="cls-1" d="m130.95,145.55s.1.03.16.04c-.05-.01-.1-.03-.16-.04Z"/>
  <path class="cls-1" d="m168.34,186.44c-.11,0-.23.01-.36,0,.14.02.26.01.36,0Z"/>
  <path class="cls-1" d="m162.92,238.24l.11.27c.02-.11,0-.21-.11-.27Z"/>
  <path class="cls-1" d="m46.81,63.89c.04-.12.06-.23.07-.32-.02.09-.05.21-.07.32Z"/>
  <path class="cls-1" d="m190.24,175.01c.08-.05.11-.13.22-.16-.14-.13-.26-.24-.39-.32-.04.19-.09.38-.12.55.1-.02.21-.05.3-.07Z"/>
  <path class="cls-1" d="m110.75,184.21c.01.1.02.19-.02.3,0-.1.04-.14.06-.22l-.04-.09Z"/>
  <polygon class="cls-1" points="139.12 153.9 138.82 154.2 139.34 154.2 139.12 153.9"/>
  <path class="cls-1" d="m124.55,204.4c.06-.09.06-.29.05-.53-.06.14-.1.31-.05.53Z"/>
  <path class="cls-1" d="m131.95,210.72l.68,1.38c-.24-.66-.47-1.08-.68-1.38Z"/>
  <path class="cls-1" d="m136.59,216.36c.28-.13.47-.26.63-.38,0,0,0-.01,0-.02l-.63.4Z"/>
  <path class="cls-1" d="m48.95,129c-.06-.09-.13-.18-.21-.25-.64-.51-.29-.12.21.25Z"/>
  <path class="cls-1" d="m73.9,157.44c-.49-.09-.99-.17-1.39-.35.34.59.67.98,1.39.35Z"/>
  <path class="cls-1" d="m38.21,85.45s.01,0,.03,0c.01-.1.03-.19.05-.29l-.08.28Z"/>
  <path class="cls-1" d="m71.41,155.75c.18.72.59,1.1,1.1,1.33-.27-.49-.55-1.08-1.1-1.33Z"/>
  <path class="cls-1" d="m160.52,241.2c.07-.09.14-.15.21-.18l-.46-.13.26.31Z"/>
  <path class="cls-1" d="m160.73,241.03l.46.13c-.15-.13-.29-.23-.46-.13Z"/>
  <path class="cls-1" d="m162.17,241.4c-.34-.08-.66-.16-.98-.25.23.21.51.5.98.25Z"/>
  <path class="cls-1" d="m152.95,233.23l-.51.36c.13-.05.3-.16.51-.36Z"/>
  <path class="cls-1" d="m150.55,231.15c.43.63.45,2.26,1.47,2.72l.41-.28c-.99.3-.66-2.67-1.88-2.44Z"/>
  <path class="cls-1" d="m146.9,216.56l1.43,2.21c.16-.78.39-1.81,1.31-1.07-.83-3.7-.59,1.49-2.73-1.15Z"/>
  <path class="cls-1" d="m142.11,210.03c1.17.82.68-.65,1-.85-1.04-.25-1.3-.31-1,.85Z"/>
  <path class="cls-1" d="m97.89,171.38l1.11-1.07c-.96-.54-.4.44-1.11,1.07Z"/>
  <polygon class="cls-1" points="84.27 170.1 84.44 171.51 85.73 170.77 84.27 170.1"/>
  <polygon class="cls-1" points="87.05 157.73 87.52 157.91 85.9 157.04 87.05 157.73"/>
  <path class="cls-1" d="m55.52,78.38l-1.85-.48c.06.74,1.99,1.65,1.85.48Z"/>
  <path class="cls-1" d="m82.74,59.51c.34,1,1.27,1.67,2.03.86-.8-.26-1.57-1.05-2.03-.86Z"/>
  <polygon class="cls-1" points="119.36 156.05 120.86 156.89 120.42 156.26 119.36 156.05"/>
</svg>
