<?xml version="1.0" encoding="utf-8"?>
<!-- Generator: Adobe Illustrator 27.4.0, SVG Export Plug-In . SVG Version: 6.00 Build 0)  -->
<svg version="1.1" id="Layer_1" xmlns="http://www.w3.org/2000/svg" xmlns:xlink="http://www.w3.org/1999/xlink" x="0px" y="0px"
	 viewBox="0 0 31 31" style="enable-background:new 0 0 31 31;" xml:space="preserve">
<style type="text/css">
	.st0{fill:#FFFFFF;}
</style>
<g>
	<g>
		<g>
			<path class="st0" d="M3.7,8.5c0.1,0.1,0-0.4-0.1-0.6c0.1-0.1,0.1,0.3,0.2,0.6C3.9,8.4,3.9,8,3.9,8C4,8.1,4,8.1,4,8.2
				c0-0.4,0.3,0,0.3-0.4c0,0,0,0.1,0,0.1C4.2,7.6,4.2,7.4,4.1,7.2c0,0,0-0.3,0.1,0c0,0,0,0.1,0,0.2l0-0.1c0.2,0.5,0,0.2,0.1,0.5
				c0.1-0.1,0.1-0.6,0.2-0.4C4.7,7.9,4.4,7.5,4.6,8L4.4,7.8c0.3,0.8-0.1-0.1,0.2,0.8c0.2,0.2,0.1-0.2,0.3,0c0-0.3-0.1-0.4-0.1-0.7
				c0.1-0.6,0.5,1.3,0.5,0.5c0-0.4-0.2-1.1,0-0.7l0.1,0.6c0.2,0-0.1-0.9,0.1-0.5c0,0.2-0.1,0.2,0,0.3c0.2,0.5,0-0.4,0.1-0.4l0.1,0.5
				C5.8,8,5.9,7.6,6.1,7.5c0,0.2,0,0.3,0.1,0.5c0.2-0.3,0.5,0,0.8,0.2l0-0.5C6.9,7.7,7,7.9,7,8C7.1,8.2,7,7.7,7,7.6
				c0,0,0.1,0.3,0.1,0.4C7.2,7.5,7.3,7,7.6,7.5v0.1c0.1,0.2,0-1,0.1-0.6v0.1C8,7.3,8.2,6.8,8.6,7.5C8.5,6.8,8.9,7.8,8.7,6.8
				c0.2,0.4,0.2,0.6,0.4,0.9c0.1,0,0-0.6,0.1-0.7l0.1,0.5l0-0.5l0.1,0.6l0-0.1c0,0-0.1-0.2-0.1-0.4c0.1-0.2,0.3,0.3,0.3,0.6l0.2-0.4
				c0,0.2,0,0.3,0,0.4c0.1-0.5,0.1,0.5,0.1,0c0-0.1,0-0.3,0-0.4c0.1,0.3,0.2,0.3,0.3,0.2v0.3c0.1,0.1,0.3-0.2,0.5-0.2
				c-0.1-0.2,0-0.8,0-0.8l0,0.5c0-0.3,0-0.2,0-0.6c0.1,0.1,0,0.6,0,0.8l0.1-0.2c0,0.2,0,0.2,0,0.4c0-0.3,0.1,0.5,0.2,0v0.2
				c0.1,0,0.3-0.2,0.4-0.2c0-0.4,0.1-0.3,0.2-0.7c0.1,0.1,0.2,0.5,0.3,0.5C12,7.3,11.9,7.1,12,6.9c0,0.4,0.1,0.4,0,0.7
				c0.2,0,0.2-0.1,0.5-0.3c0-0.2,0-0.2,0-0.4c0-0.1,0.1,0.2,0,0.4l0,0c0.3-0.6,0.3,1.3,0.7,0.5l0,0l0.3-0.4c0.1,0.1-0.1,0.3-0.1,0.6
				c0.4-0.6,0.3,0.2,0.6-0.2c-0.1,1.2,0.5,0,0.5,0.8l0.1-0.3c0.1-0.3,0,0.2,0,0.2c0-0.2,0-0.3,0.1-0.4c0.5-0.2,0.8,0.6,1.1,1
				c0.1,0.1,0.4-1.4,0.5-0.7L16,8.8c0.5-0.5,0.7,0.2,1.1-0.3c0,0.1-0.1,0.3-0.1,0.3c0,0.4,0.2,0.1,0.3-0.2c0,0-0.1,0.3-0.1,0.4
				c0,0.2,0.3-0.4,0.2-0.1c0,0.1,0,0.1-0.1,0.1c0.1-0.2,0.2,0.1,0.3-0.3C17.8,9,18,8.6,18,8.9c0.2-0.5,0.2,0.3,0.3-0.4
				c-0.2,0.7,0.1,0.6,0.3,0.3c-0.1,0.2,0,0.2-0.1,0.5c0.1,0,0.2-0.1,0.3-0.5c0,0.9,0.5-0.6,0.4,0.5c0.4-0.3,0.7-0.6,1-0.7
				c-0.1,0.7-0.3,0-0.4,0.8c0.3-0.3,0.5-0.9,0.8-0.7c0.1,0.1,0,0.3-0.1,0.4c0.3-0.3,0.5,0.1,0.7-0.3c0,0.1,0,0.1,0,0.2
				c0,0,0.1,0.1,0.1-0.2l0,0.1c-0.1-0.5,0.1-1,0.1-1.3c0,0.9,0.2,0.2,0.2,1.4c0-0.1,0-0.2,0-0.4c0,0.1,0.1,0.2,0,0.4
				c0.1-0.2,0.1-0.5,0.2-0.5c0,0.2,0,0.2,0,0.4c0-0.3,0.1-0.6,0.2-0.5c0,0.1,0,0.2,0,0.2c0.2-0.1,0.2-0.9,0.5-0.6
				c0,0.7,0.1,0.2,0.2,0.8l0.1-0.2l-0.1-0.3c0.1,0,0.1-0.4,0.2-0.3l0,0.3l0.2-0.1L22.9,8c0.1-0.3-0.1-0.7,0-0.6c0,0.1,0.1,0,0.2,0.3
				c0-0.2,0-0.4,0.1-0.3c0,0.2,0.1,0.7,0.1,0.8c0-0.5,0.2-0.2,0.2-0.7c0,0.1,0.1,0.4,0.1,0.5l0-0.4c0.1,0.1,0.1,0.2,0.1,0.4
				c0.1,0-0.2-0.7,0-0.4c0,0,0,0.1,0,0.2C24,7.9,24,7.4,24.2,7.6c0.2,0.6-0.1,0.2,0,0.7c0.2-0.1,0.3-0.8,0.5-0.7l0-0.1
				c-0.1-0.8,0.2,0.4,0.3,0C25,7.5,25,8,25,7.9c0.2,0.1,0.2-0.3,0.4-0.6l0,0.2c0.1,0.2,0.2,0.1,0.3,0.1c0-0.2,0-0.2-0.1-0.5
				c0.6,1.2,0.4-0.7,0.8,0.1c0,0,0,0.2,0,0.2l0.1-0.3c-0.1-0.3-0.1-0.2-0.2-0.4c0-0.2,0-0.4,0-0.4c0,0.2,0.1,0.5,0.2,0.7
				c0-0.1,0-0.2-0.1-0.3c0.2,0.5-0.1-0.6,0.1-0.3l0,0.2c0-0.1,0-0.3,0.1-0.3c0.1,0.3,0,0.2,0,0.5c0.1-0.1,0-0.7,0.1-0.4
				c0,0.1-0.1,0.1-0.1,0.2c0.2,0.4,0.2,0.2,0.2,0.3h0L27.4,7l-0.1-0.1c-0.1-0.8,0.2-0.2,0.2-0.8c0,0.5,0,0.3,0.1,0.6
				c0.1,0.1,0.1,0.1,0.1,0.2c0-0.3,0.1,0.1,0.1-0.3c0,0.1,0.1,0,0.1,0.2C28.1,6.7,28,6.7,28,6.6c0-0.2,0.1-0.1,0.2-0.1
				c0.1,0,0.2,0,0.2-0.2c0.1-0.2,0.1-0.4,0.2-0.5c0.1,0.1,0,0.2,0,0.2c0.1,0,0.1,0,0.2-0.1c0,0,0,0.1,0.1,0.1c0.1,0,0-0.2,0.1-0.1
				c0,0,0,0.1,0,0.2c0.1-0.1,0.1-0.2,0.2-0.2c0,0,0,0.1,0,0.1c0.1-0.1,0.2-0.2,0.2-0.2h-0.1c0,0,0,0,0,0.1c0,0.1-0.1,0-0.1,0l0,0
				c-0.1-0.1-0.2,0.1-0.3,0.2V5.7c0,0.1,0,0.1-0.1,0.2c0,0-0.1-0.1,0-0.2c-0.1-0.1,0,0.1-0.1,0c0,0,0,0,0,0l-0.1,0.1
				c0,0-0.1-0.2,0-0.1c-0.2-0.1-0.2,0.2-0.3,0v0c-0.2,0.1,0,0.2,0,0.5L28,5.5l0,0.2c0,0-0.1,0-0.1-0.1c0,0.2,0,0.1,0,0.3
				c-0.2-0.2-0.2,0.2-0.4-0.3c0,0.2,0.1,0.1,0.1,0.3c-0.2-0.5-0.1,0.1-0.2-0.1c0-0.3,0.1-0.1-0.1-0.4c0.1,0.5-0.2-0.1-0.3,0
				C27.3,5.9,27,5.7,27,5.8c0-0.1-0.3-0.2-0.4-0.4l0-0.1c0.1,0.5,0,0.4-0.1,0.5c-0.1-0.3-0.1-0.4-0.1-0.6h-0.1c0,0.2,0,0.3,0,0.3
				l-0.1-0.4c-0.1,0-0.1,0.5-0.3,0.2c0.1,0.4,0.4,1.1,0.3,1.4C26.1,6.6,26,6.2,26,6.1c0,0,0,0.2,0,0.1l0-0.4c-0.1-0.2,0,0.3,0,0.3
				c-0.1-0.3-0.1-0.2-0.1-0.5c0,0,0.1,0.1,0.1,0c-0.1,0-0.2-0.2-0.3-0.4c0,0.2,0.1,0.4,0.1,0.5c-0.1,0.1-0.1-0.4-0.2-0.5
				c0,0.2-0.1,0,0,0.5c0,0-0.1-0.2-0.1-0.3c0,0.2-0.2,0.1-0.1,0.6l0,0c0,0,0,0,0,0c-0.1,0.5-0.4-0.2-0.6,0.1l0-0.2
				c-0.1,0.2-0.2,0.2-0.2,0.5c0,0-0.1-0.3-0.2-0.5c-0.1,0.1,0,0.3-0.2,0.1c0-0.3-0.1-0.2,0-0.2C24.1,5.7,24,5.4,24,5.9
				c0-0.4-0.2-0.5-0.2-0.4l0.1,0.3c0,0.1-0.1,0-0.2,0l-0.1-0.5c-0.3-0.6-0.2,1.2-0.5,0.1c0,0.4,0.2,0.2,0.2,0.7
				C23.2,6,23,5.3,23,5.3c-0.2-0.3,0,0.8-0.2,0.6c0,0.2,0.1,0.7,0.1,0.9c-0.1-0.1-0.2-0.8-0.2-0.9c0,0,0,0,0,0.1c0-0.1,0-0.2,0-0.4
				l0,0.2c-0.1-0.2-0.2-0.1-0.2-0.5c0,0.2,0,0.3,0.1,0.4c-0.2-0.3-0.2,0-0.3-0.1c0,0.1,0.1,0.3,0.1,0.3c-0.2-0.2,0,0.4-0.1,0.5
				C22,6.1,22.1,5.7,22,5.9c-0.1-0.2-0.1-0.5-0.1-0.7c-0.1,0.4-0.2-0.2-0.3-0.3l0-0.2c0,0.1-0.1,0.1-0.1,0.1l0.1,0.4
				c0-0.1-0.1-0.1-0.1-0.2c0,0.3,0.1,0.6,0.1,1c-0.1-0.2-0.1,0.2-0.2-0.3c0.2,0.2-0.1-0.5,0-0.6c0,0.1,0,0.1-0.1,0
				c0-0.1,0-0.1,0-0.1c-0.2-0.4,0,0.6-0.1,0.6c0-0.3-0.1-0.5-0.1-0.5c0.1,0,0.1,0.5,0,0.7C21.1,5.6,21.1,6,21.1,6l0.1,0.1
				c0,0.3-0.1,0.3-0.1,0.3c0-0.2,0-0.2,0-0.3c0,0.5-0.2-0.5-0.2-0.2c0-0.2,0-0.5,0-0.7c-0.1,0.4-0.1-0.4-0.2-0.1c0,0.4,0,0.3,0,0.7
				l0.2-0.3l-0.1,0.6c0.1,0,0.1-0.2,0.1-0.2c-0.1,0.3-0.1,0.2,0,0.5c-0.1-0.6-0.2,0.3-0.2-0.1l0-0.9c-0.1-0.4-0.2,0.5-0.4,0.2l0,0.2
				C20.1,6.3,20,6,20,6.1c0-0.3,0-0.4,0-0.6c0,0.2-0.1,0-0.2,0.6l0-0.4c-0.1-0.2-0.3,0.9-0.4,0.7c0.1-0.3,0.1-0.6,0.2-0.8
				c0,0-0.1-0.1-0.1,0.1c0-0.2-0.2,0.4-0.2,0.1c0,0.1-0.1,0.5-0.2,0.4c0-0.1,0-0.2,0-0.2c0,0.2-0.1,0.2-0.1,0.5c0-1-0.4,0-0.4-0.9
				c-0.1,0.1-0.3,0.1-0.4,0.2c0-0.1,0-0.2,0-0.1c-0.1-0.3-0.3,0.9-0.4,0.5c0-0.5,0.1-0.3,0.1-0.4c0.2-1-0.2,0.1-0.2-0.5l0-0.1
				c0-0.4-0.3,0.3-0.4,0.2c0,0,0-0.1,0-0.2C17.3,5.9,17.1,6,17,6.1c0.1-0.4,0.1-0.2,0.2-0.6c-0.1,0-0.1,0.7-0.3,0.7
				c0-0.2,0-0.4,0.1-0.9H17c0.1-0.6-0.1,0-0.2-0.1L16.9,5c-0.2,0-0.3,0.7-0.5,0.6l0,0.2c-0.2,0.6,0-0.4-0.2,0.1l0.1-0.6
				c-0.1,0.1-0.4,0.5-0.5,0.6C16,5.4,16.2,5.2,16.4,5c-0.1,0-0.2,0-0.3,0.3c0-0.1,0.1-0.2,0.1-0.1c-0.2,0.5-0.3,0.7-0.5,0.6
				c0.3-1.2-0.2-0.4-0.1-1.3c-0.3,0.4-0.4-0.3-0.7-0.3c-0.1,1-0.1,0-0.3,1c-0.1,0-0.1,0-0.1,0l-0.1-0.6c0-0.3,0.1-0.2,0.1-0.4
				c-0.1-0.1,0-0.4,0-0.7c-0.1,0.3-0.1,0.5-0.2,0.3l0,0.5c-0.3,0.5,0-0.8-0.3-0.4l0.1-0.3c-0.1,0.2-0.4-0.1-0.6,0.7
				c0-0.1,0-0.4,0.1-0.4C13.5,3.6,13,4.5,12.9,4L13,3.8c-0.1,0.1-0.1,0.4-0.2,0.2c0-0.1,0.1-0.2,0-0.3c0,0.1-0.2,0.4-0.2,0.3
				l0.1-0.3c-0.2-0.3-0.5,0.6-0.7,0.7c0.1-0.7-0.1-1-0.2-1.1l0-0.1c-0.3-0.1-0.6,0.5-0.9,0.8c-0.1-0.8-0.6-0.3-0.9-0.7
				c0,0.1,0,0.6,0,0.6C10,3.8,10,4.4,9.9,3.8l0,0C9.9,3.2,9.7,3.3,9.6,3.3l0.1,0.8C9.5,3.6,9.3,3.7,9.2,3.8C9.1,4,8.9,4.2,8.8,3.6
				c0,0.2-0.1,0.2-0.1,0.4L8.6,3.6c-0.2-0.1-0.3-0.1-0.5,0V3.3c-0.1,0,0,1.3-0.1,1.4L7.9,4C7.8,4,7.4,3.5,7.4,4.1c0-0.1,0-0.3,0-0.3
				c-0.1,0-0.4-0.4-0.2,0.5C7,3.7,6.9,4.3,6.8,4.5L6.8,4.1c0,0.6,0,0.7,0,0.9c0-0.1-0.1-0.3,0-0.2C6.6,4.6,6.7,5.2,6.5,5l0-0.3
				c-0.1,0-0.1,0.1-0.1,0.5c0,0.2-0.2-0.1-0.3-0.5c0,0.2,0,0.6,0,0.5c0-0.1,0-0.2,0-0.3C5.9,4.6,6,5.5,5.7,5c0-0.1-0.1-0.2-0.1-0.3
				c0.1,0,0.2,0,0.2,0c-0.1-0.4-0.2-0.5-0.2-1c0,0.3,0,1-0.2,0.8c0,0,0-0.1,0-0.1v0c0,0,0,0,0,0.1c0-0.1-0.1-0.1-0.1-0.1
				C5.2,4.1,5.1,4.3,5.1,4.3c0.1,0.4,0,0.4,0.2,0.7c0,0,0-0.1,0-0.1c0,0,0,0,0,0v0c0,0,0.1,0,0.1-0.1c0,0.2,0,0.4-0.1,0.2
				c0,0.3,0.1,0.6,0.1,0.7C5.2,5.2,5,4.9,4.9,4.5C4.8,4.8,4.5,4.7,4.6,5.6c0,0.1-0.1-0.2-0.2-0.4c0-0.1,0-0.1,0-0.2
				c0,0.2-0.3,0.1-0.1,0.7C4.2,5.5,4.3,5.2,4.1,5.3l0-0.2C3.9,4.8,3.8,5.2,3.8,5.6c0,0.4-0.1,0.7-0.4,0.3c0,0,0.1,0.1,0.1,0.1
				C3.2,5.9,3.1,6.1,2.9,6.2C2.7,6.4,2.5,6.5,2.3,6.4c-0.1,0-0.1,0.2-0.1,0.3L2.1,6.5l0,0.3c-0.1,0.1-0.1,0-0.2,0
				c-0.1,0-0.2,0-0.2,0.1l0,0.1C1.6,7,1.4,7.1,1.4,7c0,0,0,0.1,0,0.1l0,0c0,0.1-0.1,0.1-0.1,0.2c-0.1,0,0-0.1-0.2,0
				C1,7.3,0.9,7.4,0.9,7.4c0,0,0.1,0,0.1,0l-0.1,0c0,0-0.1,0,0.1,0c0,0,0.1,0,0.1,0l0,0l-0.1,0c0.1,0,0.1,0,0.1,0c0,0,0,0,0.1,0.1
				c0,0,0.1,0,0.1-0.1c0,0,0,0.1,0.1,0.1c0,0-0.1-0.1,0-0.1c0.1,0.1,0.1,0.1,0.1,0.1c0,0,0,0.1,0,0.1c0.1,0,0.2,0,0.2-0.1
				C1.8,7.6,2,7.5,2,7.7c0,0,0.1-0.1,0.1-0.2c0,0.3,0.2,0.1,0.3,0.4c0-0.3,0.3,0,0.4-0.2c0,0,0,0.1,0,0.1C2.9,7.9,2.9,8,3,8.1
				C2.9,7.8,3,7.7,3,7.5c0.2,0.4,0,0.4,0.2,0.8C3.1,8,3.3,8,3.2,7.7C3.3,8,3.3,7.9,3.4,8.2c-0.1-0.5,0-0.1,0-0.4
				c0.2,0.3,0.1,0.5,0.2,0.4C3.8,8.4,3.7,8.5,3.7,8.5L3.7,8.5z M6.1,7.3L6.1,7.3C6,7.4,6,7.4,6.1,7.3C6,7.4,6,7.4,6.1,7.3L6.1,7.3z
				 M6.3,7.3C6.2,7.3,6.2,7.3,6.3,7.3C6.1,7.1,6.1,7,6.1,7C6.2,7.1,6.2,7.2,6.3,7.3z M5.2,4.3c0-0.1,0.1,0,0.1,0.1c0,0,0,0,0,0.1
				c0,0,0,0,0,0.1C5.2,4.5,5.2,4.4,5.2,4.3L5.2,4.3z"/>
			<path class="st0" d="M28.4,14.1c-0.1-0.1-0.1,0.4-0.2,0.6c-0.2,0,0-0.4,0-0.6c-0.1,0-0.3,0.4-0.3,0.4c0-0.1,0-0.1,0-0.2
				c-0.2,0.3-0.3-0.2-0.5,0.3c0,0,0-0.1,0-0.1c0,0.3-0.1,0.5-0.1,0.7c-0.1,0-0.2,0.3-0.1-0.1c0,0,0.1-0.1,0.1-0.2L27.2,15
				c0.1-0.5,0.1-0.1,0.2-0.5C27.3,14.6,27,15,27,14.8c0.1-0.5,0.2-0.1,0.2-0.6l0.1,0.3c0.1-0.9,0.1,0.1,0.2-0.8
				c-0.1-0.3-0.2,0.1-0.3-0.1C27,13.8,27,14,26.9,14.3c-0.4,0.5,0.1-1.4-0.2-0.7c-0.1,0.4-0.3,1-0.3,0.7l0.2-0.6
				c-0.2-0.1-0.3,0.8-0.4,0.4c0.1-0.2,0.2-0.2,0.2-0.3c0-0.5-0.1,0.3-0.2,0.3l0.1-0.5c-0.2,0-0.5,0.4-0.7,0.5c0-0.2,0.1-0.3,0.1-0.5
				c-0.3,0.2-0.5-0.2-0.7-0.5l-0.2,0.4c0,0,0-0.2,0-0.3c-0.1-0.2-0.1,0.3-0.1,0.5c-0.1,0,0-0.3,0-0.4c-0.2,0.4-0.6,0.8-0.7,0.2
				l0.1-0.1c-0.1-0.2-0.3,0.9-0.4,0.5l0-0.1c-0.3-0.3-0.7,0.1-0.8-0.6c-0.1,0.7-0.3-0.3-0.4,0.6c-0.1-0.5,0-0.6-0.3-1
				c-0.1-0.1-0.2,0.6-0.3,0.7l0.1-0.5l-0.2,0.5v-0.6l-0.1,0.1c0,0,0,0.2,0,0.4c-0.1,0.2-0.3-0.4-0.2-0.6L21.2,13
				c0-0.2,0.1-0.3,0.1-0.4c-0.2,0.5,0-0.5-0.2-0.1c0,0.1,0,0.3,0,0.4c0-0.3-0.2-0.3-0.4-0.2l0-0.3c-0.2-0.1-0.5,0.1-0.8,0.1
				c0.1,0.2,0.1,0.7,0,0.8l0-0.5c0,0.3,0.1,0.2,0,0.6c-0.1-0.1-0.1-0.6,0-0.8l-0.1,0.2c0-0.2,0-0.2,0-0.4c0,0.3-0.2-0.5-0.3,0l0-0.2
				c-0.3,0-0.4,0.2-0.6,0.2c0,0.4-0.1,0.4-0.1,0.7c-0.2-0.1-0.4-0.5-0.5-0.4c-0.1,0.2,0,0.4,0,0.7c-0.1-0.4-0.2-0.3-0.2-0.7
				c-0.2,0.1-0.3,0.1-0.5,0.5c0.1,0.2,0.1,0.2,0.1,0.4c0,0.1-0.1-0.2-0.2-0.3v0c-0.2,0.6-0.9-1.1-0.9-0.2v0l-0.1,0.5
				c-0.1,0,0-0.3-0.1-0.6c-0.1,0.7-0.4,0-0.5,0.5c-0.4-1.2-0.5,0.2-0.9-0.5l0.1,0.3c0,0.3-0.1-0.1-0.2-0.2c0.1,0.2,0.1,0.2,0.1,0.4
				c-0.4,0.4-1-0.2-1.6-0.3c-0.2,0,0.2,1.5-0.1,0.8l-0.1-0.5c-0.2,0.7-0.7,0.1-0.9,0.7c0-0.1,0-0.3,0-0.3c-0.1-0.4-0.3,0-0.2,0.3
				c-0.1,0-0.1-0.3-0.1-0.4c-0.1-0.2-0.1,0.5-0.2,0.1c0-0.1,0-0.1,0-0.2c0,0.2-0.2,0-0.1,0.4c-0.2-0.2-0.2,0.2-0.3,0
				c0,0.5-0.2-0.2-0.1,0.5c-0.1-0.7-0.3-0.5-0.3-0.2c0-0.2-0.1-0.2-0.1-0.5c-0.1,0-0.1,0.2-0.1,0.5c-0.3-0.8-0.2,0.7-0.4-0.3
				c-0.2,0.4-0.4,0.7-0.5,0.9c0-0.7,0.2-0.1,0.1-0.8c-0.1,0.3-0.2,0.9-0.4,0.8c-0.1-0.1,0-0.3,0-0.4c-0.2,0.3-0.4-0.1-0.6,0.3
				c0-0.1,0-0.1,0-0.2c0,0-0.1-0.1-0.1,0.2l0-0.1c0,0.5-0.2,1-0.2,1.2c0.1-0.9-0.2-0.3,0-1.4c0,0.1-0.1,0.2-0.1,0.4
				c0-0.1,0-0.2,0-0.4c-0.1,0.2-0.1,0.5-0.2,0.5c0-0.2,0-0.2,0.1-0.4c-0.1,0.3-0.2,0.6-0.3,0.5c0-0.1,0-0.2,0-0.2
				c-0.2,0-0.4,0.8-0.6,0.5c0.1-0.7,0-0.2,0-0.8l-0.1,0.2V15c-0.1,0-0.2,0.4-0.3,0.2L7.6,15l-0.2,0.1l0.1,0.2
				c-0.1,0.3-0.1,0.8-0.2,0.6c0-0.1-0.1,0-0.1-0.4C7.1,15.7,7,15.9,7,15.7c0-0.2,0.1-0.7,0.1-0.8C7,15.4,6.8,15,6.7,15.5
				c0-0.1,0.1-0.4,0.1-0.5l-0.1,0.4c0-0.1,0-0.2,0-0.4c-0.1-0.1-0.1,0.8-0.2,0.4c0,0,0-0.1,0.1-0.1c-0.1-0.2-0.4,0.2-0.5,0
				c0.1-0.6,0.2-0.1,0.2-0.6c-0.2,0.1-0.6,0.6-0.7,0.4l0,0.1c-0.2,0.8-0.1-0.4-0.3-0.1c0-0.1,0.1-0.5,0.1-0.4
				c-0.1-0.2-0.3,0.1-0.6,0.4l0.1-0.2c0-0.2-0.2-0.2-0.3-0.3c-0.1,0.2-0.1,0.2-0.1,0.5c0-1.3-0.7,0.5-0.7-0.5c0,0,0.1-0.2,0.1-0.2
				l-0.3,0.2c-0.1,0.3,0,0.2,0,0.5c-0.1,0.2-0.2,0.3-0.2,0.3c0.1-0.2,0.1-0.5,0.1-0.7c0,0.1-0.1,0.2-0.1,0.3c0-0.6-0.2,0.6-0.2,0.2
				l0-0.2c-0.1,0.1-0.2,0.3-0.2,0.2c0.1-0.3,0.1-0.1,0.2-0.4c-0.1,0-0.3,0.6-0.3,0.3C2.9,15,3,15,3,14.9c0-0.4,0-0.3-0.1-0.3v0
				l-0.1-0.2l0,0.1c-0.3,0.8-0.3,0.1-0.5,0.6c0.2-0.4,0.1-0.3,0.2-0.6c0-0.1-0.1-0.2,0-0.3c-0.1,0.2-0.1-0.2-0.3,0.2
				c0-0.1-0.1,0,0-0.2c-0.1,0.1,0,0.1,0,0.3c-0.1,0.1-0.2,0.1-0.2,0c-0.1-0.1-0.2-0.1-0.3,0.1c-0.2,0.1-0.3,0.3-0.5,0.4
				c0-0.1,0.1-0.2,0.1-0.2c-0.1-0.1-0.1-0.1-0.2,0c0,0,0-0.1,0-0.1c-0.1,0-0.1,0.1-0.2,0.1c0,0,0.1-0.1,0.1-0.1
				c-0.1,0-0.2,0.1-0.3,0.1c0,0,0.1-0.1,0.1-0.1c-0.1,0-0.3,0.1-0.3,0.1l0.1,0c0,0,0-0.1,0-0.1c0.1-0.1,0.1,0,0.1,0.1l-0.1,0
				c0,0.2,0.2,0,0.4,0l-0.1,0.2c0,0,0.1-0.1,0.2-0.1c0,0.1,0,0.2-0.1,0.2c0.1,0.1,0.1,0,0.1,0.1c0,0,0,0,0,0l0.1,0
				c0,0,0,0.2-0.1,0.1c0.1,0.2,0.3-0.1,0.3,0.1l0,0c0.2,0,0.1-0.2,0.3-0.4l0,0.6l0.1-0.2c0,0,0.1,0,0,0.1c0.1-0.1,0-0.1,0.1-0.2
				c0,0.3,0.3,0,0.2,0.4c0.1-0.2-0.1-0.2,0.1-0.3c-0.1,0.5,0.1,0,0.2,0.2c-0.1,0.3-0.1,0.1-0.1,0.4c0.2-0.4,0.1,0.2,0.2,0.1
				c0.1-0.4,0.2-0.1,0.4-0.2c0,0.1,0.2,0.3,0.2,0.6l0,0.1c0.1-0.5,0.2-0.3,0.3-0.4c-0.1,0.3-0.1,0.4-0.2,0.5l0.1,0
				c0.1-0.2,0.1-0.2,0.2-0.3l-0.1,0.4c0.1,0,0.3-0.4,0.4,0c0.1-0.4,0.1-1.2,0.3-1.4c0,0.2-0.1,0.6-0.2,0.7c0,0,0.1-0.2,0.1-0.1
				l-0.1,0.4c0,0.2,0.1-0.3,0.1-0.3c-0.1,0.3,0,0.2-0.1,0.5c0,0,0-0.1-0.1,0c0,0.1,0.1,0.3,0,0.5c0-0.2,0.1-0.4,0.1-0.5
				c0.1,0,0,0.4,0,0.6c0.1-0.2,0.1,0,0.2-0.4c0,0,0,0.2,0,0.4c0.1-0.2,0.3,0,0.3-0.5l0,0c0,0,0,0,0,0c0.3-0.4,0.3,0.3,0.6,0.2l0,0.2
				c0.1-0.2,0.3-0.1,0.4-0.4c0,0,0,0.3,0,0.5c0.1-0.1,0.1-0.3,0.2,0C5.5,17,5.6,17,5.5,17c0.1,0.2,0.1,0.4,0.3,0
				c-0.1,0.4,0,0.5,0.1,0.4l0-0.3c0.1,0,0.1,0,0.2,0l-0.1,0.5c0.1,0.7,0.6-1,0.6,0.1c0.1-0.4-0.1-0.3,0-0.7c0.1,0.1,0.1,0.9,0.1,0.9
				c0.1,0.3,0.3-0.7,0.4-0.5c0-0.2,0.1-0.7,0.2-0.9c0.1,0.1,0,0.8-0.1,1c0,0,0,0,0-0.1c0,0.1-0.1,0.1-0.1,0.3l0-0.2
				c0,0.2,0.2,0.2,0.1,0.5c0.1-0.2,0.1-0.3,0-0.4c0.1,0.3,0.2,0,0.3,0.2c0-0.1,0-0.3,0-0.3c0.2,0.3,0.1-0.3,0.3-0.4
				c0,0.3-0.1,0.7,0.1,0.5c0.1,0.2,0,0.5-0.1,0.7c0.2-0.3,0.2,0.3,0.3,0.3L8,18.7c0.1-0.1,0.1-0.1,0.1-0.1v-0.4
				c0,0.1,0.1,0.1,0.1,0.2c0.1-0.2,0-0.6,0.1-1c0,0.2,0.2-0.2,0.2,0.3c-0.2-0.2,0,0.5-0.2,0.6c0-0.1,0.1-0.1,0.1,0
				c0,0.1,0,0.1,0,0.1C8.6,19,8.6,18,8.7,18c0,0.3,0,0.5,0,0.5c-0.1,0,0-0.5,0.1-0.7C9,18,9,17.7,9.1,17.7L9,17.6
				c0-0.3,0.1-0.2,0.2-0.3c0,0.2-0.1,0.1-0.1,0.3C9.2,17,9.3,18,9.4,17.7c0.1,0.2,0,0.5,0.1,0.7c0.1-0.4,0.2,0.4,0.3,0.1
				c-0.1-0.4-0.1-0.3,0-0.7l-0.3,0.3l0.2-0.6c-0.1,0-0.2,0.2-0.2,0.2c0.1-0.3,0.1-0.2,0-0.5c0.1,0.6,0.2-0.3,0.3,0l0,0.9
				c0.2,0.4,0.3-0.5,0.6-0.3l-0.1-0.2c0-0.4,0.1-0.1,0.2-0.2c0,0.3,0.1,0.4,0.1,0.6c0-0.2,0.2,0,0.1-0.6l0.2,0.4
				c0.2,0.1,0.1-0.9,0.2-0.8c0,0.3,0.1,0.6,0,0.8c0.1,0,0.1,0,0.1-0.2c0.1,0.2,0.1-0.4,0.2-0.2c0-0.1-0.1-0.5,0-0.5
				c0,0.1,0,0.2,0,0.2c0-0.2,0.1-0.2-0.1-0.6c0.3,0.9,0.4-0.2,0.8,0.6c0.1-0.1,0.2-0.3,0.3-0.3c0,0.1,0,0.2,0,0.1
				c0.2,0.3-0.1-0.9,0.1-0.6c0.2,0.5,0,0.3,0.1,0.5c0.2,1,0.2-0.2,0.4,0.4l0,0.1c0.2,0.3,0.1-0.4,0.3-0.4c0,0,0,0.1,0,0.2
				c0-0.5,0.1-0.7,0.2-0.9c0,0.4,0,0.2,0.1,0.6c0-0.1-0.2-0.6-0.1-0.8c0.1,0.2,0.2,0.4,0.3,0.8l-0.1,0c0.2,0.5,0.1-0.1,0.2,0l0,0.2
				c0.1-0.1,0-0.7,0.2-0.7l-0.1-0.2c0-0.6,0.2,0.3,0.2-0.1l0.2,0.6c0-0.2,0.1-0.6,0.2-0.8c0,0.5,0,0.7-0.1,1c0.1,0,0.2-0.1,0.2-0.4
				c0,0.1,0,0.2-0.1,0.1c0-0.5,0-0.8,0.1-0.8c0.2,1.2,0.4,0.2,0.7,1.1c0.1-0.5,0.5,0.1,0.7,0c-0.3-0.9,0.1,0-0.1-1
				c0-0.1,0.1-0.1,0.1,0l0.3,0.5c0.1,0.3,0,0.2,0,0.4c0.1,0,0.1,0.4,0.3,0.6c-0.1-0.3-0.1-0.5,0-0.4L17,16.8
				c0.1-0.6,0.3,0.8,0.4,0.2v0.3c0.1-0.2,0.3-0.1,0.3-0.9c0,0.1,0.1,0.4,0.1,0.4c0.2,0.1,0.4-0.9,0.6-0.5l0,0.2c0-0.1,0-0.5,0.1-0.2
				c0,0.1,0,0.2,0,0.3c0-0.1,0-0.4,0.1-0.3v0.3c0.2,0.3,0.2-0.7,0.4-0.9c0.1,0.7,0.3,0.9,0.4,1V17c0.2,0.1,0.4-0.6,0.6-0.9
				c0.2,0.8,0.4,0.3,0.6,0.8c0-0.1,0-0.6,0.1-0.6c0,0.1,0.2-0.5,0.1,0.2l0,0c0,0.6,0.1,0.5,0.2,0.5L21,16c0.1,0.6,0.2,0.5,0.4,0.4
				c0.1-0.1,0.3-0.2,0.3,0.3c0.1-0.2,0.1-0.2,0.2-0.4l-0.1,0.4c0.1,0.1,0.2,0.2,0.4,0.1l-0.1,0.3c0.1,0,0.3-1.3,0.4-1.3l-0.1,0.7
				c0.2,0,0.3,0.6,0.6,0.1C23,16.8,23,17,23,17c0.1,0,0.3,0.5,0.4-0.4c-0.1,0.6,0.2,0.1,0.3-0.2l-0.1,0.4c0.2-0.6,0.2-0.7,0.4-0.8
				c0,0.1,0,0.4-0.1,0.2c0.1,0.2,0.1-0.4,0.2-0.1l-0.1,0.3c0.1,0.1,0.1-0.1,0.2-0.4c0.1-0.2,0.2,0.1,0.1,0.5
				c0.1-0.2,0.2-0.6,0.2-0.4c0,0.1-0.1,0.2-0.1,0.3c0.1,0.3,0.3-0.5,0.4,0c0,0.1,0,0.2,0,0.3c-0.1,0-0.2-0.1-0.2-0.1
				c-0.1,0.4,0,0.5-0.2,1c0.1-0.3,0.4-0.9,0.5-0.7c0,0,0,0.1,0,0.1l0,0c0,0,0,0,0.1-0.1c0,0.1,0,0.1,0.1,0.1
				c-0.1,0.3,0.1,0.2,0.1,0.2c0.1-0.4,0.1-0.4,0.1-0.7c0,0,0,0.1-0.1,0.1c0,0,0,0,0,0l0,0c0,0-0.1,0-0.1,0c0.1-0.2,0.2-0.4,0.2-0.1
				c0.1-0.3,0.2-0.6,0.2-0.7c-0.1,0.6,0,1,0,1.4c0.2-0.2,0.4-0.1,0.7-0.9c0.1-0.1,0,0.3,0,0.4c0,0.1-0.1,0.1-0.1,0.2
				c0.1-0.2,0.3,0,0.4-0.6c0.1,0.3-0.2,0.5,0,0.4l-0.1,0.2c0.1,0.4,0.3,0,0.5-0.3c0.2-0.3,0.4-0.5,0.5-0.1c0-0.1,0-0.1,0-0.2
				c0.2,0.2,0.4,0.1,0.6,0.1c0.2-0.1,0.4-0.1,0.6,0.1c0.1,0.1,0.2-0.1,0.3-0.2l0,0.2c0.1-0.1,0.1-0.2,0.2-0.2
				c0.1-0.1,0.2,0.1,0.2,0.1c0.1,0.1,0.1,0.1,0.3,0l0-0.1c0.1,0,0.3,0,0.2,0c0,0,0-0.1,0.1,0l0,0c0.1,0,0.1,0,0.2-0.1
				c0.1,0-0.1,0.1,0.2,0.1c0.1,0,0.3,0,0.2,0c0,0-0.1,0-0.1,0l0.1,0c0,0,0.1,0.1-0.1-0.1c0,0-0.1-0.1-0.1-0.1l0-0.1l0.1,0.1
				c0-0.1-0.1-0.1-0.1-0.1c0,0,0-0.1,0-0.1c0,0-0.1,0-0.1,0c0-0.1,0.1,0,0-0.1c-0.1,0,0,0.1-0.1,0.1c0-0.1,0-0.1-0.1-0.1
				c0,0,0-0.1,0-0.1c-0.1,0-0.1-0.1-0.2,0c0-0.2-0.2-0.1-0.1-0.3c0,0-0.1,0.1-0.2,0.1c0.2-0.2-0.2-0.2-0.1-0.5
				c-0.1,0.3-0.3-0.1-0.4,0c0,0,0-0.1,0,0c-0.1-0.1-0.1-0.2-0.1-0.3c-0.1,0.3-0.2,0.3-0.3,0.5c0-0.4,0.2-0.4,0.2-0.8
				c-0.1,0.3-0.2,0.2-0.3,0.5c0-0.3,0-0.1,0-0.5c-0.1,0.5-0.1,0-0.2,0.3c0-0.3,0.1-0.5,0-0.4C28.2,14.2,28.4,14.1,28.4,14.1
				L28.4,14.1z M25.5,14.1L25.5,14.1C25.5,14.1,25.5,14.1,25.5,14.1C25.5,14.1,25.5,14.1,25.5,14.1L25.5,14.1z M25.2,14.1
				C25.2,14.1,25.3,14.1,25.2,14.1c0.1,0.2,0,0.3,0,0.3C25.3,14.3,25.2,14.2,25.2,14.1L25.2,14.1z M25.1,17.3c0,0.1,0,0,0-0.1
				c0,0,0,0,0.1,0c0,0,0,0,0-0.1C25.1,17.1,25.1,17.2,25.1,17.3L25.1,17.3z"/>
			<path class="st0" d="M3.7,26.9c0.1,0.1,0-0.4-0.1-0.6c0.1-0.1,0.1,0.3,0.2,0.6c0.1-0.1,0-0.5,0.1-0.5c0,0.1,0,0.1,0.1,0.2
				c0-0.4,0.3,0,0.3-0.4c0,0,0,0.1,0,0.1c-0.1-0.3-0.1-0.5-0.2-0.7c0,0,0-0.3,0.1,0c0,0,0,0.1,0,0.2l0-0.1c0.2,0.5,0,0.2,0.1,0.5
				c0.1-0.1,0.1-0.6,0.2-0.4c0.1,0.5-0.1,0.2,0.1,0.6l-0.2-0.2c0.3,0.8-0.1-0.1,0.2,0.8c0.2,0.2,0.1-0.2,0.3,0
				c0-0.3-0.1-0.4-0.1-0.7c0.1-0.6,0.5,1.3,0.5,0.5c0-0.4-0.2-1.1,0-0.7l0.1,0.6c0.2,0-0.1-0.9,0.1-0.5c0,0.2-0.1,0.2,0,0.3
				c0.2,0.5,0-0.4,0.1-0.4l0.1,0.5c0.1-0.1,0.2-0.5,0.4-0.7c0,0.2,0,0.3,0.1,0.5c0.2-0.3,0.5,0,0.8,0.2l0-0.5c0,0,0.1,0.2,0.1,0.3
				c0.1,0.2-0.1-0.3,0-0.5c0,0,0.1,0.3,0.1,0.4c0.1-0.4,0.3-0.9,0.5-0.5V26c0.1,0.2,0-1,0.1-0.6v0.1c0.3,0.1,0.5-0.3,0.8,0.4
				c-0.1-0.7,0.3,0.3,0.2-0.7c0.2,0.4,0.2,0.6,0.4,0.9c0.1,0,0-0.6,0.1-0.7l0.1,0.5l0-0.5l0.1,0.6l0-0.1c0,0-0.1-0.2-0.1-0.4
				c0.1-0.2,0.3,0.3,0.3,0.6l0.2-0.4c0,0.2,0,0.3,0,0.4c0.1-0.5,0.1,0.5,0.1,0c0-0.1,0-0.3,0-0.4c0.1,0.3,0.2,0.3,0.3,0.2v0.3
				c0.1,0.1,0.3-0.2,0.5-0.2c-0.1-0.2,0-0.8,0-0.8l0,0.5c0-0.3,0-0.2,0-0.6c0.1,0.1,0,0.6,0,0.8l0.1-0.2c0,0.2,0,0.2,0,0.4
				c0-0.3,0.1,0.5,0.2,0v0.2c0.1,0,0.3-0.2,0.4-0.2c0-0.4,0.1-0.3,0.2-0.7c0.1,0.1,0.2,0.5,0.3,0.5c0.1-0.2,0.1-0.4,0.2-0.6
				c0,0.4,0.1,0.4,0,0.7c0.2,0,0.2-0.1,0.5-0.3c0-0.2,0-0.2,0-0.4c0-0.1,0.1,0.2,0,0.4l0,0c0.3-0.6,0.3,1.3,0.7,0.5l0,0l0.3-0.4
				c0.1,0.1-0.1,0.3-0.1,0.6c0.4-0.6,0.3,0.2,0.6-0.2c-0.1,1.2,0.5,0,0.5,0.8l0.1-0.3c0.1-0.3,0,0.2,0,0.2c0-0.2,0-0.3,0.1-0.4
				c0.5-0.2,0.8,0.6,1.1,1c0.1,0.1,0.4-1.4,0.5-0.7L16,27.2c0.5-0.5,0.7,0.2,1.1-0.3c0,0.1-0.1,0.3-0.1,0.3c0,0.4,0.2,0.1,0.3-0.2
				c0,0-0.1,0.3-0.1,0.4c0,0.2,0.3-0.4,0.2-0.1c0,0.1,0,0.1-0.1,0.1c0.1-0.2,0.2,0.1,0.3-0.3c0.1,0.2,0.3-0.1,0.3,0.1
				c0.2-0.5,0.2,0.3,0.3-0.4c-0.2,0.7,0.1,0.6,0.3,0.3c-0.1,0.2,0,0.2-0.1,0.5c0.1,0,0.2-0.1,0.3-0.5c0,0.9,0.5-0.6,0.4,0.5
				c0.4-0.3,0.7-0.6,1-0.7c-0.1,0.7-0.3,0-0.4,0.8c0.3-0.3,0.5-0.9,0.8-0.7c0.1,0.1,0,0.3-0.1,0.4c0.3-0.3,0.5,0.1,0.7-0.3
				c0,0.1,0,0.1,0,0.2c0,0,0.1,0.1,0.1-0.2l0,0.1c-0.1-0.5,0.1-1,0.1-1.3c0,0.9,0.2,0.2,0.2,1.4c0-0.1,0-0.2,0-0.4
				c0,0.1,0.1,0.2,0,0.4c0.1-0.2,0.1-0.5,0.2-0.5c0,0.2,0,0.2,0,0.4c0-0.3,0.1-0.6,0.2-0.5c0,0.1,0,0.2,0,0.2
				c0.2-0.1,0.2-0.9,0.5-0.6c0,0.7,0.1,0.2,0.2,0.8l0.1-0.2l-0.1-0.3c0.1,0,0.1-0.4,0.2-0.3l0,0.3l0.2-0.1l-0.1-0.2
				c0.1-0.3-0.1-0.7,0-0.6c0,0.1,0.1,0,0.2,0.3c0-0.2,0-0.4,0.1-0.3c0,0.2,0.1,0.7,0.1,0.8c0-0.5,0.2-0.2,0.2-0.7
				c0,0.1,0.1,0.4,0.1,0.5l0-0.4c0.1,0.1,0.1,0.2,0.1,0.4c0.1,0-0.2-0.7,0-0.4c0,0,0,0.1,0,0.2c0.2,0.1,0.3-0.3,0.4-0.1
				c0.2,0.6-0.1,0.2,0,0.7c0.2-0.1,0.3-0.8,0.5-0.7l0-0.1c-0.1-0.8,0.2,0.4,0.3,0c0,0.1,0.1,0.5,0.1,0.4c0.2,0.1,0.2-0.3,0.4-0.6
				l0,0.2c0.1,0.2,0.2,0.1,0.3,0.1c0-0.2,0-0.2-0.1-0.5c0.6,1.2,0.4-0.7,0.8,0.1c0,0,0,0.2,0,0.2l0.1-0.3c-0.1-0.3-0.1-0.2-0.2-0.4
				c0-0.2,0-0.4,0-0.4c0,0.2,0.1,0.5,0.2,0.7c0-0.1,0-0.2-0.1-0.3c0.2,0.5-0.1-0.6,0.1-0.3l0,0.2c0-0.1,0-0.3,0.1-0.3
				c0.1,0.3,0,0.2,0,0.5c0.1-0.1,0-0.7,0.1-0.4c0,0.1-0.1,0.1-0.1,0.2c0.2,0.4,0.2,0.2,0.2,0.3h0l0.2,0.1l-0.1-0.1
				c-0.1-0.8,0.2-0.2,0.2-0.8c0,0.5,0,0.3,0.1,0.6c0.1,0.1,0.1,0.1,0.1,0.2c0-0.3,0.1,0.1,0.1-0.3c0,0.1,0.1,0,0.1,0.2
				c0.1-0.1-0.1-0.1-0.1-0.2c0-0.2,0.1-0.1,0.2-0.1c0.1,0,0.2,0,0.2-0.2c0.1-0.2,0.1-0.4,0.2-0.5c0.1,0.1,0,0.2,0,0.2
				c0.1,0,0.1,0,0.2-0.1c0,0,0,0.1,0.1,0.1c0.1,0,0-0.2,0.1-0.1c0,0,0,0.1,0,0.2c0.1-0.1,0.1-0.2,0.2-0.2c0,0,0,0.1,0,0.1
				c0.1-0.1,0.2-0.2,0.2-0.2h-0.1c0,0,0,0,0,0.1c0,0.1-0.1,0-0.1,0l0,0c-0.1-0.1-0.2,0.1-0.3,0.2V24c0,0.1,0,0.1-0.1,0.2
				c0,0-0.1-0.1,0-0.2c-0.1-0.1,0,0.1-0.1,0c0,0,0,0,0,0L28.6,24c0,0-0.1-0.2,0-0.1c-0.2-0.1-0.2,0.2-0.3,0v0c-0.2,0.1,0,0.2,0,0.5
				L28,23.9l0,0.2c0,0-0.1,0-0.1-0.1c0,0.2,0,0.1,0,0.3c-0.2-0.2-0.2,0.2-0.4-0.3c0,0.2,0.1,0.1,0.1,0.3c-0.2-0.5-0.1,0.1-0.2-0.1
				c0-0.3,0.1-0.1-0.1-0.4c0.1,0.5-0.2-0.1-0.3,0c0.1,0.4-0.1,0.2-0.2,0.3c0-0.1-0.3-0.2-0.4-0.4l0-0.1c0.1,0.5,0,0.4-0.1,0.5
				c-0.1-0.3-0.1-0.4-0.1-0.6h-0.1c0,0.2,0,0.3,0,0.3l-0.1-0.4c-0.1,0-0.1,0.5-0.3,0.2c0.1,0.4,0.4,1.1,0.3,1.4
				c-0.1-0.2-0.1-0.6-0.1-0.7c0,0,0,0.2,0,0.1l0-0.4c-0.1-0.2,0,0.3,0,0.3c-0.1-0.3-0.1-0.2-0.1-0.5c0,0,0.1,0.1,0.1,0
				c-0.1,0-0.2-0.2-0.3-0.4c0,0.2,0.1,0.4,0.1,0.5c-0.1,0.1-0.1-0.4-0.2-0.5c0,0.2-0.1,0,0,0.5c0,0-0.1-0.2-0.1-0.3
				c0,0.2-0.2,0.1-0.1,0.6l0,0c0,0,0,0,0,0c-0.1,0.5-0.4-0.2-0.6,0.1l0-0.2c-0.1,0.2-0.2,0.2-0.2,0.5c0,0-0.1-0.3-0.2-0.5
				c-0.1,0.1,0,0.3-0.2,0.1c0-0.3-0.1-0.2,0-0.2C24.1,24,24,23.8,24,24.2c0-0.4-0.2-0.5-0.2-0.4l0.1,0.3c0,0.1-0.1,0-0.2,0l-0.1-0.5
				c-0.3-0.6-0.2,1.2-0.5,0.1c0,0.4,0.2,0.2,0.2,0.7c-0.1-0.1-0.3-0.8-0.4-0.8c-0.2-0.3,0,0.8-0.2,0.6c0,0.2,0.1,0.7,0.1,0.9
				c-0.1-0.1-0.2-0.8-0.2-0.9c0,0,0,0,0,0.1c0-0.1,0-0.2,0-0.4l0,0.2c-0.1-0.2-0.2-0.1-0.2-0.5c0,0.2,0,0.3,0.1,0.4
				c-0.2-0.3-0.2,0-0.3-0.1c0,0.1,0.1,0.3,0.1,0.3c-0.2-0.2,0,0.4-0.1,0.5C22,24.4,22.1,24,22,24.3c-0.1-0.2-0.1-0.5-0.1-0.7
				c-0.1,0.4-0.2-0.2-0.3-0.3l0-0.2c0,0.1-0.1,0.1-0.1,0.1l0.1,0.4c0-0.1-0.1-0.1-0.1-0.2c0,0.3,0.1,0.6,0.1,1
				c-0.1-0.2-0.1,0.2-0.2-0.3c0.2,0.2-0.1-0.5,0-0.6c0,0.1,0,0.1-0.1,0c0-0.1,0-0.1,0-0.1c-0.2-0.4,0,0.6-0.1,0.6
				c0-0.3-0.1-0.5-0.1-0.5c0.1,0,0.1,0.5,0,0.7c-0.1-0.2-0.1,0.2-0.1,0.1l0.1,0.1c0,0.3-0.1,0.3-0.1,0.3c0-0.2,0-0.2,0-0.3
				c0,0.5-0.2-0.5-0.2-0.2c0-0.2,0-0.5,0-0.7c-0.1,0.4-0.1-0.4-0.2-0.1c0,0.4,0,0.3,0,0.7l0.2-0.3l-0.1,0.6c0.1,0,0.1-0.2,0.1-0.2
				c-0.1,0.3-0.1,0.2,0,0.5c-0.1-0.6-0.2,0.3-0.2-0.1l0-0.9c-0.1-0.4-0.2,0.5-0.4,0.2l0,0.2c-0.1,0.4-0.1,0-0.2,0.2
				c0-0.3,0-0.4,0-0.6c0,0.2-0.1,0-0.2,0.6l0-0.4c-0.1-0.2-0.3,0.9-0.4,0.7c0.1-0.3,0.1-0.6,0.2-0.8c0,0-0.1-0.1-0.1,0.1
				c0-0.2-0.2,0.4-0.2,0.1c0,0.1-0.1,0.5-0.2,0.4c0-0.1,0-0.2,0-0.2c0,0.2-0.1,0.2-0.1,0.5c0-1-0.4,0-0.4-0.9
				c-0.1,0.1-0.3,0.1-0.4,0.2c0-0.1,0-0.2,0-0.1c-0.1-0.3-0.3,0.9-0.4,0.5c0-0.5,0.1-0.3,0.1-0.4c0.2-1-0.2,0.1-0.2-0.5l0-0.1
				c0-0.4-0.3,0.3-0.4,0.2c0,0,0-0.1,0-0.2c-0.2,0.5-0.4,0.6-0.6,0.7c0.1-0.4,0.1-0.2,0.2-0.6c-0.1,0-0.1,0.7-0.3,0.7
				c0-0.2,0-0.4,0.1-0.9H17c0.1-0.6-0.1,0-0.2-0.1l0.1-0.2c-0.2,0-0.3,0.7-0.5,0.6l0,0.2c-0.2,0.6,0-0.4-0.2,0.1l0.1-0.6
				c-0.1,0.1-0.4,0.5-0.5,0.6c0.2-0.4,0.4-0.6,0.5-0.9c-0.1,0-0.2,0-0.3,0.3c0-0.1,0.1-0.2,0.1-0.1c-0.2,0.5-0.3,0.7-0.5,0.6
				c0.3-1.2-0.2-0.4-0.1-1.3c-0.3,0.4-0.4-0.3-0.7-0.3c-0.1,1-0.1,0-0.3,1c-0.1,0-0.1,0-0.1,0l-0.1-0.6c0-0.3,0.1-0.2,0.1-0.4
				c-0.1-0.1,0-0.4,0-0.7c-0.1,0.3-0.1,0.5-0.2,0.3l0,0.5c-0.3,0.5,0-0.8-0.3-0.4l0.1-0.3c-0.1,0.2-0.4-0.1-0.6,0.7
				c0-0.1,0-0.4,0.1-0.4c-0.2-0.2-0.7,0.7-0.8,0.2l0.1-0.2c-0.1,0.1-0.1,0.4-0.2,0.2c0-0.1,0.1-0.2,0-0.3c0,0.1-0.2,0.4-0.2,0.3
				l0.1-0.3c-0.2-0.3-0.5,0.6-0.7,0.7c0.1-0.7-0.1-1-0.2-1.1l0-0.1c-0.3-0.1-0.6,0.5-0.9,0.8c-0.1-0.8-0.6-0.3-0.9-0.7
				c0,0.1,0,0.6,0,0.6c-0.1-0.1-0.1,0.5-0.2-0.1l0,0c-0.1-0.6-0.2-0.4-0.3-0.5l0.1,0.8c-0.2-0.6-0.3-0.5-0.5-0.3
				c-0.1,0.1-0.3,0.3-0.4-0.2c0,0.2-0.1,0.2-0.1,0.4L8.6,22c-0.2-0.1-0.3-0.1-0.5,0v-0.3c-0.1,0,0,1.3-0.1,1.4l-0.1-0.7
				c-0.2,0-0.5-0.5-0.6,0.1c0-0.1,0-0.3,0-0.3c-0.1,0-0.4-0.4-0.2,0.5c-0.1-0.6-0.2,0-0.3,0.3l-0.1-0.4c0,0.6,0,0.7,0,0.9
				c0-0.1-0.1-0.3,0-0.2c-0.1-0.2,0,0.4-0.2,0.2l0-0.3c-0.1,0-0.1,0.1-0.1,0.5c0,0.2-0.2-0.1-0.3-0.5c0,0.2,0,0.6,0,0.5
				c0-0.1,0-0.2,0-0.3C5.9,23,6,23.8,5.7,23.4c0-0.1-0.1-0.2-0.1-0.3c0.1,0,0.2,0,0.2,0c-0.1-0.4-0.2-0.5-0.2-1c0,0.3,0,1-0.2,0.8
				c0,0,0-0.1,0-0.1v0c0,0,0,0,0,0.1c0-0.1-0.1-0.1-0.1-0.1c-0.1-0.3-0.2-0.2-0.2-0.2c0.1,0.4,0,0.4,0.2,0.7c0,0,0-0.1,0-0.1
				c0,0,0,0,0,0v0c0,0,0.1,0,0.1-0.1c0,0.2,0,0.4-0.1,0.2c0,0.3,0.1,0.6,0.1,0.7c-0.2-0.6-0.4-0.9-0.5-1.3c-0.1,0.3-0.3,0.2-0.3,1.1
				c0,0.1-0.1-0.2-0.2-0.4c0-0.1,0-0.1,0-0.2c0,0.2-0.3,0.1-0.1,0.7c-0.2-0.2-0.1-0.6-0.2-0.4l0-0.2c-0.3-0.4-0.3,0.1-0.3,0.4
				c0,0.4-0.1,0.7-0.4,0.3c0,0,0.1,0.1,0.1,0.1c-0.2-0.1-0.4,0.1-0.6,0.2c-0.2,0.1-0.4,0.2-0.6,0.1c-0.1,0-0.1,0.2-0.1,0.3l-0.1-0.2
				l0,0.3c-0.1,0.1-0.1,0-0.2,0c-0.1,0-0.2,0-0.2,0.1l0,0.1c-0.1,0-0.2,0.1-0.2,0.1c0,0,0,0.1,0,0.1l0,0c0,0.1-0.1,0.1-0.1,0.2
				c-0.1,0,0-0.1-0.2,0c-0.1,0.1-0.2,0.2-0.2,0.1c0,0,0.1,0,0.1,0l-0.1,0c0,0-0.1,0,0.1,0c0,0,0.1,0,0.1,0l0,0l-0.1,0
				c0.1,0,0.1,0,0.1,0c0,0,0,0,0.1,0.1c0,0,0.1,0,0.1-0.1c0,0,0,0.1,0.1,0.1c0,0-0.1-0.1,0-0.1c0.1,0.1,0.1,0.1,0.1,0.1
				c0,0,0,0.1,0,0.1c0.1,0,0.2,0,0.2-0.1C1.8,26,2,25.9,2,26.1c0,0,0.1-0.1,0.1-0.2c0,0.3,0.2,0.1,0.3,0.4c0-0.3,0.3,0,0.4-0.2
				c0,0,0,0.1,0,0.1c0.1,0,0.1,0.2,0.2,0.3c-0.1-0.3,0-0.4,0-0.6c0.2,0.4,0,0.4,0.2,0.8c-0.1-0.3,0.1-0.3,0-0.5
				c0.1,0.2,0.1,0.1,0.2,0.5c-0.1-0.5,0-0.1,0-0.4c0.2,0.3,0.1,0.5,0.2,0.4C3.8,26.7,3.7,26.9,3.7,26.9L3.7,26.9z M6.1,25.7
				L6.1,25.7C6,25.7,6,25.7,6.1,25.7C6,25.7,6,25.7,6.1,25.7L6.1,25.7z M6.3,25.6C6.2,25.6,6.2,25.6,6.3,25.6
				c-0.1-0.1-0.2-0.3-0.1-0.3C6.2,25.4,6.2,25.5,6.3,25.6z M5.2,22.7c0-0.1,0.1,0,0.1,0.1c0,0,0,0,0,0.1c0,0,0,0,0,0.1
				C5.2,22.8,5.2,22.7,5.2,22.7L5.2,22.7z"/>
		</g>
	</g>
</g>
</svg>
