<?xml version="1.0" encoding="UTF-8"?>
<svg id="Layer_1" data-name="Layer 1" xmlns="http://www.w3.org/2000/svg" viewBox="0 0 300 300">
  <defs>
    <style>
      .cls-1 {
        fill: #fff;
      }
    </style>
  </defs>
  <path class="cls-1" d="m179.29,242.54l-.6,1.98,1.31-.53c.31-.52.13-1.69-.71-1.46Z"/>
  <path class="cls-1" d="m174.24,241.64c-.31-.44,0-.96.06-1.32-1,.96-2.14,2.65-1.5,4.48.99-1.91,1.22-1.11,2.29-3.38.85-.23,1.48.64,1.34,1.37.3-.51,1.32.44,1.77-.81-1.1-1.54-2.5-1.6-3.96-.33Z"/>
  <path class="cls-1" d="m92.08,237.45c-.15-.13-.33-.2-.53-.24l.53.24Z"/>
  <path class="cls-1" d="m63.87,220.27c.05.39.24.55.42.57-.13-.36-.25-.66-.42-.57Z"/>
  <path class="cls-1" d="m66.06,211.52c-.06.19-.09.35-.14.52.18-.2.28-.39.14-.52Z"/>
  <path class="cls-1" d="m91.55,237.22l-1.37-.62c-.1.65.7.48,1.37.62Z"/>
  <path class="cls-1" d="m162.89,245.11c.29-.1.53-.28.74-.52-.24.09-.46.16-.7.21-.01.11-.02.2-.05.31Z"/>
  <path class="cls-1" d="m114.15,235.61h.42c.12-.23.24-.5.35-.81l-.76.81Z"/>
  <path class="cls-1" d="m130.82,237.65c.22-.69.51-1.03.86-1.16,0-.32-.05-.7-.18-1.19-.39-.07-.53,1.61-.68,2.35Z"/>
  <path class="cls-1" d="m159.01,238.27l.49-.23c-.13.07-.34.14-.49.23Z"/>
  <path class="cls-1" d="m101.73,235.24c-.03-.25-.09-.47-.16-.6,0,.21.06.41.16.6Z"/>
  <path class="cls-1" d="m247.92,143.46c-.12-.01-.2,0-.3,0,.17.1.29.13.3,0Z"/>
  <path class="cls-1" d="m239.56,163.57l-.09-.28c-.32-.03-.63-.06-.94-.06l1.04.34Z"/>
  <path class="cls-1" d="m68.22,195.49s-.02.04-.03.07c.19.42.16.18.03-.07Z"/>
  <path class="cls-1" d="m131.59,126.98c-1.67-1.51,2.71-1.94.2-3.61.23.66-2.28,2.63-.2,3.61Z"/>
  <path class="cls-1" d="m162.44,244.88c-.23.02-.47.03-.71.02.32.05.54.05.71-.02Z"/>
  <path class="cls-1" d="m81.05,186.47c.01.17.1.39.38.74-.08-.3-.22-.52-.38-.74Z"/>
  <path class="cls-1" d="m64.81,187.88l.23-.24c-.15.06-.21.15-.23.24Z"/>
  <path class="cls-1" d="m96.01,184.96c-.09-.04-.18-.09-.3-.14.11.07.21.11.3.14Z"/>
  <path class="cls-1" d="m96.01,184.96c.19.09.36.15.7,0-.05-.09-.09-.15-.15-.21-.13.17-.3.27-.54.21Z"/>
  <path class="cls-1" d="m110.7,184.82c-.12-.13-.28-.23-.41-.34-.15.03-.32.06-.47.09.25.08.45.17.88.25Z"/>
  <path class="cls-1" d="m247.11,98.29c-.47.33-1,.53-1.52.69,1.2-.23,1.63,1.95,1.52-.69Z"/>
  <path class="cls-1" d="m162.89,244.16c-.09.43-.21.64-.44.73.17-.02.33-.05.49-.09.04-.25.05-.49-.05-.64Z"/>
  <path class="cls-1" d="m96.31,171.52l2.36.25c-.66-.16-1.52-.25-2.36-.25Z"/>
  <path class="cls-1" d="m172.93,66.39c-.04.35.01.7.2.97l-.2-.97Z"/>
  <path class="cls-1" d="m105.67,171.52c.42.59.87.94,1.33,1.17.1-.13.21-.24.27-.43l-1.6-.73Z"/>
  <path class="cls-1" d="m67.55,196.5c.02.2.06.39.14.56-.03-.24-.08-.41-.14-.56Z"/>
  <path class="cls-1" d="m98.26,183.55s-.03.08-.03.13c0,0,.02-.06.03-.13Z"/>
  <path class="cls-1" d="m236.3,107.56c-.06.1-.13.21-.21.35.08-.12.14-.23.21-.35Z"/>
  <path class="cls-1" d="m170.45,241.52l.27.14c-.06-.1-.14-.16-.27-.14Z"/>
  <path class="cls-1" d="m172.36,75.7c-.07-.11-.14-.22-.21-.33.09.12.15.23.21.33Z"/>
  <path class="cls-1" d="m246.17,128.66c.23.15.68.44.54.67.24-1.48,1.1-1.91,1.63-2.87-2.35-.19-2.89-2.5-4.34-3.74,2.27-1.82,2.76,1.1,4.94.53-1.91.09-1.9-3.16-3.49-2.54,1.4-1.39.68-1.2,2.63-1.91-2.94-.24-.5-1.29-2.3-2.45,1.45-2.01,2.75-.52,1.86-2.73.9-1.05,1.94.91,1.94.91.05-2.25-2.17-1.06-3.44-1.53-.63-2.69,1.63-1.24,2.77-2.16-.59-1.68-2.62-2.96-2.54-4.21.36-.09.5-.34.96-.05-1.76-1.77-.09-5.26-2.3-7.33.2-.15.38-.23.55-.27-1.11.33-2.24.39-3.04.32-.04-1.01-1.4-1.87.05-2.25-.04.62.54.67.99.96l-.63-1.06c2.08-.95.72,1.44,2.26,1.44-.68-2.06-2.4-4.46-1.81-6.04,2.04-.33.69,3.69,2.5,1.59l-.78,2.44c3.22-1.87-.22,1.48,3.22-.23.59-3.22-1.04-3.6-.44-6.8-1.13-.72-1.68.24-2.81-.48-2.03-4.56,5.12-3.59,2.41-6.94-1.36-.87-3.94-1.2-2.57-3.59l2.3.81c.23-3.11-3.31-1.78-1.76-5.04.91.58.76,2.45,1.04,1.98,1.82-2.11-1.31-1.49-1.31-3.12l2.04-.34c-.08-.83-.23-1.68-.42-2.54l-.07-.33c-.02-.11-.05-.35-.08-.51l-.16-1.09c-.11-.71-.22-1.42-.34-2.14-.46-2.83-.92-5.41-1.1-8.04.61-.2,1.24.41,1.87-1.53-.14-.98-.24-1.99-.3-3.07-3.63.19-6.96,0-10.46-.35-1.74-.18-3.52-.4-5.34-.64-.2-.03-.52-.06-.62-.09l-.38-.09c-.25-.06-.5-.13-.75-.19-.5-.13-.99-.26-1.47-.39l-1.71,1.76c-.4-.02-.74-.8-.31-1.14-1.74-.67-.09,1.12-.93,1.81-.99.12-1.31-1.01-.68-1.54-3.07,1.49-8.75,3.22-11.99,1.33l.63-.52c-2.52-.71-2.84,3.61-5.18,1.97l.45-.31c-5.47-.76-11.51.85-15.69-1.81-.2.63-.64.88-1.19.95-.28.03-.58.02-.89,0-.17-.02-.34-.04-.51-.05l-.79-.06c-2.11-.16-4.24-.19-3.87,1.58-2.55-.86-3.84-1.45-5.32-1.97-1.51-.52-3.23-.96-7.6-1.53-.02.01-.04.13-.06.25-.08,1,.47,2.32,1.09,3.63.62,1.33,1.3,2.65,1.49,3.89l-1.85-1.15c.65,1.57,1.29,3.01,1.94,4.31-.74.21-1.47.51-2.21.88l.47,2.51c.11-.94.83-1.74,1.36-1.43.21.91.23,1.82.14,2.73-.05.46-.13.91-.23,1.36-.05.22-.11.45-.17.66-.06.14-.12.27-.19.4-.55,1.04-1.31,1.82-1.79,1.84l1.56,5.03c-.56-.08-.85-.59-1.16-1.12,1.04,1.88-2.14.16-.54,2.45.42-.33,1.1.18,1.48.23-1.12,1.23-1.13,4.02-.66,6.09l-1.28-.4c-.32,3.73.61,7.87.59,12.06.59-1.5,2.8-1.16,3.02.07l-1.95.49c1.21.79.74-1.28,2.22.35-.23,1.57-2.22,1.05-2.86.15l.68,1.9c-.58.11-.89-.33-1.64-.45,1.21.78-1.96,3.28.15,4.41l-.58.11c0,2.09.16,3.62.33,5.04.05.36.09.71.13,1.06l.06.53.03.27c.01.11.02.05.03.09.08.1.14.23.16.38,1.69.46,1.31.67,2.68,1.76-.32.5-.91.67-1.32.75-.63-.28-1.05-.46-1.33-.41-.02.42.07.78.27,1.15.18.38.47.78.47,1.28-.41-.77-.89-1.12-1.19-1.41-.31-.29-.43-.53-.39-1.09-.22.07-.41.12-.57.17l-.13.05h-.03s-.11.03-.11.03l-.24.03c-.32.04-.63.09-.95.13-1.28.2-2.68.53-4.97,1.15.5.63,1.06.9.77,1.43-.83.25-1.89-.64-1.77-1.38l.22-.16c-5.05,2.26-11.64-4.23-15.75-1.43l-4.25,1.67c-1.96-.27,1.17-1.15-.27-2.11-4.59,2.57-7.24-.37-11.02,1.34-.3-.47-.65-.84-1.04-1.12-.19-.14-.4-.27-.61-.37-.11-.05-.22-.1-.33-.14l-.17-.06s-.11-.04-.24-.06c-1.69-.29-3.67-.32-5.68-.26-2.01.06-4.05.22-6.03.33-1.98.11-3.91.16-5.9.02-.12,1.5-.39,2.72-.9,3.66.36.12.71.25,1.07.39.52,1.32.37,1.72.06,2.02-.31.28-.79.44-.91,1.09.83.25.96-1.43,1.54.06.16,1.98.26,3.88.3,5.77.02.94.03,1.88.03,2.82v1.41s-.03.63-.03.63l-.02.41c-.1,2.21-.37,4.45-.7,6.69-.67,4.48-1.62,9-2.1,13.42-.29,3.24,5.52,1.84,2.97,5.92l-1.98-1.16c1.19,3.27,1.17,6.61,1.1,9.93-.03,1.66-.08,3.32.01,4.96l.02.29.02.07.05.14c.04.1.09.2.16.31.13.23.31.5.56.85-.46-.33-1.05-.57-1.04-.69-.72-.13-.74-.08-.43.29.31.35.95,1.12,1.53,1.66-.13.17-1.06-.89-1.66-1.35-.06-.04-.1-.07-.12-.08-.27-.2.09.27.21.62.14.35.1.58-.37-.09-.16-.23-.22-.47-.27-.58.3.7-.61-.18.1,1.48-.23-.2-.37-.25-.51-.23-.07,0-.14.03-.21.07l-.1.06s-.03.02-.06.03l-.2.03c-1.09.16-2.11.3-3.07-.19-1.25,1.86-4.11-.89-4.51,1.73.17-2.71-4.21-2.19-5.73-.91.51-.82-1.32-.85-.72-1.99-1.73.04-3.32.54-3.02,1.94-3.19-3.25-6.42,2.61-8.21-1.55-5.15,1.46-9.91,2.45-14.54,3.08.17-2.71,5.12-.27,4.92-3.11-1.1.28-2.08.63-3,1-.46.19-.91.37-1.35.55l-.65.26-.32.13c-.06.02-.1.04-.17.06l-.26.06c-2.82.64-5.17,1.06-8.71.73-.99-.19-.95-.48-.56-.78.38-.3,1.12-.62,1.34-.85-2.67.43-5.3.49-7.97.49,0,2.15-.04,4.24.03,6.36.07,2.11.26,4.24.71,6.27-.25-.07-.53-.82-.73-1.55.09,1.29-.4,2.93.83,2.96l-.33-1.26c.89-.77,1.83.72,2.65,2.03.83,1.44,1.55,2.36,2.02,2.46-3.53-1.31-.89,3.86-5.34,1.78.23.51.82,1.14,1.64,1.03-.24.75-.72.99-1.66.23.67,2.76,1.98,1.78,1.95,4.28-.6,0-.83-.51-1.53-.77,1.16,1.26,2.32,2.54,1.82,4.65-.31-.11-.71.06-.8-.31.28,3.52,3.05,6.05,1.95,9.95-2.59-1.17-.85,1.35-3.09,1.56l.67,2.14,1.09-.86c-.04,1.87,1.59,3.53.86,5.14l-.92-1.39.42,3.51.85-1.99c1.15,1.9,2.83-.2,2.21,2.29-.23-.51-.03,1.87-1.35,2.85,0,0,0,0,0,0,.71.93,1.46,1.88.91,3.27-.72.36-2.48-.29-2.95-.06.47.23.73.62.9,1.09.08.24.14.49.19.76.02.14.04.28.06.42.02.19.04.38.06.57.15,1.5.31,3.05,1.3,3.41-.47-.31-1.64,0-1.89.25.51.2,1.01.36,1.52.48-.49,1.28-.72,1.62-1.66,1.86-.14,1.95.57,1.21,1.16.68.59-.51,1.07-.93.45,1.39-.12-.22-.35.09-.58-.42-.24,1.69-.16,3.19-.02,4.5,2.75-.25,5.23-.7,7.29-.23.2,2.25-3.73.55-3.44,2.45,1.65-.1,3.37-.32,5-.59.8-.14,1.6-.28,2.4-.42.76-.14,1.62-.29,2.05-.43,2.12-.56,4.22-1,6.21-.73l-.74-.25c.55-3.18,2.97,1.57,4.99.07-.49.23-.65,1.77-.51,1.41,2.73.51,5.59-.78,9.72-1.78l-.51.82c1.61.73,4.24.42,5.98.79.52-.82,1.51-.68.91-1.87,5.36,4.66,10.23-2.5,14.99,1.38-.57,0-1.36.72-.9.72l4.05-.75c-.32-1.39-.53-.84-1.38-1.92.51-.82,1.66-1.46,2.66-1.46-1.82.92.02,2.23.8,3-.13-.42.14-.89.07-1.33,2.12,2.47.35-2.79,3.24-1.13l-.15.73c1.08-.37,2.08-1.33,3.24-1.13.48,1.6-1.15.75-1.23,2.07,1.64-.09,3.23-3.04,4.72-1.44-.7.45-1.7.45-2.39.9,1.61,1.88,1.8,1.4,3,1.7l-.12-.04,2.77.85-.71-.51c2.05-4.18,4.17-.76,6.94-3.5-2.68,2.59-.44,1.5-.65,3.32.71.5,1.78,1.07,1.47,1.58,1.31-1.47,2.18,1.16,4.02-.99.08.58,1.4.06,1.1,1.53,1.7-.46-.4-1.02-.26-1.75,2.62-2,6.15,2.42,9.91-.32,3.24-1.13,3.84-3.1,6.86-4.09,1.02.94-.83,2.13-.83,2.13,1.64.86,2.87.7,4.42.03-.31.51,0,.94.48,1.6,1.24-.15.83-2.13,2.46-1.27-.28.65-.64,1.7-1.24,2.35,1.46-.54,2.9-1.63,4.42-2.16.4,1.02-.91,1.55-1.45,2.21,1.7-.46,4.4-.92,4.93-2.54l-.82-.43c.21.36-.05,1.31-.41,1.54-1.46,1.27-2.1-.56-2.18-1.15l1.08-.38c-1.11-3.43-4.33.55-6.49.35l.9-2.5-2.22,2.07c-.47-.65-.8-2.04.27-2.42-1.55-1.23-1.38.89-2.71-.49-.15-.21-.08-.33.06-.43l-1.52.74c.3-.52-.25-1.76.68-1.4-2.73-1.44-4.4,1.87-5.42-.02l.23-.15c-3.78.84-.37,1.83-3.2,3.98l-1.91-4.52-.37,1.83c-.39-.07-1.16-.2-1.02-.94-1.45,1.25.25.8-.6,1.98-1.88-1.67-5.18.78-5.6-2.14-.67,1.39,1.8,1.07-.21,2.04-.57-3.14-2.32.54-4.03-.9.53-1.62,2.15-.76.44-2.21-1.04,2.74-3.34-.6-4.79-.08-.07,2.18-3.15.91-5.58,1.64.15-.73-4.57-1.2-6.83-1.99l.07-.36c-.44,2.2-2.77,1.79-4.46,2.24.07-1.32.37-1.84,1.29-2.43h-1.6c-.38.72-.87,1.09-1.91,1.34l.4-1.65c-2.12.09-4.28,1.94-7.01.84-.15,1.54,2.17,4.28-.72,5.3-.11-.83-.21-2.25.54-2.59-.25.11-.88.69-1.38.34l1.15-1.4c-1.24-.61-.65,1.17-1.65,1.04.02-1.18-.74-.85-.59-1.79.25-.11.87.49,1.25.02-1.12-.21-2.48-.91-2.93-1.81.1.67,0,1.6-.82,1.75-2.12.09-.73-1.43-1.97-2.03-.51.82-1.87-.03-1.9,1.74-.62,0-.74-.84-.98-1.31-1.1.78-5.13.22-3.89,2.11l.28.12c-.05.04-.11.04-.18.08-3.6,1.76-7.48-1-11.06-.24v-.59c-2.13.68-4.74.4-6.27,1.67-.63,0-1.49-1.08-1.22-1.79-1.61.45-1.86,1.11-4.12.13,1.55-1.03-.59-.92,1.64-.76-.53-.13-.96-.28-1.34-.42-.22-.07-.29-.13-.38-.18-.09-.05-.18-.09-.26-.12-.36-.1-.65.07-1.61.88.48-.76.39-1.24.21-1.47-.19-.23-.55-.22-.92.01,0,.36.07.72.19,1.09-.77.22-1.31.09-1.78-.04.62-.67,1.21-1.33,1.76-2,.04-.52-.08-.63-.47-.52-.21-.25-1.15-.06-1.64-.5-.49-.37-.54-1.36,1.06-2.08-.7-.15-.94.1-1.22.47-.28.34-.58.82-1.4.73.07-.34.3-.71.6-1.03.15-.16.33-.3.51-.43.09-.06.18-.13.28-.18.09-.06.19-.21.28-.3.75-.85,1.47-1.52,1.47-1.83,1.11-2.73-2.92-2.55-2.16-5.41-.71.37-2.61.71-3.28-1.43.26-2,2.99-2.45,3.56-1.19.06.48-.17.71-.41.69.26.64.56,1.49,1.34.7l-.71-.26c.73-.99.65-3.74,1.82-3.09-.68-1.51-1.17-.64-1.54.47,1.03-2.56.03-4,.72-6.63-.39.42-1.23.8-1.22.39.88-3.86-1.35-1.7-1.66-4.32,1.09-1.49,2.59.53,1.68-2.1.74-1.61,1.89-.34,2.47.3-1.37-2.4.9-4.49,1.15-5.86l.57,1.27c-.34-.76-.33-1.38-.33-2.01l-1.42.72c.25-.74.25-1.37.85-1.36-.93-.77-2.37.59-3.64-.93.72-.99-.78-3.02,1.11-3.36-.58,2.83,1.46.24,2.07,1.73-.04-.39,0-.82.17-1.31.21-.11.39.11.5.31,1.69-2.98-2.14-1.37-2.09-4.46,1.07.39,2.02-.72,1.79-1.22-.01.62-.45.77-1,.62-.27-.07-.57-.22-.85-.43-.14-.09-.28-.23-.4-.32-.13-.05-.24-.11-.34-.18.41-.41.26-.61.01-.88-.25-.25-.58-.51-.53-.76-.13.15-.26.32-.39.5-1.06-.5-.92-1.11-1.26-2.19.83.38.57,1.07.94.94-.88-.84-.5-1.26.02-1.39.52-.17,1.17,0,.82-.81.02-.04.02-.09.01-.16.6.36,1.04.86,1.48,1.33.43.47.84.91,1.16,1.16-.26-.69.3-.33.67.07.43.39.67.82.72.25-.64-1.43-.81-1.08-.4-2.48-.57.34-1,.67-1.29,1.01-.14-.69-.08-1.39.16-2.08-.37-.01-.65.21-.86.41-.21.2-.35.37-.63.24-.16-1.17.15-.81-1.1-2,1.33,1.07,1.56.76,2.02.36.41-.4,1.06-.89,1.89-.16l.46,3.54c.15.2.27.32.38.38.03.02.05.03.08.03.04,0,.16.01.24.01.17,0,.35,0,.52-.03.69-.08,1.38-.33,2.1-.6,1.43-.54,2.97-1.17,4.9-.72l-1.24-.62c.52-1.41,2.38-.2,3.63-.77-.12,1.18.66,1.61,1.2,2.35-.06-.88,2.82.08,3.17-2.29l1.72,1.56c3.11.64,3.55-3.38,6.55-2.97-.9,1.29.46,2.13-1.55,3.05,1,.01,1.9.23,1.91-.59.58.74,2.77-1.6,3.69-.47.42-.52.56-1.76,1.68-1.66.08.15.05.33.03.46.23-.49,1.65-.77.74-1.98,3.08,3.7,8.61-.27,11.29,2.91,3.21-.4,6.68-.78,9.32-.87.07.35.4.59-.21.47,1.83.43,2.26,0,2.25-.61,0-.61-.35-1.39.16-1.67-.15-.56-.16-1.1.11-1.67.96-.18,1.22.5,1.33,1.26.11.74.07,1.48.43,1.14,1.95,1.51,1.82-.19,1.48-2.16-.17-.99-.39-2.05-.42-2.98-.03-.93.12-1.73.68-2.37l.23.87c.66-1.03.29-2.83-.21-4.56-.06-.22-.13-.44-.19-.66l-.1-.33c-.03-.1-.06-.15-.1-.23-.13-.29-.25-.59-.35-.89-.2-.61-.33-1.24-.26-1.9,0,0,.35.13.59.02-1.99-1.79-2.65-5.17-3.2-7.68,1.52.78.81,1.14,2.36.66-.22-1.13-2.49.33-2.92-1.92.84-.73,1.56-2.35,3.22-2.57l.09,2.12c2.14-1.09-.07-2.75.3-3.86l.93.14c-.3-3.25-2.66-3.3-2.49-6.79l-.71.36c-2.33-1.91,1.31-1.6-.42-3.51l2.37-.58c-.57-1.26-2.29-4.41-2.73-6.67,1.76,1.28,2.66,3.92,3.7,5.56.02-1.25-.17-4.24-1.34-4.9.23.5.81,1.14.44,1.63-1.86-1.53-2.78-3.55-2.74-6.04,2.3.22,2.58-1.4,2.75-3.3l.03-.33.03-.19.07-.37c.05-.24.13-.47.25-.65.25-.37.7-.55,1.6-.25-.64-.86-.69-1.68-.53-2.13.66.14,1.39.43,1.96.66.59.23,1.01.41,1.43.32-.21-.89-.37-1.35-.37-1.58-.01-.23.09-.25.22-.27.13-.02.27-.04.4-.29.24-.25.39-.72.31-1.63,1.18-.23,1.64-.18,1.75.06l-.25-.15c.11.07.17.11.26.17h0s3.62,2.18,3.62,2.18c.86,1.07-1.14.81-1.03,1.63,2.62.28,1.1,1.55,2.83,2.53-.35-1.31.91-1.88,2.4-1.38l-2.1-1.69c3.66-1.95,3.16,3.08,6.84,1.15l-1.17,1.15c1.89-.68,6.98.02,8.83-2.92.33.42.78,1.43-.06,1.69,4.52.44,10.06-3.14,13.57-1.32l-.34.9c.84-.26,1.47-1.69,2.52-.78-.05.37-.34.9.05.95.22-.15.78-.55,1.43-.84.32-.14.66-.26,1-.31.06-.01.2-.02.34-.02.13,0,.27,0,.39,0,.26.01.51.05.75.12l-.77.5-.41.25c-.07.04-.14.08-.2.13l-.12.13c.09.03.37.06.58.09.23.02.45.05.67.07.44.04.87.06,1.29.07.84.02,1.63-.02,2.37-.09,1.48-.15,2.73-.47,3.82-.85,2.19-.76,3.6-1.77,5.59-2.21-.06-.34-.1-.7-.14-1.05,1.32,1.27,2.2.7,2.79-.76.6-1.44.92-3.66,1.13-5.18l.37.26c.08-2.39-.01-4.69-.22-6.81l-.04-.4c-.01-.13-.03-.28-.04-.33l-.09-.42c-.07-.28-.14-.55-.21-.82-.15-.54-.32-1.08-.5-1.61-.72-2.13-1.61-4.22-2.12-6.59,2.87-2.95,1.2-9.99,2.81-14.74-.48.72-2.06-.12-2.32-.96.53-1.11-1.83-3.08.59-2.9l-.05.4c2.38-.84,1.74-3.13,1.81-4.91l-3.17-.29c1.15-1.17,1.62-2.52,1.74-3.92.06-.7.03-1.42-.04-2.14-.04-.36-.08-.72-.14-1.07l-.08-.53-.09-.18c-.24-.47-.5-1.07-.44-1.49.06-.4.44-.57,1.47.05-.56-.6-.72-1.03-1.05-1.63,0-.13-.04-.3-.12-.53l1.5,1.7c1.07.43,1.15.65,1.83.24-.04.4-.05.81-.03,1.21.02.01.03-.05.04-.18-.07-.13.29-.31.45-.54.39-.46.73-1.07,1.06-1.7.67-1.25,1.31-2.53,2.32-2.58l.6,2.54c3.8-.04,7.64,2.19,11.4-.11-.06.37-.17,1.1-.79,1.21,1.79.07,6.92,1.72,6.27-1.76.04,2.27,3.92.22,5.97-.78l-.32,1.67c1.73-2.14,1.79-2.72,4.2-3.31.57.22.5,1.34-.26.91,1.91.88,1.49-1.58,3.8-.69l-.86,1.07c1.96.13,1.81-.44,2.89-1.69.62-.34,1.55-.23,2.36.15.41.19.78.45,1.08.75.3.3.51.66.5,1.03.07-.46.27-1,.59-1.37.31-.37.75-.57,1.07-.35-.06.57-.41.93-.56,1.1.72.57,1.42.08,2.36-.34.87-.42,1.91-.78,1.8.04-.5.55-.7.83-.78,1-1.18-.04-2.14-.13-1.98-.25-.4.77-.43,1.22-.67,1.75-.21.53-.68,1.13-1.4,2.19.47-.73,1.77-2,3.03-2.66.39-.07.57.19.3.7-.15.15-.3.29-.53.49l-.17.05c-.15.26-.01.28.25.27-.25.38-.44.59-.46.79-1.28.61-.69.79-.75,1.09.84-.07,1.2,0,1.52.07.32.05.6.11,1.29-.26-.12.09-.2-.09-.27-.42-.05-.07-.07-.15-.17-.18.04,0,.09,0,.15,0-.05-.32-.09-.74-.11-1.21.86-.05,1.58.4.64,1.23,1.08.09,2.2.46,2.72.73-2.35,1.37-3.62,4.19-5.07,4.56.95,3.21.62,7.56,3.79,9.58.41.91-.91,1.05-1.41,1.39-.32-.53-.27-1.15-.72-1.44.81,1.82.32,5.41,2.53,5.84-1,2.3-2.04-1.29-1.68,1.87l-.68-.43c-3.48,6.11,5.33,9.97,1.32,16.65.16-.25.3-.39.57-.46-2,7.86,1.88,16.19-1.3,23.94-.64,2.2.77,2.44,1.85,3.79l-1.81.48,2.09,2.3c1.53,3.26-4.45,5.65-1.55,9.78l1.22-.53c-.23,1.48.72,4.7-.68,4.45.22.15,1.27.49.63,1.07l-.95.05,1.62,3.64c-.69,2.82-3.76-.44-3.95,3.68.36,1.53,2.76,4.36,3.39,3.79.05-.62.59-1.58,1.54-1.63l.49,1.4c2.79.25,5.65,1.33,7.61-2.11l-1.71-2.4,1.35-.77.09,2.02c1.28-1.14.15-1.87-.63-2.68.72-.19,1.22-.53,1.49-1l-2.67-2.35c1.09-.28,2.17,1.05,2.77-.52-1.24-1.1-2.45,1.06-3.26-.77,1.27-1.15,2.3-.81,1.22-2.16.72-.19,1.18.1,1.49.63-.86-1.2-.36-3.17-1.85-3.79,1.57-1.19-.41-4.04,2.24-3.93-.63-.38-2.08-2.11-2.19-3.21,3.17,2.01.19-4.12,3.58-3.59-2.85-1.49-1.26-5.37-2.84-8.01Zm-1.64-70.28c.04.64.07,1.18.1,1.53-.03-.31-.06-.74-.13-1.5.02-.01.03-.02.03-.03Zm-11.75,10.61c-.24-.1.09-.26.44-.44.03.09.09.18.2.31.05,0,.15-.02.21-.03-.32.06-.62.12-.85.15Zm10.87-13.39c-.33.58-1.15,1.18-1.7,1.15.68-.39-.43-.73-1.03-1.22.74.07,1.69.08,2.74.07Z"/>
  <path class="cls-1" d="m54.78,201.66c0-.07-.02-.13-.02-.2,0,.08,0,.15.02.2Z"/>
  <path class="cls-1" d="m172.47,75.87c-.03-.05-.07-.11-.1-.17.03.06.07.12.1.17Z"/>
  <path class="cls-1" d="m234.99,68.96s.11.06.12.12c.15-.09.28-.18.38-.27-.18-.01-.36-.03-.53-.03,0,.06.02.12.03.18Z"/>
  <path class="cls-1" d="m92.08,237.45c.08.07.15.13.2.24-.06-.08-.06-.13-.1-.2l-.09-.04Z"/>
  <polygon class="cls-1" points="172.3 58.42 172.73 58.69 172.36 57.76 172.3 58.42"/>
  <path class="cls-1" d="m116.82,243.71c-.01-.11-.15-.26-.32-.43.05.15.14.3.32.43Z"/>
  <path class="cls-1" d="m127,243.66l1.49.6c-.64-.34-1.11-.5-1.49-.6Z"/>
  <path class="cls-1" d="m135.08,244.5c.1-.3.13-.52.16-.72,0,0-.01,0-.02-.01l-.14.73Z"/>
  <path class="cls-1" d="m53.52,184.59c0-.18-.03-.37-.08-.55-.33-1.36-.2-.46.08.55Z"/>
  <path class="cls-1" d="m57.46,224.86c-.31-.41-.61-.81-.8-1.23-.13.68-.16,1.21.8,1.23Z"/>
  <path class="cls-1" d="m96.05,171.49s0,.01,0,.03c.09,0,.17,0,.26,0l-.26-.03Z"/>
  <path class="cls-1" d="m56.7,221.85c-.34.68-.26,1.25-.03,1.78.11-.56.29-1.21.03-1.78Z"/>
  <path class="cls-1" d="m170.49,245.33c0-.11.02-.2.05-.27l-.44.2.39.07Z"/>
  <path class="cls-1" d="m170.53,245.06l.43-.2c-.2,0-.37.01-.43.2Z"/>
  <path class="cls-1" d="m171.87,244.44l-.91.42c.31,0,.7.06.91-.42Z"/>
  <path class="cls-1" d="m159.4,244.48l-.12.61c.07-.13.11-.32.12-.61Z"/>
  <path class="cls-1" d="m156.15,244.66c.78.14,1.94,1.3,3.03.92l.1-.49c-.51.91-2.39-1.47-3.13-.43Z"/>
  <path class="cls-1" d="m145.45,235.9c-3.43-1.94.71,1.46-2.86,1.2l2.72.49c-.48-.65-1.1-1.53.14-1.68Z"/>
  <path class="cls-1" d="m134.14,236.15c1.46-.3-.02-.95.06-1.31-.93.59-1.15.74-.06,1.31Z"/>
  <path class="cls-1" d="m73.12,236.15l.15-1.53c-1.13.22-.01.59-.15,1.53Z"/>
  <path class="cls-1" d="m58.85,245.03c.61-.47,1.19-.94,1.75-1.41l-2.61.45c.25.32.53.64.86.95Z"/>
  <path class="cls-1" d="m66.85,231.55c.07.02.15.03.22.04-.19-.08-.37-.19-.56-.35.11.12.23.22.34.31Z"/>
  <path class="cls-1" d="m107.92,186.31l-.34-1.89c-.76.34-.92,2.46.34,1.89Z"/>
  <path class="cls-1" d="m124.38,147.84c.95-.48,1.55-1.73.62-2.49-.13.99-.87,1.99-.62,2.49Z"/>
  <polygon class="cls-1" points="187.46 75.15 188.09 76.04 187.57 74.36 187.46 75.15"/>
</svg>
