<?xml version="1.0" encoding="UTF-8"?>
<svg id="Layer_1" data-name="Layer 1" xmlns="http://www.w3.org/2000/svg" viewBox="0 0 300 300">
  <defs>
    <style>
      .cls-1 {
        fill: #fff;
      }
    </style>
  </defs>
  <path class="cls-1" d="m175.41,57.83c.46-.26,1.29-1.09.9-1.16l-1.61,1.18.71-.02Z"/>
  <path class="cls-1" d="m176.65,53.79c-.95.39-2.45,1.32-3.56,2.77,1.6-1.11,1.08-.48,2.98-1.79.39.07-.08.84-.65,1.31.45-.27,0,.64,1.04-.08.85-1.34.51-1.79-.77-1.29.23-.39.68-.67.96-.91Z"/>
  <path class="cls-1" d="m149.32,36.7l.18.26c-.04-.14-.1-.22-.18-.26Z"/>
  <path class="cls-1" d="m128.36,36.94c.14-.09.16-.29.12-.47-.11.16-.2.31-.12.47Z"/>
  <path class="cls-1" d="m124.17,35.93c.1.03.17.04.25.05-.14-.14-.25-.21-.25-.05Z"/>
  <path class="cls-1" d="m149.32,36.7l-.47-.69c-.12.64.22.52.47.69Z"/>
  <path class="cls-1" d="m170.34,54.47c.14,0,.32-.1.53-.23-.12.01-.22.01-.32,0-.07.08-.13.14-.21.23Z"/>
  <path class="cls-1" d="m158.78,37.25l.17.05c.12-.2.25-.44.39-.72l-.56.67Z"/>
  <path class="cls-1" d="m164.36,41.74c.38-.59.64-.83.82-.88.14-.29.3-.64.46-1.1-.12-.14-.91,1.35-1.28,1.99Z"/>
  <path class="cls-1" d="m153.84,35.51c.04-.25.07-.47.07-.6-.05.21-.06.41-.07.6Z"/>
  <path class="cls-1" d="m160.6,124.51c-.05-.17-.09-.28-.14-.27.06.11.09.17.14.27Z"/>
  <path class="cls-1" d="m170.9,127.64l-.04.14c.18.27.36.53.53.78l-.5-.92Z"/>
  <path class="cls-1" d="m116.81,36.68s.03,0,.04.02c.09-.25,0-.18-.04-.02Z"/>
  <path class="cls-1" d="m86.42,90.5c1.47-.78,1.99,1.05,3.61-.09-.65.15-2.68-.85-3.61.09Z"/>
  <path class="cls-1" d="m170.37,54.2c-.07-.04-.15-.08-.2-.15.05.12.11.16.2.15Z"/>
  <path class="cls-1" d="m104.53,47.26c-.12-.12-.29-.25-.62-.43.23.19.43.32.62.43Z"/>
  <path class="cls-1" d="m114.83,41.63l-.36-.04c.18.07.28.07.36.04Z"/>
  <path class="cls-1" d="m101.15,52.92c.06,0,.12,0,.19,0-.09-.01-.15,0-.19,0Z"/>
  <path class="cls-1" d="m101.15,52.92c-.12,0-.22.01-.2.22.08.04.14.07.2.08-.09-.15-.12-.27,0-.3Z"/>
  <path class="cls-1" d="m97.52,57.91c.12.04.23.06.34.09,0-.07.03-.14.04-.21-.13.04-.26.08-.38.12Z"/>
  <path class="cls-1" d="m146.67,129.17c.16.46.29.97.4,1.48-.21-1.18.45-1.68-.4-1.48Z"/>
  <path class="cls-1" d="m170.37,54.2c.06.02.12.04.19.04.17-.18.33-.36.4-.5-.3.3-.47.44-.59.45Z"/>
  <path class="cls-1" d="m111.31,61.71c-.23.14-.48.25-.69.41.24-.08.51-.21.69-.41Z"/>
  <path class="cls-1" d="m114.1,118.92l.27-.03c-.03-.08-.1-.08-.27.03Z"/>
  <path class="cls-1" d="m108.59,64.05h.9c-.56-.23-.93-.31-1.2-.32.09.1.15.19.3.32Z"/>
  <path class="cls-1" d="m174.76,53.63l-.03.17c.05-.08.07-.15.03-.17Z"/>
  <path class="cls-1" d="m85.32,94.16c.51-.38,1.02-.74,1.58-1.1,2.11,1.35-2.87,1.74-.72,3.14l-1.22-.35c.81.74.43,3.19,3.52,3.36-.38.23-1.31.63-1.66.33.03,1.03,1.07,1.94,1.92,2.79.86.85,1.49,1.65.92,2.64l-.9.14c.37.28,1.82.07,1.12.79-.36.1-.9.15-.89.33.36.09,1.82.39,1.49,1.03l-1.09-.04c-.21,1.13.63,1.63,1.64,1.95,1.05.32,2.32.46,2.92,1.03-2.4,1.1-2.51,2.86-2.54,3.77l-.34.15c.33,1.14,1.37,1.71,2.47,2.16,1.11.45,2.34.75,3.3,1.33-.9,1.35-.43,2.38.16,3.44.63,1.04,1.36,2.11,1.46,3.41.15-.55,1.61-1.28,2.05-1.19-.08.71,2.26-.24.4,1.32l-.08-.16c-1.53,1.85-.35,2.2.14,2.84l2.37-2.1c-1.02,2.38.37,2.97,1.57,3.44,1.24.46,2.35.77,1.49,2.72.9-.31,1.38.06,2.25-.27l-1.06,1.33c.85,1.17,1.29,1.79,2.92,2.46l-.97.81c.79.65,3.75-3.43,4.5-3.09l-1.12,2.29c.72.41,1.16,1.32,1.75,1.99.58.7,1.4,1,2.64.35-.19.32-.56.95-.86.93.67.4,2.09,2.91,3.24-.4-.46,1.04-.08,1.28.54,1.18.63-.11,1.53-.61,2.12-.92l-.74,1.51c1.49-1.73,1.7-2.27,2.85-2.48.15.29-.25,1.33-.41.82.47,1.1,1.1-1.28,1.72-.11l-.67.89c.74.4.86-.15,1.65-1.21.68-.52,1.35.79,1.09,2.28.36-.86,1.1-1.94,1.45-1.4-.08.57-.33.87-.46,1.02,1.1,1.44,2.39-1.35,2.98.41-.09.55-.08.83-.03,1-1.09-.2-1.92-.59-1.82-.67-.36,1.5.5,1.99-.69,3.89.51-.48,1.19-1.23,1.84-1.81.65-.59,1.25-.95,1.63-.53.02.15.03.3.03.54l-.12.16c.18.18.39.07.6-.16.24.29.39.51.66.57-.08,1.28.97.84,1.42.97.17-1.68.71-1.33.33-2.79.06.13-.11.19-.41.21-.07.04-.15.05-.21.14.01-.04.03-.09.05-.14-.3,0-.68-.02-1.11-.05.48-.79.92-1.45,1.29-.45.36-1.04.73-2.11.92-2.61.29,2.46,1.36,3.76,1.42,5.22,1.46-.87,3.37-.46,4.21-3.59.37-.38.43.91.58,1.41-.22.33-.48.27-.61.72.77-.79,2.3-.35,2.38-2.56.99.94-.45,2.07.85,1.63l-.14.69c1.43,1.7,2.46.18,3.38-1.21.91-1.37,1.72-2.59,3.39-.92-.12-.14-.21-.26-.28-.51,1.78.71,3.35-.16,4.85-.9,1.52-.77,2.97-1.43,5.05-.54,1.1.25.68-1.09.76-2.3l.89,1.59c.02-.77.03-1.54.03-2.3.29-.95,1.25-.2,2.23.37.98.58,1.97.93,2.04-.76l-.78-.97c.65-.07,1.3-1.56,1.92-.3-.06-.22-.47-1.19.05-.77l.5.8c.16-.71.29-1.44.41-2.16,1.34-.05,1.88,3.29,3.45,2.46.36-.69-.07-3.31-.65-3.68-.23.11-.87-.12-1.43-.88l.16-.72c-1.53-2.34-2.96-4.83-5.02-5.77.11.62.21,1.24.3,1.87l-.97-.99c.17-.14.34-.29.51-.45-1.02-.84-.59.22-.4,1.02-.45-.57-.82-.93-1.09-1.07.27.89.52,1.78.75,2.69-.65-.88-.84-2.03-1.6-2.27.32,1.25,1.59,1.91,1.47,2.92-1-.89-1.41-1.84-1.26-.67-.41-.59-.56-1.04-.57-1.4.1.95-.72.84-.2,2.24-1.1-1.19-1.03,1.02-2.2-1.37.18.62.3,2.16,0,2.43-.74-3.14-1.34.42-2.56-2.77.7,2.82-1.09,1.83-1.35,3.61-.03-.23-.1-.69.03-.58-.55-.06-.97-.82-1.43-1.23.72,2.24.15,3.01.16,4.51-1.27-1.98-.46-2.75-1.31-4.76.61,1.8-.42,2.12.23,3.58-.84-1.21-.58-.54-1.34-2.35.71,2.85-.27.59-.18,2.43-1.01-1.24-.83-2.61-1.32-1.59-.53-.8-.17-1.95-.17-1.95-.69.1.17,2.18.31,3.46-.75.81-.76-1.5-1.28-2.55-.38.7-.43,2.75-.86,2.75-.09-.35-.2-.47-.18-.94-.29,1.86-1.68.35-2.1,2.64-.08-.19-.12-.37-.16-.54.24,1.09.4,2.21.46,3.01-.36.07-.54,1.46-.82.03.23.02.19-.56.24-1.02l-.31.66c-.54-2.04.44-.77.27-2.3-.62.75-1.34,2.55-1.96,1.99-.24-2.03,1.24-.76.38-2.52.3.25.59.47.9.7-.92-3.14.51.17-.38-3.19-1.06-.48-1.08,1.12-2.15.59-.2,1.14.15,1.67-.06,2.81-1.57,2.05-1.27-5.07-2.35-2.42-.3,1.34-.51,3.91-1.29,2.51l.37-2.29c-1-.28-.78,3.28-1.79,1.68.27-.89.88-.72.74-1-.57-1.85-.59,1.28-1.16,1.25l.07-2.04c-1.1.25-2.5,1.45-3.83,1.65.18-.59.49-1.19.32-1.84-.42.19-.84.25-1.24.19-.39-.1-.77-.3-1.12-.57-.71-.54-1.32-1.33-1.83-2.08l-1.05,1.55c-.12-.07.01-.84.25-1.12-.32-.83-.37,1.05-.84,1.62-.35,0-.09-1.11.27-1.54-.7.54-1.66,1.04-2.5,1.14-.84.09-1.58-.17-1.68-1.31l.4-.39c-.44-1.01-2.36,2.87-2.4,1.02l.27-.21c-.34-.38-.76-.62-1.19-.83-.44-.2-.89-.37-1.28-.64-.78-.51-1.41-1.2-1.29-2.67-.8,1-1.04.52-1.33.17-.26-.39-.57-.67-1.64.74.16-2.07.77-2.41.35-4.19-.2-.35-1.84,1.4-2.47,1.36l1.17-1.43-1.74,1.04,1.19-1.91-.64.05c.06.2-.27.88-.64,1.26-1.1.13-.44-2.14.22-2.82-.76.01-1.56.03-2.29-.04.43-.38.75-.45,1.09-.54-1.19.29,1.49-1.53-.16-.96-.23.37-.84.72-1.12.96.54-1.07-.05-1.74-.87-1.93l1.05-.74c-.14-.27-.34-.5-.59-.7-.23-.21-.47-.42-.74-.62-.53-.4-1.12-.8-1.52-1.35-.19.73-2.04,1.95-2.47,1.73l1.49-1.26c-1.15.48-.34.78-1.88,1.18-.14-.57,1.61-1.55,2.31-1.68l-.94-.11c.46-.36.8-.41,1.44-.8-1.19.48,1.1-1.96-.87-1.11l.47-.34c-.65-1.14-1.6-1.29-2.19-2.21-1.5.77-1.35.2-2.72.51.11-1.03.91-2.41.35-3.23-1.04-.32-1.4.37-2.44.45,1.4-.64.93-1.53,2.13-1.45-.64-1.03-.8-1.3-2.52-2.36-.54.35-.73.62-1.27.68-.35-.2.4-.82,1.12-1l.17.03c-1.32-.52-.5-1.85.25-2.98.38-.57.71-1.1.77-1.54.08-.41-.12-.73-.81-.93-.62-.36-1.24-.74-1.86-1.14.16-.69,1.2.23,2.07-.38-1.37-.57-1.44-1.19-1.24-1.78.17-.59.46-1.13-.43-1.71,2.24-.61,2.11-1.39,1.79-2.27-.23-.86-.67-1.83.8-2.37h-1.07c-1.03-.39.63-.35.88-.57-.83-.03-.97.29-1.54.04-.65-1.48.09-2.92.94-4.25.22-.33.45-.66.69-.97l.84-.91c.55-.6,1.07-1.18,1.47-1.77.51-.87-5.16-2.2-2.26-2.69l1.75.98c-.77-1.35-.36-2.39.06-3.38.52-.96,1.09-1.84.64-3.26.35.32.88.6.79.78,1.46.26.75-1.4-.23-1.98.29-.22.97.45,1.59.58.96.07-1.01-1.87.34-1.33.15.06.25.19.31.32-.16-.52.77-.93-.64-1.53.54-.12.57-.55.63-.94.08-.37.18-.73.77-.69-1.25-1.42,1.52-.54-.49-2.24,2.15,1.7,2.5.23,1.9-.95.52.65.94.23,1.68,1.11.34-.43.31-1.14-.79-2,1.57.69,1.42-.12,1.35-.85-.07-.72-.09-1.36,1.6-.06.11-1.07.3-2.07.56-3,.13-.46.28-.91.45-1.34.19-.4.4-.78.62-1.14.81,1.08.51,1.39.23,1.7-.29.3-.49.68.45,1.73.34-1.76-.3-4.09,1.27-4.48.52.07.5,1.09.67,1.54.13-.44.34-.76.6-1.02.27-.24.58-.39.88-.56.6-.34,1.15-.71,1.34-1.69.12.22.14.53.13.78.18-.21.71.03.07-1.02l-.05.42c-1.27-1.31-.93-3.81-1.31-4.67,1.26,3.3,1.67.18,3.08,4.44.04-.28-.03-.89-.44-1.6.34.1.63.5.83,1.44.53-.99-.34-2.03.45-2.38.25.54.19.82.42,1.49-.12-1.23-.19-2.49.68-2.35.1.35.36.74.17.83.51-.38.73-1.23,1.04-2,.3-.76.72-1.39,1.58-1.11.46,2.59.73.64,1.5,2.74l.47-.89-.6-.93c.61-.19.74-1.85,1.5-1.3l-.22,1.01,1.08-.71-.9-.65c.36-1.29-.81-2.72.25-2.35-.13.27.7-.15,1.34,1.05,0,0,0,0,0,0,.17-.78.36-1.61.97-1.18.27.68.39,2.44.57,2.9-.04-1.88,1.42-.74,1.52-2.77-.07.48.11,1.65.2,1.88l.04-1.55c.39.43.46.66.55,1.59.96.13-.7-2.77.58-1.73-.07.14,0,.36-.15.61.6.24,1.09-.11,1.6-.38.51-.25,1.02-.49,1.57-.14.44,2.24-.85.59-.37,2.47.69-.24,1.39-.95,2.13-1.55.37-.3.74-.57,1.12-.74.37-.15.75-.17,1.1-.03l-.26-.26c.28-3.17,1.04,1.6,1.8.12-.19.23-.32,1.76-.26,1.4.92.6,1.99-.68,3.62-1.45l-.29.79c.48.81,1.44.6,1.99,1.09.32-.77.65-.57.64-1.78.54,2.47,1.49,2.01,2.54,1.54.52-.24,1.05-.51,1.49-.45.44.07.78.48.91,1.53-.2-.05-.66.55-.51.59l1.6-.3c.33-1.35.08-.85.12-1.97.43-.73,1.05-1.21,1.41-1.07-.95.63-.71,2.11-.71,2.94.1-.42.34-.83.46-1.24-.11,2.59,1.07-2.58,1.53-.64l-.31.66c.51-.22,1.22-.97,1.55-.6-.44,1.55-.68.52-1.2,1.74.57.14,2.28-2.33,2.17-.64-.42.31-.77.17-1.18.48-.19,1.97.05,1.55.32,1.99l-.02-.06s.03.07.04.1c0-.01-.01-.03-.02-.04.08.25.16.5.23.76-.03-.24-.08-.41-.13-.54.14.3.28.61.41.91v-.57c1.21-1.73,1.65-1.73,2.04-1.55.39.18.71.51,1.81-.43-2.1,1.8-.84,1.25-1.77,2.81-.02.57.04,1.24-.3,1.64,1.11-1.06.08,1.36,1.71-.19-.27.51.39.31-.45,1.51.73-.09.41-.94.82-1.55.9-.61,1.07.2,1.29.95.24.73.48,1.46,1.82.71,1.61-.27,2.95-1.68,4.48-1.75-.28.97-1.57,1.48-1.57,1.48-.05,1.05.4,1.18,1.25,1.05-.42.32-.6.73-.9,1.34.43.17,1.61-1.42,1.5-.38-.51.42-1.29,1.12-1.88,1.48.73-.07,1.87-.57,2.62-.57-.59.85-1.28.9-1.87,1.28.74.06,1.75.39,3.02-.63l.08-.52c-.19.31-.92.93-1.17,1.01-1.25.56-.16-.93.21-1.39h.54c1.02-1.39.63-1.6-.08-1.49-.71.1-1.71.49-1.95.15l1.88-1.67c-.67.34-1.33.68-1.98,1.03.28-.61,1.07-1.78,1.63-1.79.32-1.35-.97.34-.52-1.05.09-.2.18-.28.29-.32l-.94.21c.42-.34,1-1.45,1.08-.94,0-1.83-2.51.41-1.73-1.34l.17-.07c-1.73-.18-1.2,1.4-3.32,2.54.66-1.38,1.3-2.77,1.92-4.17l-1.13,1.44c-.09-.14-.28-.41.17-1-1.17.75-.35.72-1.27,1.54.26-1.8-2.09-.4-.77-2.98-.93,1.07.08,1.27-1.1,1.73,1.36-2.83-1.06.03-.94-1.55.95-1.33,1.13-.25,1.2-1.86-.84,1.1-1.05.81-1.17.26-.12-.54-.16-1.34-.55-1.23-.99,1.96-1.53.23-2.74.52.35-.63-1.21-1.86-1.83-2.89l.15-.33c-.95,2-1.68,1.29-2.47,1.49.45-1.24.73-1.69,1.29-2.12l-.63-.22c-.37.62-.69.92-1.17,1.03l.66-1.52c-.91-.17-2.25,1.3-3.06-.01-.43,1.48-.28,4.34-1.6,5.07.17-.81.47-2.2.85-2.46-.12.08-.51.59-.61.19l.79-1.24c-.34-.72-.54,1.07-.89.85.29-1.15-.09-.89.19-1.79.13-.09.23.56.49.15-.39-.32-.77-1.13-.76-2.05-.11.67-.35,1.55-.71,1.63-.87-.08,0-1.45-.39-2.15-.37.77-.77-.18-1.11,1.56-.25-.06-.15-.88-.16-1.37-.59.66-2.16-.11-1.93,1.82l.09.14s-.05.03-.08.07c-.85.78-1.53.41-2.24-.03-.7-.44-1.43-1-2.18-.68l.04-.59c-.9.62-1.96.34-2.58,1.59-.25,0-.59-1.1-.48-1.8-.67.47-.72,1.14-1.71.21.65-1.07-.26-.91.67-.79-.88-.47-1.15-1.41-2.01.26.25-1.53-.79-1.87-1.19-1.4l.7,1.05c-.46.25-.88.13-1.31.03l.06-2c-1.05-1.19-1.82.02-2.47.94-.67.94-1.24,1.66-2.29-.24-.24,1.45,1.16.82.99,2.49-.84-.14-2.25-2.82-2.54-2.78-1.41-.81-.45,3.11-1.78,2.67.32.65.89,2.47.25,3.33-.82-.06-1.75-2.63-1.38-3.32.18-.11.33.09.39.32.19-.32.47-.7-.05-1.37l.07.72c-.59-.6-1.72-.23-1.77-1.42-.45.82.06,1.19.62,1.43-.67-.36-1.09-.26-1.5-.11-.4.18-.78.4-1.43.27.3.31.72,1.05.55,1.1-1.83-.27-.23,1.52-1.13,2.18-.96-.8-.71-2.5-1.43-1.27-.91-.45-.84-1.7-.78-2.34-.25.82-.78.78-1.36.54-.56-.21-1.17-.62-1.5-.6l.29-.77c-.17.46-.43.57-.69.69l.88,1.16c-.4-.08-.65.03-.9-.51.09.99,1.21,2.04,1.17,3.48-.69-.47-.79,1.24-1.77-.38,1.36,0-.56-1.35-.23-2.18-.14.12-.33.16-.61.1-.14-.17-.13-.37-.1-.51-1.97-.92.41,2.18-.81,2.72-.35-1.02-1.25-1.64-1.33-1.31.49-.27,1.07,1.43,1.05,2.39-1.14-.28-.48,1.01-.9,1.15l.62.08c.39,1.01-.03,1.1-.34,1.68-.16-.22-.19-.38-.18-.5-.16.88-2.31-1.19-2.4.19-.76-.38-1.14-1.65-1.74-1.85-.07,1.75-1.76-.52-2.01,1.08,1.11.96.93.66,1.15,2.23l.84-1.88c.09.8.19,1.59.3,2.37.43-.29.37-1.39.76-1.38.24,1.28.09.95.96,1.78-1.81-1.33-.37,1.84-1.87,1.15l-2.12-2.84c-1-.24-1.19.48-1.35,1.27-.18.77-.22,1.73-1.13,1.93l.8.11c.76,1.21-.61.82-.62,1.6-.76-.91-1.3-1-1.97-1.39.62.62-.97.78.57,2.57l-1.63-.61c-1.38.56,1.41,3.46.31,4.07-.7-1.14-1.71-1.28-1.82-2.53-.3.31-.72.45-.11,1.01-.73-.3.41,1.92-.7,1.47.28.47,1.18,1.3.81,1.59-.22-.11-.45-.37-.45-.37.45.38.19,1.08,1.44,1.58-1.8-.67-2.3.1-2.71.86-.41.77-.74,1.54-2.39,1.11-.15,1.01-.39,2.14-.74,2.88-.28-.23-.51-.31-.32-.38-1.55.42,2.57,2.31.87,2.76-2.01-.37-.56-1.08-1.4-1.09-1.74-.87-1.87-.47-1.77.13.08.6.32,1.35-.9,1.24l-.11-.3c-1.49.04.6,2.16-.12,3.01,0,0-.29-.19-.54-.24,1.44,1.47,1.63,3.01,1.79,4.15-1.32-.83-.6-.72-2.11-1.08.05.51,2.37.76,2.47,1.74-.88-.01-1.8.37-3.4-.07l.22-.87c-2.18-.27-.33,1.12-.84,1.44l-.87-.34c-.17,1.43,2.16,2.12,1.62,3.45l.72.04c2.07,1.33-1.44.31.06,1.48l-2.36-.31c.21.32.66.9,1.08,1.5.44.61.91,1.25,1.05,1.73-1.66-.81-2.38-2.08-3.19-2.98-.07.26-.16.71-.04,1.16.12.45.4.9.95,1.14-.19-.25-.72-.62-.33-.76,1.73,1,2.51,1.94,2.32,2.91-2.26-.43-2.65.2-2.92.98-.31.77-.38,1.68-2.18,1.93.79,1.03.57,1.93.16,2.91-.2.49-.45.99-.64,1.51-.15.52-.22,1.07-.13,1.63,3.53-.88.13.65,3.79.38.25.47.21.66-.02.72l.14-.11c-.07.05-.11.07-.17.11h.01c-.7.53-1.41,1.08-2.11,1.66-1.04.46-.83-.43-1.65-.32-.22,1.18-1.52.6-2.45,1.48,1.31-.28,1.87.23,1.49.95Zm49.27,48.4c.02-.06.04-.14.06-.2-.07.32-.15.61-.23.82-.34.19-.4-.15-.39-.5.15,0,.32-.04.56-.12Zm-.28-11.28c.16-.02.3-.03.39-.04-.08.01-.2.03-.4.07,0-.02,0-.03,0-.03Zm-.89,0c-.06.58-.23,1.16-.39,1.11.16-.36-.14-.75-.26-1.31.17.12.39.18.64.2Z"/>
  <path class="cls-1" d="m117.68,36.85c-.08.07-.13.15-.16.23.07-.06.13-.13.16-.23Z"/>
  <path class="cls-1" d="m151.83,139.53c-.07-.07-.13-.13-.19-.19.05.06.12.12.19.19Z"/>
  <path class="cls-1" d="m107.53,66.89c.02.05.04.1.08.16-.02-.04-.05-.1-.08-.16Z"/>
  <path class="cls-1" d="m114.93,42.89s0-.05,0-.07c0,.02,0,.05,0,.07Z"/>
  <path class="cls-1" d="m112.75,116.75c.09-.02.19-.05.32-.1-.11.04-.22.07-.32.1Z"/>
  <path class="cls-1" d="m114.9,42.43c.04.17.05.29.04.4.04-.19.18-.27-.04-.4Z"/>
  <path class="cls-1" d="m135.25,141.07s.08-.1.14-.1c-.04-.16-.08-.29-.13-.4-.06.17-.12.35-.17.51.05,0,.11,0,.16,0Z"/>
  <path class="cls-1" d="m149.5,36.96c.02.07.04.14.04.25-.01-.08,0-.14-.01-.21l-.03-.04Z"/>
  <polygon class="cls-1" points="115.83 119.38 115.56 119.71 115.89 119.51 115.83 119.38"/>
  <path class="cls-1" d="m157.16,44.82c-.03.15-.05.3-.04.45.03-.11.04-.27.04-.45Z"/>
  <path class="cls-1" d="m162.71,48.56c.17-.24.28-.44.39-.61,0,0,0-.01,0-.01l-.39.62Z"/>
  <path class="cls-1" d="m120.73,51.25s-.05.07-.05.12c-.04.41.03.21.05-.12Z"/>
  <path class="cls-1" d="m131.65,42.71c-.07.34-.15.66-.25.89.27.06.46.05.25-.89Z"/>
  <path class="cls-1" d="m111.39,61.67s0,0-.02-.02c-.02.03-.04.04-.06.06l.08-.04Z"/>
  <path class="cls-1" d="m130.77,43.73c.32.27.5.14.62-.13-.22-.06-.49-.17-.62.13Z"/>
  <path class="cls-1" d="m172.13,56.39c.08-.08.14-.14.2-.18l-.25.04.05.14Z"/>
  <path class="cls-1" d="m172.33,56.21l.25-.04s-.1-.08-.25.04Z"/>
  <path class="cls-1" d="m173.1,56.08l-.53.09c.08.08.14.21.53-.09Z"/>
  <path class="cls-1" d="m169.81,53.21l-.42.45c.1-.08.23-.23.42-.45Z"/>
  <path class="cls-1" d="m169.06,54.02l.33-.36c-.7.61.25-1.66-.59-1.01.13.28-.27,1.44.26,1.37Z"/>
  <path class="cls-1" d="m170.46,43.14c-.18-2.41-.53,1.39-1.63.39l.68,1c.19-.65.43-1.53.95-1.39Z"/>
  <path class="cls-1" d="m166.89,39.84c-.63.35-.77.45-.63,1.16.68.02.43-.85.63-1.16Z"/>
  <path class="cls-1" d="m141.9,33.57c-.48.24,0,.59-.06,1.54l.06-1.54Z"/>
  <polygon class="cls-1" points="138.3 42.77 137.76 43.25 138.23 44.18 138.3 42.77"/>
  <polygon class="cls-1" points="133.91 32.53 133.18 33.21 133.73 32.78 133.91 32.53"/>
  <path class="cls-1" d="m96.96,56.14l1.63.97c-.09-.45-1.77-1.75-1.63-.97Z"/>
  <path class="cls-1" d="m89.87,74.86c.23-.38,1.05-.6.87-.87-.96-.05-1.69.33-.87.87Z"/>
  <path class="cls-1" d="m102.48,127.85l-.18-.31-.72.16c.29.07.59.12.9.16Z"/>
  <path class="cls-1" d="m220.56,260.55l.53.5c.52.12,1.69.05,1.46-.27l-1.98-.23Z"/>
  <path class="cls-1" d="m224.76,258.89c-.96-.38-2.65-.81-4.48-.57,1.91.37,1.11.46,3.38.87.23.32-.64.56-1.37.51.51.11-.44.5.81.67,1.54-.42,1.6-.95.33-1.5.44-.12.96,0,1.32.02Z"/>
  <path class="cls-1" d="m224.71,227.36c.11-.09.16-.18.17-.26l-.17.26Z"/>
  <path class="cls-1" d="m218.35,208.01c.12.11.32.07.49,0-.19-.06-.35-.11-.49,0Z"/>
  <path class="cls-1" d="m218.49,203.87c-.02.1,0,.17-.01.25.12-.16.16-.29.01-.25Z"/>
  <path class="cls-1" d="m224.88,227.1l.45-.68c-.63.14-.39.39-.45.68Z"/>
  <path class="cls-1" d="m219.97,254.57c.1.11.28.2.52.28-.09-.09-.16-.18-.21-.26-.11,0-.2-.01-.31-.02Z"/>
  <path class="cls-1" d="m229.2,235.65l-.85-.17.03.16c.23.01.51.01.82,0Z"/>
  <path class="cls-1" d="m227.1,242.25c.7.03,1.04.12,1.18.24.32-.02.7-.07,1.18-.17.06-.16-1.62-.08-2.36-.07Z"/>
  <path class="cls-1" d="m227.76,230.54c.24-.07.45-.14.57-.19-.21.05-.4.11-.57.19Z"/>
  <path class="cls-1" d="m85.62,202.42c-.1-.08-.15-.12-.23-.19.11.13.2.22.23.19Z"/>
  <path class="cls-1" d="m74.56,203.24v-.14c-.28-.19-.53-.37-.78-.55l.78.69Z"/>
  <path class="cls-1" d="m216.67,197.18s0,.03,0,.04c.26.03.17-.03,0-.04Z"/>
  <path class="cls-1" d="m167.3,163.69c.23,1.63-1.57,1.57-1.06,3.45.08-.66,1.61-2.28,1.06-3.45Z"/>
  <path class="cls-1" d="m220.19,254.4c-.02-.09-.03-.18-.02-.27-.05.12-.05.21.02.27Z"/>
  <path class="cls-1" d="m205.65,186.8c.12-.13.25-.3.41-.63-.19.23-.3.43-.41.63Z"/>
  <path class="cls-1" d="m211.64,196.13v-.35c-.04.18-.03.28,0,.35Z"/>
  <path class="cls-1" d="m200.19,183.78c0-.12,0-.21-.21-.18-.04.08-.07.14-.09.2.15-.09.27-.12.3-.01Z"/>
  <path class="cls-1" d="m200.19,183.78c0,.06,0,.12,0,.18.01-.09,0-.14,0-.18Z"/>
  <path class="cls-1" d="m195.58,180.2c-.05.12-.08.22-.12.34.06.01.14.03.2.05l-.08-.38Z"/>
  <path class="cls-1" d="m96.05,190.91c-.39-.3-.77-.66-1.14-1.03.81.88.51,1.7,1.14,1.03Z"/>
  <path class="cls-1" d="m220.92,254.57c-.43-.03-.64-.08-.73-.17.02.06.05.13.09.19.25.02.49.02.64-.02Z"/>
  <path class="cls-1" d="m191.27,193.84l-.44-.71c.06.27.23.53.44.71Z"/>
  <path class="cls-1" d="m129.15,175.44l-.15.23c.08.03.14-.03.15-.23Z"/>
  <path class="cls-1" d="m188.83,191.8c.26-.55.35-.92.37-1.19-.11.08-.21.14-.34.28l-.02.91Z"/>
  <path class="cls-1" d="m210.87,196.31c-.17.06-.29.09-.39.09.2,0,.29.14.39-.09Z"/>
  <path class="cls-1" d="m185.95,189.53c-.05.01-.11.03-.17.06.04-.01.1-.04.17-.06Z"/>
  <path class="cls-1" d="m131.83,175.69c-.04.09-.08.19-.12.33.04-.12.08-.23.12-.33Z"/>
  <path class="cls-1" d="m210.44,196.41s.03,0,.04,0c-.01,0-.03,0-.04,0Z"/>
  <path class="cls-1" d="m86.5,184.87c-.08-.02-.16-.05-.26-.07.09.03.17.05.26.07Z"/>
  <path class="cls-1" d="m223.56,257.43l-.14.1c.1-.02.16-.05.14-.1Z"/>
  <path class="cls-1" d="m216.36,197.91c.07.05.14.09.25.11-.08-.06-.16-.09-.25-.11Z"/>
  <path class="cls-1" d="m226.33,248.73c.06-.15.19-.45.93-.4-1.27-.54-.79.1-1.99-.2,1.65-.75-.83-1.94,2.08-2.21-1.4-.2-1.06.73-2.04,0,3.13-.36-.55-.86.82-1.58,1.63.1.83.79,2.22.04-2.76-.24.5-1.34-.07-1.89-2.18.15-.98-1.15-1.81-2.02.74-.01.97-1.89,1.64-2.89l.36-.02c-2.21.13-1.89-.83-2.46-1.41,1.31-.18,1.85-.14,2.49.13l-.12-.63c-.72-.04-1.13-.17-1.44-.53l1.65-.12c-.24-.83-2.21-1.33-1.32-2.6-1.51.26-4.05,1.64-5.25.78.81-.2,2.19-.53,2.58-.31-.12-.07-.73-.2-.43-.45l1.46.15c.51-.6-1.2-.01-1.15-.41,1.16-.24.76-.45,1.7-.59.13.07-.4.43.09.48.11-.47.68-1.14,1.51-1.51-.65.18-1.56.34-1.78.06-.27-.79,1.33-.6,1.81-1.22-.85-.01-.14-.74-1.86-.33-.05-.24.75-.48,1.19-.69-.83-.24-.74-1.92-2.43-.96l-.09.14s-.05-.03-.09-.05c-1.04-.44-.99-1.2-.83-2,.17-.8.44-1.66-.16-2.2l.57-.18c-.91-.58-.98-1.64-2.37-1.77-.08-.23.83-.91,1.53-1.05-.63-.46-1.29-.27-.71-1.48,1.2.23.77-.54.95.35.17-.96.98-1.5-.86-1.74,1.52-.27,1.54-1.31.97-1.52l-.79.97c-.37-.33-.38-.75-.42-1.17l1.92-.58c.76-1.28-.53-1.62-1.58-1.94-1.06-.33-1.89-.67-.35-2.15-1.45.19-.48,1.28-2.13,1.61-.08-.82,2.09-2.83,1.98-3.07.47-1.5-3.07.41-2.91-.95-.56.47-2.18,1.47-3.14,1.06-.15-.78,2.14-2.28,2.89-2.11.15.14,0,.33-.22.43.36.1.78.26,1.31-.39l-.68.25c.44-.69-.18-1.62.97-1.97-.9-.2-1.15.35-1.24.92.38-1.41-.78-1.41-.71-2.69-.25.35-.89.91-.97.76-.03-1.79-1.51.12-2.32-.59.6-1.07,2.31-1.2.97-1.6.27-.94,1.51-1.14,2.15-1.23-1.68-.08-.24-2.04-.35-2.68l.76.12c-.45-.08-.59-.3-.74-.52l-1.01,1.04c.03-.39-.12-.6.38-.93-.95.27-1.82,1.53-3.22,1.76.36-.74-1.33-.53.13-1.74.19,1.27,1.25-.77,2.1-.62-.13-.11-.19-.28-.18-.54.15-.16.34-.19.48-.19.65-2-2.07.78-2.76-.27.95-.5,1.45-1.45,1.14-1.48.29.43-1.27,1.25-2.21,1.38.17-1.13-1.03-.31-1.2-.69l-.02.61c-.94.52-1.07.13-1.67-.09.22-.19.37-.24.49-.25-.92,0,.94-2.38-.42-2.28.3-.76,1.52-1.3,1.66-1.89-1.7.15.41-1.75-1.14-1.8-.88,1.17-.59.97-2.11,1.35l1.86.61-2.28.55c.31.39,1.37.21,1.38.59-1.22.37-.91.18-1.67,1.13,1.19-1.91-1.81-.18-1.22-1.72l2.66-2.34c.39-2-2.8-.35-3.2-2.09l-.1.79c-1.16.83-.8-.55-1.55-.51.88-.8.96-1.33,1.34-2.01-.6.64-.78-.86-2.53.74l.58-1.6c-.49-1.34-3.33,1.47-3.92.39,1.13-.72,1.29-1.71,2.51-1.84-.28-.29-.42-.68-.97-.08.31-.71-1.9.47-1.43-.62-.47.28-1.32,1.19-1.59.82.12-.21.38-.44.38-.44-.38.44-1.04.16-1.6,1.41.75-1.8.05-2.31-.69-2.71-.73-.41-1.48-.74-.94-2.34-.92-.24-2-.51-2.69-.9.25-.26.35-.48.4-.29-.25-1.53-2.5,2.39-2.78.69.57-1.94,1.11-.48,1.21-1.3,1.04-1.65.65-1.77.08-1.75-.58.03-1.32.19-1.06-.99l.3-.08c.17-1.47-2.13.39-2.84-.4,0,0,.22-.27.31-.5-1.65,1.32-3.13,1.24-4.24,1.23,1.01-1.18.79-.48,1.39-1.92-.49-.03-1.12,2.23-2.08,2.17.16-.87-.03-1.83.67-3.32.27.1.52.23.78.34.66-2.1-1-.47-1.22-1l.49-.8c-1.32-.34-2.4,1.76-3.55.98l-.19.7c-1.69,1.76.02-1.48-1.41-.22l.8-2.24c-.71.31-2.55,1.36-3.52,1.41,1.15-1.41,2.48-1.8,3.52-2.47-.45-.22-1.64-.55-2.34.42.27-.13.74-.55.77-.14-1.32,1.46-2.37,1.94-3.26,1.57,1.9-4.18-1.93-2-1.35-5.61-1.14.49-1.91.05-2.67-.59-.76-.64-1.52-1.48-2.58-1.62-.31,3.63-.62-.07-1.52,3.49-.51.1-.67,0-.65-.24l.05.17c-.02-.08-.03-.13-.05-.19h0s-.81-2.49-.81-2.49c-.06-1.13.65-.66.82-1.46-.97-.56-.03-1.63-.5-2.76-.18,1.3-.83,1.74-1.32,1.11l.44,1.84c-1.91,1.56-.55-3.29-2.48-1.75l.73-1.02c-.46.24-1.17.07-1.94.19-.77.14-1.59.57-2.22,1.95-.06-.44-.06-1.46.33-1.66-.88-.38-2.04.19-3.1.66-1.06.48-2.01.8-2.61-.19l.25-.87c-.38.21-.79,1.6-1.12.65.06-.37.24-.87.08-.95-.22.28-1.07,1.45-1.48.91l.49-.97c-1.73-1.31-2.98,2.23-4.45,2.75.14-2.64-1.25-3.53-1.96-3.98l.03-.37c-1.07-.18-1.99.31-2.87,1.06-.88.74-1.71,1.66-2.65,2.21-.64-1.41-1.69-1.69-2.82-1.77-1.13-.04-2.33.09-3.39-.62.35.45.16,2.05-.15,2.35-.51-.49-1.02,1.94-1.24-.47l.17.03c-.62-2.34-1.5-1.58-2.24-1.52l.33,3.16c-1.26-2.13-2.47-1.51-3.5-.86-1.05.63-1.91,1.45-2.86-.48-.29.88-.85.99-1.11,1.86l-.36-1.66c-1.36-.13-2.06-.24-3.49.62v-1.26c-.92.15.21,5.04-.52,5.35l-.95-2.36c-.74.24-1.65-.07-2.49-.09-.82.01-1.57.3-1.91,1.64-.1-.36-.3-1.07-.1-1.25-.71.18-3.32-.63-1.81,2.53-.41-1.05-.82-.97-1.16-.46-.34.53-.6,1.47-.79,2.09l-.52-1.6c.17,2.25.39,2.8-.26,3.72-.29-.11-.72-1.15-.27-.87-1.06-.5.1,1.68-1.11,1.23l-.13-1.11c-.78.2-.49.69-.34,1.99-.15.82-1.49.28-2.26-1.03.31.88.48,2.17-.12,1.99-.31-.48-.32-.87-.33-1.07-1.7-.41-.83,2.59-2.4,1.56-.28-.48-.47-.69-.61-.8.94-.47,1.75-.75,1.73-.61-.71-1.37-1.61-1.21-1.98-3.41-.05.68-.04,1.7-.15,2.53-.1.84-.31,1.49-.85,1.38-.11-.11-.21-.22-.36-.41v-.19c-.25-.04-.33.18-.35.48-.36-.09-.6-.16-.83-.05-.73-1.05-1.21-.09-1.62.07.9,1.43.28,1.48,1.45,2.41-.12-.07-.04-.21.17-.42.03-.07.08-.13.07-.24.02.04.03.09.05.14.21-.18.51-.4.85-.63.14.91.21,1.7-.67,1.13.37,1.04.74,2.11.9,2.62-1.7-1.75-3.33-2.23-4.24-3.35-.58,1.52-2.25,2.25-1.09,5.29-.06.53-.87-.51-1.27-.84,0-.38.23-.48.06-.91-.16,1.05-1.57,1.54-.4,3.42-1.32-.26-.8-1.95-1.59-.9l-.27-.64c-2.06-.65-2.05,1.09-2.04,2.74.01,1.62,0,3.1-2.27,2.47.17.06.31.13.5.3-1.86.23-2.7,1.72-3.61,3.05-.45.67-.95,1.29-1.57,1.78-.61.5-1.39.82-2.5.85-1.07.22-.09,1.24.36,2.34l-1.48-1.06.96,2.04c.18.99-1.01.69-2.11.55-1.1-.14-2.12-.1-1.51,1.43l1.09.6c-.55.31-.58,1.86-1.63.94.14.18.9.92.26.72l-.77-.56.47,2.12c-1.2.5-2.94-2.36-4.07-1.11-.07.72,1.25,2.98,1.92,3.15.18-.17.85-.17,1.64.36l.1.71c2.25,1.66,4.42,3.54,6.72,3.68l-.91-1.66,1.26.57-.34.62c1.28.41.5-.44.04-1.12.62.37,1.1.57,1.41.59l-1.67-2.24c.93.57,1.53,1.59,2.33,1.51-.77-1.05-2.18-1.16-2.46-2.17,1.25.43,2,1.16,1.42.11.61.39.91.74,1.06,1.09-.45-.86.4-1.07-.63-2.17,1.49.65.59-1.36,2.61.34-.41-.5-1.14-1.89-.97-2.27,1.98,2.59,1.05-1.01,3.51,1.38-1.79-2.25.3-2.18-.24-3.93.13.19.4.58.23.54.52-.22,1.25.26,1.85.4-1.66-1.67-1.5-2.65-2.19-3.97,2.07,1.15,1.68,2.22,3.38,3.6-1.38-1.31-.57-2.09-1.84-3.07,1.34.66.78.19,2.32,1.42-1.99-2.17-.03-.67-.99-2.25,1.5.56,2.02,1.88,1.96.7.87.41,1.1,1.64,1.1,1.64.57-.49-1.22-1.84-1.96-2.89.25-1.12,1.41.91,2.41,1.54.03-.8-.97-2.62-.58-2.84.26.25.42.3.64.71-.68-1.74,1.32-1.24.47-3.43.16.12.3.24.42.37-.79-.79-1.52-1.65-2-2.29.25-.28-.33-1.52.68-.47-.21.1.14.57.34.99l-.09-.72c1.57,1.42.03.88,1,2.08.15-.96-.21-2.85.61-2.73,1.33,1.55-.64,1.34,1.07,2.32l-1.17-.09c2.51,2.13-.55.14,2.06,2.48,1.23-.19.35-1.56,1.58-1.75-.47-1.06-1.06-1.3-1.53-2.36.11-2.65,3.98,3.42,3.37.56-.52-1.28-1.86-3.49-.39-2.83l1.04,2.08c1.01-.4-1.3-3.11.5-2.45.32.88-.3,1.12-.02,1.26,1.59,1.12-.27-1.39.21-1.71l1.18,1.66c.81-.85,1.16-2.75,2.11-3.74.23.57.36,1.23.92,1.63.43-.87,1.25-1.19,2.16-1.27.92-.08,1.94.1,2.87.3l-.22-1.85c.14-.04.57.62.58.99.83.37-.44-1.03-.46-1.77.27-.25.84.74.86,1.31.34-1.76,1.56-4.19,3.31-2.85l-.02.56c1.07.38-.34-3.71,1.02-2.45l-.04.35c1.04.03,1.93-.52,2.84-.82.93-.24,1.89-.25,2.95.83-.41-2.52,2.09.57,1.32-2.89,1.51,1.45,1.36,2.14,3.1,2.96.42.07.11-2.29.54-2.76l.39,1.81.28-2.05.79,2.09c.12-.19.24-.38.37-.56-.21-.08-.55-.74-.62-1.27.59-.96,2.03.98,2.19,1.91l1.47-1.82c.05.57-.08.88-.22,1.21.49-1.16.37,2.11.91.39-.17-.4-.09-1.1-.12-1.47.57,1.02,1.51.93,2.18.4v1.28c1.29.22,2.61-.9,4.05-.94-.55-.58-.57-2.79-.14-3.01l.28,1.95c.22-1.22-.49-.72,0-2.22.57.21.47,2.21.2,2.85l.63-.7c.06.58-.08.89-.09,1.64.23-1.22,1.18,1.93,1.5-.19l.05.58c.71-.02,1.22-.2,1.7-.39.48-.17.94-.35,1.52-.38.06-1.69.51-1.3.91-2.65.88.55,1.77,1.91,2.82,1.86.79-.78.32-1.41.73-2.38-.06,1.54,1,1.47.36,2.53,1.28-.17,1.61-.18,3.36-1.21-.09-.65-.26-.94-.09-1.45.33-.21.59.72.45,1.45l-.1.15c1.05-1.03,1.96.21,2.75,1.39.78,1.13,1.47,2.12,2.43.89l1.79-1.29c.61.41-.65,1.03-.37,2.08,1.05-1.07,1.66-.84,2.19-.51.53.34.97.8,1.83.16-.13,2.33.73,2.46,1.7,2.47.96.03,2.05-.12,2.2,1.46l.28-1.03c.68-.87.2.71.35,1.02.25-.79-.03-1.02.37-1.5,1.61-.07,2.94.85,4.09,2.08,1.14,1.26,2.13,2.71,3.21,3.84.82.74,3.11-4.61,3.18-1.71l-1.3,1.56c1.54-.53,2.53.1,3.49.71.96.63,1.82,1.36,3.31,1.1-.36.31-.69.81-.87.68-.4,1.44,1.38.98,2.06.04.21.31-.54.92-.71,1.53-.12.96,2.01-.83,1.38.48-.07.14-.21.23-.34.28.55-.11.93.88,1.62-.49.2,1.11,1.7.39,1.63,1.57,1.5-1.18.55,1.57,2.32-.38-1.75,2.05-.31,2.63.93,2.01-.67.51-.21.94-1.11,1.66.47.36,1.21.33,2.07-.77-.66,1.56.16,1.46.89,1.41.73-.05,1.35-.05.12,1.66,1.15.07,2.19.25,3.13.52.95.26,1.83.58,2.62.97-2.03,1.76-1.44-1.13-3.46.87,1.86.29,4.17-.54,4.69,1.06-.02.54-1.04.59-1.48.79,1.88.42,1.67,2.42,3.69,2.58-.2.15-.51.2-.76.22.24.16.07.73,1.03-.04h-.43c1.13-1.44,3.66-1.41,4.43-1.9-3.1,1.72.1,1.67-3.93,3.69.29,0,.89-.15,1.53-.67-.04.36-.38.7-1.3,1.03,1.1.39,1.97-.64,2.47.1-.49.34-.79.32-1.41.65,1.2-.3,2.46-.6,2.44.33-.32.16-.67.49-.78.3.83.97,3.81.19,3.62,2.02-2.42.97-.49.86-2.38,2.07l.95.31.79-.81c.3.59,2.02.31,1.67,1.17l-1.06.02.99.89.39-1.03c1.35.05,2.45-1.44,2.35-.32-.29-.06.3.64-.71,1.57,0,0,0,0,0,0,.79-.03,1.62-.05,1.36.66-.58.44-2.26,1.02-2.65,1.31,1.82-.54,1.19,1.16,3.15.7-.48.07-1.55.57-1.75.71l1.49-.39c-.31.5-.51.64-1.38.98.14.98,2.46-1.47,1.81.08-.15-.03-.34.1-.62.03-.12,1.29,1.81,1.61,1.48,2.88-1.98,1.13-.84-.63-2.47.42.88,1.19,3.68,1.85,3.62,3.43l.15-.34c3.07-.85-1.14,1.54.51,1.75-.28-.1-1.75.33-1.4.26-.15,1.08,1.35,1.66,2.73,2.85l-.84.04c-.55.76.03,1.58-.19,2.28.83-.02.79.37,1.89-.13-2.04,1.51-1.23,2.23-.32,2.97.9.72,1.84,1.48.09,2.66-.05-.2-.79-.35-.76-.19l1,1.31c1.35-.34.79-.32,1.8-.81.84.05,1.55.37,1.62.75-1.03-.53-2.19.35-2.92.75.41-.11.89-.08,1.31-.17-2.34,1.13,2.78-.27,1.27,1.04l-.73.04c.42.35,1.42.6,1.27,1.06-1.57.37-.8-.34-2.11-.2.17.57,3.17.84,1.65,1.57-.48-.21-.53-.58-1.01-.78-1.8.8-1.31.81-1.56,1.27l.04-.05-.1.14s.04-.06.06-.09l-.56.59c.23-.19.38-.34.47-.46l-.65.9.49-.3c4.22.38.88,1.44,3.69,2.28-2.66-.84-1.51-.07-3.33-.03-.48.29-1.02.7-1.54.62,1.51.39-1.11.82,1.05,1.38-.58.05-.04.5-1.52.45.47.58,1.01-.17,1.75-.15,1.01.44.42,1.02-.08,1.63-.5.61-.9,1.25.47,1.98,1.13,1.23,3.1,1.46,4.09,2.59-.94.38-2.13-.31-2.13-.31-.86.62-.7,1.09-.03,1.67-.51-.12-.94,0-1.6.18.15.47,2.13.31,1.27.93-.65-.11-1.7-.24-2.35-.47.54.55,1.63,1.1,2.16,1.67-1.02.15-1.55-.35-2.21-.55.46.64.92,1.67,2.54,1.87l.43-.31c-.36.08-1.31-.02-1.54-.15-1.27-.55.56-.8,1.15-.83l.38.41c3.43-.42-.55-1.64-.35-2.46l2.5.34-2.07-.84c.65-.18,2.04-.3,2.42.1,1.23-.59-.89-.52.49-1.03.21-.06.33-.03.43.02l-.74-.57c.52.11,1.76-.1,1.4.26,1.44-1.03-1.87-1.66.02-2.05l.15.09c-.84-1.43-1.83-.14-3.98-1.21l4.51-.74-1.83-.13Zm-128.37-75.71c.02.05.05.14.08.19-.14-.29-.27-.57-.33-.79.13-.35.38-.11.59.16-.1.09-.21.22-.33.43Zm6.94,8.92c.06-.06.14-.15.27-.31,0,.01.01.02.02.03-.12.12-.22.22-.29.28Zm1-.84c-.32-.48-.56-1.05-.4-1.09.11.38.6.51,1.05.84-.2.03-.42.12-.64.25Z"/>
  <path class="cls-1" d="m98.39,174.59c-.02.05,0,.12-.04.16.13.1.24.18.34.24-.06-.17-.13-.35-.18-.5-.04.03-.08.07-.12.1Z"/>
  <path class="cls-1" d="m224.71,227.36c-.06.05-.11.09-.21.14.07-.04.12-.06.18-.09l.03-.04Z"/>
  <polygon class="cls-1" points="127.65 176.6 127.56 176.18 127.51 176.58 127.65 176.6"/>
  <path class="cls-1" d="m220.91,237.54c-.14.04-.29.09-.41.18.11-.02.25-.09.41-.18Z"/>
  <path class="cls-1" d="m220.4,244.34c.3.02.52.01.73.01,0,0,.01,0,.01,0h-.74Z"/>
  <path class="cls-1" d="m202.85,203.21s-.07-.04-.13-.04c-.42,0-.21.06.13.04Z"/>
  <path class="cls-1" d="m212.61,212.56c0,.28.06.47.91.03-.34,0-.67.02-.91-.03Z"/>
  <path class="cls-1" d="m191.32,193.92s0,0,.02-.02c-.03-.02-.04-.04-.07-.06l.05.08Z"/>
  <path class="cls-1" d="m212.34,211.97c-.18.38-.03.53.27.59,0-.23.05-.53-.27-.59Z"/>
  <path class="cls-1" d="m219.75,257.44c.11,0,.2,0,.27.02l-.2-.16-.07.15Z"/>
  <path class="cls-1" d="m220.02,257.46l.2.16c0-.08-.01-.14-.2-.16Z"/>
  <path class="cls-1" d="m220.22,257.63c0,.12-.06.27.42.34l-.42-.34Z"/>
  <path class="cls-1" d="m219.99,253.2c.13.03.32.04.61.05l-.61-.05Z"/>
  <path class="cls-1" d="m220.42,252.02c-.14.29-1.3.74-.92,1.15l.49.04c-.91-.19,1.47-.9.43-1.18Z"/>
  <path class="cls-1" d="m227.92,246.8l-.46,1.07c.65-.2,1.52-.46,1.68.02,1.91-1.4-1.45.31-1.22-1.1Z"/>
  <path class="cls-1" d="m228.7,243.43c.35.56.94-.07,1.31-.07-.62-.33-.78-.41-1.31.07Z"/>
  <path class="cls-1" d="m225.18,219.38c-.37-.35-.56.2-1.46.47l1.46-.47Z"/>
  <path class="cls-1" d="m214.72,218.68l-.72.73,1.36-.37c-.21-.12-.43-.24-.65-.36Z"/>
  <polygon class="cls-1" points="223.89 211.89 223.07 211.43 223.61 211.8 223.89 211.89"/>
  <path class="cls-1" d="m197.33,179.68l-1.06,1.57c.45-.08,1.82-1.71,1.06-1.57Z"/>
  <path class="cls-1" d="m181.24,171.82c.25-.93.06-1.72-.62-1.01.31.29.33,1.14.62,1.01Z"/>
  <polygon class="cls-1" points="129.31 160.9 129.58 160.22 128.97 160.85 129.31 160.9"/>
</svg>
