<?xml version="1.0" encoding="UTF-8"?>
<svg id="Layer_1" data-name="Layer 1" xmlns="http://www.w3.org/2000/svg" viewBox="0 0 300 300">
  <defs>
    <style>
      .cls-1 {
        fill: #fff;
      }
    </style>
  </defs>
  <path class="cls-1" d="m161.68,38.48c-.11-.15-.26-.24-.44-.28.15.09.29.18.44.28Z"/>
  <path class="cls-1" d="m116.8,41.49c.32-.14.4-.37.36-.54-.27.21-.49.4-.36.54Z"/>
  <path class="cls-1" d="m108.75,41.96c.18,0,.32-.03.48-.04-.23-.11-.43-.14-.48.04Z"/>
  <path class="cls-1" d="m161.24,38.2l-1.13-.71c-.14.64.57.53,1.13.71Z"/>
  <path class="cls-1" d="m213.45,67.02c.24.07.51.04.79-.04-.2-.05-.39-.11-.57-.18-.07.07-.13.13-.22.23Z"/>
  <path class="cls-1" d="m180.98,40.32l.35.1c.17-.19.34-.42.52-.69l-.87.59Z"/>
  <path class="cls-1" d="m194.05,47.09c.45-.56.81-.76,1.14-.75.13-.29.25-.66.34-1.16-.29-.21-1.07,1.29-1.47,1.91Z"/>
  <path class="cls-1" d="m214.91,59.6l.48.05c-.13,0-.32-.06-.48-.05Z"/>
  <path class="cls-1" d="m170.34,36.89c-.04.21-.02.41.03.62.02-.25,0-.48-.03-.62Z"/>
  <path class="cls-1" d="m193.07,242.1c.04.11.09.18.13.27,0-.19-.03-.31-.13-.27Z"/>
  <path class="cls-1" d="m211.51,241.23l-.15.2c.16.28.31.55.48.81l-.34-1.02Z"/>
  <path class="cls-1" d="m94.67,45.99s.04,0,.07,0c.25-.35.07-.22-.07,0Z"/>
  <path class="cls-1" d="m33.64,156.67c1.39-1.56,2.11,2.29,3.62-.03-.65.26-2.77-1.88-3.62.03Z"/>
  <path class="cls-1" d="m213.3,66.62c-.16-.1-.32-.21-.46-.34.17.21.32.31.46.34Z"/>
  <path class="cls-1" d="m69.07,66.86c-.13-.12-.33-.22-.76-.29.26.17.51.23.76.29Z"/>
  <path class="cls-1" d="m89.07,53.2l-.63.14c.28,0,.48-.06.63-.14Z"/>
  <path class="cls-1" d="m61.16,77.71c-.17.07-.31.15-.38.49.09.02.17.03.24.02-.06-.2-.04-.38.14-.51Z"/>
  <path class="cls-1" d="m61.16,77.71c.08-.03.17-.07.27-.13-.12.03-.21.08-.27.13Z"/>
  <path class="cls-1" d="m53.72,88.25c.15.01.28-.01.42-.02.05-.12.1-.27.15-.4l-.57.42Z"/>
  <path class="cls-1" d="m158.98,252.07c.3.45.51.95.68,1.46-.29-1.18,1.4-1.77-.68-1.46Z"/>
  <path class="cls-1" d="m213.3,66.62c.12.07.25.13.37.18.18-.18.33-.36.35-.53-.31.29-.52.4-.72.36Z"/>
  <path class="cls-1" d="m71.44,86.38l-1.34,1.3c.45-.31.93-.78,1.34-1.3Z"/>
  <path class="cls-1" d="m80.87,225.97c.15.05.31.09.46.14-.1-.14-.25-.2-.46-.14Z"/>
  <path class="cls-1" d="m67.03,92.25c-.68-.07-1.17.02-1.57.19.07.14.1.27.23.42l1.33-.61Z"/>
  <path class="cls-1" d="m212.66,243.01c-.48.25-1.48.25-2.03-.52l.73-1.06c-1.36-2.45-2.28-5.26-5.65-5.4l-.69,2.48-1.24-.83c.45-.29.88-.61,1.32-.93-1.44-.57-1.33.66-1.49,1.66-.51-.54-1-.83-1.46-.87-.08,1.08-.16,2.18-.27,3.26-.74-.84-.35-2.28-1.74-2.21-.16,1.5,1.96,1.72,1.06,3.14-1.43-.66-1.68-1.7-2.11-.23-.47-.56-.49-1.08-.27-1.56-.41,1.24-2.05,1.5-1.82,3.04-.78-.48-1.46-.03-2.08.25-.63.26-1.2.33-1.72-.89,0,.69-.66,2.59-1.42,3.06.21-3.53-3.12,1.11-4.02-2.21,0,1.55-.88,2.23-1.93,2.78-.53.28-1.09.53-1.62.86-.53.31-1.02.67-1.4,1.21.04-.25.11-.76.34-.68-1.2.15-1.79-.56-2.66-.84.58,2.31-1.05,3.32-1.63,5.01-2.02-1.77.1-2.91-.95-4.87.61,1.81-1.88,2.52-1,3.91-1.44-1.09-1.11-.42-2.14-2.18.52,2.9-.87.73-1.35,2.71-1.9-1.08-1-2.6-2.52-1.37-.99-.71.3-2.05.3-2.05-1.71.31-.36,2.29-.48,3.62-1.98,1.06-1.29-1.4-2.2-2.38-1.17.8-1.85,2.98-2.86,3.06-.13-.35-.34-.46-.18-.94-1.15,1.93-4.11.66-5.55,2.98-.14-.18-.22-.36-.27-.53.37,1.08.52,2.2.54,3-.82.12-1.43,1.54-1.86.13.51,0,.51-.59.71-1.07l-.82.71c-.94-2.01,1.12-.82.99-2.37-1.58.86-3.47,2.63-4.8,2.14-.35-2.02,2.97-.86,1.17-2.57l2.02.67c-1.72-3.12,1.2.16-.41-3.2-2.55-.46-2.77,1.23-5.33.67-.55,1.14.22,1.67-.34,2.82-1.84,1.07-2.58-.27-3.16-1.47-.58-1.21-1-2.33-2.37-1.01-.73,1.33-1.15,3.94-3.01,2.41l.8-2.25c-2.44-.42-1.67,3.19-4.16,1.45.56-.87,2.03-.61,1.68-.91-1.51-1.95-1.31,1.25-2.62,1.08l-.05-2.06c-1.32,0-2.75.26-4.24.53-1.48.21-3.01.4-4.51.32.28-.57.89-1.11.34-1.84-1.91.18-3.82-.4-5.64-1.14-1.8-.84-3.48-1.97-4.97-3.04l-1.82,1.24c-.29-.12-.3-.94.13-1.16-1.09-1.07-.42,1.04-1.27,1.48-.8-.14-.66-1.29-.01-1.63-.69.15-1.53.3-2.41.33-.87.02-1.8-.03-2.7-.17-.89-.16-1.77-.38-2.5-.8-.73-.42-1.34-.96-1.73-1.66l.67-.27c-1.5-1.48-3.64,2.37-4.61,0l.46-.11c-.9-.68-1.89-1.23-2.9-1.74-1.02-.5-1.99-1.07-2.95-1.61-1.91-1.08-3.51-2.45-4.18-4.46-.96.88-1.74.09-2.49-.67-.76-.73-1.55-1.33-2.7.02-1.03-2.87-.06-2.98-2.07-6.05-.62-.7-2.49.88-3.61.37l1.17-1.43-2.45.44.82-2.21-1.13-.35c.25.36.14,1.22-.26,1.57-.94-.23-1.49-1.19-1.71-2.17-.23-.97-.14-1.95.17-2.31l-1.99-.82-1.94-.91c.46-.34.94-.25,1.46-.16-1.8-.35,1.45-1.58-.96-1.77-.13.48-.9.65-1.2.88.11-1.45-1.31-3.11-2.74-4.05l1.17-.59c-.41-.61-.92-1.16-1.43-1.73-.5-.58-1.05-1.14-1.62-1.7-.56-.57-1.15-1.13-1.71-1.73-.53-.62-1.05-1.26-1.53-1.93.2,1.31-1.74,2.39-2.49,1.7l1.37-1.45c-1.36.17,0,1.27-1.98,1.05-.55-1.17,1.34-1.95,2.27-1.74l-1.43-.85c.43-.4.89-.28,1.56-.63-1.37.17.25-3.23-2-2.82l.45-.38c-.9-1.36-1.6-2.32-2.32-3.2-.69-.89-1.44-1.66-2.07-2.85-1.51.74-1.66-.37-3.25-.48-.49-2.03-.15-4.63-1.27-6.74-1.44-1.22-1.51.1-2.73-.22,1.37-.71.36-2.89,1.84-2.14-.63-1.29-1.07-2.11-1.6-3-.51-.9-1.18-1.84-2.36-3.39-.47.57-.59,1.09-1.16,1.03-.46-.57.12-1.65.86-1.78l.2.12c-.84-.82-1.15-1.91-1.21-3.08-.03-.59,0-1.19.07-1.8.08-.61.21-1.24.32-1.85.24-1.22.45-2.39.37-3.4-.06-.95-.34-1.78-1.13-2.42-.73-1.01-1.52-2.02-2.21-3.07.07-1.59,1.26.76,2.06-.52-1.49-1.62-1.6-3.09-1.55-4.46.1-1.38.31-2.67-.66-4.12,2.14-1.3,2.08-3.29,1.72-5.43-.31-2.13-.68-4.42.78-5.89l-1.07.13c-1.01-.86.68-.94.96-1.51-.83.03-1.02.81-1.57.28-.17-1.73-.17-3.49.16-5.22.35-1.73.75-3.47,1.42-5.16,1.25-3.39,2.91-6.63,4.29-9.79.48-1.16-.75-1.89-1.68-2.63-.92-.73-1.6-1.52.16-2.67l1.59,1.47c-.16-1.39-.01-2.72.28-4,.27-1.29.84-2.49,1.33-3.7l.76-1.81c.27-.59.53-1.19.76-1.8.47-1.21.73-2.5.89-3.85.27.47.8.74.57,1.17,1.78-.31,1.85-3.45.83-4.04.48-.64,1.02.34,1.77.19,1.25-.51-.27-3.22,1.25-3.01.17.02.22.23.24.44.09-.98,1.62-2.44.03-2.71,1.71-1.17,1.33-3.49,3.01-4.2-.95-1.87,2.62-2.13.67-3.94,2.08,1.68,3.77-1.33,3.53-3.08.39.83,1.31-.29,1.9.8.81-1.09,1.28-2.33.05-3.06,2.07.1,2.37-1.29,2.75-2.49.39-1.18.79-2.22,2.77-1.28.22-.49.45-.98.67-1.46.24-.47.49-.92.74-1.37.5-.9,1.01-1.78,1.54-2.63,1.08-1.68,2.27-3.2,3.48-4.68,1.62,2.16-2.95,2.91-.95,4.93.95-1.53,1.4-3.13,2.08-4.48.69-1.34,1.53-2.56,3.12-3.37.96-.23.28,1.24.33,1.81,1.05-1.5,2.5-2.41,3.84-3.36,1.37-.91,2.71-1.76,3.64-3.25.12.22-.02.64-.17.98.47-.41,1.41-.44.71-1.44l-.34.61c-.88-.49-.87-1.63-.63-2.73.24-1.09.68-2.17.49-2.61.84,3.58,3.2-.82,3.91,3.91.23-.4.39-1.17-.08-1.84.64-.1,1.03.23.96,1.36,1.61-1.64.33-2.4,2.14-3.31.26.54,0,.93.14,1.64.38-1.47.76-3.06,2.56-3.3.05.31.32.6.13.8,1.2-.7,2-1.84,2.9-2.9.95-1.08,2.06-1.96,3.79-2.05.03,2.77,1.33.39,2.26,2.43l1.4-1.18-1.02-.8c1.44-.45,2.22-2.43,3.7-2.16l-.8,1.24c.85-.46,1.73-.85,2.61-1.24l-1.81-.37c1.17-1.53-.99-2.66,1.19-2.64-.35.34,1.53-.41,2.65.65,0,0,0,0,0,0,.55-.91,1.15-1.82,2.41-1.54.46.63.34,2.46.64,2.88.3-1.97,3.36-1.36,3.92-3.43-.23.52-.01,1.67.14,1.89l.33-1.61c.8.35.94.57,1,1.51,2.15-.1-1.18-2.68,1.56-1.92-.18.16-.05.37-.42.67.66.04,1.28-.05,1.89-.2.61-.13,1.2-.32,1.79-.51,1.17-.38,2.34-.75,3.55-.52.91,2.15-1.97.8-.98,2.59,3.23-.77,6.73-3.31,10.06-2.81l-.62-.23c.41-3.18,2.48,1.47,4.12.06-.41.22-.55,1.75-.44,1.4,1.11.28,2.25.12,3.55-.24,1.3-.35,2.77-.77,4.52-1.15l-.49.78c.63.42,1.49.56,2.35.73.87.17,1.75.3,2.43.57.52-.76,1.32-.52.99-1.76.47.65.96,1.11,1.45,1.43.49.34.99.56,1.51.67,1.03.23,2.1.08,3.18-.1,2.13-.31,4.3-.61,5.73,1.7-.46-.1-1.26.44-.9.53,1.14-.01,2.25.1,3.39.14.12-1.41-.19-.93-.59-2.16.63-.68,1.73-1.03,2.55-.79-1.74.46-.6,2.14-.21,3.06.02-.44.37-.82.44-1.25.96,2.84,1.11-2.59,2.93-.24l-.35.65c.97-.06,2.08-.7,2.95-.19-.15,1.64-1.17.39-1.66,1.62.66.18,1.55-.34,2.36-.62.8-.27,1.54-.35,1.83.63-.71.2-1.49-.1-2.18.11.59,2.26.89,1.86,1.7,2.5l-.07-.08,1.79,1.62-.34-.68c1.59-1.64,2.47-1.45,3.33-1.07.87.38,1.72.95,3.37.19-3.16,1.42-.97,1.21-1.91,2.78.32.69.85,1.57.41,1.93,1.59-.83,1.04,1.83,3.35.6-.21.55.99.57.08,1.76,1.44.22.19-1.04.64-1.64,1.44-.42,2.23.79,3.17,1.91.47.56.96,1.12,1.6,1.48.63.38,1.37.59,2.39.42,1.42.24,2.52.02,3.6-.19,1.07-.19,2.1-.35,3.43,0,.16,1.26-1.8,1.33-1.8,1.33.61,1.5,1.54,1.93,2.97,2.18-.51.25-.56.76-.65,1.52.89.51,1.84-1.26,2.38.26-.59.37-1.47,1-2.25,1.22,1.26.31,2.89.17,4.19.57-.4.99-1.56.7-2.33.96,1.38.49,3.32,1.62,4.73.69l-.23-.78c-.1.38-.89.96-1.26.94-1.72.18-.95-1.56-.63-2.06l.92.3c1.52-3.28-3.18-1.87-4.44-3.12l2.12-1.51-2.73.49c.07-.74.67-2.04,1.63-1.79-.34-1.78-1.48.03-1.6-1.75.02-.25.14-.31.29-.32l-1.49-.15c.51-.28.83-1.57,1.29-.81-.55-1.27-1.59-1.46-2.47-1.54-.88-.07-1.55-.09-1.41-1.12l.25-.02c-3.21-1.05-1.27,1.36-4.43,1.89.35-1.58.66-3.14.94-4.71l-1.21,1.41c-.26-.22-.76-.67-.29-1.25-1.71.46-.22.79-1.43,1.46-.28-1.12-1.34-1.52-2.19-1.94-.87-.4-1.52-.86-1.01-2.24-1.15.97.87,1.65-1.1,1.73.99-3.01-2-.44-2.68-2.36,1.12-1.29,2,.15,1.3-1.83-1.99,2.1-2.4-1.74-3.79-1.8-.47.99-1.17.9-2.05.59-.89-.3-1.95-.87-3.06-.91.19-.31-.61-.97-1.69-1.7-1.09-.69-2.43-1.48-3.25-2.17l.17-.33c-.53.99-1.23,1.22-2,1.2-.78.02-1.62-.21-2.39-.19.42-1.25.82-1.68,1.77-2.02l-1.36-.38c-.51.59-1.03.83-1.97.82l.77-1.49c-1.84-.47-4.12.98-6.2-.65-.43,1.48.88,4.59-1.7,5.05.08-.83.28-2.25.98-2.43-.23.06-.87.49-1.22.07.42-.41.83-.77,1.25-1.16-.93-.84-.78,1.01-1.6.73.25-1.16-.46-.94-.16-1.84.24-.07.65.61,1.07.22-.92-.38-1.96-1.28-2.19-2.23-.03.68-.28,1.57-1.02,1.6-1.84-.24-.39-1.52-1.37-2.31-.57.71-1.64-.26-1.92,1.48-.54-.08-.52-.91-.67-1.41-1.07.65-4.52-.35-3.64,1.66l.23.15s-.1.03-.16.06c-1.64.72-3.21.38-4.8-.13-1.58-.54-3.19-1-4.76-.68l.02-.59c-1.87.59-4.15.38-5.43,1.7-.54.01-1.32-1.05-1.11-1.76-1.41.47-1.52,1.14-3.63.33,1.36-1.14-.56-.88,1.42-.87-1.88-.37-2.4-1.28-4.26.48.55-1.57-1.6-1.8-2.44-1.2l1.42.91c-.97.35-1.84.32-2.74.3l.23-2.04c-2.09-.96-3.72.27-5.17,1.41-1.47,1.12-2.8,1.94-4.65.28-.35.8.21.92.79,1.07.58.15,1.18.37.89,1.25-1.74.08-4.18-2.27-4.74-2.15-2.68-.53-1.5,3.37-4.12,3.31.51.59,1.29,2.35-.28,3.49-1.71.21-2.93-2.26-2.03-3.12.39-.17.65-.01.7.22.47-.4,1.11-.9.22-1.45l-.02.75c-1.06-.49-3.37.37-3.18-.92-1.08,1.08-.18,1.29.87,1.33-2.48-.23-3.4,1.06-5.83,1.27.49.23,1.1.89.75,1.02-3.5.43-.92,1.81-2.92,2.94-1.62-.51-.57-2.6-2.36-.83-1.6-.09-1.04-1.6-.73-2.38-1.42,2.15-4.07.84-5.33,1.16.26-.35.53-.67.8-1.01-.49.59-1,.83-1.51,1.1l1.21.98c-.71.08-1.22.34-1.47-.2-.2,1.15,1.52,1.88.89,3.64-1.11-.24-2,1.9-3.17.37,2.53-.64-.5-1.38.42-2.54-.29.2-.67.34-1.14.4-.19-.14-.1-.39.01-.57-3.21-.2-.08,2.48-2.5,3.8-.22-1.1-1.57-1.42-1.86-1,.99-.55,1.36,1.27.9,2.47-1.96.17-1.3,1.54-2.14,1.93l1.09-.23c.26,1.1-.54,1.44-1.38,2.38-.19-.23-.17-.43-.08-.6-.65,1.33-3.6-.31-4.35,1.65-1.13-.08-1.22-1.59-2.14-1.53-.94,2.37-2.8.17-3.91,2.51,1.39.72,1.26.39.87,2.46.77-1.01,1.5-2.08,2.32-3.05-.24,1.01-.44,2.06-.63,3.09.86-.68,1.31-2.13,2-2.31-.22,1.59-.33,1.23.8,1.89-1.25-.44-1.66.26-2.01,1.06-.36.79-.68,1.66-1.81,1.63l-2.17-2.8c-.77.1-1.32.43-1.76.88-.42.47-.73,1.07-1.04,1.69-.61,1.26-1.26,2.59-2.81,3.44.41-.1.8-.21,1.22-.29.6,1.33-1.4,1.59-1.81,2.76-.74-.93-1.54-.76-2.4-.96.33.29-.14.72-.52,1.3-.37.59-.61,1.37.13,2.31l-2.18.02c-1.19.79-1.13,1.93-1,3.09.14,1.17.33,2.33-.67,3.18-.46-1.44-1.88-1.08-1.4-3.03-.59.67-1.29,1.13-.67,1.68-.91-.08-.39,2.87-1.74,2.81.17.62,1.07,1.49.39,2.2-.25-.06-.46-.36-.46-.36.45.37-.32,1.69,1.24,1.83-1.13-.04-2,.31-2.68.89-.66.59-1.16,1.38-1.64,2.16-.47.79-.94,1.57-1.51,2.17-.56.62-1.25,1.05-2.23,1.12-.35.92-.76,1.92-1.18,2.87-.39.98-.79,1.91-1.18,2.69-.25-.27-.51-.3-.24-.52-1.08.77-.52,1.51,0,2.27.53.76,1.01,1.52-.13,2.43-2.32.34-.26-1.77-1.29-1.34-1.8-.75-2.07.06-2.24,1.12-.16,1.07-.24,2.35-1.66,2.7,0-.17-.02-.34-.01-.51-1.8.74-.11,3.79-1.29,5.76,0,0-.28-.24-.54-.24.62,1.12.82,2.43.83,3.72,0,1.3-.19,2.58-.26,3.71-1.22-1.15-.44-1.21-2.03-1.34-.11,1.01,2.43.57,2.22,2.55-.99.32-2.14,1.43-3.77,1.11l.52-1.8c-2.33.24-.74,2.33-1.35,3.16l-.86-.4c-.49,2.9,1.71,3.54.8,6.45l.76-.13c1.89,2.16-1.59,1.05-.27,3.06l-2.43-.02c.26,1.21,1.49,4.26,1.59,6.24-1.53-1.37-2.04-3.84-2.75-5.48-.27,1.08-.51,3.76.53,4.52-.15-.47-.62-1.13-.18-1.5,1.61,1.67,2.14,3.51,1.87,5.64-2.25-.5-2.72.88-3.09,2.53-.37,1.66-.49,3.57-2.35,4.26.66,2.03.45,3.95.04,5.99-.45,2.03-.91,4.17-.71,6.49,3.53-1.75.14,1.34,3.79.9.25,1.02.26,1.42.02,1.53l.14-.23c-.06.1-.1.15-.15.24h.01s-1.94,3.34-1.94,3.34c-1.01.86-.88-.95-1.7-.79-.1,2.39-1.47,1.12-2.32,2.8,1.27-.45,1.96.63,1.64,2.04l1.44-2.08c2.36,3.01-2.72,3.22-.34,6.29-.45-.29-.87-.58-1.3-.88.43.81.74,2.38,1.28,3.9.28.76.62,1.5,1.1,2.11.49.61,1.13,1.09,1.94,1.34-.35.38-1.24.99-1.66.31.26,2.05,1.48,4.12,2.7,6,.59.95,1.13,1.88,1.46,2.79.33.91.54,1.79.35,2.68h-.95c.49.63,2.02.7,1.47,1.89-.37.08-.94,0-.88.36.42.29,2.12,1.38,2.02,2.49l-1.26-.45c.18,2.07,1.32,3.29,2.63,4.3,1.36.99,2.89,1.78,3.83,3.14-1.19.55-1.69,1.64-1.79,2.77-.09,1.13.16,2.33.33,3.14l-.36.12c.89,2.19,2.41,3.64,3.99,4.96,1.55,1.34,3.37,2.41,4.93,3.91-.52,1.92.59,3.91,1.89,6.01.64,1.06,1.45,2.06,2.11,3.12.69,1.04,1.25,2.14,1.66,3.21-.06-.81,1.65-1.23,2.35-.84.25,1.11,3.17.87,1.26,2.35l-.2-.3c-.64,1.07-.51,1.9-.07,2.61.46.69,1.2,1.27,1.74,1.88l2.48-1.99c-.26,3.13,2.08,4.77,4.23,6.13,2.18,1.35,4.25,2.36,3.79,4.71,1.28.06,2.28.82,3.55.82l-1.09,1.3c1.94,2.12,3.01,3.1,6.1,4.8l-1.28.58c1.57,1.28,4.82-2.66,6.34-1.79l-.91,2.43c.73.45,1.37,1.04,2.02,1.62.66.57,1.3,1.18,1.99,1.72.68.54,1.4,1.03,2.2,1.36.81.3,1.72.43,2.73.31-.22.31-.65.91-1.19.75.71.4,1.91,1.5,3.08,2.08,1.18.55,2.31.54,2.77-1.16-.46,1.04.33,1.45,1.48,1.59,1.15.15,2.67-.02,3.71-.17l-.9,1.44c2.26-1.41,2.5-1.94,4.69-1.71.39.39-.05,1.42-.53.77,1.27,1.45,1.77-1.04,3.39.47l-1.07.77c1.61.68,1.67.1,2.95-.79,1.21-.26,2.98,1.35,2.81,2.88.49-.82,1.73-1.75,2.58-1.05-.02.59-.47.83-.69.95,1.24.97,2.43.74,3.46.54,1.04-.19,1.93-.36,2.73.67-.08.55,0,.85.12,1.05-2.25-.56-4.05-1.07-3.85-1.15-.38,1.49,1.42,2.19-.56,3.91.9-.39,2.12-1.05,3.31-1.48.6-.22,1.18-.37,1.73-.41.55-.06,1.05.01,1.47.27.06.16.12.32.14.57l-.22.14c.39.23.8.15,1.19-.04.53.35.87.6,1.43.73,0,.65.52.91,1.14,1.05.63.12,1.38.07,1.84.17.16-1.68,1.33-1.26.39-2.78.13.14-.2.18-.83.17-.15.03-.31.04-.42.12.02-.04.05-.09.09-.14-.62-.01-1.41-.15-2.31-.27.87-.73,1.72-1.26,2.6-.22.63-1.01,1.29-2.05,1.65-2.53.91,2.48,3.23,4.08,3.44,5.53,1.49-.36,3.19-.39,4.77-.7,1.58-.31,3.03-1.04,3.94-2.59.8-.39.9.93,1.19,1.44-.47.31-1.02.24-1.29.69.82-.39,2.02-.43,3.06-.67,1.04-.27,1.92-.72,2.08-1.83,2.03.96-1.09,2.06,1.68,1.64l-.36.68c1.41.87,2.68.84,3.86.5,1.18-.35,2.27-1.12,3.35-1.88,2.1-1.42,4.11-2.79,7.21-1.34-.2-.11-.33-.23-.42-.45,3.55.42,7-.69,10.32-1.91,3.36-1.16,6.6-2.38,10.35-1.99,2.04-.08,1.76-1.48,2.46-2.89l1.05,1.54,1.08-2.71c1.01-1.24,2.56-.69,4.16-.41,1.6.31,3.27.39,4.24-1.74l-.97-.88c.63-.19,1.46-.8,2.18-1.22.71-.43,1.33-.64,1.57.03.01-.26-.24-1.32.51-1l.5.81c.68-.98,1.32-1.97,1.94-2.99,2.46-.69,1.6,3.46,4.83,1.68.97-1.06,1.73-4.41.94-4.66Zm-85.51,10.83c.28-.34-.49-.86-.9-1.46.41.16.94.3,1.51.42,0,.6-.26,1.15-.61,1.04Zm5.04,10.96c.03-.06.08-.12.1-.19-.11.31-.22.59-.37.79-.66.13-.82-.24-.85-.59.3.02.65.03,1.12,0Zm-2.42-11.68s0-.03,0-.03c.37.03.69.05.89.06-.19,0-.44-.01-.89-.03Z"/>
  <path class="cls-1" d="m62.44,99.63c0-.08,0-.18-.01-.28,0,.1,0,.19.01.28Z"/>
  <path class="cls-1" d="m96.19,45.81c-.18.12-.29.24-.39.35.15-.1.28-.21.39-.35Z"/>
  <path class="cls-1" d="m88.71,54.74s0-.02.01-.03c0,0,0,.02-.01.03Z"/>
  <path class="cls-1" d="m167.92,261.81c.11.06.24.12.4.19-.14-.07-.27-.13-.4-.19Z"/>
  <path class="cls-1" d="m77.19,221.35c.12.02.24.04.36.04-.14-.01-.25-.03-.36-.04Z"/>
  <path class="cls-1" d="m220.53,68.17l.08.26c.03-.1.02-.2-.08-.26Z"/>
  <path class="cls-1" d="m77.06,221.33s.09.01.13.02c-.04,0-.09-.01-.13-.02Z"/>
  <path class="cls-1" d="m105.46,55.6c-.06.03-.1.08-.16.11.07-.03.12-.07.16-.11Z"/>
  <path class="cls-1" d="m88.84,54.2c0,.21-.06.37-.12.51.16-.28.47-.47.12-.51Z"/>
  <path class="cls-1" d="m133.37,263.37c.09-.03.15-.09.27-.09-.1-.16-.21-.3-.31-.42-.1.17-.2.34-.29.5.11,0,.23.01.34.02Z"/>
  <path class="cls-1" d="m161.68,38.48c.06.08.11.15.14.26-.04-.09-.04-.14-.07-.21l-.08-.05Z"/>
  <polygon class="cls-1" points="84.37 227.9 84.1 228.23 84.57 228.15 84.37 227.9"/>
  <path class="cls-1" d="m180.76,48.24c0,.15.02.32.13.48.02-.11-.04-.29-.13-.48Z"/>
  <path class="cls-1" d="m188.78,51.44l.91,1c-.36-.51-.66-.8-.91-1Z"/>
  <path class="cls-1" d="m194.52,54.8c.2-.23.32-.43.42-.6,0,0,0,0,0-.02l-.42.62Z"/>
  <path class="cls-1" d="m95.47,62.51c-.07.05-.13.12-.17.2-.32.59-.05.27.17-.2Z"/>
  <path class="cls-1" d="m122.33,46.58c-.24.39-.48.77-.77,1.05.57-.03,1-.11.77-1.05Z"/>
  <path class="cls-1" d="m71.59,86.24s0,0-.02-.02c-.04.06-.08.11-.13.16l.15-.14Z"/>
  <path class="cls-1" d="m121.57,47.63c-.47.02-1.04,0-1.42.37.63.17,1.06-.03,1.42-.37Z"/>
  <path class="cls-1" d="m218.07,71.07c.07-.09.14-.14.21-.18l-.4-.08.19.26Z"/>
  <path class="cls-1" d="m218.27,70.89l.4.08c-.12-.11-.24-.19-.4-.08Z"/>
  <path class="cls-1" d="m219.51,71.14l-.84-.16c.19.17.39.42.84.16Z"/>
  <path class="cls-1" d="m211.55,64.83l-.44.44c.12-.07.26-.21.44-.44Z"/>
  <path class="cls-1" d="m209.29,63.44c.44.48.54,1.98,1.47,2.17l.35-.35c-.86.51-.74-2.32-1.82-1.83Z"/>
  <path class="cls-1" d="m206.26,51.23c-1.67-3.2-.18,1.57-2.76-.2l1.82,1.6c-.03-.77-.09-1.81.94-1.4Z"/>
  <path class="cls-1" d="m197.9,45.74c-1,.2-1.24.26-.6,1.17,1.3.26.38-.86.6-1.17Z"/>
  <path class="cls-1" d="m145.25,35.15c-.99.25.02.59-.07,1.54l.07-1.54Z"/>
  <polygon class="cls-1" points="137.28 44.83 136.02 45.45 137.03 46.28 137.28 44.83"/>
  <polygon class="cls-1" points="128.85 35.29 127.28 36.14 128.45 35.59 128.85 35.29"/>
  <path class="cls-1" d="m53.75,85.45l1.73.8c.11-.73-1.57-2.07-1.73-.8Z"/>
  <path class="cls-1" d="m39.51,122.02c-1.01.18-1.86,1.13-1.1,2,.33-.83,1.24-1.51,1.1-2Z"/>
  <polygon class="cls-1" points="65.77 232.14 67.2 232.87 66.78 232.29 65.77 232.14"/>
  <path class="cls-1" d="m135.88,131.1l.39-.06c-.15-.03-.28,0-.39.06Z"/>
  <path class="cls-1" d="m113.33,152.11c.13-.2.06-.41-.06-.54-.06.25-.1.46.06.54Z"/>
  <path class="cls-1" d="m108.06,154.28c.12-.04.21-.08.31-.12-.21-.05-.37-.03-.31.12Z"/>
  <path class="cls-1" d="m135.88,131.1l-1.02.14c.42.5.64.04,1.02-.14Z"/>
  <path class="cls-1" d="m171.76,106.38c.05-.19.02-.42-.05-.69-.04.16-.09.31-.15.45.07.08.12.15.2.24Z"/>
  <path class="cls-1" d="m144.34,120.36l.17-.18c-.11-.21-.25-.45-.42-.72l.25.9Z"/>
  <path class="cls-1" d="m152.86,114.73c-.4-.58-.51-.94-.45-1.18-.22-.23-.52-.48-.92-.77-.22.11.92,1.36,1.37,1.95Z"/>
  <path class="cls-1" d="m165.27,103.19l.04-.37c0,.11-.05.24-.04.37Z"/>
  <path class="cls-1" d="m138.81,125.38c-.19-.16-.37-.29-.49-.36.15.15.32.26.49.36Z"/>
  <path class="cls-1" d="m178.35,109.64c.09-.08.14-.14.21-.21-.16.08-.26.15-.21.21Z"/>
  <path class="cls-1" d="m99.73,159.56s.03,0,.05,0c.04-.31-.03-.19-.05,0Z"/>
  <path class="cls-1" d="m123.53,215.95c-1.77-.36-.22-2.52-2.47-2.64.57.37.89,2.83,2.47,2.64Z"/>
  <path class="cls-1" d="m171.41,106.41c-.09.11-.18.22-.29.31.18-.1.26-.2.29-.31Z"/>
  <path class="cls-1" d="m85.45,176.32c-.13-.12-.31-.23-.68-.36.24.18.46.27.68.36Z"/>
  <path class="cls-1" d="m98.14,165.97l-.45.13c.22,0,.35-.06.45-.13Z"/>
  <path class="cls-1" d="m79.96,185.7c-.14.09-.25.19-.23.49.09,0,.16,0,.24-.02-.11-.16-.14-.32,0-.47Z"/>
  <path class="cls-1" d="m79.96,185.7c.07-.04.15-.09.22-.15-.1.05-.17.1-.22.15Z"/>
  <path class="cls-1" d="m77.97,196.63c.13-.07.22-.15.33-.23-.03-.11-.07-.24-.11-.35l-.22.58Z"/>
  <path class="cls-1" d="m171.08,105.71c.26.34.36.54.33.7.06-.09.1-.18.15-.27-.16-.2-.32-.37-.47-.43Z"/>
  <path class="cls-1" d="m92.04,191.62c-.17.18-.37.36-.51.57.2-.15.4-.34.51-.57Z"/>
  <path class="cls-1" d="m156.24,163.66l.09-.37c-.12.06-.16.18-.09.37Z"/>
  <path class="cls-1" d="m91.26,194.33c-.63.06-.96.19-1.19.33.13.04.24.09.43.12.26-.16.47-.32.76-.45Z"/>
  <path class="cls-1" d="m152.57,166.24s0,.1,0,.15c0-.04,0-.1,0-.15Z"/>
  <path class="cls-1" d="m100.63,159.6c.07-.1.12-.21.14-.34-.08.12-.12.23-.14.34Z"/>
  <path class="cls-1" d="m152.56,165.95c0,.11,0,.2.01.29,0-.1,0-.19-.01-.29Z"/>
  <path class="cls-1" d="m111.85,166.44s-.05.07-.07.1c.04-.03.06-.07.07-.1Z"/>
  <path class="cls-1" d="m197.13,139.56c.02-.07,0-.14.04-.21-.17-.04-.31-.08-.45-.09.09.16.19.33.27.48.05-.06.1-.12.14-.18Z"/>
  <path class="cls-1" d="m136.27,131.04c.08.01.16.03.25.09-.08-.03-.12-.07-.19-.1h-.07Z"/>
  <polygon class="cls-1" points="157.74 160.98 158.05 161.28 157.95 160.85 157.74 160.98"/>
  <path class="cls-1" d="m150.76,124.79c.12.09.27.15.44.17-.08-.07-.25-.12-.44-.17Z"/>
  <path class="cls-1" d="m155.49,120.6l1.06-.21c-.51.03-.83.12-1.06.21Z"/>
  <path class="cls-1" d="m159.51,117.76c-.17-.25-.31-.42-.44-.58h-.01s.46.58.46.58Z"/>
  <path class="cls-1" d="m106.36,173.71c-.04.05-.07.11-.08.19-.08.54.04.24.08-.19Z"/>
  <path class="cls-1" d="m119.85,155.78c.38-.2.63-.4-.04-1.09.04.39.09.77.04,1.09Z"/>
  <path class="cls-1" d="m92.1,191.56s0,0-.03-.01c0,.03-.02.05-.03.07l.06-.06Z"/>
  <path class="cls-1" d="m119.07,156.51c.53-.05.72-.34.78-.73-.32.16-.72.31-.78.73Z"/>
  <path class="cls-1" d="m170.21,107.9c-.06-.12-.18-.28-.38-.48l.38.48Z"/>
  <path class="cls-1" d="m168.58,108.92c.43-.23,1.75.1,1.94-.63l-.3-.39c.43.86-2.05-.02-1.64,1.02Z"/>
  <path class="cls-1" d="m157.47,109.34l1.5-.81c-.66-.26-1.55-.61-1.13-1.25-2.83.08,1.33.73-.37,2.06Z"/>
  <path class="cls-1" d="m153.21,112.26c.41-.84-.68-.66-.9-.95.03.81.04,1.02.9.95Z"/>
  <path class="cls-1" d="m127.29,138.17l-1.02-1.15c-.32.63.42.43,1.02,1.15Z"/>
  <polygon class="cls-1" points="127.95 148.73 129.09 148.94 128.32 147.73 127.95 148.73"/>
  <polygon class="cls-1" points="117.34 143.57 116.94 144.76 117.29 143.93 117.34 143.57"/>
  <path class="cls-1" d="m76.45,194.56l1.9-.2c-.31-.58-2.42-.88-1.9.2Z"/>
  <path class="cls-1" d="m96.65,220.92c-.67-.44-1.03-1.43-1.48-1.37-.12.99.57,1.98,1.48,1.37Z"/>
  <polygon class="cls-1" points="163.48 176.68 163.55 177.51 163.89 176.42 163.48 176.68"/>
  <path class="cls-1" d="m204.78,80.03c-.09-.1-.16-.15-.22-.16l.22.16Z"/>
  <path class="cls-1" d="m191.7,84.24c.08-.08.04-.28-.03-.45-.04.16-.06.3.03.45Z"/>
  <path class="cls-1" d="m188.7,83.15c.07.04.12.05.18.07-.12-.15-.21-.22-.18-.07Z"/>
  <path class="cls-1" d="m204.56,79.87l-.58-.43c.23.6.36.37.58.43Z"/>
  <path class="cls-1" d="m209.4,76.02l.1-.05c-.06-.22-.14-.48-.24-.78l.14.82Z"/>
  <path class="cls-1" d="m214.26,76.15c-.22-.66-.28-.99-.25-1.15-.13-.3-.29-.64-.52-1.08-.12-.03.51,1.54.77,2.23Z"/>
  <path class="cls-1" d="m206.25,76.99c-.11-.23-.21-.42-.28-.54.08.19.18.37.28.54Z"/>
  <path class="cls-1" d="m218.01,75c-.15-.09-.25-.15-.28-.12.11.05.18.08.28.12Z"/>
  <path class="cls-1" d="m227.51,73.32l.05.1c.29.13.58.26.86.39l-.92-.49Z"/>
  <path class="cls-1" d="m182.86,83.32s.03,0,.05.01c.09-.25,0-.17-.05-.01Z"/>
  <path class="cls-1" d="m169.02,91.21c-.25-.08-.59-.16-1.22-.27.46.12.85.2,1.22.27Z"/>
  <path class="cls-1" d="m181.26,87.73l-.42-.06c.22.07.34.08.42.06Z"/>
  <path class="cls-1" d="m167.52,94.63c-.11.03-.16.06.2.2.13,0,.22.01.3.01-.32-.08-.54-.16-.5-.21Z"/>
  <path class="cls-1" d="m167.52,94.63s.11-.02.15-.05c-.09.01-.13.03-.15.05Z"/>
  <path class="cls-1" d="m171.84,98.74c.16-.02.27-.05.4-.07-.08-.04-.17-.09-.26-.13l-.15.2Z"/>
  <path class="cls-1" d="m213.75,86.16c.47.11.97.27,1.46.43-1.12-.42-1.29-1.12-1.46-.43Z"/>
  <path class="cls-1" d="m190.3,98.4h-.35c.25.02.37.02.35,0Z"/>
  <path class="cls-1" d="m203.6,109.74s0,.03.14.18l-.14-.18Z"/>
  <path class="cls-1" d="m190.53,98.62c-.89-.05-1.38-.05-1.7-.05.22.01.42.03.66.04.34,0,.69,0,1.04,0Z"/>
  <path class="cls-1" d="m229.46,74.18c-.11.13-.71.15-1.58-.22l-.31-.54c-.83-.38-1.65-.78-2.46-1.16.1-1.34-.73-2-2.26-1.92.11-.5.64-.71.93-.94-.98.1-2.32.53-3.25,1.52-.05,0-.11,0-.16,0l.09.09c-.08.09-.16.17-.23.27-.46-.05-.43.1-.2.32-.06.1-.13.2-.18.31.13-.06.25-.11.36-.16.18.15.39.31.58.46-.68-.24-1.18-.36-1.48-.35l2.2,1.63c-.29-.1-.57-.24-.83-.37-.01,0-.02-.01-.03-.02-.66-.34-1.23-.68-1.74-.58.42.32.9.49,1.36.64-.11.17-.13.47-.16.73-.45-.19-.74-.39-.93-.6.19.18.27.34.32.48-.19.49-.08.88.13,1.36-.09.16-.14.33-.57.25l-.97-1.7.59,1.59c-.09-.03-.2-.07-.31-.12-.08-.11-.17-.27-.26-.51.02.17.04.31.06.43-.05-.02-.1-.04-.16-.07.05.03.11.07.17.12.12.54.27.49.44.96-.26-.09-.4-.05-.5.04-.49.03-.63,1.02-1.58-.97.31,1.06.66.95.75,1.4-.08-.01-.18-.03-.28-.06-.46-.84-.51-.57-.54-.19-.14-.06-.29-.12-.46-.2.17.1.32.2.45.29-.03.36-.08.74-.5.25-.52-1.54.22-.93-.77-2.07.84,2.62-1.05-.2-1.19.43.85,2.01-.4,1.16-.7,2.09-.25-.69-1.58-.62-2.44-1.11l-.13-.34c.77,2.07.04,1.93-.19,2.53-.51-1.22-.64-1.73-.65-2.37l-.38.18c.19.69.22,1.08.07,1.42l-.56-1.55c-.48.31-.27,2.23-1.37,1.51.57,1.43,2.22,3.7,1.93,4.94-.36-.75-.95-2.04-.9-2.44-.02.13.06.73-.2.45l-.27-1.4c-.55-.43.31,1.14.01,1.12-.47-1.09-.51-.7-.85-1.58.02-.13.4.36.31-.11-.36-.08-.96-.58-1.43-1.36.29.61.63,1.46.49,1.69-.48.3-.74-1.23-1.28-1.66.2.81-.47.17.23,1.8-.15.06-.51-.69-.76-1.1.04.83-1.16.74-.11,2.34l.12.08s-.01.05-.01.09c-.17,1.99-2.21-.14-2.78.93l-.23-.55c-.25.84-.99.87-.86,2.19-.15.06-.79-.84-1-1.51-.22.58,0,1.21-.96.56-.01-1.12-.5-.78.11-.87-.72-.25-1.21-1.07-1.12.66-.41-1.47-1.15-1.59-1.21-1.06l.79.84c-.19.32-.48.3-.78.29l-.66-1.89c-2.02-1.77-.26,4.61-2.67,1.23.28,1.4.96.66,1.36,2.26-.59-.04-2.23-2.45-2.39-2.39-1.1-.73.54,2.94-.45,2.55.37.61,1.21,2.32.96,3.16-.59-.03-1.78-2.48-1.7-3.14.09-.11.24.08.33.3.05-.3.14-.67-.36-1.3l.22.68c-.53-.56-1.16-.21-1.47-1.34-.1.78.31,1.14.72,1.36-1.03-.68-.98.39-1.9.03.26.32.68,1.04.58,1.08-1.29-.4.12,1.42-.39,1.98-.79-.84-.9-2.43-1.18-1.32-.68-.51-.83-1.7-.91-2.3-.02.76-.38.67-.79.38-.21-.14-.42-.34-.62-.5-.19-.17-.35-.3-.56-.28.15-.27.13-.47.17-.7-.04.21-.03.29-.18.4-.13.1-.28.16-.42.22.31.38.62.77.91,1.16-.42-.09-.69.02-.95-.51.1.97,1.26,2.04,1.28,3.42-.72-.48-.64,1.12-1.79-.44.76.02.48-.37.12-.86-.3-.4-.66-.86-.5-1.22-.14.11-.36.15-.66.1-.16-.16-.16-.35-.13-.49-2.29-.85.57,2.08-.65,2.56-.51-.94-1.61-1.51-1.69-1.22.57-.22,1.4,1.33,1.54,2.16-1.34-.32-.37.83-.8.91l.72.12c.65.88.22.91.04,1.36-.26-.22-.33-.36-.35-.46.06.36-.47.17-1.13-.05-.8-.27-1.77-.54-1.58.06-1.04-.34-1.9-1.36-2.72-1.54.16.68-.45.55-1.13.41-.68-.14-1.44-.27-1.38.32,1.86.76,1.47.54,2.33,1.69.14-.43.32-.87.53-1.32.34.61.73,1.2,1.17,1.76.44-.17,0-.98.52-.94.7.97.43.7,1.79,1.4-1.34-.59-1.33-.25-1.18.12.14.38.42.79-.7.48l-3.97-2.14c-1.5-.21-1.56.31-1.45.85.09.55.35,1.12-.97,1.21l1.29.12c1.69.8-.59.47-.24.94-1.63-.59-2.53-.67-3.81-.92,1.31.39-1.28.47,2.2,1.54-.99-.14-2-.27-3.04-.39-1.11.13-.12.62,1.02,1.08,1.13.46,2.4.9,1.59,1.03-1.91-.58-3.86-.65-4.67-1.3-.41.16-1.14.24.29.52-.22-.02-.34-.02-.4,0,.31.27,3.42,1.19,2.01,1.13.99.26,3.11.61,3.21.86-.37-.03-.97-.14-.97-.14.98.15,1.73.61,3.65.67-2.68-.07-1.97.55-1.26,1.07.18.13.36.26.5.38-.3.31-.57.62-.81.95-.04,0-.07.02-.11.02.02.01.04.02.07.04-.46.66-.79,1.4-.87,2.25-2.11-1.01-.95,2.62-1.94,3.34l-1.38-2.15.52,2.41c-.66-.26-1.78-1.11-1.59-1.83-1.53-.21.04,1.21-1.5.81-.21-.09-.27-.2-.28-.33l-.12,1.17c-.24-.5-1.35-1.14-.7-1.28-2.18.14-.54,3.19-2.32,2.29v-.21c-1.02,2.2,1.13,1.45,1.44,4.18l-4.01-2.38,1.14,1.45c-.21.12-.64.35-1.09-.23.27,1.5.67.46,1.15,1.65-1.98-.38-1.65,2.75-3.89.87.7,1.27,1.52,0,1.36,1.53-2.46-1.98-.6,1.36-2.35,1.08-.92-1.37.37-1.45-1.38-1.75,1.5,2.38-1.84.99-2.09,1.98,1.51,1.57-.69,1.98-1.21,3.53-.45-.58-2.79,1.09-4.31,1.5l-.23-.29c1.37,1.74.09,2.44-.31,3.48-.9-.96-1.14-1.46-1.17-2.27l-.67.68c.34.66.39,1.13.13,1.75l-.99-1.33c-.84.97-.44,3.19-2.38,3.57,1.02,1.15,3.95,2.1,3.45,4.05-.63-.54-1.68-1.5-1.6-2.06-.03.18.11.86-.35.82l-.5-1.48c-.96.09.55,1.1.03,1.43-.83-.85-.91-.29-1.51-1.01.03-.19.72-.02.55-.51-.63.33-1.7.41-2.52-.04.52.43,1.13,1.13.89,1.59-.84.96-1.32-.7-2.27-.6.36.8-.82.77.42,2.04-.27.26-.9-.28-1.34-.51.09,1.02-2.02,2.34-.16,3.14l.21-.03s-.02.08-.02.13c-.28,2.77-3.89,2.47-4.87,4.52l-.42-.42c-.43,1.38-1.73,2.3-1.48,3.85-.27.27-1.4-.13-1.78-.75-.38,1.01.02,1.56-1.68,1.86-.03-1.43-.89-.41.18-1.25-1.26.54-2.14.07-1.96,2.18-.74-1.4-2.03-.67-2.14.07l1.4.14c-.32.64-.84.96-1.36,1.3l-1.18-1.64c-3.56.12-.4,6.24-4.68,4.77.5,1.47,1.7-.31,2.41,1.29-1.04.66-3.95-.49-4.22-.23-1.94.38.98,3.15-.77,3.82.66.35,2.15,1.54,1.72,2.93-1.03.66-3.15-1.07-3.02-2.01.16-.25.42-.18.58,0,.09-.46.23-1.03-.65-1.24l.39.61c-.93-.09-2.05,1.13-2.6.03-.16,1.12.55,1.1,1.29.89-1.82.36-1.72,1.68-3.33,2.31.46.1,1.21.53,1.03.7-2.27,1.02.23,1.68-.66,3.01-1.4-.14-1.61-2.06-2.08-.3-1.2.16-1.48-1.19-1.62-1.87-.05,1.99-2.54,1.27-3.3,1.67l.13-.94c-.08.56-.35.82-.62,1.08l1.31.7c-.49.14-.76.4-1.18-.02.33.98,1.92,1.43,2.18,2.97-.93-.09-.73,1.83-2.21.64,1.62-.79-.93-1.14-.72-2.2-.13.2-.35.34-.68.44-.2-.1-.23-.32-.22-.48-2.46.07.93,2.09-.41,3.37-.59-.92-1.73-1.12-1.79-.75.54-.51,1.51,1,1.6,2.07-1.43.25-.48,1.35-.99,1.72l.78-.23c.58.92.06,1.24-.29,2.07-.64-.54.13-.94-.34-.99.67,1.97-2.84.1-2.86,1.9-.93-.09-1.46-1.37-2.17-1.35-.04,1.99-2.13.07-2.4,1.95,1.32.7,1.13.4,1.36,2.14l1.05-2.47.34,2.6c.54-.52.48-1.76.97-1.9.29,1.36.09,1.06,1.19,1.64-2.24-.79-.55,2.32-2.42,2.14l-2.48-2.53c-2.38.14-.96,3.53-3.23,4.53l.96-.09c.78,1.22-.87,1.15-1,2.08-.79-.89-1.42-.86-2.17-1.15.65.59-1.26,1.14.27,2.96l-1.83-.37c-.2.09-.4.29-.54.52-.14.22-.21.46-.25.71-.07.5.03,1.03.15,1.55.28,1.09.64,2.08-.1,2.82-.72-1.27-2.02-.85-1.85-2.67-.5.63-1.06,1.14-.36,1.59-.43,0-.38.69-.35,1.34.01.66.08,1.32-.59,1.4.35.52,1.41,1.09,1.04,1.79-.25,0-.54-.21-.54-.21.54.23.34,1.44,1.79,1.24-1.04.17-1.69.65-2.03,1.3-.18.32-.3.67-.39,1.03-.07.37-.09.75-.11,1.12-.06.75-.02,1.49-.17,2.15-.18.67-.49,1.27-1.26,1.82.44,1.64,1.22,3.45,1.68,4.81-.37.01-.57.16-.52-.14-.24,1.14.71,1.18,1.59,1.2.45.01.89.02,1.19.17.32.15.51.42.45,1.03-1.25,1.84-1.43-.62-1.79.32-1.7.93-1.29,1.6-.56,2.22.75.63,1.69,1.19,1.28,2.49l-.42-.19c-.15.89.59,1.38,1.56,1.68.48.16.99.31,1.45.51.11.05.23.11.33.16.09.04.18.08.27.13.17.1.31.23.43.39,0,0-.3.19-.42.41,2.16-.65,4.07.33,5.52,1-1.41.75-1.06.09-1.95,1.38.63.32,1.62-1.9,2.88-1.25-.14.45-.17.98-.29,1.55-.11.58-.26,1.24-.77,1.9l-.6-.5-.48-.42c-1.14,1.91,1.47,1.29,1.82,2.1l-.68.64c2.28,1.39,3.58-.57,5.67.74l.09-.74c1.12-.77,1.18-.37,1.28.11.08.49.18,1.05,1.1.45-.15.79-.28,1.58-.39,2.37.27-.06.65-.15,1.08-.28.42-.15.9-.31,1.4-.49.97-.3,1.97-.78,2.72-.88-.5.82-1.28,1.38-2.13,1.83-.85.41-1.76.67-2.54,1.01.48.13,1.31.3,2.1.28.8-.06,1.55-.3,1.86-.85-.39.18-.97.68-1.28.26,1.48-1.65,2.83-2.39,4.48-2.42-.1,2.28,1.14,2.6,2.6,2.51.74,0,1.5-.14,2.24-.07.74.09,1.45.33,2.09,1.04.37-.35.74-.64,1.12-.88.37-.27.76-.5,1.17-.7.82-.37,1.65-.73,2.55-1.05.9-.32,1.78-.75,2.7-1.22.43-.27.85-.56,1.26-.88.21-.16.41-.33.6-.51.2-.18.28-.29.42-.45-3.3-1.75.56-.71-2.16-3.17.34-.66.57-.82.78-.7h-.21c.1,0,.15,0,.23,0h0s3.08,0,3.08,0c1.12.39.09,1.05.72,1.59,1.31-.91,1.57.63,2.99.59-1.08-.78-.94-1.72.05-1.99l-2.09-.3c.17-2.93,3.52.84,3.72-2.1l.32,1.31c.32-1.28,2.98-2.95,1.68-5.82.44.16,1.34.68,1.17,1.22,2.23-1.61,2.05-6.49,4.83-6.7l.49.78c.17-.54-.57-1.82.52-1.62.24.29.49.78.69.65-.03-.41-.16-2.06.68-2.17l.31,1.12c2.7-1.04,1.13-4.61,2.27-6.62,1.86,1.87,3.94,1.01,4.98.57l.24.29c2.41-1.95,2.16-5.25,3.44-8,3.28.77,5.09-3.4,8.24-4.27-.65-.03-1.41-1.51-1.23-2.05.85-.09.01-2.6,1.65-.81l-.2.14c2.04,1.32,2.56-.1,3.37-.81l-2.12-2.37c5.24,1.28,4-6.39,8-4.56-.08-1.04.52-1.63.43-2.66l1.18,1.23c1.63-1.02,2.45-1.53,3.8-3.46l.52,1.19c1-.85-2.3-4.63-1.51-5.55l2.05,1.54c1.59-1.64,4.79-1.7,4.76-4.92.24.29.71.85.52,1.19.81-.71,4.15-1.72,1.41-3.91,1.62,1.58,1.82-1.51,1.99-3.09l1.05,1.32c-.78-2.25-1.17-2.68-.56-4.13.4-.09,1.16.73.53.75,1.43-.19-.49-1.75,1.13-2.11l.39,1.12c.93-.74.45-1.08.03-2.42.05-1,1.88-1.28,3.07-.34-.54-.76-.95-2.09-.15-2.28.47.34.54.77.57.98,2.2-.59.7-3.45,2.82-3.25.41.37.67.51.87.54-1.14,1.08-2.09,1.91-2.1,1.74,1.09,1.09,2.18.39,2.97,2.6-.1-1.54-.66-4.55.73-4.91.15.06.29.13.49.26l.03.21c.31-.09.39-.37.38-.73.46-.1.77-.14,1.05-.4,1.01.8,1.51-.54,2-.94-1.23-1.16-.45-1.55-1.99-1.99.16.01.06.23-.19.57-.03.1-.09.2-.07.31-.02-.04-.05-.09-.07-.14-.26.33-.61.74-1.03,1.19-.25-.96-.39-1.84.76-1.67-.54-1-1.07-2.04-1.3-2.55,2.27,1.05,4.35.77,5.54,1.64.17-.51.43-.99.7-1.48l.4-.74c.04-.07.06-.11.11-.2l.18-.28.34-.55c.85-1.47,1.31-2.93.37-4.23.04-.27.28-.35.6-.36.43,3.64,1.61,5.96,2.29,7.2l.07.6c.62.77,1.11.98,1.48.86.35-2.61.3-5.97.52-8.23.86,1.63,1.47.98,2.03.02.58-.97,1.1-2.21,2.02-2.33-.3-.17-.77-1.34-1.02-2.22.39-.23.74-.46,1.04-.69,1.2,1.29,1.29-.18,1.63-.82l-2.11-3.12c1.96,1.28,2.28-.55,2.38-1.99.13-1.51.05-2.71,2.03-2.07-.46-.93-.21-1.5-.71-2.32l1.49.84c.24-.29.46-.54.65-.79.18-.23.39-.57.46-.66.18-.28.28-.63.3-1.18l1.03.67c.33-.48-4.21-2.61-4.09-3.14l2.39.86c.36-.94,2.81-.99,1.09-2.81.34.16,1,.48,1.03.67.25-.41,2.3-1-.96-2.22,2.08.89.61-.86-.09-1.76l1.5.74c-1.78-1.27-2.31-1.51-2.6-2.33.26-.05,1.28.41.81.42,1-.12-1.3-.99-.24-1.2l.89.63c.32-.43-.22-.61-1.25-1.37-.49-.57.78-.74,2.2-.21-.82-.43-1.84-1.18-1.32-1.29.54.19.82.43.96.55,1.39-.34-1.27-1.96.47-1.85.51.21.78.28.96.3-.31.62-.61,1.09-.71.99,1.41.61,1.88.21,3.66,1.46-.89-.87-2.9-2.57-2.02-2.79.15.04.29.07.52.15l.14.12c.19-.05.1-.21-.09-.41.3-.06.52-.08.6-.23,1.2.45.89-.31,1.05-.54-1.56-.65-1.17-.87-2.58-1.11.13,0,.16.13.16.33.03.06.03.11.11.18-.04-.02-.08-.05-.13-.08-.03.19-.09.42-.17.68-.7-.54-1.27-1.04-.29-.95-.94-.56-1.9-1.15-2.34-1.44,2.31.58,3.77.42,5.14.9-.53-1.15.22-2.08-2.48-3.83-.28-.38.94.11,1.44.22.24.25.13.39.51.64-.55-.76.28-1.44-1.71-2.42,1.16-.16,1.73,1.12,1.73.21l.58.37c3.83-.1-3.85-4.53.53-4.56-.17,0-.32-.02-.57-.11,2.66-1.11-.03-4.67,3.7-5.29.82-.28-.45-.9-1.3-1.65l1.71.6-1.68-1.39c-1.06-1.4,4.67.4,2.45-1.75l-1.18-.36c.33-.24-.06-1.19.77-.93l.04.12.02-.1c.08.03.16.05.26.1-.05-.03-.15-.09-.26-.16l.04-.25.62.26-.82-1.13c-.07-.16-.15-.3-.22-.42.97-.3,3.35,1.6,3.94.69-.17-.52-2.08-2.15-2.72-2.26Zm-31.78,66.76c.2.26.38.5.48.72-.13.47-.46.33-.75.13.12-.16.24-.37.38-.66-.03-.05-.08-.13-.11-.18Zm25.93-41.49c.15.26-.18.19-.51.08,0-.09,0-.21-.06-.38-.05-.03-.12-.07-.18-.1.29.14.56.28.75.4Zm1.92-23.8l-.12-.1s.07.02.12.1Zm-2.01-4.98c.41.2.49.64.36,1.06-.54-.22-1.08-.4-1.6-.54.3-.09.69-.25,1.24-.52Zm-3.16,1.15l.04-.17c.21-.09.39-.14.54-.19l.74.71-1.32-.35Zm1.47,2.16c-.16-.03-.32-.06-.46-.09-.01-.05-.03-.09-.03-.13v.12c-.15-.03-.28-.06-.4-.1-.08-.19-.15-.36-.17-.46.44.16.82.34,1.06.66Zm-5.96,8.15c-.05-.03-.11-.06-.16-.08l.11.07c-.14-.04-.27-.08-.39-.11.08,0,.15,0,.28.04l-.05-.03.24.12s-.03,0-.04,0Zm.55.11l-.11-.12c-.09-.3-.15-.56-.21-.79.75.45-.45.17.76.96-.15,0-.3-.03-.44-.05Zm-.37-1.13c-.1-.45-.14-.76-.12-.97.5.47.71.91,1.69,1.22-1.04-.16-.97-.08-1.57-.25Zm-.1-1.17c.11-.38.47-.22.63-.59.08.05.18.1.25.15.2.81.37.57.77,1.44-.61-.3-1.05-.65-1.65-1Zm.64-1.77c.04.28.08.51.11.72-.02,0-.04,0-.05,0,0-.19-.01-.41-.06-.72Zm-42.92,24.32s-.01.02-.02.03c0,0,0-.02,0-.03,0,0,.01,0,.02,0Zm-1.86-.52l.14-.52,1.37-.12c.06.1.12.2.16.29l-.48.97-.92-.8c-.04.13-.06.24-.07.34-.08-.06-.15-.11-.21-.16Zm1.81-.64s0-.02,0-.02h.02s-.01.02-.01.02Zm-1.2-.72c.04-.07.12-.06.21-.01h-.21Zm1.06,1.93c-.1.12-.25.14-.43.11.14-.03.28-.07.43-.11Zm16.27,15s-.01.05-.02.07c-.04.03-.07.07-.11.1.04-.05.09-.11.13-.17Zm5.41,6.25c-.01.1-.04.22-.06.35-.1.01-.2.02-.28.02.11-.11.21-.23.32-.38,0,0,.02,0,.03,0Zm-.51.52c.15-.03.3-.06.43-.09-.02.11-.05.22-.08.33-.11,0-.34,0-.75.04.13-.07.26-.16.39-.28Zm-7.25,13.27c-.17-.38-.85-.17-1.48-.24.28-.18.57-.46.86-.77.48.35.83.84.62,1.01Zm.38-2.14l-.02-.02c.16-.22.3-.41.39-.53-.08.11-.18.27-.37.55Zm6.41-9.3c-.65-.2-1.24-.42-1.52-.51-.28-.08-.23-.04.28.41.55.41,1.33,1.02,1.75,1.51.43.48.47.87-.28.66-.49-.6-1-1.17-1.54-1.72-.03.01-.05.03-.06.06-.01.03.01.04-.04.15-.06.16-.07.34-.05.51.04.35.21.71.34,1.04.27.67.42,1.22-.82,1.37-.39-.89.5-1.58.11-1.57-2.18-.39.29,1.56-.4,2.25l-1.59-1.3c-1.18,1.63-1.69,4.23-2.99,6.05-.34-.52-.53-1.23-1.33-1.31-1.25,2.69-4.37,4.02-7.13,5.06l.52,1.97c-.18.15-.88-.25-.93-.67-1.21.27.75.83.89,1.67-.33.51-1.27-.16-1.38-.8-.25,2.36-1.44,5.99-4.15,6.03l-.1-.64c-1.58.57,1.34,3.76-.81,3.59l-.03-.41c-2.86,1.78-4.29,5.49-7.94,5.38,1.46,2.13-3.1,1.5-.75,4.15-2.57.09-2.63-.74-5.33.29-.61.38.82,2.31.46,3.18l-1.32-1.29.53,2.21-2.01-1.12-.24.91c.31-.15,1.08.1,1.42.51-.31,1.5-3.11,1.29-3.81.64l-1.03,3.24c-.36-.43-.35-.85-.34-1.29-.07,1.53-1.58-1.44-1.42.66.44.16.7.85.94,1.14-1.31-.27-2.51.91-3.05,2.12l-.73-1.07c-1.81,1.36-2.91,3.78-4.71,5.54,1.06-.22,2.47,1.49,2.1,2.16l-1.59-1.17c.52,1.19,1.07-.02,1.42,1.71-.82.51-2.02-1.12-2.09-1.96l-.33,1.29c-.46-.36-.49-.77-.96-1.35.53,1.19-2.78,0-1.77,1.98l-.46-.37c-1.79,1.77-2.12,3.05-3.5,4.57,1.17,1.22.33,1.52.87,2.92-1.45.68-3.57.93-4.75,2.31-.31,1.5.75,1.27,1.05,2.39-1.15-1.02-2.33.36-2.45-1.08-1.36,1.72-1.75,2.18-2.82,5.01.66.23,1.09.19,1.34.68-.18.53-1.26.35-1.73-.22l-.02-.21c-.56,3.82-8.21,1.88-7.69,5.89v-.21s-.64,2.99-.64,2.99c-1.02.64-.32-1.31-1.61-1.37-.13,3.76-3.34,2.82-3.74,5.63-1.11-.49-1.93-.45-2.59-.11-.16.08-.32.19-.47.3-.11.07-.17.11-.25.19-.14.14-.26.33-.36.53-.47.7-1.12,1.71-2.26.59l.5.94c.12,1.11-.6-.38-.89-.55.31.77.69.79.7,1.39-1.19,1.16-3.09,1.04-4.51.23-1.47-.82-2.39-2.22-3.08-3.2-.27-.33-1.14.69-1.98,1.46-.41.37-.81.7-1.07.71-.25.01-.39-.27-.23-.98.57-.38,1.11-.78,1.64-1.2-.63.27-1.74-.43-2.5-1-.8-.61-1.49-1.33-2.18-2.06l-1.03-1.08-.53-.52c-.1-.1-.2-.2-.31-.29-.46-.33-.93-.64-1.7-.84.45-.13.95-.46,1.07-.3.43-.57.32-.91-.14-1.03-.45-.13-1.12-.16-1.67.08-.03-.38.93-.51,1.4-.93.29-.34-.18-.42-.64-.53-.47-.1-.82-.27-.15-.56.22-.1.48,0,.6.04-.36-.04-.39-.36-.54-.59-.12-.23-.33-.4-1.13-.13.17-.24.19-.45.14-.64-.04-.19-.12-.38-.21-.57-.2-.37-.3-.77.2-1.07-.94-.28-.65-.66-.47-.97.16-.32.26-.58-1-.95,1.33.32,1.93.08,2.09-.3.2-.37-.09-1.01-.53-1.52.68.49.97-.06,1.9.62.07-.25.09-.52-.08-.83-.17-.31-.52-.66-1.14-.98.82.16,1.19.12,1.32-.11.13-.23.04-.63.02-.98-.03-.36-.04-.72.17-.84.32-.2.84-.13,1.77.41,1.16-3.22,2.48-5.94,4-8.35,1.84,1.98-1.98,2.36.11,4.29,1.08-2.65.51-5.37,2.82-6.76.74-.22.56,1.1.72,1.59,1.08-2.65,3.78-3.43,4.39-6.13.17.18.19.56.17.87.27-.39,1.04-.48.13-1.31l-.08.55c-1.78-.74-1.34-3.94-1.95-4.66,1.94,3.05,2.27-1.01,4.53,3.02.05-.38-.09-1.06-.72-1.59.49-.15.93.09,1.27,1.07.7-1.64-.64-2.15.44-3.19.42.43.37.8.75,1.41-.28-1.36-.57-2.72.69-3.26.17.27.53.47.43.7,1.3-1.69.41-4.73,2.85-5.61,1.33,2.33,1.18.03,2.85,1.52l.44-1.38-1.13-.4c.82-.77.37-2.63,1.57-2.79l.06,1.24,1.19-1.79-1.44.24c-.01-1.62-2.09-1.92-.59-2.54-.05.38.81-.78,2.16-.26,0,0,0,0,0,0-.11-.9-.24-1.83.74-2.03.66.35,1.63,1.87,2.07,2.11-.94-1.71,1.5-2.23.58-4.13.17.5.99,1.34,1.21,1.45l-.75-1.4c.71-.02.93.09,1.54.81,1.31-.91-2.36-1.66-.18-2.11-.02.19.19.3.14.68,1.77-.87,1.87-3.24,3.61-3.92,1.95,1.24-.67,1.45,1.08,2.39,1.46-2.04,1.72-5.54,3.78-6.85l-.49.14c-2.02-2.48,2.37-.15,2.17-2.07-.04.38.97,1.52.78,1.22,1.52-.8,1.82-2.93,2.87-5.39l.36.8c1.2-.17,2.1-1.5,3.1-1.98-.36-.8.16-1.13-.94-1.71,5.57,1.01,2.58-6.11,7.34-5.39-.24.25-.07,1.08.12.89l1.19-2.25c-1.12-.84-.82-.37-1.94-.77-.36-.8-.33-1.74.1-2.16-.12,1.42,1.58,1.57,2.46,1.78-.36-.24-.57-.69-.91-.97,2.64.85-1.82-2.12.58-2.18l.45.58c.2-.72-.06-1.83.58-2.17,1.34.93.04,1.02.94,1.98.63-.76-.78-3.52.98-3.02.02.61-.4,1.04-.38,1.65,2.02.65,1.76.23,2.48-.07l-.08.02,1.78-.58-.66-.06c-2.09-3.83,1.23-2.31.47-5.42.69,2.97.87,1.25,2.07,2.62.66.06,1.51,0,1.74.49-.48-1.59,1.74-.11,1.01-2.41.45.38.63-.55,1.55.61.4-1.05-.89-.55-1.35-1.13-.3-2.52,4.33-.9,3.98-4.43.58-2.18-.56-3.83.02-5.8,1.09.23,1.15,1.86,1.15,1.86,1.31-.09,1.72-.72,1.9-1.85.23.49.67.66,1.33.93.42-.63-1.15-1.86.15-1.94.34.58.93,1.47,1.14,2.19.23-.96.1-2.27.33-3.27.04.27.24.35.51.33.34.53.28,1.19.47,1.71.06-.16.13-.34.21-.52l1.72-.53h0s.03,0,.03,0l.98-.3c-.08.11-.18.22-.28.31l-.38-.07c-.2.18-.2.32-.07.43-.59.43-1.18.75-1.01,1.52.73-.22,1.05-.84,1.4-1.33.21.06.47.12.75.16.05,0,.1.02.15.03-.37.77-.64,1.09.38.94-.43.59-.87.79-1.32.79,1.12-.1,1.6,1.09,2.92.3-.6,1.62,2.01,1.43.09,3.25.51-.24,1.82-.48,2.55-.32l-.17.14c.09.06.17.1.26.13-2.48,1.28,1.8,1.82-.74,3.92,2.64-1.38,3.18,1.39,5.41,1.39-.22.1-.67.3-.66.1.46.8.04,1.59.06,2.37.75-.68,1.42-.95,2.07-1.08.2.48.24,1.13.46,1.65-.53.23-1.08.52-1.59,1.22.66-.69,1.33-.69,1.95-.69.04.04.08.07.12.1.03-.04.05-.07.08-.1.37,0,.71-.04,1.01-.26-.24.26-.44.53-.52.82.24-.44.53-.68.82-.87-.24,1.1.01.77-.96,2.29.22-.2.4-.35.55-.47-.03.24-.2.48-.42.75-.31.36-.68.79-.7,1.46.79-1.07,1.6-1.06,1.78-.17.12-.68.26-1.33.43-1.97.66-.08.87.11.9.44-.36,1.21-1.25,1.52-.32,1.77-.02.21-.02.4.03.55-.49.55-1.51.5-1.51.5.49.53,1.02.18,1.57-.36.13.2.38.31.84.23-.34.2-.69.39-1.05.58.25.02.52.18.81.37-.05.09-.1.18-.13.27.18.07.22-.02.31-.09.02-.01.03-.02.05-.03.26.18.54.36.84.51.13.06.27.11.42.15-.09,0-.15.02-.25.03-.13.05-.14.08-.07.1.1.07,1.18.27.39.41.51.14.93.22,1.35.29.5.65,1.22.85,1.9.92-.1.05-.24.07-.42.07-.49,0-1.2-.17-1.84-.36Zm18.97-28.96c-.33-.21-.75-.09-1.27-.13.12-.1.2-.26.26-.44.55.19,1.08.47,1.01.57Zm-.83-1.21s-.02-.01-.03-.01c.01-.13.02-.23.03-.3,0,.06,0,.15,0,.31Zm5.43-7.74c.1-.13-.43-.38-.81-.63l.47.51c-2.01-.6-.51-.64-1.92-1.25.41.77,1.74,2.04,1.03,2.18-1.9-.73-.24-1.17-2.13-1.38l.97-.28c-3.15-.82.36-.27-2.98-1.22-.88.55.58,1.28-.31,1.83.96.62,1.56.61,2.53,1.23,1.39,1.91-5.08-1.16-2.94.73,1.16.75,3.49,1.85,1.98,1.89l-2.03-1.11c-.54.66,2.85,1.75,1.09,1.92-.77-.5-.44-.9-.75-.89-1.89-.21,1.04.88.87,1.27l-1.91-.73c-.05.93.92,2.4.87,3.44-.54-.29-1.06-.7-1.72-.74.45,1.53-1.26,2.3-2.84,2.9l1.44,1.11c-.06.09-.81-.14-1.08-.38-.8.16,1.02.46,1.56.94,0,.29-1.07-.08-1.49-.45,1.05,1.34,2.04,3.4-.04,3.43l-.41-.36c-.92.33,3.02,2.12,1.26,2.04l-.24-.23c-1.27,1.02-.43,3.13-3.3,3.09,2.25,1.2-1.61.86,1.6,2.35-.97.03-1.59-.04-2.07-.24-.5-.16-.94-.29-1.49-.49-.15-.05,1.86,1.27,2.09,1.66l-1.54-1.09c.52.42,1.03.88,1.52,1.37-.62-.44-1.22-.89-1.82-1.36.12.13.23.27.34.41.1.05.69.49,1.12.85.29.39-.03.33-.49,0-.46-.32-1.04-.89-1.39-1.28.35.49.68,1.05.98,1.68-.51-.7-.66-.99-.98-1.45,1.25,1.88-1.35-1.79-.21-.07.29.39.74,1.07.98,1.44-.79-.98-.83-.92-.6-.26l-.77-1.44c-.12-.13-.05.09.02.4.08.31.15.71.1.79.31.77,1.41,3.81,1.44,4.28l-.95-2.73c.53,1.81.41.91,1.03,3.21-.19-.12-1.06-3.15-1.34-4.1l.26,1.11c-.25-.83-.41-1.4-.72-2.45.27.91.03.23-.14-.34-.17-.55-.28-.99.14.7l-.24-.92s.06.52.11.98c.02.19.02.35,0,.37.46,2.84.3,2.15.53,4.32-.35-1.12-.68-3.32-.79-3.22-.07,1.12.04,2.07.01,3.45-.09-2.26-.25-2.22-.16-3.7-.2.16-.17.26-.7,1.5-.07.82-.05,1.22-.17,1.85-.14.22-.08-.99.08-1.88l.05-.18c-.43,1.2-.51-.46-.29-1.66.16-1.21.56-2-.19-.83-.34.44-.72.84-1.15,1.19.02-.36.73-.9,1.2-1.78-.84.97-.96.72-.91.49.07-.07-.05-.37-.2-.52-.16-.16-.42-.22-.9-.1,2.66-3.75-2.16-1.71-.85-4.5l-.71.8c-.93.55.2-.66.23-.98-.57.61-.47.89-1,1.18-2.52-.7-2.23-4.43-3.2-6.77-.18-.39-1.31.44-2.1,1.2-.79.76-1.49,1.21-.64.26.53-.4,1.05-.81,1.56-1.24-.97.71-1.18.48-1.23.33-.09-.18-.03-.28-1.34-.16.54-.11,1.21-.28,1.22-.26.78-.24.79-.26.39-.21-.39.05-1.2.14-1.91.26.11-.08,1.28-.22,1.99-.36.51-.09-.07-.02-.59,0-.52.03-.96.03-.04-.06.3-.03.62-.04.77-.05-.93.05.14-.11-2.09.01.48-.08.18-.12-.1-.17-.28-.05-.55-.13.13-.14-1.41-.09-1.15-.15-1-.19.14-.04.16-.07-1.92-.29,4.23.39,3.34.24,1.08-.21,1.4.24,1.37.17,3.32.51-.07-.03-.54-.14-1.67-.37-.66-.13-1.09-.21-1.76-.35,2.93.5,1.83.27,1.07,0-.79-.25-1.28-.5,1.96.37-2.03-.71-2.82-1.44-3.03-2.05,1.57.79,1.55.88,1.56.96,0,.09.04.18,1.9.93-.64-.33-1.57-.86-2.15-1.31-.59-.44-.81-.8-.23-.7.49.19,1.12.79,1.59,1.09-.42-.42-.16-.47.01-.53.19-.06.29-.14-.06-.79.18.2.35.43.47.6,0-.1.42.25-.45-.71l.17.29c-.71-.66-1.33-1.41-1.76-2.13-.44-.71-.69-1.39-.97-1.78,2.09,2.94,1.2.45,3.6,4.26-.11-.21-.38-.72-.87-1.41.23.16.5.57.97,1.38-.16-.66-.9-1.76-.58-1.87.28.53.33.76.64,1.38-.23-.53-.42-1.08-.49-1.46-.07-.38-.05-.57.35-.46.11.34.36.75.2.8.81-.55.27-3.49,1.68-2.87.74,2.5.67.64,1.61,2.67l.25-.84-.64-.91c.47-.16.22-1.83.9-1.33l.03.99.68-.76-.82-.57c0-1.26-1.17-2.58-.32-2.27-.03.26.46-.17,1.23.94,0,0,0,0,0,0-.06-.75-.12-1.54.43-1.18.37.62.91,2.3,1.16,2.72-.52-1.81.86-.94.35-2.89.09.47.55,1.55.68,1.76l-.42-1.48c.4.36.53.56.87,1.43.74-.02-1.33-2.52-.09-1.72-.01.14.11.34.08.6,1.01.26,1.07-1.52,2.06-1.13,1.1,1.98-.39.77.6,2.41.84-.81,1-3.37,2.18-3.31l-.28-.15c-1.13-2.98,1.34,1.13,1.24-.46-.03.27.54,1.69.44,1.35.87.18,1.04-1.3,1.65-2.66l.2.8c.68.5,1.19-.06,1.76.1-.2-.8.09-.79-.52-1.81,3.15,3.71,1.49-3.36,4.18-.3-.13.07-.04.8.07.75l.68-1.12c-.63-1.24-.46-.71-1.1-1.62-.2-.81-.18-1.51.07-1.62-.08,1.03.89,2.04,1.39,2.67-.2-.38-.32-.83-.51-1.22,1.49,2.04-1.02-2.6.34-1.38l.25.68c.11-.45-.03-1.44.34-1.37.75,1.42.02.81.52,2.03.36-.26-.42-3.13.57-1.82,0,.48-.23.59-.22,1.08.62.86.86,1.1,1.02,1.17-.57-.19-.81-.29-.46.24-.94-.1-1.69-.99-1.69-.99-.28.53,1.88,1.12,3,1.74.3.9-1.63-.35-2.76-.57.36.64,2.1,1.76,1.89,2.03-.34-.12-.49-.12-.88-.37,1.43,1.13-.47,1.31,1.34,2.69-.2-.04-.38-.1-.53-.15,1.06.36,2.1.8,2.83,1.13-.07.26,1.09,1.01-.28.53Zm10.74-11.03c-.28-.17-.54-.37-.11-.29h.02s.1.29.1.29Z"/>
  <path class="cls-1" d="m183.82,83.49c-.09.07-.14.15-.17.23.07-.06.14-.13.17-.23Z"/>
  <path class="cls-1" d="m181.67,88.75s0,0,0,0c0,0,0,0,0,0Z"/>
  <path class="cls-1" d="m224.87,88.2c-.08,0-.15,0-.23,0,.07,0,.14,0,.23,0Z"/>
  <path class="cls-1" d="m181.52,88.4c.09.15.13.26.14.34-.01-.16.14-.21-.14-.34Z"/>
  <path class="cls-1" d="m221.71,98.27s-.08-.08-.08-.12c-.15-.02-.28-.04-.39-.05.16.09.31.18.46.27,0-.03.01-.07.02-.1Z"/>
  <path class="cls-1" d="m204.78,80.03c.05.05.09.11.14.2-.05-.07-.07-.12-.1-.17l-.04-.03Z"/>
  <polygon class="cls-1" points="203.2 109.07 203.55 109.33 203.25 109.09 203.2 109.07"/>
  <path class="cls-1" d="m213.02,82.82c.07.13.15.26.25.36-.05-.1-.14-.23-.25-.36Z"/>
  <path class="cls-1" d="m189.95,96.27s0,.03.03.07c.2.27.13.16-.03-.07Z"/>
  <path class="cls-1" d="m195.37,90.5c.22.05.36.02-.02-.86.02.32.05.64.02.86Z"/>
  <path class="cls-1" d="m190.35,98.4s-.02,0-.05,0c.01,0,0,0,0,0h.04Z"/>
  <path class="cls-1" d="m194.93,90.66c.3.24.41.11.44-.16-.18-.05-.41-.13-.44.16Z"/>
  <path class="cls-1" d="m216.89,74.41l.85.16c-.37-.55-.87-1.29-.63-1.56-1.6-1.42.75,1.26-.22,1.4Z"/>
  <path class="cls-1" d="m214.47,74.42c.23-.43-.38-.87-.51-1.21.01.64.02.8.51,1.21Z"/>
  <path class="cls-1" d="m199.67,80.81l-.57-1.42c-.19.32.23.55.57,1.42Z"/>
  <polygon class="cls-1" points="199.99 89.32 200.63 90.08 200.2 88.73 199.99 89.32"/>
  <polygon class="cls-1" points="194.01 79.75 193.78 80.46 193.98 80.01 194.01 79.75"/>
  <path class="cls-1" d="m171.59,97.93c-.7-.22-3.92-.44-2.68,0h2.68Z"/>
  <polygon class="cls-1" points="213.93 124.05 213.87 122.85 213.65 123.09 213.93 124.05"/>
</svg>
