<?xml version="1.0" encoding="UTF-8"?>
<svg id="Layer_1" data-name="Layer 1" xmlns="http://www.w3.org/2000/svg" viewBox="0 0 200 200">
  <defs>
    <style>
      .cls-1 {
        fill: #fff;
      }

      .cls-2 {
        fill: #202020;
      }
    </style>
  </defs>
  <rect class="cls-2" width="200" height="200" rx="28.37" ry="28.37"/>
  <g>
    <path class="cls-1" d="m21.44,22.27c.84-3.63,3.8-6.39,7.45-7.15,6.38-1.33,14.68-3.81,34.54-4.96,27.92-1.61,27.12-1.07,31.41-2.15,4.3-1.07,14.77-1.88,19.87-2.95,3.31-.7,8.21-.49,11.24-.26,1.79.14,3.34,1.28,4,2.95.8,2.01,1.53,4.69.6,6.37-2.82,5.11-17.99,5.11-30.61,5.11s-16.92,1.68-17.18,3.83,2.42,30.34.81,35.71c-1.61,5.37.54,5.91-.81,14.5s-.54,11.54-.54,13.43,2.95,9.67-4.56,10.2c-7.52.54-7.52-2.42-9.13-4.3s.67-21.61.94-26.18-1.07-19.87-1.48-24.84,1.07-17.86.27-18.93-17.56,1.07-21.06,2.28c-3.49,1.21-8.73,5.37-13.96,5.24s-8.86-3.49-11.14-4.7c-.9-.48-1-1.73-.66-3.2h0Z"/>
    <path class="cls-1" d="m106.32,36.46s7.27-3.36,14.26-4.97,8.38-2.85,12.11-3.79,9.88-1.74,11.43.9,6.27,9.5,5.33,20.06.47,17.54,2.64,20.96,8.07,13.66,3.57,16.61c-4.5,2.95-7.92,1.71-14.28,1.4-6.37-.31-6.83-1.09-13.2.31s-14.28-3.57-15.68-6.37-.47-5.75,8.54-7.3c9.01-1.55,16.77-2.33,16.15-4.81s-3.88-11.8-3.1-15.99-.47-5.9-5.43-6.68-9.32,3.42-14.91,1.61c-2.61-.84-6.36-4.41-7.92-5.96s-1.68-4.13.49-6h0Z"/>
    <path class="cls-1" d="m67.2,120.06c1.85,7.68,3.55,7.97,4.33,10.8s2.71,3.3,4.75,3.14c2.04-.16,8.33-14.61,9.9-18.54,1.57-3.93,1.54-8.17,4.68-8.8s7.07-2.99,10.06-3.77,8.64,3.77,7.54,19.17c-1.1,15.4.79,28.76,1.1,33.79.32,5.03,1.1,19.02,1.57,21.84s2.51,1.26,2.51,4.4.63,12.44-4.24,13.13-7.39-.56-11.63-3.86-3.46-15.24-4.4-24.2.9-25.47-.79-26.09-3.92,6.29-6.29,11.32-8.64,7.07-14.77,3.46-11.32-15.4-12.1-12.1-.63,25.46,0,28.44c.63,2.99,4.87,7.54,3.77,11.63s-4.4,10.21-9.43,6.76-8.8-4.87-9.74-16.5-2.04-19.96-2.04-25.77-.12-29.39-.16-31.43c-.08-4.24,4.37-5.25,6.7-7.54,2.83-2.78,10.42-6.44,13.57-.55,3.14,5.89,4.04,6.88,5.1,11.28h0Z"/>
    <path class="cls-1" d="m133.2,110.04c3.02-3.26,4.75-3.39,9.28-5.47s11.46,3.99,12.11,5.07,6,14.39,6.43,19.57,9.45,28.71,9.88,31.95,7.24,18.9,7.68,21.49.48,9.43-7.29,8.35-8.68-1.89-9.98-8.15-8.04-31.97-9.33-35.87-3.67-14.02-6.04-13.4-2.06,14.9-2.37,20.72c-1.34,24.61,2.57,32.81,1.06,35.83s-5.1,5.83-12.09,2.4c-6.43-3.15-3.85-10.79-3.43-22.04.36-9.71.65-30.87,1.29-37.99s0-19.43,2.81-22.45h0Z"/>
  </g>
</svg>