<?xml version="1.0" encoding="UTF-8"?>
<svg id="Layer_1" data-name="Layer 1" xmlns="http://www.w3.org/2000/svg" viewBox="0 0 200 200">
  <defs>
    <style>
      .cls-1 {
        fill: #fff;
      }

      .cls-2 {
        fill: #070709;
      }
    </style>
  </defs>
  <rect class="cls-2" width="200" height="200" rx="44.42" ry="44.42"/>
  <path class="cls-1" d="m152.12,100.05c-1.02-1.59-1.97-3.23-3.07-4.76-2.71-3.75-5.61-7.36-8.22-11.18-4.26-6.27-8.37-12.66-12.51-19.01-2.63-4.03-5.18-8.1-7.77-12.16l-.29-.34-1.58-3.69c-.1-.13-.2-.25-.29-.39-.06-.1-.09-.21-.08-.33-.09-.14-.18-.27-.27-.41-.71-1.35-1.29-2.79-2.15-4.03-1.29-1.85-3.18-2.59-5.44-2.21-3.4.57-6.79,1.24-10.19,1.77-3.95.61-7.79,1.7-11.55,3.01-1.08.38-2.07,1.03-3.07,1.6-1.03.59-2.05,1.04-3.31.88-.71-.09-1.45.08-2.18.14-.38.08-.76.15-1.14.24l-.71.18c-.25.08-.51.15-.76.23-1.72.41-3.45.81-5.17,1.22-.13.1-.27.19-.4.29-.36.02-.72.05-1.08.07-.15.09-.29.19-.43.29l-4.39,1.2c-.12.1-.25.2-.37.3-1.49.73-2.64,1.8-3.34,3.33-.1.12-.19.25-.29.38-.14.32-.32.64-.4.98-.66,2.87-.27,5.77-.29,8.66.19.87.38,1.75.57,2.62.17.73.35,1.47.52,2.2.08.25.16.5.24.76.05.49.08.98.13,1.48.08.13.17.27.25.4.32,1.85,1.31,3.43,1.95,5.15.1.12.2.23.3.35.15.38.3.76.45,1.13.02.25.05.5.07.75-.05.12-.1.24-.15.36-.1.12-.2.25-.29.37-.53,1.33-1.06,2.66-1.59,3.99-.18.16-.44.29-.53.49-.95,2.32-1.88,4.66-2.8,6.99h0c-.09.12-.19.25-.28.38-.16.57-.33,1.14-.49,1.71-.2.22-.49.4-.59.66-.79,1.92-1.56,3.85-2.29,5.78-.41,1.09-.72,2.22-1.07,3.33-.15.36-.3.73-.45,1.09-.09.13-.19.25-.28.39-.03.23-.07.47-.1.7-.09.14-.19.27-.28.41-.03.23-.07.46-.1.69-.09.14-.19.29-.27.42-.28,1.1-.55,2.21-.83,3.31-.09.13-.19.26-.29.4-.4,1.1-.8,2.21-1.2,3.31-.09.13-.18.26-.27.4-.04.24-.07.47-.11.71-.09.13-.19.27-.29.4-.15.49-.3.97-.46,1.47-.09.13-.19.26-.28.39-.05.24-.09.49-.14.73-.39.83-.83,1.65-1.14,2.52-.61,1.71-1.48,3.37-1.48,5.26-.22.75-.45,1.49-.67,2.24-.1.13-.2.25-.3.39-.02,3.34-.71,6.68,0,10.02.1.14.19.28.29.42.53,2.53,1.43,4.9,2.97,7,.24.41.47.81.71,1.22,1.88,3.71,4.83,6.29,8.54,8.06.13.1.26.2.39.3.61.17,1.22.35,1.83.52,1.51,1,3,.63,4.51,0,2.75-.71,5.05-1.96,5.97-4.9.1-.13.19-.26.29-.39.15-.49.3-.97.46-1.46.09-.12.19-.25.29-.38.39-.74.8-1.48,1.19-2.22.09-.14.19-.27.29-.41.03-.23.07-.47.1-.7.09-.14.18-.27.27-.41.15-.48.3-.97.46-1.44.09-.14.19-.27.29-.41.04-.24.07-.47.11-.71.08-.13.18-.26.26-.39,0-.12.02-.24.08-.34.1-.13.19-.25.29-.39.27-.73.55-1.48.82-2.21.1-.13.19-.25.29-.39.15-.36.29-.73.44-1.1.1-.14.19-.27.29-.41.66-1.47,1.31-2.94,1.96-4.41.09-.11.19-.22.29-.32,1.38-2.98,2.76-5.96,4.14-8.94.1-.12.19-.25.29-.38.52-1.23,1.04-2.46,1.56-3.69.1-.13.19-.26.29-.39.28-.73.56-1.48.83-2.21.09-.14.18-.28.27-.42-.02-.12.02-.22.08-.32.1-.15.21-.29.31-.44.34-.59.77-.56,1.17-.12.29.32.49.71.73,1.07,2.6,3.9,5.21,7.8,7.79,11.71,6.65,10.07,15.51,17.62,26.26,23l.37.3c1.18.52,2.36,1.07,3.55,1.54.76.3,1.56.51,2.34.76.14.1.27.19.41.29.24.02.48.05.72.08.13.08.26.17.39.25.36.05.77,0,1.09.14,1.82.8,3.55.09,5.26-.32,2.06-.49,3.56-1.92,4.6-3.71,1.05-1.83,1.92-3.76,2.86-5.65.1-.12.2-.22.31-.34.76-1.98,1.53-3.98,2.29-5.96.09-.14.19-.28.28-.41.55-2.07,1.15-4.12,1.62-6.21.32-1.41.45-2.87.7-4.29.32-1.88.74-3.76,1.02-5.65.21-1.44.08-2.96.43-4.36.86-3.44.73-6.93.87-10.4.12-3.06-.29-6.06-.93-9.04-.1-.14-.19-.27-.29-.41v.02Z"/>
</svg>